<svg xmlns="http://www.w3.org/2000/svg" viewBox="0 0 897.91 888.76"><defs><style>.cls-1{fill:#fff;}.cls-2{fill:#dc143c;}</style></defs><g id="Layer_2" data-name="Layer 2"><g id="Layer_1-2" data-name="Layer 1"><path d="M0,609v44a14.54,14.54,0,0,1,.79,2.27c3.27,18.82,9,36.78,18.36,53.52a25.29,25.29,0,0,1,2.49,8c2.77,15.71,5.29,31.46,8.1,47.16,1.14,6.43,2.79,12.77,4.51,20.51L28,781c-.64,5.48,3.9,7.24,6.5,10.14,2.92,3.24,5.38,12.85,3.32,15.56-7.55,9.87-10.71,21.67-14.69,33.1a9.16,9.16,0,0,0-.13,3.67,1.32,1.32,0,0,1,1.08,1.28l.47.06,15.7-34.19c4.06,9.1,4.41,18,8.39,25.42l1.52-.5c-3.1-13.85-6.19-27.7-9.08-40.63,4.59-2.08,8.56-3.47,12.1-5.59s2.36-6,1.36-9c-1.13-3.51-4.33-2.71-6.78-2-3.13.92-6.07,2.49-9.8,4.09-3.7-17.14-7.24-33.87-10.95-50.57-1.79-8.07-2.38-16.88-6.14-24-11.19-21.08-18-43.23-19.42-66.94-.47-7.51.45-15.1.73-22.46,5.55,1.38,9.8,2.91,14.17,3.43,13.22,1.57,26.48,2.76,39.72,4.08,16.81,1.68,33.62,3.28,47,15.44.76.69,2.13.69,3.22,1l.82-1.11c-1-1.59-1.65-3.61-3-4.7-7.16-5.62-13.95-12.09-21.92-16.25-16-8.33-33.85-9.14-51.45-10.4-8.22-.59-16.47-.83-25.38-1.26,2.81-5.86,6.66-9.29,12.33-10.76,15.77-4.08,31.57-3.14,47.57-1.31,13,1.49,22.14,8.43,29.71,18.15,4.66,6,8.8,12,10.6,19.92,2.49,10.86,6.64,21.33,10.08,32l-1.48.79-10.57-3.72c-1.36,4.17-.08,5.93,3.54,7.67,8.08,3.86,15.83,8.42,23.58,12.92,2.48,1.44,4.55,3.6,7.62,6.09-16.4,3-31.59,5-47.09,1,2.6,1.78,5.27,3.57,8,3.71,9.74.49,19.52.57,29.28.48,5.78-.06,11.56-.72,18-1.15-.06-.26.05-1.9-.71-2.64-4.87-4.75-9.43-10.07-15-13.74-6.88-4.48-9.85-9.77-10.48-18-1.19-15.65-9.86-28.42-18.75-40.76-4.23-5.88-9.09-11.3-13.66-16.93,32.16,25.47,51.28,60.28,68.79,96.38L149.38,695l.48,1.67a44.48,44.48,0,0,1-6.23,3.08c-12,3.77-24.38,6.72-36.13,11.22-15.35,5.86-25.31,20.95-24.83,35.41.16,4.83,2.17,6.6,7.08,6.28,3.73-15.46,10.5-24.67,19.79-27-15.74,16.1-21.65,33.58-15.45,47,0-12.07.57-23.54,7.67-33.41,6.89-9.59,15.95-16.37,27.87-22a45.9,45.9,0,0,1-10.46,19.45c-1.41,1.58-1.93,4-2.85,6l1.49,1c1.26-.91,2.93-1.56,3.73-2.78,3-4.54,6.58-9,8.25-14,2-5.93,5.42-10,10.08-13.7,4.92-3.93,9.4-8.4,14.59-13.09a24.64,24.64,0,0,0,20,2.28,65.78,65.78,0,0,1-10.3,4.82c-1.51.57-3.76,1.61-4.63,1-4.88-3.49-7.55,0-9.91,3a72,72,0,0,0-15.25,45.49c0,1.48.78,3,1.19,4.42l1.74.36c.83-1.67,2.06-3.26,2.41-5,1.61-8,2.91-16,4.46-24,.68-3.53,1.68-7,2.65-10.94,9.15,9,14.31,9.33,23.49,1.69,5.24-4.36,10.17-9.09,15.42-13.45,7.89-6.53,16.22-11.51,27.14-12,11.26-.53,22.49-2.45,33.62-4.38,9.25-1.62,18.34-4.14,27.84-6.34-.53,1.21-.92,2.27-1.43,3.26-6.3,12.1-7.91,24.81-3.29,37.66,3.54,9.82,8.34,19.18,12.49,28.78,1.33,3.08,2.37,6.28,3.41,9-4.21,1-7.54,1.45-10.55,2.66-29.44,11.91-58.81,24-88.25,35.92-5.89,2.37-12,4.19-18,6.26,9.11-8.07,18.58-15,27.92-22.17,1.91-1.46,4-3.32,4.83-5.45,5.77-15.39,17-25.53,31-33.19a35.09,35.09,0,0,0,4-2.94l-.75-1.42c-1.93.62-4.06.91-5.76,1.92-18.07,10.76-37.57,19.18-53.2,33.88-12.85,12.09-28.28,20.44-43.89,28.36-13.49,6.85-15,6.86-25.27-4.14Q82.85,779,58.83,751.9C35.49,725.61,16.2,697,7.83,662.12a8.22,8.22,0,0,0-1.09-1.92,8.75,8.75,0,0,0-.22,5.71,202.76,202.76,0,0,0,37.29,74.41c3.87,4.92,8.17,10.16,9.91,16,6.38,21.25,17.14,40,30.35,57.54,16.49,21.89,36.85,38.31,64.13,44.81,3.4.81,6.79,1.67,10.18,2.51,0,.53,0,1.05,0,1.58L141.11,864a39.67,39.67,0,0,0,4.2,5.14c6.82,6,13.78,11.89,20.69,17.81h14c13.69-1.31,27.37-2.79,41.09-3.84,6.24-.47,12.54-.08,19.06-.08,1-3,1.88-5.87,2.86-8.67a16.69,16.69,0,0,1,1.5-3.06c1.17-1.88,3.05-3.56,3.55-5.58,5.39-22.15,10.52-44.36,15.92-66.5.47-2,1.95-4.48,3.6-5.14,2.76-1.1,6-.91,9.92-1.36-1,2.58-1.57,4.26-2.23,5.93-4.91,12.54-10.11,25-14.65,37.66-3.68,10.29-7.3,20.72-6.76,31.77a13.11,13.11,0,0,0,5.39,2c.08-.26.16-.52.23-.78a1.29,1.29,0,0,1,2.5.23c1.67-.93,2.92-3,3.91-6.2,6.89-22.42,14-44.78,20.47-67.31,1.54-5.34,4.51-6.78,9.15-6.87,10.83-.22,12.27-1.1,15.7-11.26,4.47-13.25,10.39-25.09,26.33-28.23-.39-3.18-.65-6-1.08-8.69-2.09-13.46,4.61-23.68,18.38-27.48-2.13,5.83-4.17,11.42-6.22,17l1.31,1.09,26.34-13.59c-.69,5.12-1.2,8.93-1.84,13.74,5.4-2.17,4.54-6.53,5.24-9.74.79-3.68.73-7.54,1-11.32h1.57l1.37,9.57,42.58-21.09c-1.17-3.06-2.64-6.9-4.1-10.74l1.48-.67,9.87,17.46a42.94,42.94,0,0,1-4.85.45c-8-.31-14.87,2.68-21.48,6.94-6.83,4.4-14,8.29-21,12.44-1.19.71-2.27,1.62-3.73,2.67,3.46,3,5.74.55,8-.59,13.65-6.8,25.34-18.07,42.13-17.78,3.87.07,5.26-3.2,3.42-6.93-2.94-5.94-6-11.84-9-17.69,6.27-6.91,6.49-10.68,1.07-19.22,2.11-1.8,4.05-4,6.46-5.33,1.67-.94,5.25-1.64,5.79-.88,2.22,3.13,4.74,1.45,7.14,1.21q27.28-2.73,54.58-5.57c.8-.08,1.61-.21,2.41-.35a1.41,1.41,0,0,1,.89-2c-6.49-.19-13-.44-19.46-.53s-13-.06-19.54-.07c7.55-.61,15.09-1.16,22.62-1.88,3.14-.3,6.93-.07,9.21-1.74,7.06-5.18,14.21-10.54,20.08-17A54.61,54.61,0,0,0,525.7,621c.09-.48.18-1,.26-1.43a1,1,0,0,1,1-.92c4.64-9.16,7.25-19.31,9.85-29.17,4.31-16.38,7.6-33,14.46-48.6,2.06-4.67,5.11-8.89,8.21-14.17-6.23-9.51-5.86-19.9,2.53-29.75v-5c-2.67-3.15-6.66-5.9-7.73-9.52C552.06,475,548.42,469.22,542,465c-3.13-2.08-5.93-4.67-9.28-7.35l16.63-14.73-1.17-1.41c-8.41,4.22-14.2,12-21.73,17.54-11.15-6.78-19.22-16.22-26.15-26.89,10.48,4.75,15.16,16.44,24.86,21.54l3.79-3.75c-.4-1.85-.8-3.69-1.48-6.8,9-8.2,18.78-17,29.11-26.42H544.25v-1h14.67l.15-2.06-29.64-1.47c1-2.21,1.38-3.29,1.92-4.3,3.48-6.57,2.41-10.9-3.37-15.78a23.08,23.08,0,0,1-5.46-6.74c-2.4-4.56-5-8.74-10.2-10.36a12,12,0,0,1-7.53-6.52c-4.09-7.82-8.9-9.87-17.31-7-5.69,1.93-11,1.4-16.67.59-3.53-.51-7.24.25-12.4.52-10.64-12-22.28-25.92-39.32-33.56-4.89,7.41-9.1,15.25-20,10.55-.4,2.4-.72,4.3-1,5.95l-30.7-9.26c-12.49,16.64-25.94,33.59-32.31,54.8-.63,2.09-.65,4.36-1,7.15h26.51c-1.59,7.5-3.08,14.55-4.57,21.61l1.33,1.46,22-11.6.78.9c-4.52,8.41-9,16.82-14.12,26.28,19.33,2.47,34.15-6.78,49.43-14.11,4,1.11,7.93,2.73,12,3.23,11.52,1.41,21.7,5.82,31.07,12.49a37.74,37.74,0,0,0,8.33,4.46c5.28,2,8.47,8.38,7.9,13.82-.54,5.15.19,10.46.61,15.68.22,2.76,1.33,5.49,1.38,8.24.31,18-4.45,34.89-12.48,50.88C459,542,452.67,552,454,565.92l-4.36-5.68-1.66,0c-.18,6.47-.36,13-.57,20.65l-9.57-7.21c-1.82,8.27-3.41,15.55-5,22.77H425a44.29,44.29,0,0,1,2.33-5.79c4-6.88,8.24-13.66,12.32-20.51,7.65-12.84,15.36-25.65,22.78-38.63,1.34-2.35,1.43-5.41,2.28-8.86H430.18c2.09-15.74,2.82-31.28,12.92-46l-23-1.24c1-4.69,2-9,3.1-13.9-2.44-1.18-5.11-3.2-8.06-3.77-9.45-1.81-19-3.7-28.54-4.45-13.89-1.08-28,.19-41.56-4.23-.69-.22-1.57.19-2.63.35-.38,8.05-.75,16-1.18,24.89l-16.36,2.13c5.68,17,5.25,34.65,7.82,51.56a50.48,50.48,0,0,0-5.88,2.52,54.23,54.23,0,0,0-5.18,4c-1.31-9.31-5.87-15-15.07-19-.07.16-.11.29-.17.44a1.23,1.23,0,0,1,.36.58,1.33,1.33,0,0,1-.13,1,1.44,1.44,0,0,1-.48.47c.54,2.35,4.37,2.48,4.79,4.18-.44,6.85-.84,13.09-1.25,19.45l-9.13,2.88c.65-9.41,1.24-17.95,1.82-26.23a1.46,1.46,0,0,1-.5-.29,1.29,1.29,0,0,1-.37-.91,1.26,1.26,0,0,1,.37-.9,1.36,1.36,0,0,1,.39-.25l-70.91-3.83c6.65-12.29,7.51-26.22,9.91-39.77a27.49,27.49,0,0,1,1.29-4.23c1.49-4.29,4.1-8.52,4.29-12.85.41-9.77-.5-19.58-.61-29.38-.06-5.05,1.62-10.39-3.71-14.05-.46-.33-.46-1.56-.42-2.36.4-8.47.79-16.94,1.33-25.39.13-2.12,1.46-4.35,1-6.27-2.39-11.31-5.65-22.29-14-30.95-1.35-1.39-3-3.15-3.2-4.87-.61-6.2-3.94-9.66-9.54-10.7-3.16-9.83-6.11-12.2-10.48-8.62-3.37-5.28-8.52-7.59-14.43-8.88-1.72-.38-3.21-1.88-4.8-2.86h-4c-7.68,1.06-14.95,6.4-23.18,2.08a9.14,9.14,0,0,0-4.85-.73c-2.58.21-5.12.87-8.25,1.45a21.44,21.44,0,0,1-4.19,2.7c-7.39,2.91-14.89,5.55-22.3,8.43-8,3.09-14,7.43-15.38,17.08a40.09,40.09,0,0,1-6.44,16c-5.51,8.25-8.69,16.75-7.41,26.69.38,3,1,5.9,1.35,8.86,1.11,8.15,2.17,16.32,3.38,25.47l4.24,5.27-1.66.21c-.72,3.05-1.8,6.06-2,9.15a36.44,36.44,0,0,0,.74,8.42c2.19,14.21,6.37,27.78,19.56,35.45,6.15,3.57,7,8,7,13.76,0,2,.18,3.95.27,5.93-8.78,7.18-12.3,17.77-17.48,25.94-4,1.21-7.3,1.86-10.29,3.15-19.67,8.47-38.3,19-54.49,32.94C31,569.22,21,580.89,10.27,591.79c-2.16,2.2-5.21,4.08-2.93,7.05-1.63,3.09-2.78,5.65-4.28,8C2.43,607.78,1,608.26,0,609ZM385.57,407.6c.64-1.2,2.53-1.74,3.84-2.59l1.16.86-13.4,26.6c12.52-2.43,22.81-8.32,33.59-12.87-12.11,6.67-23.84,14.4-38.76,14.45C376.65,424.92,381,416.2,385.57,407.6Zm11.77,14-4.13-4.78C395.51,402,396,401.35,404,402.38c.7,4.93,1.35,9.47,2.15,15.07ZM396,349.3c-9.12,8.86-23.17,10.35-32.25,20.16l11.4,5.32-.62,1.4L358,369.55c8.14-10.44,20.6-13.21,30.3-19.93l0-1.68-17-5.43c-4.29,6.2-8.42,12-12.33,17.91-1.1,1.67-1,4.4-2.42,5.51-8.46,6.82-9.91,17-14.55,27.19h20.92l-.06,1.36H337.52c6-21.14,18.83-37.81,31.19-54.53l22.64,6.18-.79,3.86,4.81-1.78ZM365,383.11l-9.17-.65,4.44-2.91v-5.71l12.63,4.9-8.19,11.73-1.48-1C363.74,387.54,364.28,385.56,365,383.11Zm-8,2.68-3.45,5.46-2-1.22,3.08-5.73Zm-10.58,4.57c.72-5.32.72-5.32,4.36-4.87C350.42,390.77,350.36,390.84,346.38,390.36ZM446.05,375c.29.37.84.76.82,1.11-.68,8.72-1.37,17.44-2.21,26.15-.08.93-1.08,1.76-1.66,2.64a43.38,43.38,0,0,1-6.28-1.1c-3.61-1.18-7-3-10.67-4-15.88-4.21-31-1-45.61,5.44-6.17,2.74-12,6.18-18.56,9.58,0-1.93-.45-3.67.08-5,3.27-8.29,5.58-17.29,10.45-24.55,9.49-14.14,20.46-27.3,31.24-41.41Zm-14.58-34.4-7.54-3.4c-10.95,8.9-11.46,9.11-14.34,6.32l12.21-10Zm-6.19-.58-4.53,3.5-.6-.81,3.79-3.51,1.38.23a22.82,22.82,0,0,1-.06,3.51c-.06.39-.88.66-1.9,1.37C424,342.87,424.38,342.06,425.28,340.06Zm16.61,8.69-1,1.11-8.13-8.24Zm11.94,21.11-5.14,4.25L418,350.87,420,346.1c6.71,5.68,6.71,5.65,15.51,4.95.8-.06,1.66.6,2.49.93l9.23,9.91ZM479,368.25c-3.65,3.21-6.88,5.75-9.7,8.67-1.55,1.61-3.24,3.79-3.46,5.86-1.13,10.87-1.81,21.79-2.63,32.4-7.51,4.22-9.38,3.5-11.77-4.26,3.44-.1,7.54,1.52,10.06-3.92-1.64.43-2.35.6-3.06.81-6.46,1.9-8.47.58-8.35-5.94.12-6.81.46-13.61.87-20.4.24-3.84,10.43-15.5,14.08-16.35a3.36,3.36,0,0,1,1.48,0C470.35,366,474.17,367,479,368.25Zm25.77,8.5c-3.78,2.45-7.61,4.63-11.05,7.29-2.2,1.7-4.66,3.81-5.57,6.27-2.47,6.67-4.3,13.59-6.14,20.48-.76,2.86-.9,5.89-1.48,9.92-2.62,2.58-6.87,1.48-10.15-.35-1.66-.93-2.45-4.78-2.34-7.26.41-9.76,1.33-19.49,2.14-30.36h17.67l.69-1.8c-2.72-1.35-5.39-3.63-8.18-3.78-3.07-.17-6.25,1.63-9.46,2.6,2.22-2,4.65-3.9,6.83-6.07s4-5,6.35-7c6.68-5.62,12.62-4.27,16.35,3.32A77.23,77.23,0,0,0,504.76,376.75Zm3.42,49.7,23.31-7.26,5.84,4.72-9.63,4.66-.12-.5-10.14,3Zm-3-4.19c-4-.07-8.08.49-12.12.57-5.34.1-8.77-4.69-7.15-9.83,1.9-6,4.18-12,5.64-18.09,1.12-4.71,3.25-7.92,7.55-10.34,3-1.66,5.15-4.69,8.29-7.7,7.27.85,9.45,7.61,12.59,13.56-6.64,2-21,23.72-19.38,30.2a36.4,36.4,0,0,0,3.61-4.22c3.82-6.24,7.36-12.64,11.29-18.81,4-6.34,8.3-6.48,13-.64a33,33,0,0,1,2.58,4.36,71.17,71.17,0,0,0-4.1,6.36C522.48,416.77,515.87,422.45,505.16,422.26Zm-11.83,4.35c.08-.58.17-1.17.26-1.75l8.13,1.17c-.09.64-.19,1.27-.28,1.9Zm-11.79,56.73c4.9,2.2,10,5,15.42,6.83,10.5,3.56,21.09,2,31.44-.9,9.47-2.69,18-2.19,25.28,5.25.76.78,2.2.88,3.33,1.3.17-.49.35-1,.52-1.49-7-9.25-17-10.21-27.42-8.79-3.71-7.37-2.8-21.63,2-24.77a44.5,44.5,0,0,1,2.68,6.2c2.47,9.27,8.31,15.64,16.53,20.22a22.23,22.23,0,0,1,6.18,4.91,5.11,5.11,0,0,1,.54,4.69c-4.95,8.43-10.22,16.67-15.43,25C515.14,523.71,482.06,502.44,481.54,483.34Zm-2.76-38.86,11.65-1.24c9.11,12.07,19.05,16.23,24,12.48,10.33,3.06,12,10.54,10.8,19.78-.38,3.12.63,6.41,1.1,10.48-10.23,2.24-20.76,3.65-31-2-4.53-2.5-7.69-5.6-8.92-11.14-1.78-8-4.73-15.81-7.09-23.73A27.91,27.91,0,0,1,478.78,444.48Zm-1.43-4c-7.9-.31-14.18-4.6-20.28-8.89-8.95-6.3-18.87-9.58-29.59-10.8-7.53-.87-14-3.54-18.2-11.29l38.56,3.23c-.22.49-.43,1-.64,1.47,2.36,2.19,4.42,5.55,7.16,6.24s6.39-1.13,10-1.94c2,3.91,5.31,6.69,10.36,6.5,7.85-.28,14.31,3.36,19.59,8.29,6.64,6.19,12.28,13.45,18.77,20.73-12.5-1.19-17.88-10.71-24.91-19.59-.16,2.53-.24,3.89-.38,6.07C484.2,440.47,480.77,440.59,477.35,440.45ZM129.44,525.83c11.3,13,25.83,21.8,40.61,30.21,8.47,4.81,16.91,9.68,24.89,14.25-2.94,3.89-6.38,7.08-8,11s-1.62,8.79-2.45,14.06L174.72,592c4.24,7,11.79,5.9,18.22,7.5l-1,1.08,7.55,6.39-8.68,24.83c-4.59-3.44-9.65-6-13-10-5.76-6.78-10.46-14.46-15.9-22.17l31.68,15.62.9-1.56c-1.4-.89-2.76-1.9-4.23-2.67-10-5.19-20.22-10.09-30.05-15.63a20.16,20.16,0,0,1-7.88-7.93c-5.11-10.24-9.27-21-14.25-31.28-3.3-6.84-6.54-14-11.32-19.77-5.19-6.27-4.32-13-5.32-20.83C124.63,519.64,126.88,522.87,129.44,525.83ZM226.3,628.24l-1.27-.58-19.86,32.68c-4.38-5-5.29-9.34-1.73-14.72s6.26-11.73,9.78-17.35c3.09-4.93,6.8-9.47,10.56-14.62l5.73,6.7c-1,1.93-1.85,3.44-2.66,4.95l.56.49,4.14-2.88-11.25,20.3q-6.2,11-12.37,21.94l-1.63-1,13.42-21.5Q223,635.46,226.3,628.24Zm-9.12-27.12,1.41.68c2-3.78,4.09-7.56,6.77-12.51.47,8.48.88,15.72,1.3,23.2-2.08-1.81-3.59-3.1-5-4.42-1.61-1.45-3.22-2.9-4.76-4.42-4.95-4.89-5.06-8-1.2-13.89,1.38-2.09,1.89-4.75,2.8-7.15l-2.58-1.44c-.74,1.38-1.48,2.76-2.51,4.71-1.59-8.77-8.62-11.64-12.77-15.61,6.66-10.58,13.06-20.76,19.1-30.38,0,4.41.26,9.67-.05,14.9-.55,9.3-4.28,19.06,4.51,26.78.31.27.29.9.39,1.25C222,589,217.35,594.26,217.18,601.12Zm-10.82-21.75,1.74,1.09c-1.82,6.94-6.61,12.32-10.74,19.77-1.05-2.07-2.12-3.33-1.85-3.77C199,590.69,202.71,585.05,206.36,579.37Zm-18.2,12.06c-1.14-7,4.35-15.95,10.85-18.19C195.42,579.26,191.91,585.13,188.16,591.43Zm28.37,16.92-6.68,7.49c-.78-6-1.4-10.75-2.25-17.28Zm-21.06,30.38-1.24-.42c.65-11.18,5.42-21.27,9-33.1,1.74,5.94,3,10.35,4.42,15.08ZM125,502.91q-.37,5.91-.74,11.83l-1.83-.2.87-11.8Zm-24.82-68c4.17,4.39,2.65,9.61,2.06,14.56Q101.2,442.2,100.16,434.91ZM121,338.37c-.43,1.85-.87,3.7-1.32,5.66l-8.17,1.9c-.14-.27-.28-.54-.41-.81l9.11-7.44ZM144,328.94l-17.74,17.2c-.5-.54-1-1.07-1.49-1.61L143,327.8Zm32.74-1.06-.42,1.62c-2.6-.62-5.22-1.18-7.79-1.88-1.57-.44-3-1.36-4.61-1.62-4.19-.71-8.42-1.18-13.07-1.81l2.52-4.13Zm17.74-.37c-7.93-4.63-8.22-4.66-14.58.59,0-2-.25-3.92,0-4,3.09-.9,6.4-2.35,9.38-1.9C191.27,322.48,192.79,325.64,194.49,327.51Zm9.43,1.69-5.34-6.91C203.72,322.58,204.55,323.81,203.92,329.2Zm28.7,57-.93.41-5.41-7.82h3.8ZM230.2,505.46q4.92-24.48,9.83-49c-3,4.58-5.95,9.06-8.78,13.62a6.83,6.83,0,0,0-.44,2.91c-1.07,14.38-.9,28.89-5,42.91-.1.36-.53.63-1.05,1.19-.3-1.59-.54-2.82-.77-4a6.36,6.36,0,0,0-2.06,3.83c-1.67,6.82-4.68,12.56-12.23,14.26-16.35,3.69-31.95,3.25-45.46-8.46-2.37-2.05-4.85-4-7.29-5.93L155.68,518c.58,1,.95,2.25,1.78,2.93,14.42,11.76,27,26.78,48,26.23,1.16,8.8-3.11,14.9-8.22,20.85-13.25-7.77-26.44-15.19-39.3-23.15-10.32-6.4-20.44-13.2-28.27-22.78-2.36-2.88-3.74-5.7-3.47-9.83.55-8.42.19-16.91.09-25.37,0-2.48-.45-5-.69-7.44,3.68,6.72,6.16,13.66,9.06,20.43,4.37,10.24,8.2,14.5,15,16.84-15.26-14.74-20.26-33.07-22.19-53.93-4,4.71,2.31,12-5.63,14.05l-11.39-9.65,6.21,1.51.84-1.07c-14.38-6.25-9.29-19.27-12-30.64l5.34,3.35c-4.1,13.27-.58,23.23,7.9,23.1-1.62-3.17-3.27-6.41-4.93-9.64l1.21-.56,4.54,7,1.75-1.12c-.67-1-1.41-2-2-3.13s-2-2.85-1.62-3.75c1.63-4.15,1-8-.94-11.69-3.3-6.34-7.56-11.44-16.11-11.45,1.69-1.69,3.35-3,5.13-3.19,4.53-.45,7.85,1.91,10.59,5.39,1.76,2.24,3.84,4.22,5.85,6.39,6.31-5,5.2-11.29,5.54-17.38l-4.4-4.08c-1.29-14.75,8.36-28.05,3.67-41.81l-11.2-2.31c1.58-5.49,2.7-10.85,4.73-15.84,1-2.55,3.45-4.76,5.69-6.56,3.6-2.9,7.7-5.16,11.35-8,2.91-2.27,5.63-2.88,9.14-1.38,6.72,2.86,13.55,5.48,20.41,8,3.57,1.32,7.27,2,11.49-1l-11.86-13.07,8.68,6.83.85-.87q-1.85-2.32-3.7-4.64a24.42,24.42,0,0,1,5.69,5.05c3.57,3.78,5.75,9.89,12.94,7.76.47-.14,1.26.87,1.92,1.32,3.83,2.6,7.47,3,11.38-.19,5.38-4.32,11.24-3.83,14.37,2.22,3.89,7.51,6.36,15.75,9.77,24.52l-14.93-7-.51,1.17,1.65,2.22H196.14c0,.47-.08.95-.13,1.42,10.11-.11,20.57-1.47,28.46,7.26-7,3.82-15.69,5-19.15,13.87.71,1.21,1.52,2.59,2.73,4.67,3.45-1.49,6.81-2.79,10-4.35,6.63-3.21,16.5,1.9,18,9.07,1.74,8.43,4,16.75,5.87,25.16.61,2.73,1.27,5.66.91,8.36-2.25,17.13-4.62,34.25-7.29,51.32-.86,5.5-2.76,10.83-4.19,16.24Zm75.44,117.87L290,648.21c1.23-7.92,3.16-16.2,3.65-24.57.54-9.32,3.5-19.12-3.75-28.87H262.51c3.36-8,11.73-11.65,12.12-19.47l-6.82-6.19c15.29-12.39,24.74-26.87,21.89-47.84l9.35-1.46c-5.48,21-1.76,40.64,1.31,60.4C302.79,595.9,304.25,611.73,305.64,623.33Zm.17,46.78-21.73,8.16c-.55-.63-1.11-1.25-1.67-1.88L304.69,649C305.09,656.59,305.45,663.39,305.81,670.11ZM305,646.48l-1.8-.26c.38-2.47.75-5,1.12-7.42l1.43,0Zm-18.84,18.9c4.91-9.45,9.8-18.86,15.11-29.06C299.82,648.58,295.63,658.35,286.13,665.38Zm22-87.87c0,3.64,1.26,6.38,5.27,6.4,4.17,0,3.88-3.25,3.88-6.12V559.67l1.7-.37,5.95,7.58-1.3,0c-3.32,17-6.64,34.06-9.63,49.38-3.13-21.73-11.94-44.49-12-69.53l6.19,3.48C308.1,559.93,308.13,568.72,308.09,577.51Zm21.34,66.64,19.41-37.6,6.65,7.34L318.2,662.21c0-29.82-.14-59.11,10.65-86.87l1.42.17c-.23,2-.33,4-.69,5.88-3.16,16.66-6.41,33.29-9.49,50-.54,2.93-1.22,6.35,3.17,7.5,3.59-17.64,7.13-35.07,10.68-52.5l1.31.27L344.57,601c-1.92,3.38-3.85,6.49-5.49,9.74-4,7.87-7.93,15.75-11.61,23.75C325.92,637.83,324.71,641.62,329.43,644.15Zm4.77-105.91-1.86-1.78-17.13,10.73c12.73,10.45,20.23,23.67,26.44,38.14,3.35,7.8,9.29,14.5,14.06,21.69l1.29-.75c-.28-1.31-.55-2.62-.82-3.94l.91-.19,2.7,10.3c-10-8.85-17.1-19.33-23.47-30.49A266.46,266.46,0,0,0,319.62,556c-3-4.12-7.76-7-11.35-10.09l24.41-14.31C333.25,534,333.74,536.13,334.2,538.24ZM333.84,549c1,3.58-2.1,3.9-4.15,4.55-1.32.42-3-.4-4.56-.66,0-.87,0-1.74,0-2.61Zm-14.44-.76c5.47-6.05,7.18-6.25,10.19-.94Zm14.5.76H334l.45-9.71q1.53,8.57,3.05,17.12L332,557.62l-.34-.56,4.95-3.63Zm3.58,7.53c1.4,3.07,2.83,6.11,4.17,9.19q5.5,12.67,10.94,25.37l-1.32.68-16.56-31Zm69.15-89.63v9.62L401,477l1.92-4.4-1.16-1.34c-13.28,2-26.56,4-39.82,6.16-4,.65-8,1.65-12.73,2.64,0,.14-.08.79-.13,1.31l-12.42,2.07c1,28.24,4.11,55.84,12.9,82.62-1.36-9.89,2.33-19.5-2-30-4.05-9.88-3.26-21.75-4.61-32.82l8.51-2.26c.19-2.39.37-4.62.55-6.86l.76,0q-1.14,42.4-2.28,84.94c-2.42-6-5.07-12.12-7.44-18.39-6.74-17.81-7.78-36.67-10.07-55.3-1.06-8.66-2.21-17.3-3.23-25.23C355.08,473,380.31,467,406.63,466.88Zm-67,22.09c.5-2,.62-4.14,1.18-4.26a18.25,18.25,0,0,1,6.79-.18c.65.11,1,2.25,1.63,4Zm.68,2.36c8.54-1.39,8.54-1.39,8.57,3C341.13,496.11,340.19,495.78,340.31,491.33ZM389,476.76l.12,1.08L370.19,480l-.11-1ZM351.49,471c.56-2.72.77-5.54,1.2-5.57,3-.24,6.87-2.18,8.8,2.92Zm66.68-8.08c-.36,4.24-.72,8.33-1.11,12.87l-6.76.31c-.28-4.28-.53-8-.8-12.07l-59.9-2.66c-.4,3.24-.81,6.64-1.27,10.36l-4.16,1.06c.55-6.86,1.05-13.13,1.51-19,14,.89,26.92,1.7,39.86,2.56C396.63,457.1,407.74,457.76,418.17,462.91Zm8.24,60-2.43-.45c1.65-12.53,3.31-25.06,5.06-38.27l-68.3,6.72c-.8,12.73-1.69,24.31-2.24,35.9-1.12,23.87-4.38,47.79,1.42,71.52,0,.1-.33.29-.47.4-7.11-15.45-5.7-31.86-5.66-48.12,0-21.73,4.36-43.45.13-65.19a7.51,7.51,0,0,1,.22-2.08c27.76,1,55-6,83.52-3.91C429,493.09,428.57,508.22,426.41,522.9Zm-59.62,23.17-.94-.67c-.64,1.32-1.27,2.65-1.9,4l-2.54-.91c1.34-11.66,2.69-23.32,4.06-35.26l10.92-1.53V501.46c7.6,5.71,9.7,6.77,16.27,5.1,4.2-1.08,8.15-3.47,11.92-5.74,2.87-1.74,5.29-4.22,7.91-6.37.52,4.2-1.42,8.36-.23,11.22,1.35,3.23,5.51,5.3,8.87,8.24v10c-10.42-1-21-1.88-31.48-3.22-7.22-.92-6.82-1.11-9,5.5C377.05,536.91,373,547.47,369,558c-.35.93-1.85,1.43-3.52,2.64C366,554.86,366.4,550.46,366.79,546.07Zm57.79-49.92c-.24,1.29-.43,2.34-.61,3.33-2.37-3.94-5-2.61-8.85-1.32v-2Zm-9.08-2.88c.79-3.75,6-6,9.18-3.89.12.88.28,2.07.53,3.89Zm4.6,6.74c0,.18-.07.35-.1.53h-4.88v-2.3Zm-29.61,4c-5.73,0-8.8-1.94-11.27-8.19,6.73,9,10.78.52,15.84-1.13.63,1.14,1.11,2,1.57,2.81l8.76-4.05C403.38,499.09,395.74,504,390.49,504Zm-25.57-10.12c4.05.37,8.75-3.35,10,4.25-3.35,0-6.36.11-9.32-.17C365.26,497.92,365.17,495.55,364.92,493.87Zm8.72,6.2c1.69,5.55-2.09,4.69-4.57,5.31-3.07.76-4.75-.15-4.68-4.22Zm48.09,94.41c-.4,1.15-2.46,2-3.91,2.43q-11.25,3.11-22.59,5.87c-8,1.93-15.94,3.69-23.91,5.52-.1-.42-.21-.84-.32-1.26l36-8.78c-7.88-9-17.59-8-31,2.53,1.22-5.62,2.38-10.92,3.61-16.55a13.46,13.46,0,0,1-1.76.93,28.56,28.56,0,0,1-3.22.53c3.77-11.62,7.22-22.24,10.83-33.38,12.27,4,12.59-7,17.45-12.53,2.31,8.86,2.66,9.41,11,8.18,4-.59,7.76-2.66,11.53-4.29,3.52-1.51,6.9-3.33,10.34-5l1,1.28c-1,1.77-2.1,3.5-3,5.32-1.08,2.13-2.94,4.42-2.75,6.47.18,1.8,2.73,3.37,3.81,4.57l-23,37.93L408,595.38c9,1.83,9.39,1.36,13-5.69,4-7.83,8.34-15.5,12.9-23,5.75-9.51,12-18.73,17.75-28.24,1.19-2,1.18-4.66,1.58-6.38l-65.8-1.56a179.7,179.7,0,0,0-22.32,79.24c-1.62-30.61,8.66-58.29,20.34-85.35,12.92.84,25.15,2,37.41,2.35s24.51.09,37.22.09a28.39,28.39,0,0,1-1.49,4.42c-2.72,5.32-5.47,10.63-8.41,15.84C441.09,563.12,428,576.74,421.73,594.48Zm-24.9-53.9L394.77,545,386,543.55l1.75-4.73Zm-5.33-2.92c-2-.35-3.47-1.34-1.79-3.57l9.15-1.68-1,5.6A52.48,52.48,0,0,1,391.5,537.66Zm2.1,10.7-8.41-.69.09-1.51,8.26.66Zm11.88-8.44c5.4,6.54,5.4,6.54,13.93.17l7.36-1.94c-2,4.34-11.35,8.77-16.79,7.56-2.08-.46-3.67-3.15-5.49-4.82ZM449,534.53c-.22,1.31-.46,2.66-.76,4.38l-8-.51C441.3,533.46,442.78,532.86,449,534.53Zm-2.59,70.93-3.15-6.62c1-4,2-8.31,3.15-13Zm9.13,15-8.89,1.12-3.24-4.5,1.34.06c.56-3.76,1.12-7.52,1.72-11.33Zm-16.83,33.93,25-2.22L439,656.4C438.88,655.74,438.8,655.08,438.72,654.42ZM358.5,713l18.15-1.65.54,1.62L353.4,725.18C355.37,720.48,356.91,716.78,358.5,713Zm-34.75,13.79,9.17-1.68c-.85,6.86-1.67,13.47-2.48,20.07l-1.24.28Zm-6-6.21c-11.77-10.28-18.95-22.67-16.5-39.51,14.86-6,24.42-17.4,32.72-30.47,6.31-10,13.63-19.28,20.88-28.6,3.68-4.72,8.29-8.43,14.59-9.8,13-2.82,25.86-6.08,38.78-9.15,3.76-.89,7.52-1.75,10.38-2.41,2.06,5.39,3.76,9.81,5.45,14.22l1.45-.51-4.16-13.48,1.39-1.67c5.94.87,12,1.31,17.76,2.87,1.79.48,3.95,4.1,3.77,6.08-.2,2.2-2.51,4.78-4.6,6.08-2.75,1.71-6.14,2.45-9.31,3.43-13,4-26.38,7.12-38,14.66-1.33.87-1.65,3.27-2.45,5,1.72-.21,3.62,0,5.12-.7,8.7-4,17.31-8.18,26.7-12.66.17,6.15-.18,11.31,4.34,15.25l-2.78-14.62,17.92-6.34,4.65,7.41c-2.34,2.86-3.94,4.76-5.48,6.72-5.31,6.75-12.13,11-20.3,13.79-5.74,2-11.11,5.18-16.35,8.33-1.81,1.08-2.75,3.64-4.08,5.53l1,.44,30.12-14c4.32,4.53,3.57,8.18.16,11.21-6.58,5.86-13.5,11.34-20.13,17.15-1.8,1.57-3.08,3.73-4.6,5.62l1.19,1.1,18.3-14.26c4.75,5.48,5.42,10,1.51,12.41-7.06,4.35-11.49,13.35-21.56,12.5-.59,0-1.23.46-1.83.75-4.84,2.37-9.67,4.75-15.17,7.46,3.25,2.74,6.17.34,8.86-.43a83.57,83.57,0,0,0,8.68-3.48,24.42,24.42,0,0,1-8.74,5.51c-14.72,5.23-30.07,7.18-45.56,8-6.72.36-12.57,2.16-17.87,6.53a31.27,31.27,0,0,1-10.08,5.16A7.46,7.46,0,0,1,317.77,720.57ZM308.65,756c3.92-3.45,7.11-8.24,12.47-9l.66,1.85ZM297,782.27c2.22-6.33,7.8-9.89,12.09-14.54C305.89,773.26,304.29,780,297,782.27ZM234.3,822.38c1-12,4.73-22.28,8.35-23ZM286,771.06c1.9,4.7,3.45,8.51,5,12.35l-79.4,16.86-.35-.27Zm3.52-87.4c2.27,0,4.55-.87,7.36-1.45a24.29,24.29,0,0,1,.19,3.37c-1.2,13.33,4,24.4,13.61,32.84,8,7.07,8.78,15.77,9.28,25.33l-29.71,17.73c-5.77-12.08-11.37-23-16.24-34.22-4.28-9.88-3.61-20.07,0-30.17C276.65,689.63,280.2,683.53,289.48,683.66Zm-51.19-45.15c-1.87-2.31-2.53-5.77-3.26-8.81-1.11-4.63-1.22-9.54-5.16-13.11-.7-.63-.82-2.13-.86-3.24-.69-19.77-1.15-39.56-2.1-59.33-.3-6.22-2-12.36-2.86-18.56-.18-1.22.3-2.54.66-5.1a21.74,21.74,0,0,1,2,2.95c3.57,9.82,7.06,19.66,10.67,29.46,2.34,6.35,5.34,8.6,12.05,8.15,4.76-.31,9.45-1.56,14.68-2.47l5.84,7.32-16.34,18.47c.21.64.41,1.29.62,1.93l35,3.12c-.3,3.22-.33,5.06-.67,6.84q-7,36.74-14.09,73.44c-.22,1.17-1,2.84-2,3.15-7.93,2.62-16,5-24.35,7.54-.36-7.73-.31-14.23-1-20.64C246,658.81,245.77,647.69,238.29,638.51Zm-11.76,54.33,9.93-15.28v14.08Zm-9.06-1.21,17.8-29.5,1.37.81c-4.56,10.65-11.94,19.62-17.79,29.51Zm-.47-5.85-6-10.38,21.67-39.16,2.06.33c0,6.85,2,14.55-.44,20.37C230.09,667,223.09,676,217,685.78Zm-57.8-36.84c-3.73-12.21-14.53-18.77-23.66-27.42,2.39-14.63,4.73-28.89,7.17-43.78,5.88,8.92,10.74,17.07,16.39,24.63,7.06,9.44,14.9,18.3,22.15,27.6a66.88,66.88,0,0,1,7.7,12.16c7.44,15.6,14.55,31.35,21.78,47,.8,1.73,1.56,3.47,2.37,5.28l-18,2.6L146.5,639.6c4.25,4,7.8,7.29,11.36,10.6Zm-37.63-39.38.61-.92L135.07,615c-.54,1.8-.95,3.16-1.58,5.28Zm-16.11-20.24c-1.28-9.54-2-19.18-3.88-28.6-3.35-17,4.17-30.35,13.36-43.72,1.28,10.1,1.31,10.08,8,18.21,8.09,9.77,12.43,21.45,17,33.07,2.38,6.06,1.5,11.87-.28,17.42-2.47,7.68-6.26,14.95-4.59,22.74-6.94-3.19-13.76-6.45-20.69-9.45C109.93,597.05,106.17,594.63,105.46,589.32ZM15.6,594.66c4.22-3.17,9.29-6.64,14-10.58,22.26-18.74,44.16-37.92,68.29-54.31a49.26,49.26,0,0,1,6.35-3.13l1.27,1.83c-7.63.32-10.19,5.77-11.91,11.23-4.3,13.63-4.72,27.45,0,41.14,1.56,4.49,3.51,8.77,8.14,8.12l4.57,11.37-3.77.21,5.56,7.06a18.05,18.05,0,0,1-2.66.33,2.85,2.85,0,0,1-1.37-.48c-9.93-7.91-20.83-13.15-33.87-13.56-10.08-.31-20.14-2-30.2-1.95C31.61,592,23.24,593.75,15.6,594.66Z"/><path class="cls-1" d="M260.62,836.32c-3.68,10.29-7.3,20.72-6.76,31.77a13.11,13.11,0,0,0,5.39,2,46.76,46.76,0,0,1-4.09,9.24,38.29,38.29,0,0,1-5.3,7.59H180c13.69-1.31,27.37-2.79,41.09-3.84,6.24-.47,12.54-.08,19.06-.08,1-3,1.88-5.87,2.86-8.67a16.69,16.69,0,0,1,1.5-3.06c1.17-1.88,3.05-3.56,3.55-5.58,5.39-22.15,10.52-44.36,15.92-66.5.47-2,1.95-4.48,3.6-5.14,2.76-1.1,6-.91,9.92-1.36-1,2.58-1.57,4.26-2.23,5.93C270.36,811.2,265.16,823.64,260.62,836.32Z"/><path class="cls-1" d="M524.08,627.92a57.83,57.83,0,0,1-6.82,15.84c-2.68,4.11-6.57,8.21-11.72,8.78l-.16,0c-6.49-.19-13-.44-19.46-.53s-13-.06-19.55-.07c7.55-.61,15.1-1.16,22.63-1.88,3.14-.3,6.93-.07,9.21-1.74,7.06-5.18,14.21-10.54,20.08-17A54.61,54.61,0,0,0,525.7,621C525.27,623.33,524.72,625.64,524.08,627.92Z"/><path class="cls-1" d="M145.31,869.15a39.67,39.67,0,0,1-4.2-5.14l17.22-1.29c0-.53,0-1.05,0-1.58-3.39-.84-6.78-1.7-10.18-2.51-27.28-6.5-47.64-22.92-64.13-44.81-13.21-17.53-24-36.29-30.35-57.54-1.74-5.8-6-11-9.91-16A202.76,202.76,0,0,1,6.52,665.91a8.75,8.75,0,0,1,.22-5.71,8.22,8.22,0,0,1,1.09,1.92c8.37,34.83,27.66,63.49,51,89.78q24,27.08,48.7,53.57c10.24,11,11.78,11,25.27,4.14,15.61-7.92,31-16.27,43.89-28.36,15.63-14.7,35.13-23.12,53.2-33.88,1.7-1,3.83-1.3,5.76-1.92l.75,1.42a35.09,35.09,0,0,1-4,2.94c-14,7.66-25.21,17.8-31,33.19-.8,2.13-2.92,4-4.83,5.45-9.34,7.14-18.81,14.1-27.92,22.17,6-2.07,12.11-3.89,18-6.26,29.44-11.91,58.81-24,88.25-35.92,3-1.21,6.34-1.63,10.55-2.66-1-2.77-2.08-6-3.41-9-4.15-9.6-8.95-19-12.49-28.78-4.62-12.85-3-25.56,3.29-37.66.51-1,.9-2,1.43-3.26-9.5,2.2-18.59,4.72-27.84,6.34-11.13,1.93-22.36,3.85-33.62,4.38-10.92.51-19.25,5.49-27.14,12-5.25,4.36-10.18,9.09-15.42,13.45-9.18,7.64-14.34,7.34-23.49-1.69-1,3.94-2,7.41-2.65,10.94-1.55,8-2.85,16.06-4.46,24-.35,1.77-1.58,3.36-2.41,5l-1.74-.36c-.41-1.47-1.17-2.94-1.19-4.42a72,72,0,0,1,15.25-45.49c2.36-3.09,5-6.54,9.91-3,.87.62,3.12-.42,4.63-1a65.78,65.78,0,0,0,10.3-4.82,24.64,24.64,0,0,1-20-2.28c-5.19,4.69-9.67,9.16-14.59,13.09-4.66,3.72-8.12,7.77-10.08,13.7-1.67,5-5.27,9.46-8.25,14-.8,1.22-2.47,1.87-3.73,2.78l-1.49-1c.92-2,1.44-4.4,2.85-6a45.9,45.9,0,0,0,10.46-19.45c-11.92,5.62-21,12.4-27.87,22-7.1,9.87-7.64,21.34-7.67,33.41-6.2-13.38-.29-30.86,15.45-47-9.29,2.31-16.06,11.52-19.79,27-4.91.32-6.92-1.45-7.08-6.28-.48-14.46,9.48-29.55,24.83-35.41,11.75-4.5,24.09-7.45,36.13-11.22a44.48,44.48,0,0,0,6.23-3.08l-.48-1.67,7.26,3.62c-17.51-36.1-36.63-70.91-68.79-96.38,4.57,5.63,9.43,11,13.66,16.93,8.89,12.34,17.56,25.11,18.75,40.76.63,8.28,3.6,13.57,10.48,18,5.62,3.67,10.18,9,15,13.74.76.74.65,2.38.71,2.64-6.42.43-12.2,1.09-18,1.15-9.76.09-19.54,0-29.28-.48-2.76-.14-5.43-1.93-8-3.71,15.5,4,30.69,2.06,47.09-1-3.07-2.49-5.14-4.65-7.62-6.09-7.75-4.5-15.5-9.06-23.58-12.92-3.62-1.74-4.9-3.5-3.54-7.67l10.57,3.72,1.48-.79c-3.44-10.64-7.59-21.11-10.08-32-1.8-7.87-5.94-13.95-10.6-19.92-7.57-9.72-16.7-16.66-29.71-18.15-16-1.83-31.8-2.77-47.57,1.31-5.67,1.47-9.52,4.9-12.33,10.76,8.91.43,17.16.67,25.38,1.26,17.6,1.26,35.49,2.07,51.45,10.4,8,4.16,14.76,10.63,21.92,16.25,1.39,1.09,2.05,3.11,3,4.7l-.82,1.11c-1.09-.33-2.46-.33-3.22-1-13.38-12.16-30.19-13.76-47-15.44-13.24-1.32-26.5-2.51-39.72-4.08-4.37-.52-8.62-2.05-14.17-3.43-.28,7.36-1.2,15-.73,22.46,1.46,23.71,8.23,45.86,19.42,66.94,3.76,7.08,4.35,15.89,6.14,24,3.71,16.7,7.25,33.43,11,50.57,3.73-1.6,6.67-3.17,9.8-4.09,2.45-.72,5.65-1.52,6.78,2,1,3.08,2.3,6.84-1.36,9s-7.51,3.51-12.1,5.59c2.89,12.93,6,26.78,9.08,40.63l-1.52.5c-4-7.46-4.33-16.32-8.39-25.42l-15.7,34.19-.47-.06a1.26,1.26,0,0,1-.18.59c-3.35,5.71-10.76,9.18-11.54,16.27a44.63,44.63,0,0,0,0,6.12c0,1.89,0,3.78.15,5.66a30.7,30.7,0,0,0,2.09,9.84,23.5,23.5,0,0,0,2,3.78H166C159.09,881,152.13,875.18,145.31,869.15Zm-33-126.26c1.15-5.69,2.91-11.24,4.4-16.86l2,.49c-.71,2.88-1.3,5.8-2.17,8.64-3.08,10-4.15,20.07-1.42,30.39a140.31,140.31,0,0,1,3.47,16.05c.88,6.25,1.11,12.58,1.62,18.88l-1.46.08c-1.1-4.14-1.53-8.61-3.41-12.35C107.81,773.44,109.17,758.23,112.27,742.89ZM76,659.35c-6.06,2.28-8.06,1.53-11.47-4.83,20.51-10.32,43-3.13,47.74,11.2-2.2-1.21-3.71-2-5.18-2.86C97.29,657.09,87,655.24,76,659.35ZM3.53,654.8l1.06-1.09A25.43,25.43,0,0,1,8.24,656C19.53,665.86,33,669.49,47.52,668.5c13.19-.9,26.3-2.88,40.4-4.5l2.48,4.29a51.85,51.85,0,0,1-5.83,1.63c-10.32,1.54-20.62,3.53-31,4.34-17.41,1.36-33.27-3-46.38-15.16A45.75,45.75,0,0,1,3.53,654.8Z"/><path class="cls-1" d="M302.78,518.4a15.83,15.83,0,0,0,3.07-.24.93.93,0,0,0,.29-.12c.54,2.35,4.37,2.48,4.79,4.18-.44,6.85-.84,13.09-1.25,19.45l-9.13,2.88c.65-9.41,1.24-17.95,1.82-26.23A1.42,1.42,0,0,0,302.78,518.4Z"/><path d="M532.39,443.54c6.17-6.42,12.77-12.43,19-18.78,3.71-3.76,7.07-7.85,10.59-11.8v8l-7.41,5.64L562,429v4c-2.89,3.56-6.18,6.14-11.37,4v-2.31c-7.42,7.32-16.31,12-21.43,20.95l-1.68-1.26,1.7-4.26C530.25,447.89,530.79,445.21,532.39,443.54Zm18.74-14.91-.5,1.51,7,3,.5-2.07Zm-12,10.95.46.45,7.37-6-1-1.11Z"/><path class="cls-1" d="M562,421l-7.41,5.64L562,429Z"/><path class="cls-1" d="M120.55,356.33c1-2.55,3.45-4.76,5.69-6.56,3.6-2.9,7.7-5.16,11.35-8,2.91-2.27,5.63-2.88,9.14-1.38,6.72,2.86,13.55,5.48,20.41,8,3.57,1.32,7.27,2,11.49-1l-11.86-13.07,8.68,6.83.85-.87-3.7-4.64a24.42,24.42,0,0,1,5.69,5.05c3.57,3.78,5.75,9.89,12.94,7.76.47-.14,1.26.87,1.92,1.32,3.83,2.6,7.47,3,11.38-.19,5.38-4.32,11.24-3.83,14.37,2.22,3.89,7.51,6.36,15.75,9.77,24.52l-14.93-7-.51,1.17,1.65,2.22H196.14c0,.47-.08.95-.13,1.42,10.11-.11,20.57-1.47,28.46,7.26-7,3.82-15.69,5-19.15,13.87.71,1.21,1.52,2.59,2.73,4.67,3.45-1.49,6.81-2.79,10-4.35,6.63-3.21,16.5,1.9,18,9.07,1.74,8.43,4,16.75,5.87,25.16.61,2.73,1.27,5.66.91,8.36-2.25,17.13-4.62,34.25-7.29,51.32-.86,5.5-2.76,10.83-4.19,16.24l-1.17-.3q4.92-24.48,9.83-49c-3,4.58-5.95,9.06-8.78,13.62a6.83,6.83,0,0,0-.44,2.91c-1.07,14.38-.9,28.89-5,42.91-.1.36-.53.63-1.05,1.19-.3-1.59-.54-2.82-.77-4a6.36,6.36,0,0,0-2.06,3.83c-1.67,6.82-4.68,12.56-12.23,14.26-16.35,3.69-31.95,3.25-45.46-8.46-2.37-2.05-4.85-4-7.29-5.93L155.68,518c.58,1,.95,2.25,1.78,2.93,14.42,11.76,27,26.78,48,26.23,1.16,8.8-3.11,14.9-8.22,20.85-13.25-7.77-26.44-15.19-39.3-23.15-10.32-6.4-20.44-13.2-28.27-22.78-2.36-2.88-3.74-5.7-3.47-9.83.55-8.42.19-16.91.09-25.37,0-2.48-.45-5-.69-7.44,3.68,6.72,6.16,13.66,9.06,20.43,4.37,10.24,8.2,14.5,15,16.84-15.26-14.74-20.26-33.07-22.19-53.93-4,4.71,2.31,12-5.63,14.05l-11.39-9.65,6.21,1.51.84-1.07c-14.38-6.25-9.29-19.27-12-30.64l5.34,3.35c-4.1,13.27-.58,23.23,7.9,23.1-1.62-3.17-3.27-6.41-4.93-9.64l1.21-.56,4.54,7,1.75-1.12c-.67-1-1.41-2-2-3.13s-2-2.85-1.62-3.75c1.63-4.15,1-8-.94-11.69-3.3-6.34-7.56-11.44-16.11-11.45,1.69-1.69,3.35-3,5.13-3.19,4.53-.45,7.85,1.91,10.59,5.39,1.76,2.24,3.84,4.22,5.85,6.39,6.31-5,5.2-11.29,5.54-17.38l-4.4-4.08c-1.29-14.75,8.36-28.05,3.67-41.81l-11.2-2.31C117.4,366.68,118.52,361.32,120.55,356.33Zm69.94,131.14-6.33.62,0,1.77c6.44,3.29,13.39-4.16,21.22.33l-13.66,2.21-1,1.53a17.19,17.19,0,0,0,2.61,1c6.18,1.2,12.65-1.89,16.36-7.15,2.74-3.88,6-7.35,9-11.06a29.6,29.6,0,0,0,2.05-3.25c-14.73-13.56-30-9.25-45.38-2.19-3.74,1.71-7.7,2.93-12.2,4.63C164.2,482.27,175.49,487.34,190.49,487.47Zm33.78-68.17c3.47,2.57,6,2.06,8-1.73-15.3-5.36-15.3-5.36-25.12-.32,2.84-5.23,6.62-6.16,19.72-4.83-5.2-5.37-9.94-5-21.78,2.32-1.15-3.81-2.23-7.35-3.35-11.07-3,1.67-3.56,4.35-2.64,7.68,1.79,6.49,3.47,13,5.37,19.48.78,2.68,2,5.22,3.26,8.36-2.1,7-10.47,11.68-11,20.12l1.72.81,1.95-4.83,12.41-3.82c5.24-7.45-.36-15.6-.63-23.92l11.86-2.09-6.18-9.68A52.84,52.84,0,0,1,224.27,419.3Zm-52.65-30.18a102.41,102.41,0,0,0-13.14-2.71c-11.55-1.75-18.82,5.76-17.19,18.61,1.64-1.49,2.93-2.59,4.15-3.76,6.18-5.91,13.88-6.78,21.51-3.05,3.94,1.91,8.33,2.89,12.68,4.34C180.13,395.39,177.41,390.82,171.62,389.12Zm-16.5,22.63c-3,2.27-6.28,4.23-9.75,6.55l2.11,3-3,1.14.94,1.76,8.2-1.25-.73.8c2,1.15,3.95,3.07,6,3.26,3,.27,7.42,1.84,8.7-2.34.63-2.07-1.46-5-2.4-7.76L177,420.25c-5.47-5.14-8.14-5.91-19.36-7.27a44.44,44.44,0,0,1,5.79-1,52.1,52.1,0,0,1,6.22.41l.19-1.4C164.88,409.28,160,408.06,155.12,411.75Zm5.19-35.33c-.21-.49-.41-1-.61-1.46l-7.25,1.32-.3-.71,14.27-4.95c-12.4-3.2-30.29,11.35-28.08,21.6C141.78,381.66,151.46,379.59,160.31,376.42Zm49,129.14c3.19-1.12,4.78-7,6.92-10.76.43-.76.06-2,.06-3.07-.8.12-1.29.07-1.37.23-3.68,7.14-8.8,11.51-17.55,10.32-2.58-.35-5.36.79-8.05,1.24v1.59A28.59,28.59,0,0,0,209.28,505.56Zm-51-49c-5,1.9-7.39,6.06-9.64,10.52,5.23,2.45,19-7.6,21.89-15.18C166.35,453.45,162.31,455,158.26,456.53Zm-.82-24.36c6.65,3.14,18.68-2.42,21.31-10Zm2.82,107.07c.94,1.24,3.47,1.28,5.27,1.87.26-.49.52-1,.79-1.48a42.92,42.92,0,0,1-4.47-4.25c-1.52-1.92-2.66-4.15-4-6.22-1.75-2.66-3.38-5.57-7.45-4.79C153.9,529.76,156.82,534.7,160.26,539.24Zm35.64-88.86.33-1.43c-2.75-.47-5.53-1.43-8.21-1.19-1.29.12-2.38,2.5-3.55,3.86l1.21,1.81Zm-4.71-11.79c-1.19-.58-3.12-2-3.56-1.64-3.28,2.69-6.26,5.74-9.33,8.68l1.31,1.33Zm27.47-9.14c6.24,1.64,10.37,0,14.64-5.6Zm-52,115.87,7.47,4.29.95-1.6C174,543.82,171.12,543,166.68,545.32Zm3.53-9-3.55,3.29,8,4.11,1-1.53Zm53.59-63.82c.75-.86,2-1.81,1.85-2.19-1-2.37-2.22-4.6-3.37-6.87l-1.31.95C221.83,466.87,222.7,469.35,223.8,472.49Z"/><path class="cls-1" d="M334,650.59c6.31-10,13.63-19.28,20.88-28.6,3.68-4.72,8.29-8.43,14.59-9.8,13-2.82,25.86-6.08,38.78-9.15,3.76-.89,7.52-1.75,10.38-2.41,2.06,5.39,3.75,9.81,5.45,14.22l1.45-.51q-2.08-6.74-4.16-13.48l1.39-1.67c5.94.87,12,1.31,17.76,2.87,1.79.48,3.95,4.1,3.77,6.08-.2,2.2-2.51,4.78-4.6,6.08-2.75,1.71-6.14,2.45-9.31,3.43-13,4-26.38,7.12-38,14.66-1.33.87-1.65,3.27-2.45,5,1.72-.21,3.62,0,5.12-.7,8.7-4,17.31-8.18,26.7-12.66.17,6.15-.18,11.31,4.34,15.25l-2.78-14.62,17.92-6.34,4.65,7.41c-2.34,2.86-3.94,4.76-5.48,6.72-5.31,6.75-12.13,11-20.3,13.79-5.74,2-11.11,5.18-16.35,8.33-1.81,1.08-2.75,3.64-4.08,5.53l1,.44,30.12-14c4.32,4.53,3.57,8.18.16,11.21-6.58,5.86-13.5,11.34-20.13,17.15-1.8,1.57-3.08,3.73-4.6,5.62l1.19,1.1,18.3-14.26c4.75,5.48,5.42,10,1.51,12.41-7.06,4.35-11.49,13.35-21.56,12.5-.59,0-1.23.46-1.83.75-4.84,2.37-9.67,4.75-15.17,7.46,3.25,2.74,6.17.34,8.86-.43a83.57,83.57,0,0,0,8.68-3.48,24.42,24.42,0,0,1-8.74,5.51c-14.72,5.23-30.07,7.18-45.56,8-6.72.36-12.57,2.16-17.87,6.53a31.27,31.27,0,0,1-10.08,5.16,7.46,7.46,0,0,1-6.16-1.11c-11.77-10.28-18.95-22.67-16.5-39.51C316.13,675,325.69,663.66,334,650.59Zm36.15,36.71c.35.55.71,1.1,1.07,1.65a48.58,48.58,0,0,0,5.55-.64c5.8-1.33,11.64-2.55,17.33-4.27,6.57-2,9.17-6,8-13.78-5.72,12.07-16.23,13-26.31,14.8l2.34-1.81c-4.15-1.91-34.66,8.56-39.8,14.8,2.66-.47,5.48-.52,7.94-1.49,7.11-2.82,14-6.06,21.09-9a50,50,0,0,1,5.71-1.67Zm-10.07-21.42c4.88-4.61,11.28-2.45,16.82-3.91a55.19,55.19,0,0,0,12-5.22c1.23-.68,1.61-2.89,2.38-4.41l-1.43-1-6.09,5c-7.68-4.93-16-2.23-25.39,8.75C359.26,665.53,360,666,360.07,665.88Zm-1.49-37.32c3.48-5.28,8.15-8.09,14-9.57,1.53-.38,3-1,5.06-1.67-4.74-2.5-15.56.31-20.06,4.59-6.13,5.82-14.58,22.48-13.16,25.61C349.14,641.27,354.24,635.17,358.58,628.56Zm70.34-25.88-5.2-.3,5.7,14C432.34,613.3,432.32,608.4,428.92,602.68Zm4.46,34.84c4.21-5.37,2.5-9.7-5.54-12.85Z"/><path class="cls-1" d="M289.3,599.29l-35-3.12c-.21-.64-.41-1.29-.62-1.93L270,575.77l-5.84-7.32c-5.23.91-9.92,2.16-14.68,2.47-6.71.45-9.71-1.8-12.05-8.15-3.61-9.8-7.1-19.64-10.67-29.46a21.74,21.74,0,0,0-2-2.95c-.36,2.56-.84,3.88-.66,5.1.89,6.2,2.56,12.34,2.86,18.56,1,19.77,1.41,39.56,2.1,59.33,0,1.11.16,2.61.86,3.24,3.94,3.57,4,8.48,5.16,13.11.73,3,1.39,6.5,3.26,8.81,7.48,9.18,7.68,20.3,8.91,31.11.73,6.41.68,12.91,1,20.64,8.39-2.56,16.42-4.92,24.35-7.54.92-.31,1.73-2,2-3.15q7.14-36.71,14.09-73.44C289,604.35,289,602.51,289.3,599.29Z"/><path class="cls-1" d="M135.54,621.52c9.13,8.65,19.93,15.21,23.66,27.42l-1.34,1.26c-3.56-3.31-7.11-6.63-11.36-10.6l48.64,57.45,18-2.6c-.81-1.81-1.57-3.55-2.37-5.28-7.23-15.69-14.34-31.44-21.78-47a66.88,66.88,0,0,0-7.7-12.16c-7.25-9.3-15.09-18.16-22.15-27.6-5.65-7.56-10.51-15.71-16.39-24.63C140.27,592.63,137.93,606.89,135.54,621.52Z"/><path class="cls-1" d="M199.52,606.92,192,600.53l1-1.07c-6.43-1.61-14-.49-18.22-7.51l9.75,3.42c.83-5.27.76-10,2.45-14.06s5.08-7.13,8-11c-8-4.57-16.42-9.44-24.89-14.25-14.78-8.41-29.31-17.16-40.61-30.21-2.56-3-4.81-6.19-8-10.34,1,7.88.13,14.56,5.32,20.83,4.78,5.77,8,12.93,11.32,19.77,5,10.32,9.14,21,14.25,31.28a20.16,20.16,0,0,0,7.88,7.93c9.83,5.54,20,10.44,30.05,15.63,1.47.77,2.83,1.78,4.23,2.67l-.9,1.56L161.9,599.54c5.44,7.71,10.14,15.39,15.9,22.17,3.39,4,8.45,6.6,13,10Z"/><path class="cls-1" d="M421,589.69c4-7.83,8.34-15.5,12.9-23,5.76-9.51,12-18.73,17.75-28.24,1.19-2,1.18-4.66,1.58-6.38l-65.8-1.56a179.7,179.7,0,0,0-22.32,79.24c-1.63-30.61,8.66-58.29,20.34-85.35,12.92.84,25.15,2,37.41,2.35s24.51.09,37.22.09a28.39,28.39,0,0,1-1.49,4.42c-2.72,5.32-5.47,10.63-8.41,15.84-9.06,16-22.16,29.66-28.42,47.4-.4,1.15-2.46,2-3.91,2.43q-11.25,3.11-22.59,5.87c-8,1.93-15.94,3.69-23.91,5.52L371,607l36-8.78c-7.88-9-17.59-8-31,2.53,1.22-5.62,2.38-10.92,3.61-16.55a13.46,13.46,0,0,1-1.76.93,28.56,28.56,0,0,1-3.22.53c3.77-11.62,7.22-22.24,10.83-33.38,12.27,4,12.59-7,17.45-12.53,2.31,8.86,2.66,9.41,11,8.18,4-.59,7.76-2.66,11.53-4.29,3.52-1.51,6.9-3.33,10.34-5l1,1.28c-1,1.77-2.1,3.5-3,5.32-1.08,2.13-2.94,4.42-2.75,6.47.18,1.8,2.73,3.37,3.81,4.57l-23,37.93L408,595.38C417,597.21,417.37,596.74,421,589.69Zm-7.73-21.9a4.81,4.81,0,0,0,2.54-3.73,4.51,4.51,0,0,0-3-3.2,117.32,117.32,0,0,0-17.17-.61c-1.48.08-2.84,2.7-4.26,4.16,1.46,1.31,2.71,3.27,4.41,3.78,2.78.85,5.84.76,9.59,1.15A46.56,46.56,0,0,0,413.24,567.79ZM407.08,578c1.64-.6,2.65-2.91,3.95-4.46-1.5-1.05-2.94-2.91-4.49-3a66,66,0,0,0-14.27.45c-1.92.31-3.5,2.84-5.23,4.35,1.93,1.2,3.74,2.76,5.83,3.49,1.62.57,3.6.11,5.42.11l0,.28C401.26,578.9,404.37,579,407.08,578Zm-23.43,7,20.5-.93.28,1.37,3.57-5H385.07Zm40.11-20.28.7,1.21,5.26-3.43c-1-1.15-1.63-1.92-2.74-3.22Z"/><path class="cls-1" d="M108.1,607.6l-5.56-7.06,3.77-.21L101.74,589c-4.63.65-6.58-3.63-8.14-8.12-4.74-13.69-4.33-27.51,0-41.14,1.72-5.46,4.28-10.91,11.91-11.23l-1.27-1.83a49.26,49.26,0,0,0-6.35,3.13c-24.13,16.39-46,35.57-68.29,54.31-4.68,3.94-9.75,7.41-14,10.58,7.64-.91,16-2.66,24.4-2.72,10.06-.08,20.12,1.64,30.2,1.95,13,.41,23.94,5.65,33.87,13.56a2.85,2.85,0,0,0,1.37.48A18.05,18.05,0,0,0,108.1,607.6Z"/><path class="cls-1" d="M135.11,608.44c-1.67-7.79,2.12-15.06,4.59-22.74,1.78-5.55,2.66-11.36.28-17.42-4.57-11.62-8.9-23.3-17-33.07-6.74-8.13-6.77-8.11-8-18.21-9.19,13.37-16.71,26.71-13.36,43.72,1.86,9.42,2.6,19.06,3.88,28.6.71,5.31,4.47,7.73,9,9.67C121.35,602,128.17,605.25,135.11,608.44Z"/><path class="cls-1" d="M297,685.58c-1.2,13.33,4,24.4,13.61,32.84,8,7.07,8.78,15.77,9.28,25.33l-29.71,17.73c-5.77-12.08-11.37-23-16.24-34.22-4.28-9.88-3.61-20.07,0-30.17,2.67-7.46,6.22-13.56,15.5-13.43,2.27,0,4.55-.87,7.36-1.45A24.29,24.29,0,0,1,297,685.58Zm4.67,46.72-13.95,1.25c.5,5.85.94,11,1.39,16.35L303,748.3C302.54,743.11,302.16,738.2,301.7,732.3Z"/><path class="cls-1" d="M267.81,569.11l6.82,6.19c-.39,7.82-8.76,11.46-12.12,19.47h27.35c7.25,9.75,4.29,19.55,3.75,28.87-.49,8.37-2.42,16.65-3.65,24.57l15.68-24.88c-1.39-11.6-2.85-27.43-5.28-43.12-3.07-19.76-6.79-39.4-1.31-60.4l-9.35,1.46C292.55,542.24,283.1,556.72,267.81,569.11Z"/><path class="cls-1" d="M534.78,467c2.47,9.27,8.31,15.64,16.53,20.22a22.23,22.23,0,0,1,6.18,4.91,5.11,5.11,0,0,1,.54,4.69c-4.95,8.43-10.22,16.67-15.43,25-27.46,1.88-60.54-19.39-61.06-38.49,4.9,2.2,10,5,15.42,6.83,10.5,3.56,21.09,2,31.44-.9,9.47-2.69,18-2.19,25.28,5.25.76.78,2.2.88,3.33,1.3l.52-1.49c-7-9.25-17-10.21-27.42-8.79-3.71-7.37-2.8-21.63,2-24.77A44.5,44.5,0,0,1,534.78,467Zm3.36,43.73h4.65v-5.77h6.5L543,500.2c-1.47-2.78,2.62-9.35-5.49-8l-.79,8.1-7.62,1.34.19,2,7.63.8Z"/><path class="cls-1" d="M526.3,486c-.47-4.07-1.48-7.36-1.1-10.48,1.15-9.24-.47-16.72-10.8-19.78-4.92,3.76-14.86-.41-24-12.48l-11.65,1.24a27.91,27.91,0,0,0,.53,4.63c2.36,7.92,5.31,15.7,7.09,23.73,1.23,5.54,4.39,8.64,8.92,11.14C505.54,489.63,516.07,488.22,526.3,486Z"/><path class="cls-1" d="M361.41,548.46c1.34-11.66,2.69-23.32,4.06-35.26l10.92-1.53V501.46c7.6,5.71,9.7,6.77,16.27,5.1,4.2-1.08,8.15-3.47,11.92-5.74,2.87-1.74,5.29-4.22,7.91-6.37.52,4.2-1.42,8.36-.23,11.22,1.35,3.23,5.51,5.3,8.87,8.24v10c-10.42-1-21-1.88-31.48-3.22-7.22-.92-6.82-1.11-9,5.5C377.05,536.91,373,547.47,369,558c-.35.93-1.85,1.43-3.52,2.64.52-5.82.91-10.22,1.3-14.61l-.94-.67-1.9,4Zm54.68-25.83c1.68-1,3.24-1.53,3.27-2.1A68.46,68.46,0,0,0,419,513l-1.65.28C417,516,416.62,518.64,416.09,522.63Z"/><path class="cls-1" d="M531.06,401.32a33,33,0,0,0-2.58-4.36c-4.7-5.84-9-5.7-13,.64-3.93,6.17-7.47,12.57-11.29,18.81a36.4,36.4,0,0,1-3.61,4.22c-1.57-6.48,12.74-28.17,19.38-30.2-3.14-5.95-5.32-12.71-12.59-13.56-3.14,3-5.33,6-8.29,7.7-4.3,2.42-6.43,5.63-7.55,10.34C490.07,401,487.79,407,485.89,413c-1.62,5.14,1.81,9.93,7.15,9.83,4-.08,8.08-.64,12.12-.57,10.71.19,17.32-5.49,21.8-14.58A71.17,71.17,0,0,1,531.06,401.32Z"/><path class="cls-1" d="M349.54,566c-8.79-26.78-11.87-54.38-12.9-82.62l12.42-2.07c.06-.66.15-1.54.13-1.31,4.71-1,8.69-2,12.73-2.64,13.26-2.12,26.54-4.12,39.82-6.16l1.16,1.34L401,477l5.65-.46v-9.62c-26.32.08-51.55,6.08-76.86,13.29,1,7.93,2.17,16.57,3.23,25.23,2.29,18.63,3.33,37.49,10.07,55.3,2.37,6.27,5,12.43,7.44,18.39q1.14-42.6,2.28-84.94l-.76,0c-.18,2.24-.36,4.47-.55,6.86L343,503.23c1.35,11.07.56,22.94,4.61,32.82C351.87,546.52,348.18,556.13,349.54,566Z"/><path class="cls-1" d="M443.07,405.08c.85-4-1-5.91-4.57-7.55-8.86-4.07-17.89-7.79-27.77-6.46-7,.94-13.72,3.34-20.57,5.08-1.27.33-2.55.62-4.15,1v-4.83l-3.32-1.07c6.36-4.27,9.28-10.06,10.64-17.11.75-3.91,3.07-7.52,4.79-11.52,7.45,1.95,14.28,10.38,20.54.11l25.9,16.13,1.54-4-.05.16c.29.37.84.76.82,1.11-.68,8.72-1.37,17.44-2.21,26.15-.08.93-1.08,1.76-1.66,2.64ZM423,375c-1.47-.31-3.7-.25-4.62.66a35.23,35.23,0,0,0-5.94,7.84c-.55,1,.08,3.47,1,4.24s3.71,1.11,4.44.39a115.65,115.65,0,0,0,7.89-9.43C424.41,376.87,423.84,375.21,423,375Zm11.55,7.84c.16-3.26-2.79-5.35-5.78-3.43a19.19,19.19,0,0,0-6.56,7.13c-1.68,3.33,1.4,4.05,3.59,4.48C429.61,391,434.34,386.32,434.5,382.86Zm-3.67,9.36,3.36,1,5.95-10.41-2-.93C435.83,385.19,433.47,388.5,430.83,392.22Zm-7.44-21.14,9.22,5.23C431.22,371.62,426.17,369.15,423.39,371.08Z"/><path class="cls-1" d="M409.28,409.47c4.18,7.75,10.67,10.42,18.2,11.29,10.72,1.22,20.64,4.5,29.59,10.8,6.1,4.29,12.38,8.58,20.28,8.89,3.42.14,6.85,0,10.41,0,.14-2.18.22-3.54.38-6.07,7,8.88,12.41,18.4,24.91,19.59-6.49-7.28-12.13-14.54-18.77-20.73-5.28-4.93-11.74-8.57-19.59-8.29-5.05.19-8.37-2.59-10.36-6.5-3.58.81-7.09,2.65-10,1.94s-4.8-4.05-7.16-6.24l.64-1.47Z"/><path class="cls-1" d="M328.85,575.34c-10.79,27.76-10.62,57-10.65,86.87l37.29-48.32-6.65-7.34-19.41,37.6c-4.72-2.53-3.51-6.32-2-9.7,3.68-8,7.64-15.88,11.61-23.74,1.64-3.26,3.57-6.37,5.49-9.75l-9.32-14.34-1.31-.27c-3.55,17.43-7.09,34.86-10.68,52.5-4.39-1.15-3.71-4.57-3.17-7.5,3.08-16.67,6.33-33.3,9.49-50,.36-1.93.46-3.92.69-5.88Z"/><path class="cls-1" d="M360.74,490.9l68.3-6.72c-1.75,13.21-3.41,25.74-5.06,38.27l2.43.45c2.16-14.68,2.6-29.81,11.25-43.48-28.53-2.12-55.76,4.95-83.52,3.91a7.51,7.51,0,0,0-.22,2.08c4.23,21.74-.09,43.46-.13,65.19,0,16.26-1.45,32.67,5.66,48.12.14-.11.49-.3.47-.4-5.8-23.73-2.54-47.65-1.42-71.52C359.05,515.21,359.94,503.63,360.74,490.9Z"/><path class="cls-1" d="M470.17,382.74c-.81,10.87-1.73,20.6-2.14,30.36-.11,2.48.68,6.33,2.34,7.26,3.28,1.83,7.53,2.93,10.15.35.58-4,.72-7.06,1.49-9.92,1.83-6.89,3.66-13.81,6.13-20.48.91-2.46,3.37-4.57,5.57-6.27,3.44-2.66,7.27-4.84,11.05-7.29a77.23,77.23,0,0,1-4.34-6.73c-3.73-7.59-9.67-8.94-16.35-3.32-2.38,2-4.12,4.76-6.35,7s-4.61,4.11-6.83,6.07c3.21-1,6.39-2.77,9.46-2.6,2.79.15,5.46,2.43,8.18,3.78l-.69,1.8Z"/><path class="cls-1" d="M461.49,407c-2.52,5.44-6.62,3.82-10.06,3.92,2.39,7.76,4.26,8.48,11.77,4.26.82-10.61,1.5-21.53,2.63-32.4.22-2.07,1.91-4.25,3.46-5.86,2.82-2.92,6-5.46,9.7-8.67-4.82-1.23-8.64-2.22-12.48-3.16a3.36,3.36,0,0,0-1.48,0c-3.65.85-13.84,12.51-14.08,16.35-.41,6.79-.75,13.59-.87,20.4-.12,6.52,1.89,7.84,8.35,5.93C459.14,407.6,459.85,407.43,461.49,407Z"/><path class="cls-1" d="M218.45,582.61c-.91,2.4-1.42,5.06-2.8,7.15-3.85,5.86-3.75,9,1.2,13.89,1.54,1.52,3.15,3,4.76,4.42,1.46,1.32,3,2.61,5,4.42-.42-7.48-.83-14.72-1.3-23.2-2.68,5-4.73,8.73-6.77,12.51l-1.41-.68c.17-6.86,4.81-12.13,7.36-18.3-.1-.35-.08-1-.39-1.25-8.79-7.72-5.06-17.48-4.51-26.78.31-5.23.05-10.49.05-14.9-6,9.62-12.44,19.8-19.1,30.38,4.15,4,11.18,6.84,12.77,15.61,1-2,1.77-3.33,2.51-4.71Z"/><path class="cls-1" d="M409.5,464c.27,4,.52,7.78.8,12.07l6.76-.31c.39-4.54.75-8.63,1.11-12.87-10.43-5.15-21.54-5.81-32.63-6.54-12.94-.86-25.87-1.67-39.86-2.57-.46,5.85-1,12.12-1.51,19l4.16-1.06c.46-3.72.87-7.12,1.27-10.36Z"/><path class="cls-1" d="M211.57,800.27,291,783.41l-5-12.35L211.22,800Z"/><path class="cls-1" d="M395.37,348.21,390.56,350l.79-3.86L368.71,340c-12.36,16.72-25.16,33.39-31.19,54.53h25.31l.06-1.36H342c4.64-10.21,6.09-20.37,14.55-27.19,1.38-1.11,1.32-3.84,2.42-5.51,3.91-5.92,8-11.71,12.33-17.91l17,5.43,0,1.68c-9.7,6.72-22.16,9.49-30.3,19.93l16.6,6.63.62-1.4-11.4-5.32c9.08-9.81,23.13-11.3,32.25-20.16Z"/><path class="cls-1" d="M446.05,375l-42.4-31.16c-10.78,14.11-21.75,27.27-31.24,41.41-4.87,7.26-7.18,16.26-10.45,24.55-.53,1.34-.08,3.08-.08,5,6.54-3.4,12.39-6.84,18.56-9.58,14.6-6.47,29.73-9.65,45.61-5.44,3.65,1,7.06,2.83,10.67,4a43.38,43.38,0,0,0,6.28,1.1l.07.14c-19.47-11-39.41-11.27-59.74-2.65-5.58,2.37-11.15,4.76-17.8,7.6,5.54-26.87,25.43-42.83,40.14-62.45,1.73,1.28,3,2.27,4.37,3.23,10,7.3,20,14.66,30.17,21.83,1.66,1.17,3.91,1.51,5.89,2.24Z"/><path class="cls-1" d="M314,616.23c3-15.32,6.31-32.35,9.63-49.38l1.3,0-5.95-7.58-1.7.37v18.12c0,2.87.29,6.15-3.88,6.12-4,0-5.28-2.76-5.27-6.4,0-8.79,0-17.58,0-27.33l-6.19-3.48C302,571.74,310.83,594.5,314,616.23Z"/><path class="cls-1" d="M211,675.4l6,10.38c6.09-9.83,13.09-18.75,17.32-28.84,2.45-5.82.44-13.52.44-20.37l-2.06-.33Z"/><path class="cls-1" d="M220.3,643.21l11.25-20.3-4.14,2.88-.56-.49c.81-1.51,1.63-3,2.66-4.95l-5.73-6.7c-3.76,5.15-7.47,9.69-10.56,14.62-3.52,5.62-6.13,11.82-9.78,17.35s-2.65,9.77,1.73,14.72L225,627.66l1.27.58q-3.28,7.21-6.58,14.45Z"/><path class="cls-1" d="M334.32,538.6l-1.64-7L308.27,546c3.59,3.11,8.31,6,11.35,10.09A266.46,266.46,0,0,1,336.32,582c6.37,11.16,13.52,21.64,23.47,30.49l-2.7-10.3-.91.19c.27,1.32.54,2.63.82,3.94l-1.29.75c-4.77-7.19-10.71-13.89-14.06-21.69-6.21-14.47-13.71-27.69-26.44-38.14l17.13-10.73c.7.67,1.4,1.34,2.08,2Z"/><path class="cls-1" d="M438,352c-.83-.33-1.69-1-2.49-.93-8.8.7-8.8.73-15.51-4.95L418,350.87l30.65,23.24,5.14-4.25-6.63-8-4.14-1.62-9.37-7.71,4.35-.64Z"/><path class="cls-1" d="M284.08,678.27l21.73-8.16c-.36-6.72-.72-13.52-1.12-21.16l-22.28,27.44C283,677,283.53,677.64,284.08,678.27Z"/><path class="cls-1" d="M393.21,416.87l4.13,4.78,8.8-4.2c-.79-5.6-1.44-10.14-2.14-15.07C396,401.35,395.51,402,393.21,416.87Z"/><path class="cls-1" d="M389.41,405c-1.31.85-3.2,1.39-3.84,2.59-4.59,8.6-8.92,17.32-13.57,26.45,14.92-.05,26.65-7.78,38.76-14.45C400,424.15,389.69,430,377.17,432.47l13.4-26.6Z"/><path class="cls-1" d="M207.63,620.29c-1.39-4.73-2.68-9.14-4.42-15.08-3.56,11.83-8.33,21.92-9,33.1l1.24.42Z"/><path class="cls-1" d="M508.18,426.45l9.26,4.6,10.14-3,.12.5,9.63-4.66-5.84-4.72Z"/><path class="cls-1" d="M353.4,725.18,377.19,713l-.54-1.62L358.5,713C356.91,716.78,355.37,720.48,353.4,725.18Z"/><path class="cls-1" d="M405.39,493.43l-8.76,4.05-1.57-2.81c-5.06,1.65-9.11,10.13-15.84,1.13,2.47,6.25,5.54,8.22,11.27,8.19C395.74,504,403.38,499.09,405.39,493.43Z"/><path class="cls-1" d="M337.57,556.38l-2.86,4.42,16.56,31,1.32-.68q-5.46-12.69-10.94-25.37c-1.35-3.1-2.79-6.16-4.19-9.24Z"/><path class="cls-1" d="M372.86,378.74l-12.63-4.9v5.71l-4.44,2.91,9.17.65-1.77,6.41,1.48,1Z"/><path class="cls-1" d="M330.44,745.17c.81-6.6,1.63-13.21,2.48-20.07l-9.17,1.68,5.45,18.67Z"/><path class="cls-1" d="M446.47,605.69l-1.71,11.48-1.34-.06,3.24,4.5,8.89-1.12-9.13-14.74Z"/><path class="cls-1" d="M301.24,636.32c-5.31,10.2-10.2,19.61-15.11,29.06C295.63,658.35,299.82,648.58,301.24,636.32Z"/><path class="cls-1" d="M432,341l-10.15-7.46-12.21,10c2.88,2.79,3.39,2.58,14.34-6.31l8.11,3.64Z"/><path class="cls-1" d="M153.38,320.06l-2.52,4.13c4.65.63,8.88,1.1,13.07,1.81,1.58.26,3,1.18,4.61,1.62,2.57.7,5.19,1.26,7.79,1.88l.42-1.62Z"/><path class="cls-1" d="M197.36,600.23c4.13-7.45,8.92-12.83,10.74-19.77l-1.74-1.09c-3.65,5.67-7.35,11.32-10.85,17.09C195.24,596.9,196.31,598.16,197.36,600.23Z"/><path class="cls-1" d="M236.46,677.56l-9.93,15.28,9.93-1.2Z"/><path class="cls-1" d="M235.27,662.13l-17.8,29.5,1.38.82c5.85-9.89,13.23-18.86,17.79-29.51Z"/><path class="cls-1" d="M207.6,598.56c.85,6.53,1.47,11.26,2.25,17.28l6.68-7.49Z"/><path class="cls-1" d="M199,573.24c-6.5,2.24-12,11.17-10.85,18.19C191.91,585.13,195.42,579.26,199,573.24Z"/><path class="cls-1" d="M426.77,538.15l-7.36,1.94c-8.53,6.37-8.53,6.37-13.93-.17l-1,1c1.82,1.67,3.41,4.36,5.49,4.82C415.42,546.92,424.8,542.49,426.77,538.15Z"/><path class="cls-1" d="M297,782.27c7.32-2.23,8.92-9,12.09-14.54C304.77,772.38,299.19,775.94,297,782.27Z"/><path class="cls-1" d="M143,327.8l-18.2,16.73,1.49,1.61L144,328.94Z"/><path class="cls-1" d="M135.07,615l-12.89-6.34-.61.92,11.92,10.7C134.12,618.14,134.53,616.78,135.07,615Z"/><path class="cls-1" d="M387.74,538.82,386,543.55l8.78,1.46,2.06-4.43Z"/><path class="cls-1" d="M242.65,799.34c-3.62.76-7.34,11-8.35,23Z"/><path class="cls-1" d="M374.9,498.12c-1.23-7.6-5.93-3.88-10-4.25.25,1.68.34,4.05.66,4.08C368.54,498.24,371.55,498.12,374.9,498.12Z"/><path class="cls-1" d="M364.39,501.16c-.07,4.07,1.61,5,4.68,4.22,2.48-.62,6.26.24,4.57-5.31Z"/><path class="cls-1" d="M179.91,328.1c6.36-5.25,6.65-5.22,14.58-.59-1.7-1.87-3.22-5-5.16-5.32-3-.45-6.29,1-9.38,1.9C179.66,324.18,179.91,326.13,179.91,328.1Z"/><path class="cls-1" d="M351.49,471l10-2.65c-1.93-5.1-5.76-3.16-8.8-2.92C352.26,465.45,352.05,468.27,351.49,471Z"/><path class="cls-1" d="M339.63,489l9.6-.45c-.67-1.74-1-3.88-1.63-4a18.25,18.25,0,0,0-6.79.18C340.25,484.83,340.13,487,339.63,489Z"/><path class="cls-1" d="M446.42,605.75V585.86c-1.13,4.67-2.17,9-3.15,13,1.14,2.39,2.19,4.6,3.22,6.83Z"/><path class="cls-1" d="M348.88,494.32c0-4.38,0-4.38-8.57-3C340.19,495.78,341.13,496.11,348.88,494.32Z"/><path class="cls-1" d="M219.72,642.69l-13.42,21.5,1.63,1q6.18-11,12.37-21.94Z"/><path class="cls-1" d="M333.94,549l-8.79,1.3c0,.87,0,1.74,0,2.61,1.54.26,3.24,1.08,4.56.66,2.08-.66,5.31-1,4.1-4.73Z"/><path class="cls-1" d="M465.11,652.08l-26.39,2.34.25,2L465,652Z"/><path class="cls-1" d="M119.63,344c.45-2,.89-3.81,1.32-5.66l-.79-.69-9.11,7.44.41.81Z"/><path class="cls-1" d="M337.46,556.46q-1.59-8.91-3.16-17.84l.12-.14c-.14,3.49-.31,7-.47,10.49l-.16-.17,2.8,4.63-4.95,3.63.34.56,5.6-1.26A.9.9,0,0,1,337.46,556.46Z"/><path class="cls-1" d="M329.59,547.28c-3-5.31-4.72-5.11-10.19.94Z"/><path class="cls-1" d="M321.12,747c-5.36.76-8.55,5.55-12.47,9l13.13-7.15Z"/><path class="cls-1" d="M389,476.76l-18.9,2.2.11,1,18.91-2.16Z"/><path class="cls-1" d="M102.22,449.47c.59-5,2.11-10.17-2.06-14.56Q101.2,442.18,102.22,449.47Z"/><path class="cls-1" d="M424,499.48c.18-1,.37-2,.61-3.33h-9.46v4.39H420l.1-.53L415,498.2C418.89,496.91,421.58,495.5,424,499.48Z"/><path class="cls-1" d="M415.5,493.27c.79-3.75,6-6,9.18-3.89.12.88.28,2.07.53,3.89Zm8.45-1.08,0-1.55h-6.69l0,1.87Z"/><path class="cls-1" d="M123.28,502.74l-.87,11.8,1.83.2q.36-5.92.73-11.83Z"/><path class="cls-1" d="M389.81,534c-1.85,2.33-.4,3.35,1.69,3.71a52.48,52.48,0,0,0,6.34.35l1-5.6-9.2,1.69,8.09.5-.19,1.5C394.63,537.28,391.82,537.81,389.81,534Z"/><path class="cls-1" d="M226.28,378.81l5.41,7.82.93-.41-2.54-7.41Z"/><path class="cls-1" d="M354.59,384.3,351.51,390l2,1.22,3.45-5.46Z"/><path class="cls-1" d="M443.06,360.27l4.14,1.62L438,352l.07-.06c.56,1,1.09,2,1.69,3C440.82,356.72,442,358.49,443.06,360.27Z"/><path class="cls-1" d="M346.38,390.36c4,.48,4,.41,4.36-4.87C347.1,385,347.1,385,346.38,390.36Z"/><path class="cls-1" d="M449,534.53l-.75,4.38-8-.51C441.3,533.46,442.78,532.86,449,534.53Zm-1,2.39v-1.33h-6.72l-.06,1.33Z"/><path class="cls-1" d="M203.92,329.2c.63-5.39-.2-6.62-5.34-6.91Z"/><path class="cls-1" d="M501.72,426l-8.13-1.17-.26,1.75,8.11,1.32Z"/><path class="cls-1" d="M304.29,638.8c-.37,2.47-.74,5-1.12,7.42l1.8.26.75-7.65Z"/><path class="cls-1" d="M432,340.89l8.85,9,1-1.11q-5-3.87-9.94-7.76Z"/><path class="cls-1" d="M425.28,340.06l-1.92,4.29c1-.71,1.84-1,1.9-1.37a22.82,22.82,0,0,0,.06-3.51l-1.38-.23-3.79,3.51.6.81Z"/><path class="cls-1" d="M393.54,546.82l-8.26-.66-.09,1.51,8.41.69Z"/><path d="M3.53,654.8a45.75,45.75,0,0,0,3.65,4.3c13.11,12.21,29,16.52,46.38,15.16,10.39-.81,20.69-2.8,31-4.34a51.85,51.85,0,0,0,5.83-1.63L87.92,664c-14.1,1.62-27.21,3.6-40.4,4.5-14.55,1-28-2.64-39.28-12.52a25.43,25.43,0,0,0-3.65-2.27Z"/><path d="M64.57,654.52C68,660.88,70,661.63,76,659.35c10.95-4.11,21.25-2.26,31.09,3.51,1.47.86,3,1.65,5.18,2.86C107.52,651.39,85.08,644.2,64.57,654.52Z"/><path d="M120.14,800.48c-.51-6.3-.74-12.63-1.62-18.88a140.31,140.31,0,0,0-3.47-16.05c-2.73-10.32-1.66-20.37,1.42-30.39.87-2.84,1.46-5.76,2.17-8.64l-2-.49c-1.49,5.62-3.25,11.17-4.4,16.86-3.1,15.34-4.46,30.55,3,45.32,1.88,3.74,2.31,8.21,3.41,12.35Z"/><path class="cls-1" d="M558.09,431l-7-2.4-.5,1.51,7,3Z"/><path class="cls-1" d="M545.89,432.94l-6.81,6.64.46.45,7.37-6Z"/><path d="M175.36,471.26c15.42-7.06,30.65-11.37,45.38,2.19a29.6,29.6,0,0,1-2.05,3.25c-3,3.71-6.3,7.18-9,11.06-3.71,5.26-10.18,8.35-16.36,7.15a17.19,17.19,0,0,1-2.61-1l1-1.53,13.66-2.21c-7.83-4.49-14.78,3-21.22-.33l0-1.77,6.33-.62c-15-.13-26.29-5.2-27.33-11.58C167.66,474.19,171.62,473,175.36,471.26Zm36.29,6.33c.12-2.42.24-4.62.34-6.6-11.09-5.95-39.3.83-40.75,10.32Z"/><path d="M224.05,425.46l-11.86,2.09c.27,8.32,5.87,16.47.63,23.92l-12.41,3.82-1.95,4.83-1.72-.81c.56-8.44,8.93-13.11,11-20.12-1.25-3.14-2.48-5.68-3.26-8.36-1.9-6.46-3.58-13-5.37-19.48-.92-3.33-.33-6,2.64-7.68,1.12,3.72,2.2,7.26,3.35,11.07,11.84-7.3,16.58-7.69,21.78-2.32-13.1-1.33-16.88-.4-19.72,4.83,9.82-5,9.82-5,25.12.32-2.06,3.79-4.57,4.3-8,1.73a52.84,52.84,0,0,0-6.4-3.52Zm-16.23,18.92,4.31,4v-6.05l-1.31-.48Z"/><path d="M179.63,402.55c.5-7.16-2.22-11.73-8-13.43a102.41,102.41,0,0,0-13.14-2.71c-11.55-1.75-18.82,5.76-17.19,18.61,1.64-1.49,2.93-2.59,4.15-3.76,6.18-5.91,13.88-6.78,21.51-3.05C170.89,400.12,175.28,401.1,179.63,402.55Z"/><path d="M169.8,411c-4.92-1.69-9.77-2.91-14.68.78-3,2.27-6.28,4.23-9.75,6.55l2.11,3-3,1.14.94,1.76,8.2-1.25-.73.8c2,1.15,3.95,3.07,6,3.26,3,.27,7.42,1.84,8.7-2.34.63-2.07-1.46-5-2.4-7.76L177,420.25c-5.47-5.14-8.14-5.91-19.36-7.27a44.44,44.44,0,0,1,5.79-1,52.1,52.1,0,0,1,6.22.41Z"/><path d="M138.34,392.22c3.44-10.56,13.12-12.63,22-15.8-.21-.49-.41-1-.61-1.46l-7.25,1.32-.3-.71,14.27-4.95C154,367.42,136.13,382,138.34,392.22Z"/><path d="M189.29,505.11a28.59,28.59,0,0,0,20,.45c3.19-1.12,4.78-7,6.92-10.76.43-.76.06-2,.06-3.07-.8.12-1.29.07-1.37.23-3.68,7.14-8.8,11.51-17.55,10.32-2.58-.35-5.36.79-8.05,1.24Z"/><path d="M170.51,451.87c-4.16,1.58-8.2,3.13-12.25,4.66-5,1.9-7.39,6.06-9.64,10.52C153.85,469.5,167.64,459.45,170.51,451.87Z"/><path d="M178.75,422.21l-21.31,10C164.09,435.31,176.12,429.75,178.75,422.21Z"/><path d="M150.39,524.37c3.51,5.39,6.43,10.33,9.87,14.87.94,1.24,3.47,1.28,5.27,1.87.26-.49.52-1,.79-1.48a42.92,42.92,0,0,1-4.47-4.25c-1.52-1.92-2.66-4.15-4-6.22C156.09,526.5,154.46,523.59,150.39,524.37Z"/><path d="M185.68,453.43l10.22-3.05.33-1.43c-2.75-.47-5.53-1.43-8.21-1.19-1.29.12-2.38,2.5-3.55,3.86Z"/><path d="M179.61,447l11.58-8.37c-1.19-.58-3.12-2-3.56-1.64-3.28,2.69-6.26,5.74-9.33,8.68Z"/><path d="M233.3,423.85l-14.64,5.6C224.9,431.09,229,429.42,233.3,423.85Z"/><path d="M175.1,548c-1.14-4.19-4-5-8.42-2.69l7.47,4.29Z"/><path d="M175.66,542.18l-5.45-5.87-3.55,3.29,8,4.11Z"/><path d="M221,464.38c.86,2.49,1.73,5,2.83,8.11.75-.86,2-1.81,1.85-2.19-1-2.37-2.22-4.6-3.37-6.87Z"/><path d="M358.39,665.12c.87.41,1.56.88,1.68.76,4.88-4.61,11.28-2.45,16.82-3.91a55.19,55.19,0,0,0,12-5.22c1.23-.68,1.61-2.89,2.38-4.41l-1.43-1-6.09,5C376.1,651.44,367.73,654.14,358.39,665.12Z"/><path d="M344.43,647.52c4.71-6.25,9.81-12.35,14.15-19,3.48-5.28,8.15-8.09,14-9.57,1.53-.38,3-1,5.06-1.67-4.74-2.5-15.56.31-20.06,4.59C351.46,627.73,343,644.39,344.43,647.52Z"/><path d="M375.78,685.06l2.34-1.81c-4.15-1.91-34.66,8.56-39.8,14.8,2.66-.47,5.48-.52,7.94-1.49,7.11-2.82,14-6.06,21.09-9a50,50,0,0,1,5.71-1.67Z"/><path d="M375.78,685.06l-2.72.81-2.92,1.43c.35.55.71,1.1,1.07,1.65a48.58,48.58,0,0,0,5.55-.64c5.8-1.33,11.64-2.55,17.33-4.27,6.57-2,9.17-6,8-13.78C396.37,682.33,385.86,683.25,375.78,685.06Z"/><path d="M429.42,616.35c2.92-3.05,2.9-8-.5-13.67l-5.2-.3Z"/><path d="M427.84,624.67l5.54,12.85C437.59,632.15,435.88,627.82,427.84,624.67Z"/><path d="M395.73,568.19c-1.7-.51-3-2.47-4.41-3.78,1.42-1.46,2.78-4.08,4.26-4.16a117.32,117.32,0,0,1,17.17.61,4.51,4.51,0,0,1,3,3.2,4.81,4.81,0,0,1-2.54,3.73,46.56,46.56,0,0,1-7.92,1.55C401.57,569,398.51,569,395.73,568.19ZM413.15,565c-6.26-3.48-13-1.73-19.59-1.26C399.86,567.22,406.54,565.43,413.15,565Z"/><path d="M398.29,579c-1.82,0-3.8.46-5.42-.11-2.09-.73-3.9-2.29-5.83-3.49,1.73-1.51,3.31-4,5.23-4.35a66,66,0,0,1,14.27-.45c1.55.1,3,2,4.49,3-1.3,1.55-2.31,3.86-3.95,4.46-2.71,1-5.82.86-8.76,1.21Zm-8.92-5.11.06,1.87c6.45.52,12.9,1,19.18-1.87Z"/><path d="M385.07,580.46l-1.42,4.59,20.5-.93.28,1.37,3.57-5Z"/><path d="M427,559.33l-3.22,5.44.7,1.21,5.26-3.43C428.75,561.4,428.09,560.63,427,559.33Z"/><path d="M289.14,749.9c-.45-5.34-.89-10.5-1.39-16.35l13.95-1.25c.46,5.9.84,10.81,1.25,16Zm2.76-2.84,7.05-1V734.92L291.9,736Z"/><path d="M536.9,504.39l1.24,6.31h4.65v-5.77h6.5L543,500.2c-1.47-2.78,2.62-9.35-5.49-8l-.79,8.1-7.62,1.34.19,2Z"/><path d="M417.34,513.25c-.36,2.7-.72,5.39-1.25,9.38,1.68-1,3.24-1.53,3.27-2.1A68.46,68.46,0,0,0,419,513Z"/><path d="M444.56,378.87l-25.9-16.13c-6.26,10.27-13.09,1.84-20.54-.11-1.72,4-4,7.61-4.79,11.52-1.36,7.05-4.28,12.84-10.64,17.11l3.32,1.07v4.83c1.6-.39,2.88-.68,4.15-1,6.85-1.74,13.61-4.14,20.57-5.08,9.88-1.33,18.91,2.39,27.77,6.46,3.57,1.64,5.42,3.59,4.57,7.55-19.47-11-39.41-11.27-59.74-2.65-5.58,2.37-11.15,4.76-17.8,7.6,5.54-26.87,25.43-42.83,40.14-62.45,1.73,1.28,3,2.27,4.37,3.23,10,7.3,20,14.66,30.17,21.83,1.66,1.17,3.91,1.51,5.89,2.24ZM405.67,361l.6,1.36c1.25-.25,3-.07,3.65-.83,1.06-1.29,1.41-3.17,2.05-4.79l-2.18-.9Z"/><path d="M417.85,388.15c-.73.72-3.44.42-4.44-.39s-1.57-3.25-1-4.24a35.23,35.23,0,0,1,5.94-7.84c.92-.91,3.15-1,4.62-.66.89.19,1.46,1.85,2.79,3.7A115.65,115.65,0,0,1,417.85,388.15Zm-3.72-2.33,1.87,1.26,6.62-10L421,376Z"/><path d="M422.16,386.56a19.19,19.19,0,0,1,6.56-7.13c3-1.92,5.94.17,5.78,3.43-.16,3.46-4.89,8.09-8.75,8.18C423.56,390.61,420.48,389.89,422.16,386.56Zm1.19,1.92c5.09.2,7.64-2.42,7.77-8.68Z"/><path d="M438.18,381.87c-2.35,3.32-4.71,6.63-7.35,10.35l3.36,1,5.95-10.41Z"/><path d="M432.61,376.31c-1.39-4.69-6.44-7.16-9.22-5.23Z"/><path d="M443.06,360.27c-1.11-1.78-2.24-3.55-3.33-5.34-.6-1-1.13-2-1.69-3l-4.35.64Z"/><path d="M417.2,492.51l6.75-.32,0-1.55h-6.69Z"/><path d="M389.81,534c2,3.86,4.82,3.33,7.75,2.15l.19-1.5-8.09-.5S389.81,534,389.81,534Z"/><path d="M441.25,536.92H448v-1.33h-6.72Z"/><path class="cls-1" d="M171.24,481.31l40.41-3.72c.12-2.42.24-4.62.34-6.6C200.9,465,172.69,471.82,171.24,481.31Z"/><path class="cls-1" d="M210.82,441.84l-3,2.54,4.31,4v-6.05Z"/><path class="cls-1" d="M393.56,563.75c6.3,3.47,13,1.68,19.59,1.26C406.89,561.53,400.19,563.28,393.56,563.75Z"/><path class="cls-1" d="M408.61,573.86H389.37l.06,1.87C395.88,576.25,402.33,576.7,408.61,573.86Z"/><path class="cls-1" d="M291.9,736v11l7.05-1V734.92Z"/><path class="cls-1" d="M409.79,355.84,405.67,361l.6,1.36c1.25-.25,3-.07,3.65-.83,1.06-1.29,1.41-3.17,2.05-4.79Z"/><path class="cls-1" d="M421,376l-6.9,9.84,1.87,1.26,6.62-10Z"/><path class="cls-1" d="M431.12,379.8l-7.77,8.68C428.44,388.68,431,386.06,431.12,379.8Z"/><path d="M503.83,652.89c6.78-1,11.65-6.33,14.63-12.18a71.8,71.8,0,0,0,4-10.28l3.78-11.52a18.14,18.14,0,0,1,1.33-3.81c.53-1.45.3-3,.65-4.51.3-1.25,2.23-.72,1.93.53-.34,1.45-.11,3-.61,4.39-.41,1.19-1.21,2.35-1.33,3.62a.92.92,0,0,1,0,.28c-1.36,4.13-2.7,8.27-4.07,12.39a67.2,67.2,0,0,1-4.35,10.7c-3.21,5.94-8.5,11.27-15.42,12.32C503.1,655,502.56,653.08,503.83,652.89Z"/><path d="M250.22,883.26c2.55-1.22,3.46-3.93,4.55-6.36q2-4.47,4-9c1.58-3.52,6.75-.47,5.18,3s-3.18,7.34-4.9,10.94c-1.31,2.73-3,5.19-5.81,6.53C249.78,890.09,246.74,884.92,250.22,883.26Z"/><polygon class="cls-2" points="675.56 45.52 699.06 142.93 834.82 40.58 752.47 181.11 886.43 143.69 779.63 240.87 897.91 290.35 773.27 306.21 800.89 364.69 735.1 359.62 773.23 494.45 675.33 386.78 636.2 450.03 609.99 380.43 482.39 476.06 556.58 342.25 456.82 351.54 529.42 282.48 438.38 240.64 535.78 217.14 495.15 156.41 573.96 163.73 534.26 0 633.72 136.57 675.56 45.52"/><path class="cls-1" d="M544.7,274.93A4.34,4.34,0,0,1,545,272a2.83,2.83,0,0,1,4.45-1,4.23,4.23,0,0,1,1.52,2.53,4.1,4.1,0,0,1-.32,2.91,2.88,2.88,0,0,1-4.45,1A4.19,4.19,0,0,1,544.7,274.93Zm16,27.65c.2-.77.55-1.11,1-1s.64.61.54,1.52a17.88,17.88,0,0,1-.48,2.4,12,12,0,0,1-.91,2.32,7.41,7.41,0,0,1-1.47,2.08,4.12,4.12,0,0,1-2,1.11,4.23,4.23,0,0,1-2.52-.1,4.64,4.64,0,0,1-1.81-1.33,7.77,7.77,0,0,1-1.25-2.08,14.64,14.64,0,0,1-.77-2.46l-3.68-16.6-1.69.38a.52.52,0,0,1-.56-.21,1.65,1.65,0,0,1-.29-.63,1.31,1.31,0,0,1,0-.74.6.6,0,0,1,.47-.4l1.4-.32a5.89,5.89,0,0,0,3.82-2.72,5.2,5.2,0,0,0,.57-1.09,6.17,6.17,0,0,0,.28-1.21.68.68,0,0,1,.29-.43.88.88,0,0,1,.5-.17.9.9,0,0,1,.41.15.72.72,0,0,1,.28.48c.1.75.2,1.48.31,2.2s.22,1.46.31,2.2c.1.58.2,1.16.31,1.72s.22,1.13.35,1.7l2.2,9.92c.22,1,.44,2,.67,2.93s.49,1.93.77,2.92c.25.79.63,1.13,1.14,1a1,1,0,0,0,.6-.49,7.14,7.14,0,0,0,.5-1,7.31,7.31,0,0,0,.39-1.11C560.56,303.16,560.65,302.84,560.73,302.58Z"/><path class="cls-1" d="M574.12,305.06l-5.79-26.12c-.17-.76,0-1.21.62-1.34l4.49-1c.42-.09.71,0,.87.14a2.1,2.1,0,0,1,.38.91l1,4.67c.21-.57.42-1.08.62-1.52s.43-.9.67-1.36c.34-.72.68-1.38,1-2a9.4,9.4,0,0,1,1-1.56,5.88,5.88,0,0,1,1.3-1.14,5.43,5.43,0,0,1,1.75-.69,3.3,3.3,0,0,1,2.83.65,6.44,6.44,0,0,1,1.56,1.89,8.52,8.52,0,0,1,.92,2.4,7.82,7.82,0,0,1-.31,4.78,4.57,4.57,0,0,1-1.08,1.57,3.51,3.51,0,0,1-1.33.84,2.62,2.62,0,0,1-2-.05,1.82,1.82,0,0,1-1-1.78c0-.47-.09-1-.15-1.5a11.24,11.24,0,0,0-.33-1.59,1.62,1.62,0,0,0-.62-1,1.25,1.25,0,0,0-.94-.12,1.55,1.55,0,0,0-1,.68c-.23.35-.47.78-.73,1.28a11.53,11.53,0,0,0-.6,1.77,14.54,14.54,0,0,0-.33,1.58,8.21,8.21,0,0,0,0,2.33,25.32,25.32,0,0,0,.45,2.6l2.91,13.14a2.58,2.58,0,0,1,0,1.29c-.1.33-.43.55-1,.68l-3.78.84a1,1,0,0,1-1-.26A2.43,2.43,0,0,1,574.12,305.06Z"/><path class="cls-1" d="M605.11,283.92a7.07,7.07,0,0,1-2,2.34,6.57,6.57,0,0,1-2.59,1.27c-.77.18-1.4.3-1.89.39a14.48,14.48,0,0,1-1.58.2c.13.62.28,1.22.42,1.81s.33,1.21.54,1.85.56,1.44.89,2.19a10.32,10.32,0,0,0,1.19,2,5.18,5.18,0,0,0,1.5,1.4,2.41,2.41,0,0,0,1.79.27,4.45,4.45,0,0,0,2.22-1.28,7.89,7.89,0,0,0,1.6-2.53c.25-.55.46-1,.62-1.32a.63.63,0,0,1,.78-.39q.95.17.48,2a12.31,12.31,0,0,1-.93,2.45,8,8,0,0,1-5.61,4.45,6.85,6.85,0,0,1-3.27-.1,9.94,9.94,0,0,1-3-1.35,12.17,12.17,0,0,1-4.09-4.62,25.9,25.9,0,0,1-2.4-6.58,27,27,0,0,1-.66-5.6,15.42,15.42,0,0,1,.77-5.13,10.08,10.08,0,0,1,2.51-4,9.16,9.16,0,0,1,4.56-2.31,9.86,9.86,0,0,1,3.39-.15,5.38,5.38,0,0,1,3,1.39,7.37,7.37,0,0,1,1.62,2,8.33,8.33,0,0,1,.9,2.32,12.4,12.4,0,0,1,.24,3.75A7.92,7.92,0,0,1,605.11,283.92Zm-4.68-2.35a14.22,14.22,0,0,0-.37-3.25,10.5,10.5,0,0,0-1.18-3.15q-.76-1.31-1.83-1.08a1.39,1.39,0,0,0-.95.76,4.37,4.37,0,0,0-.45,1.43,11.57,11.57,0,0,0-.13,1.69c0,.59,0,1.1,0,1.53.08,1,.2,2,.37,3.07a4.9,4.9,0,0,0,.73,2.13,1.23,1.23,0,0,0,1.38.54Q600.41,284.71,600.43,281.57Z"/><path class="cls-1" d="M616.18,267a8.79,8.79,0,0,1,3.2-.1,6.16,6.16,0,0,1,2.88,1.17,6.78,6.78,0,0,1,1.66,2,7.6,7.6,0,0,1,1,2.69,5.6,5.6,0,0,1-.48,3.13,3.39,3.39,0,0,1-1.85,1.92,2,2,0,0,1-1.82-.05,2.08,2.08,0,0,1-.84-1.84q-.06-1-.09-1.92a14.64,14.64,0,0,0-.24-2.12,3.46,3.46,0,0,0-.69-1.6,1.25,1.25,0,0,0-1.35-.49,2.18,2.18,0,0,0-1.44,1.17,7.11,7.11,0,0,0-.74,2.37,16.8,16.8,0,0,0-.18,3.09,32.25,32.25,0,0,0,.27,3.39,33.66,33.66,0,0,0,.73,4c.32,1.26.69,2.49,1.12,3.68q.39,1.07.9,2.19a10.09,10.09,0,0,0,1.18,2,5.4,5.4,0,0,0,1.5,1.39,2.41,2.41,0,0,0,1.79.27,4.41,4.41,0,0,0,2.23-1.28,7.87,7.87,0,0,0,1.59-2.53c.26-.54.46-1,.62-1.32a.64.64,0,0,1,.78-.38q.95.15.48,1.95a12.21,12.21,0,0,1-.93,2.44,8,8,0,0,1-5.61,4.45,6.73,6.73,0,0,1-3.27-.09,10.56,10.56,0,0,1-3-1.35,12.36,12.36,0,0,1-4.09-4.63,25.62,25.62,0,0,1-2.4-6.58,22.06,22.06,0,0,1-.51-5.51,16.48,16.48,0,0,1,1-5.17,11.46,11.46,0,0,1,2.55-4.1A8.12,8.12,0,0,1,616.18,267Z"/><path class="cls-1" d="M633.66,291.62a6.19,6.19,0,0,1-1.87-2.24,12.32,12.32,0,0,1-1-2.92l-3.48-15.73-1.7.37a.5.5,0,0,1-.55-.21,1.65,1.65,0,0,1-.29-.63,1.19,1.19,0,0,1,0-.73.61.61,0,0,1,.47-.41l1.4-.31a5.9,5.9,0,0,0,3.81-2.72A4.58,4.58,0,0,0,631,265a6.25,6.25,0,0,0,.29-1.22.67.67,0,0,1,.29-.42.73.73,0,0,1,.49-.17.89.89,0,0,1,.42.15.76.76,0,0,1,.28.48c.1.74.2,1.48.31,2.2s.21,1.45.31,2.2c.09.58.2,1.15.3,1.71s.23,1.13.36,1.71l2,9.05c.2.88.42,1.76.66,2.63a12.21,12.21,0,0,0,.89,2.32,4.8,4.8,0,0,0,1.23,1.54,2,2,0,0,0,1.72.31,2.18,2.18,0,0,0,1.26-.73,3.27,3.27,0,0,0,.7-1.33,6.32,6.32,0,0,0,.21-1.65,7,7,0,0,0-.15-1.63l-4.15-18.74c-.17-.76,0-1.21.61-1.34l4.45-1c.42-.09.71,0,.87.14a2.1,2.1,0,0,1,.38.92l4.8,21.67q2.63,11.82-.58,18a10.39,10.39,0,0,1-2.53,3.16,8.66,8.66,0,0,1-3.78,1.81,5,5,0,0,1-2.51-.08,5.58,5.58,0,0,1-2.15-1.25,8.79,8.79,0,0,1-1.66-2.08,9.16,9.16,0,0,1-1-2.59,9.65,9.65,0,0,1-.07-4.43,11.8,11.8,0,0,1,1.46-3.5A6.48,6.48,0,0,1,633.66,291.62Zm9.05,12a2.4,2.4,0,0,0,1.46-1,5.88,5.88,0,0,0,.85-1.76,8.28,8.28,0,0,0,.36-2.17,14.69,14.69,0,0,0-.08-2.22c-.1-.86-.2-1.74-.33-2.61s-.29-1.75-.47-2.59a2.42,2.42,0,0,0-.69-1.48c-.27-.18-.7-.05-1.28.4-.4.33-.78.64-1.14.92l-1.1.85a5.68,5.68,0,0,0-2,3.25,8.84,8.84,0,0,0-.06,4.09,7.74,7.74,0,0,0,.62,1.77,6,6,0,0,0,1,1.47,3.88,3.88,0,0,0,1.3.92A2.44,2.44,0,0,0,642.71,303.59Z"/><path class="cls-1" d="M646.34,252.41a4.3,4.3,0,0,1,.31-2.94,2.83,2.83,0,0,1,4.45-1,4.29,4.29,0,0,1,1.53,2.54,4.17,4.17,0,0,1-.32,2.91,2.91,2.91,0,0,1-2,1.59,2.87,2.87,0,0,1-2.47-.61A4.19,4.19,0,0,1,646.34,252.41Zm16,27.65c.2-.77.55-1.11,1-1s.64.6.54,1.51a16.23,16.23,0,0,1-.49,2.4,12,12,0,0,1-.9,2.32,7.47,7.47,0,0,1-1.47,2.08,4.49,4.49,0,0,1-4.55,1,4.74,4.74,0,0,1-1.82-1.32,8,8,0,0,1-1.24-2.09,14.86,14.86,0,0,1-.78-2.45L649,265.9l-1.7.38a.5.5,0,0,1-.55-.21,1.65,1.65,0,0,1-.29-.63,1.23,1.23,0,0,1,0-.74.6.6,0,0,1,.47-.4l1.4-.31a5.94,5.94,0,0,0,3.81-2.72,5,5,0,0,0,.57-1.1,6.14,6.14,0,0,0,.29-1.21.68.68,0,0,1,.29-.43.86.86,0,0,1,.49-.17.89.89,0,0,1,.42.15.75.75,0,0,1,.28.49c.1.74.2,1.47.31,2.2s.21,1.45.31,2.19.2,1.16.3,1.72.23,1.13.36,1.71l2.19,9.91c.22,1,.45,2,.68,2.94s.48,1.93.77,2.91q.36,1.19,1.14,1a1,1,0,0,0,.6-.5,8.51,8.51,0,0,0,.5-1,7.64,7.64,0,0,0,.39-1.11C662.2,280.64,662.29,280.32,662.36,280.06Z"/><path class="cls-1" d="M659.23,263.64l-1.69.38a.5.5,0,0,1-.55-.21,1.53,1.53,0,0,1-.3-.63,1.31,1.31,0,0,1,0-.74.63.63,0,0,1,.47-.4l1.6-.36-.39-2a1.67,1.67,0,0,1,.54-1.93,5.6,5.6,0,0,0,1.09-1,7.73,7.73,0,0,0,.87-1.34,11.56,11.56,0,0,0,.89-2,15.48,15.48,0,0,0,.52-2.14c.07-.42.28-.63.62-.62a.68.68,0,0,1,.45.17.78.78,0,0,1,.21.52c.14.9.26,1.69.38,2.37s.23,1.34.36,2,.25,1.31.4,2,.3,1.57.49,2.58l3.53-.78a.5.5,0,0,1,.55.18,1.55,1.55,0,0,1,.3.66,1.61,1.61,0,0,1,0,.69.53.53,0,0,1-.41.43l-3.63.8,3,13.72c.31,1.42.69,2.87,1.11,4.35.25.79.63,1.13,1.14,1a.93.93,0,0,0,.6-.49,6.15,6.15,0,0,0,.5-1,7,7,0,0,0,.39-1.11c.1-.39.19-.71.27-1,.2-.77.55-1.11,1-1s.64.61.54,1.52a17.57,17.57,0,0,1-.48,2.4,12,12,0,0,1-.91,2.32,7.22,7.22,0,0,1-1.47,2.08,4.22,4.22,0,0,1-2,1.12,4.29,4.29,0,0,1-2.46-.1,4.6,4.6,0,0,1-1.82-1.23,6.62,6.62,0,0,1-1.25-2,13.72,13.72,0,0,1-.76-2.38Z"/><path class="cls-1" d="M688,279.58a6.21,6.21,0,0,1-1.87-2.25,12.09,12.09,0,0,1-1-2.91l-3.49-15.74-1.69.38a.52.52,0,0,1-.56-.21,1.65,1.65,0,0,1-.29-.63,1.31,1.31,0,0,1,0-.74.63.63,0,0,1,.47-.41l1.4-.31a5.89,5.89,0,0,0,3.82-2.72,4.71,4.71,0,0,0,.56-1.09,5.51,5.51,0,0,0,.29-1.21.68.68,0,0,1,.29-.43.88.88,0,0,1,.5-.17.9.9,0,0,1,.41.15.72.72,0,0,1,.28.48c.1.75.2,1.48.31,2.2s.22,1.46.31,2.2c.1.58.2,1.16.31,1.72s.22,1.13.35,1.7l2,9.05q.3,1.33.66,2.64a12.36,12.36,0,0,0,.9,2.31,4.54,4.54,0,0,0,1.23,1.54,2,2,0,0,0,1.72.32,2.32,2.32,0,0,0,1.26-.74,3.31,3.31,0,0,0,.69-1.33,6.65,6.65,0,0,0,.22-1.65,7.64,7.64,0,0,0-.16-1.63l-4.15-18.73c-.17-.77,0-1.22.61-1.35l4.45-1c.42-.1.71,0,.87.14a2,2,0,0,1,.38.91l4.81,21.68q2.61,11.81-.59,18a10.12,10.12,0,0,1-2.52,3.16A8.75,8.75,0,0,1,697,294.7a4.8,4.8,0,0,1-2.5-.08,5.61,5.61,0,0,1-2.16-1.25,8.51,8.51,0,0,1-1.65-2.08,9.07,9.07,0,0,1-1-2.59,9.79,9.79,0,0,1-.07-4.43,11.92,11.92,0,0,1,1.46-3.5A6.57,6.57,0,0,1,688,279.58Zm9,12a2.32,2.32,0,0,0,1.46-1,5.89,5.89,0,0,0,.86-1.76,8.71,8.71,0,0,0,.35-2.16,12.4,12.4,0,0,0-.08-2.22c-.09-.87-.2-1.74-.33-2.62s-.28-1.74-.47-2.59a2.48,2.48,0,0,0-.68-1.48c-.28-.18-.71,0-1.28.41-.4.33-.78.63-1.14.91s-.73.57-1.11.85a5.71,5.71,0,0,0-2,3.25,8.89,8.89,0,0,0-.06,4.1,7.84,7.84,0,0,0,.62,1.76,5.88,5.88,0,0,0,1,1.47,3.91,3.91,0,0,0,1.3.93A2.44,2.44,0,0,0,697.08,291.54Z"/><path class="cls-1" d="M724.86,258.42a21.52,21.52,0,0,1,.51,5.63,16.22,16.22,0,0,1-1,5.18,10.9,10.9,0,0,1-2.6,4,8.6,8.6,0,0,1-4.27,2.25,8.84,8.84,0,0,1-5-.18,9.5,9.5,0,0,1-3.8-2.61,15.29,15.29,0,0,1-2.69-4.33,32.48,32.48,0,0,1-1.71-5.43,27.66,27.66,0,0,1-.65-5.6,15.42,15.42,0,0,1,.76-5.13,10.08,10.08,0,0,1,2.51-4,9.16,9.16,0,0,1,4.56-2.31,9,9,0,0,1,5.11.17,9.59,9.59,0,0,1,3.86,2.62,15.58,15.58,0,0,1,2.74,4.35A29.81,29.81,0,0,1,724.86,258.42Zm-13.64,3c.19.88.48,2,.85,3.38a34.45,34.45,0,0,0,1.3,3.91,12.6,12.6,0,0,0,1.71,3.13,2,2,0,0,0,2.12,1c.78-.17,1.28-.78,1.5-1.84a15.19,15.19,0,0,0,.26-3.63,30.49,30.49,0,0,0-.43-4.11q-.36-2.06-.63-3.33c-.22-1-.5-2.13-.86-3.5a32.69,32.69,0,0,0-1.27-3.92,12.24,12.24,0,0,0-1.7-3.07,2,2,0,0,0-2.06-1,2.1,2.1,0,0,0-1.53,1.79,13.41,13.41,0,0,0-.31,3.55,32.82,32.82,0,0,0,.4,4.11C710.8,259.35,711,260.52,711.22,261.44Z"/><path class="cls-1" d="M738.52,265.79a2.9,2.9,0,0,0,2-1.78,5.63,5.63,0,0,0,.22-3.62l-4.15-18.73c-.17-.77,0-1.22.61-1.35l4.45-1c.42-.1.71-.05.87.14a2,2,0,0,1,.38.91l3.7,16.72c.23,1,.45,2,.68,2.93s.49,1.93.77,2.92c.25.79.63,1.13,1.14,1a1,1,0,0,0,.6-.49,7.14,7.14,0,0,0,.5-1,7.31,7.31,0,0,0,.39-1.11c.1-.39.19-.71.27-1,.2-.77.55-1.11,1-1s.64.61.54,1.52a17.88,17.88,0,0,1-.48,2.4,12,12,0,0,1-.91,2.32,7.78,7.78,0,0,1-1.47,2.08,4.58,4.58,0,0,1-4.93.88,5.92,5.92,0,0,1-2-1.77,2.82,2.82,0,0,1-.4-.7,20.92,20.92,0,0,1-2.57,2.87,15,15,0,0,1-2.52,1.89,10,10,0,0,1-1,.39,7.31,7.31,0,0,1-.89.25,4.2,4.2,0,0,1-2.51-.1,4.64,4.64,0,0,1-1.81-1.33,7.52,7.52,0,0,1-1.25-2.08,13.78,13.78,0,0,1-.77-2.46L725.46,249l-1.7.38a.5.5,0,0,1-.55-.21,1.65,1.65,0,0,1-.29-.63,1.23,1.23,0,0,1,0-.74.63.63,0,0,1,.47-.41l1.4-.31a5.87,5.87,0,0,0,3.81-2.72,4.4,4.4,0,0,0,.57-1.09,6.14,6.14,0,0,0,.29-1.21.68.68,0,0,1,.29-.43.86.86,0,0,1,.49-.17.89.89,0,0,1,.42.15.72.72,0,0,1,.28.48c.1.75.2,1.48.31,2.2s.21,1.46.31,2.2c.1.58.2,1.16.3,1.72s.23,1.13.36,1.7l2.19,9.92c.17.73.34,1.48.53,2.24a10.47,10.47,0,0,0,.7,2,3.66,3.66,0,0,0,1.13,1.41A2,2,0,0,0,738.52,265.79Z"/><path class="cls-1" d="M753.72,253.29l-7.19-30.15,4.11-.91,6.22,30.37Zm.53,9.74a4.32,4.32,0,0,1,.31-2.94,2.84,2.84,0,0,1,4.46-1,4.67,4.67,0,0,1,1.21,5.48,2.83,2.83,0,0,1-4.45,1A4.32,4.32,0,0,1,754.25,263Z"/><path class="cls-1" d="M765.57,250.67l-7.19-30.16,4.11-.91L768.71,250Zm.53,9.73a4.32,4.32,0,0,1,.32-2.94,2.83,2.83,0,0,1,4.45-1,4.65,4.65,0,0,1,1.21,5.47,2.83,2.83,0,0,1-4.45,1A4.29,4.29,0,0,1,766.1,260.4Z"/></g></g></svg>