<svg xmlns="http://www.w3.org/2000/svg" viewBox="0 0 171.07 273.45"><defs><style>.cls-1{fill:#fff;}</style></defs><g id="Layer_2" data-name="Layer 2"><g id="Layer_1-2" data-name="Layer 1"><path d="M153.54,150.58a14.38,14.38,0,0,0,1.63-1.68c.51-.65.89-1.39,1.41-2,.25-.3.51-.58.77-.85a.58.58,0,0,1-.22,0,2.44,2.44,0,0,1-2.28-1.87c-.09-.44.28-1,.45-1.46a8.41,8.41,0,0,1,1.06.8,14.65,14.65,0,0,1,1.2,1.41,2,2,0,0,1,.26.59l.22-.24a6.72,6.72,0,0,0,1.24-2,38.1,38.1,0,0,0,1.17-4.62c.42-1.62,1.19-3.1,1.57-4.73a15.65,15.65,0,0,0,.33-5.06,18.58,18.58,0,0,0-.44-2.67,8.37,8.37,0,0,1-.39-1.77,2.49,2.49,0,0,1,2.38-2.35c1.14-.15,2.64.57,3.67-.08a2.67,2.67,0,0,1-.58-.33c-1.1-.88-2-2.42-3.19-2.7-2.64-.62-3.09-2.32-3.51-4.49-.47-2.49-1.33-4.89-1.07-7.5a3.42,3.42,0,0,0-.91-2.06c-2.32-3-5.52-4.61-9.59-5.47,3.63-2.74,7.28-3.62,10.9-1.17,2.46,1.65,3.94.47,5.7-.78,1.17-.83,2.37-1.62,3.61-2.34a1.44,1.44,0,0,1,.37-.15.52.52,0,0,1,0-.31c.39-2.44.21-4.93.45-7.39a1.7,1.7,0,0,1-.51.17c-1.54.32-3.06.73-4.6,1a3.17,3.17,0,0,1-1.68-.08c-3.58-1.52-7.15-.88-10.77-.31a62.65,62.65,0,0,1-6.58.41c0-.11,0-.23,0-.35L144.7,88c-2.38-.47-2.39-.59-1.52-2.91a9,9,0,0,0,.49-2.87c0-1.14.28-1.77,1.59-1.59A2.75,2.75,0,0,0,148,79.31c.8-1.2,1.8-1.23,3.15-1.06,2.68.33,5.37.34,7.89-1,1.3-.69,2.69-1.3,4.17,0,.41.35,1.33.26,2,.17a9.75,9.75,0,0,1,1.79-.08,16.43,16.43,0,0,1-1.32-4.82,11.14,11.14,0,0,1,0-2.45,3.39,3.39,0,0,0-.41-2.19.5.5,0,0,1,0-.52,3,3,0,0,1-1,.16,3.65,3.65,0,0,1-2.06-.38c-1.09-.82-1.66-.41-2.22.52-.25.42-.56.81-.8,1.25a1.29,1.29,0,0,1-1.94.63,2.88,2.88,0,0,0-3.42.16,1.16,1.16,0,0,1-.74,0c-.38-2.2-1.15-.36-1.82-.23a25.8,25.8,0,0,1-4.62.63c-1,0-1-.89-.56-1.57.95-1.56,2.15-2.82,4.19-2.89.86,0,1.72-.08,2.57-.17,1.82-.21,1.85-.28,1.49-2.11-.54-2.85-1.14-5.69-1.55-8.55-.16-1.15.2-2.36.15-3.53-.09-1.88.11-4-.64-5.57a7.82,7.82,0,0,0-3.82-3.62c-2.16-.9-4.5-2-7-1.16a20.85,20.85,0,0,1-2.66.44,6.61,6.61,0,0,1,3.94-2.42c-1.58-.36-3.16-.72-4.75-1a1.63,1.63,0,0,1,.25.55c.11.37-1.48,1.48-2.44,1.8-3.24,1.08-6.54,2-9.83,2.89a17.12,17.12,0,0,1-4.12.87,14.05,14.05,0,0,1-4-.78c-1.46-.42-2.57-2-4.41-1.16-.2.1-.62-.28-.95-.43.6,1.47.75,3.1,2,4.34.87.85.49,1.48-.7,1.64a12.23,12.23,0,0,0-1.59.37c-.27.07-.61.34-.78.25-1.34-.64-2.54-1.63-4.16-1.58a1.46,1.46,0,0,1-.12-.92l.09-.14a.56.56,0,0,1-.32.15,7.44,7.44,0,0,0-2.45.39c-.64.3-1.06.91-1.74,1.14a3.14,3.14,0,0,1-1,.23c-.36,0-.74-.06-1.1,0a1.07,1.07,0,0,0-.72.47,9.49,9.49,0,0,1-.85.94l-.05,0a1.16,1.16,0,0,1,.51.39c.37.47-1,2.3-1.79,2.6a17.77,17.77,0,0,0-3.09,1.33c-2.08,1.29-3.13,3.31-4,5.55-1.2,3-2.75,6-4.15,8.94L86,67.52c-.51,1.32-.73,2.71-1.13,4.06a18.55,18.55,0,0,1-1.53,3.58,17.1,17.1,0,0,1-1.86,2.91c-.62.74-1.56,1.24-2,2.12s-.25,2.09-.8,3a15.81,15.81,0,0,1-2,2.62c-.73.83-1.51,1.62-2.26,2.42s-1.22,1.41-1.91,2a4.57,4.57,0,0,1-2.38,1.26c-.93.15-1.87-.16-2.78,0a2.85,2.85,0,0,1,2.15,2.76c0,.57,1.75,1.29,2.79,1.57.42.11,1.3-.71,1.64-1.29,1.75-2.94,3.67-3.75,7-2.79.41.12.81.3,1.23.38,2.38.47,3.31-.23,3.51-2.61.27-3.17,1.32-4.46,4.1-5.18,1.21-.32,1.71.14,1.49,1.25-.32,1.58-.82,3.13-1.16,4.71a8.79,8.79,0,0,0-.06,1.78,11,11,0,0,1,1.35-.4,4.26,4.26,0,0,1,.94,0c-.12,1.76,1.1,1,1.87.94a15.08,15.08,0,0,1,7.36,2.09c1,.56,1.75,1,2-.73a2.7,2.7,0,0,1,1.69-1.57,69.82,69.82,0,0,1,7.28-1.69,2.49,2.49,0,0,1,2,.72,1.4,1.4,0,0,1-.32,2.18,1,1,0,0,0-.31,1,4.73,4.73,0,0,0,1.06,1,5.51,5.51,0,0,1,.49-1c.78-1.06,1.37-2.49,2.43-3a9.49,9.49,0,0,0,3.52-3.27,3,3,0,0,1,3.92-1c.36.18.87.52.9.82a5.9,5.9,0,0,0,1.85,3.49c.21.21.09.92-.1,1.29-1.08,2.12-2.22,4.21-3.34,6.31l-.49.06a2.22,2.22,0,0,0-2.45-1.72c-.43,0-.86,0-1.29-.08-2.82-.27-5,.41-6.81,2.91-1.92,2.72-2.11,2.58.7,4.57a13.08,13.08,0,0,0,7.81,2.57,9.23,9.23,0,0,1,2.72.86,11.62,11.62,0,0,0,2.82.88c5.42.24,8.26,4.07,8.58,8.42a19.6,19.6,0,0,0,.36,2.52,5.41,5.41,0,0,1-.64,4.64,7.49,7.49,0,0,0-.8,3,.87.87,0,0,0,1.36.9c1.8-1.6,4.2-1.6,6.27-2.47,1.7-.72,3.44-1.35,5.07-2-.47-1-.88-1.91-1.25-2.8-1.4-3.32-2.57-6.77-4.27-9.93-.86-1.58-2.72-2.64-4.09-4a4.31,4.31,0,0,1-1.24-1.59,2.17,2.17,0,0,1,.43-1.74c.18-.23,1,0,1.53.1a12.31,12.31,0,0,0,3.33.51,5.93,5.93,0,0,1,4.72,1.53c1.63,1.26,3.29,2.49,5,3.62a4.73,4.73,0,0,1,2.16,4.15,18.54,18.54,0,0,0,2.57,8.63c2.76,4.94,1.65,9.71-.28,14.49a10.67,10.67,0,0,1-1.48,2.55A4.6,4.6,0,0,0,154,143.6c.11.7.31,1.35-.91,1.05-.24-.06-.79.88-1.12,1.41-1.15,1.86-2.11,3.86-3.43,5.59a9.75,9.75,0,0,1-3.64,3.13.69.69,0,0,1,.3.21.43.43,0,0,1,.33-.11,8.47,8.47,0,0,0,4.31-1.55A27.26,27.26,0,0,0,153.54,150.58ZM81.26,82.12c-.35-.6-.91-1.17-.8-1.46a3.2,3.2,0,0,1,1.25-1.3,16.24,16.24,0,0,1,2,1.86ZM95.13,67.81h-.07l-.09.41c-1.28,5.46-1.28,5.46-6.15,8.25a1.66,1.66,0,0,1-1,.15c-.09,0-.2-.52-.15-.76.7-3.22,1.25-6.49,2.23-9.63.6-1.94,2.41-3.08,4.31-3.83,1.26-.5,1.7-.15,1.55,1.26S95.36,66.43,95.13,67.81ZM93.62,88.07c1-3.06,1.82-5.69,2.7-8.31a.82.82,0,0,1,.64-.43c.19,0,.46.31.53.53C98.07,81.83,96,86.63,93.62,88.07Zm32.87-9c-.24.25-.47.63-.77.7a4.7,4.7,0,0,1-1.83,0c-.11,0-.12-.87-.08-1.33a10.58,10.58,0,0,1,.31-1.44L124,77c.31-.9.66-1.8.91-2.72.09-.33.08-.92-.12-1.06a1.17,1.17,0,0,0-1.12,0,8.5,8.5,0,0,0-1.8,2.74A5.22,5.22,0,0,1,117.75,80a2.51,2.51,0,0,0-.63.11c-5,2.56-10.61,1-15.79,2.34-1.2.32-1.62-.25-1.21-1.42.68-1.92,1.45-3.82,2.18-5.73a1.22,1.22,0,0,1,.32-.54c2.61-1.79,5-4.19,8.63-3.41a11.6,11.6,0,0,0,8.44-1.45,6.32,6.32,0,0,1,5.89-.48c1.34.54,3.47-.31,5.06-1,2.2-.91,4-.48,5.1,1.69.19.38.36.77.58,1.13.66,1.07,2,2.23,1.88,3.16a16.51,16.51,0,0,1-2.5,7.08,1.32,1.32,0,0,1-2,.48,12.91,12.91,0,0,1-2.78-2.53C129.32,77.38,128.28,77.21,126.49,79.06Zm8.33,21.06a4.77,4.77,0,0,0-3.6,2,1.77,1.77,0,0,1-1.6.17c-.66-.3-1.5-.82-.93-1.78a12.46,12.46,0,0,1,1.32-1.6c.94-1.14,2.54-1.78,2.49-3.66,0-.76,1.67-.89,2.27,0a22.58,22.58,0,0,1,1.65,3.81C135.77,99.5,135.34,100,134.82,100.12Zm10.9-43.36c-.65,2.15-1.47,4.25-2.31,6.34-.39,1-1,1.28-1.87.26a9.59,9.59,0,0,0-7.25-3.4,27.46,27.46,0,0,0-11.56,1.58c-1.36.53-3,.4-4.42.73-1.72.39-3.41.94-5.1,1.46-1.09.34-2.13.83-3.23,1.13-2.13.59-4.29,1.08-6.43,1.63-1.34.34-1.66.1-1.73-1.27a4.57,4.57,0,0,1,0-.64c.06-.56.13-1.12.2-1.68.09-2.84,1.51-4.38,4.43-4.75,3.81-.47,7.6-1.09,11.38-1.7a5.59,5.59,0,0,0,2-.77c1.34-.82,2.48-.92,3.54.47A6.86,6.86,0,0,0,125,57.5a3,3,0,0,0,3.19.28,22,22,0,0,1,4.35-1A29.2,29.2,0,0,0,136.3,56a24.53,24.53,0,0,0,3.86-1.79,4.49,4.49,0,0,0,1.69-1.51c.7-1.18,1.47-1,2.24-.26C145.31,53.58,146.24,55,145.72,56.76Z"/><path d="M116.8,2.34a9.89,9.89,0,0,0-.74-2.12.6.6,0,0,1-.91.38A3.76,3.76,0,0,0,112,.39,14.13,14.13,0,0,1,109,1a8.87,8.87,0,0,0-6.09,2.13.54.54,0,0,1-.27.14l.15.16a17.14,17.14,0,0,1-1.14,1.55c-.27.3-.78.42-1,.74Q98.25,8.76,96,11.92c-.2.28-.12.75-.17,1.14.35,0,.79.18,1,0,1.48-.86,3.4-1.12,4.17-3,.1-.24.52-.58.71-.53,2,.48,1.5-.58,1-1.57s.16-.9.78-.88a9.1,9.1,0,0,0,1.65,0,1,1,0,0,0,.69-.65c.44-2,.56-2.12,2.22-1.06a5.48,5.48,0,0,0,.78.28c-.13-.67-.26-1.19-.32-1.72s1.69-2.61,2.23-2.45c.27.08.48.47.62.77a8.48,8.48,0,0,1,.27,1,8.5,8.5,0,0,0,.43.92c.22-.13.4-.17.44-.27.26-.69.49-1.4.73-2.1.47.73,1,1.43,1.4,2.19.22.42.13,1,.42,1.39s.86.34,1.32.49a4.59,4.59,0,0,0,.25-1A12.06,12.06,0,0,0,116.8,2.34Z"/><path d="M139.05,156.21a16.09,16.09,0,0,1-6.12-.45c-3.23-.77-6.58-1-9.85-1.58a5.83,5.83,0,0,1-2.42-1.24,26.61,26.61,0,0,1-7.13-9.2,24.64,24.64,0,0,0-2.86-4.72c-.7-.86-2-1.27-3-1.89a2.52,2.52,0,0,0-3.31.38,1.33,1.33,0,0,1-1.2.14c-1.51-.73-3-1.57-4.46-2.36a11.63,11.63,0,0,0-2.09-1c-2.32-.67-4.69-1.18-7-1.89-1.46-.44-2.73-1.54-4.43-1.29-.24,0-.63-.33-.84-.6a4.27,4.27,0,0,1-.35-4.61,2.81,2.81,0,0,1,3.08-1.8,8.46,8.46,0,0,0,3-.14,6.89,6.89,0,0,0,2.83-1.68c1.18-1.26,1-2.18-.54-3.1s-3-1.68-4.47-2.56c-1.3-.78-1.37-1-1.44-2.57,1.3.48,2.55,1,3.83,1.38.42.12,1.21.12,1.33-.1.81-1.43,1.48-2.94,2.19-4.42l-.38-.23c-.6.82-1.17,1.66-1.81,2.45-.35.42-.8,1-1.18,0-.07-.2-.39-.47-.56-.45-2.35.36-.79-.95-.65-1.53a14.15,14.15,0,0,1,.8-1.94c-1.2-.25-1.25.89-1.78,1.44-.38.38-.91,1.1-1.16,1a4.63,4.63,0,0,1-2.07-1.3c-.17-.19.51-1,.7-1.62s.42-1.24.21-1.43c-.7-.65-1.1,0-1.47.56s-.86,1.2-1.28,1.8l-.52-.29a14.41,14.41,0,0,0,.6-1.62,2.69,2.69,0,0,0-.13-1c-.31.09-.7.09-.92.28a18.42,18.42,0,0,0-1.33,1.46l-.48-.33a20.85,20.85,0,0,0,1.17-2.31c.13-.34-.11-.82-.18-1.23-1.85.49-2.16-1.67-3.64-2s-2.71-1.43-4.08-2.16c-.66-.35-1.4-.56-2-1s-1.43-1.17-2.27-.39-1.62,1.75-.89,3c.54.9,1.14,2.15,2,2.42,1.45.47.82.7.27,1.37-1,1.23-2.34,1.25-3.71,1-1.83-.32-3.66-.68-5.46-1.13s-2-.78-1.87-2.67a43.64,43.64,0,0,0,0-4.43c0-.32-.4-.62-.62-.93-.17.28-.46.56-.48.85-.08,1.54-.07,3.08-.15,4.62a6.36,6.36,0,0,1-.21,1.22h.06a.51.51,0,0,1,.44.46.73.73,0,0,1,.09.08,13.27,13.27,0,0,1,2.64,5.26.65.65,0,0,1,0,.24c1.3.91,1.13,2.35,1.55,3.66h0a.39.39,0,0,1,.21,0,.41.41,0,0,1,.22,0,.43.43,0,0,1,.17.13.34.34,0,0,1,.11.17l.07.18a.57.57,0,0,1,0,.26l.06,0c1.25.94,1.51,2.35,2.31,3.59a2.3,2.3,0,0,0,1.88,1.09,15.21,15.21,0,0,1,2.52.3c1.2.37,1.59,1.57,2.64,2.14,1.69.92,3.75.43,5.59.45a.56.56,0,0,1,.6.63c-.33,1.7-2,2.52-2.65,4.06a1.29,1.29,0,0,0-.11,1,8.25,8.25,0,0,0,.49.93,2.68,2.68,0,0,1,.17,2.23c-.24.74-.59,1.42-.79,2.17-.14.55-.26,1.11-.37,1.67a20.05,20.05,0,0,0-.4,4.31,6,6,0,0,0,1,3.51c.77-1,1.57-2,2.38-2.94a2.16,2.16,0,0,1,3-.41c1.09,1,1.61.63,2.4-.29a8.5,8.5,0,0,1,2.13-1.35,19.49,19.49,0,0,0,2.86-1.81c1.63-1.46,2.53-1.6,4,.06.82.91,1.39,1.41,2.66.82a2.25,2.25,0,0,1,1.93.45c.28.25.12,1.18-.06,1.73-.57,1.83-2.17,2.46-3.81,3.1a15.18,15.18,0,0,0-4,2,16.33,16.33,0,0,1-6.94,3.14c-2.48.53-4.6,1.42-5.81,3.84a1.64,1.64,0,0,1-.42.58.45.45,0,0,1,.17.49,55.24,55.24,0,0,0-1.57,8.91c.11-.14.22-.29.35-.44a8.25,8.25,0,0,0,.84-2,15.29,15.29,0,0,1,1.28-2.85c.25-.38,1.08-.37,1.65-.54a16,16,0,0,1-.1,1.7c0,.17-.26.32-.4.47-1.51,1.56-1.27,2.52.85,3.08A12.59,12.59,0,0,0,83,161c1,.05,1.1.61.54,1-2,1.53-1.59,4-2.42,5.93-.08.19-.19.45-.12.61.94,2-.31,3.12-1.51,4.41-.58.63-.71,1.39-1.89.8-.31-.15-1,.51-1.7,1l.05,0a.59.59,0,0,1,.2.36,12.86,12.86,0,0,1,.15,2,.54.54,0,0,1-.47.58c.16.44.34,1,.65,1.87.59-1,1-1.63,1.35-2.26.74-1.2,1.43-2.43,2.27-3.56.25-.33.92-.35,1.4-.5-.12.42-.1,1-.39,1.24-1,.83-1.9,1.57-1,3,0,.1-.18.4-.34.56-.61.65-1.29,1.25-1.86,1.93a5.15,5.15,0,0,0-.6,1.3c.44,0,.89,0,1.34,0a1.68,1.68,0,0,1,.82.18c2.06,1.39,4.29.76,6.48.58.85-.08,2.06.07,2.44-.4s-.09-1.6-.16-2.44a1.33,1.33,0,0,1,.37-1.1c.63,1.77,1.22,3.54,1.91,5.29.21.54.65,1.32,1.06,1.37s1.06-.54,1.47-1a2.85,2.85,0,0,0,.63-1.32c1-4.75,2.31-9.42,2.62-14.34.23-3.56,1.29-7.07,2.12-10.57s1.88-7.1,2.75-10.66c.31-1.27.91-1.51,2-.9a7.19,7.19,0,0,0,7.17.42,3.62,3.62,0,0,1,1.68-.22c1.06,0,1.72.29.84,1.49a7.77,7.77,0,0,0-1,2.11,4.55,4.55,0,0,0,0,1.23c.48-.2,1.19-.27,1.39-.63a11.55,11.55,0,0,0,.8-2.43c1.66,2,1.62,2.12-.33,4.29a4.39,4.39,0,0,0-1,1.92c-.45,2-.3,1.75,1.53,2.48,1,.42,1.8,1.67,2.48,2.68.09.14-1,1.05-1.51,1.58,2.49.63,3.7-.21,3.71-2.67,0-.7,0-1.41,0-2.11.16-1.82.33-1.91,1.85-1a40.84,40.84,0,0,0,4.58,2.61c.73.3,1.73,0,2.77-.17a.53.53,0,0,1,.62-.58,22.32,22.32,0,0,0,4.4.15c1.39-.06,2.78-.06,4.16-.14a16.48,16.48,0,0,0,4-.66c1.08-.34,2.32-.52,3.07-1.43a7.27,7.27,0,0,1-2.15.44C141.09,155.52,140.09,156.06,139.05,156.21Zm-68.42-40.7a5,5,0,0,1-1.76.77,7,7,0,0,1-4.15-3.61,1.2,1.2,0,0,1,0-1c.62-1.11,3.67-1.09,4.32,0a20.16,20.16,0,0,1,1.28,2.19C70.6,114.38,70.87,115.29,70.63,115.51Zm46.78,40.83c-.32-1.09-.66-2.18-.93-3.29-.06-.22.11-.49.17-.74.29.13.8.23.84.42.26,1.15.4,2.32.59,3.48Z"/><path d="M120.28,3.94a2.53,2.53,0,0,0-.12-.36c0-.08-.08-.16-.11-.25s0,0,0-.05l0-.07-.09-.13a1.47,1.47,0,0,0-.1-.13l-.05-.06a2.41,2.41,0,0,0-.24-.21l-.12-.09h0l-.07,0a1.83,1.83,0,0,0-.32-.14l0,0h0l-.2,0h0c.42,1.42.82,2.84,1.23,4.27l.53,0,.38-2.31A.55.55,0,0,1,120.28,3.94Z"/><path d="M109.18,39.33a9.19,9.19,0,0,1-.75-6.14l.5,2c.12-.08.31-.14.31-.21,0-1.16-.12-2.32-.11-3.49a8.16,8.16,0,0,0-.23-3A64.88,64.88,0,0,1,107.19,21a3.52,3.52,0,0,1,.14-.88c.79,1.59,1.44,3,2.17,4.29.17.32.61.5.93.74.17-.36.52-.74.49-1.08-.09-1-.33-1.94-.5-2.91s-.35-1.92-.52-2.89a12.38,12.38,0,0,1-1.16-3.07c-.27-2.65-.29-5.33-.81-8a23.51,23.51,0,0,0-.17,2.51c0,1.69.2,3.38.3,5.08A3.25,3.25,0,0,1,108,16c-.12.33-.51.56-.78.84-.17-.29-.46-.56-.49-.86a13.9,13.9,0,0,0-.47-3.3c0,.67,0,1.35,0,2a5.38,5.38,0,0,1-1.2,3.48,5,5,0,0,0-.81,5.18,7.6,7.6,0,0,1-.06,5.68c-.74,1.91-.58,4.13-2.34,5.7-.16.15.27,1.43.69,1.63a26.81,26.81,0,0,0,3.6,1.1,11.56,11.56,0,0,1,1.4.6,7.15,7.15,0,0,1-1.36,1.18A3.27,3.27,0,0,1,107.41,42a27.85,27.85,0,0,1,0,3,.38.38,0,0,1-.07.21.54.54,0,0,1,0,.25,9.51,9.51,0,0,1,1.08-1.31,16.14,16.14,0,0,0,2.35-2.32c.63-1,1.07-.62,1.68-.17,0-.21,0-.42,0-.63C112.11,37.89,111.74,37.69,109.18,39.33Z"/><path d="M93.76,268.63c-.12,0-.26.43-.3.67a3.76,3.76,0,0,0,0,.82,2.53,2.53,0,0,1-1-.34,1.39,1.39,0,0,1-.38-.94c0-3.78-1.53-7.19-2.63-10.72a13.34,13.34,0,0,0-2.12-4.79c-.23-.27-.7-.33-1.06-.49a3.85,3.85,0,0,0,0,1,10.74,10.74,0,0,0,.69,2c.44.9,1.48,1.74-.09,2.6-.15.08,0,.93.18,1.3.65,1.1,1.4,2.13,2.11,3.2A7.48,7.48,0,0,1,90,269c-.23,1-.71,1.35-1.58.38-1.38-1.54-2.83-3-4.24-4.51a2.69,2.69,0,0,1-.62-.86c-1.76-5.36-6.33-8.25-10.48-11.46a48.6,48.6,0,0,0-6-3.76c-1.7-1-3.52-1.69-5.54-1l-.17,0s0,0,0,.06a22.65,22.65,0,0,0,2.73,6.24c1.09,1.84,2.84,3.18,4.27,4.76a.48.48,0,0,1-.3.8,29.72,29.72,0,0,1,2.51,1.6l-.14,0a.47.47,0,0,1,.15.13c1,1.4,2.53,2.34,3.73,3.58.82.84,1.22,2.09,2.36,2.58a17.25,17.25,0,0,0,2.54.76c.8.21,1.61.4,2.42.58,1.63.36,3.27.69,4.91,1,3.45.59,6.94.83,10.41,1.29,1.67.22,3.33.5,5,.88,1,.23,1.93.52,2.89.77a19.12,19.12,0,0,0,3.35.59,4.33,4.33,0,0,0,2.08-.26.6.6,0,0,1,.14-.46,8.93,8.93,0,0,1-2.85.15,62.33,62.33,0,0,1-8.1-2.2l2.22.07a20,20,0,0,0-4-2.17A11.87,11.87,0,0,0,93.76,268.63Z"/><path d="M81.15,240.67a3.37,3.37,0,0,1-1.3-1.11,1.1,1.1,0,0,1-.08.4c-.16.41-.48.52-.76.81s-.17.71-.08,1.07a1.88,1.88,0,0,1-.09,1.36c-.33.62-1.24.93-1.37,1.63a19.72,19.72,0,0,1,2.72-.51c1.26-.14,2.52-.4,3.23,1.35a2,2,0,0,0,2.9,1c.88-.39.82-.29.53-1A8.69,8.69,0,0,0,81.15,240.67Z"/><path d="M98.24,252.12c.14-.2,0-.65-.11-1-.63-2.15-1.19-4.32-1.95-6.43a17.23,17.23,0,0,0-1.65-2.83l0,0c-3.59-3.57-8.31-4-13-4.57a2.86,2.86,0,0,1-1.31-.44.47.47,0,0,1-.15.12c-.28.16-.71.34-.79.69a1.22,1.22,0,0,0,0,.6,1.43,1.43,0,0,0,.2.3,1.54,1.54,0,0,1,.26.53,4.75,4.75,0,0,1,1.72.36A26.29,26.29,0,0,1,89,245.16a37.37,37.37,0,0,1,3.1,3.26l-2-.72c2.11,2,4.18,4,7.18,4.58C97.59,252.34,98.1,252.31,98.24,252.12Z"/><path d="M101.89,231.8a12.25,12.25,0,0,0,.93-3,1.75,1.75,0,0,0-.81-1.47c-3.07-.91-5.45-3.53-8.9-3.47a1.27,1.27,0,0,1-.76-.33c-.74-.65-1-4.73-.46-5.6.22-.35.5-.9.37-1.2-.39-.9-.79-1.68.23-2.44a.76.76,0,0,0,0-.74c-1.06-.77-2.07-1.81-3.26-2.1-1.35-.32-2.39.62-2.78,2a17,17,0,0,1-.85,2.39,3.26,3.26,0,0,1-3.26,2.27,5,5,0,0,0-1.84.49,2.17,2.17,0,0,1-1.06.13,25.63,25.63,0,0,1,1,2.55,2.94,2.94,0,0,1,.23,1.17,3.27,3.27,0,0,1-.81,1.55,4.94,4.94,0,0,0-1.1,1.59,4.17,4.17,0,0,0,.4,2.4,9.3,9.3,0,0,1,.39,1.72c0,.26,0,1.18.31,1.32a.55.55,0,0,1,.26.68,12.13,12.13,0,0,1,1.84.65,7.79,7.79,0,0,1,2.82,2.38c1.3,1.75,3.51,2.2,5.76,2.31a28.55,28.55,0,0,1,7,.89c1.29.39,1.42-.23,1.83-.85a2.34,2.34,0,0,0,.19-.93,3.87,3.87,0,0,1-3.47-.86c-1.1-.89-2.73-1.11-4.13-1.66a2.77,2.77,0,0,1-1.39-1.06,15.39,15.39,0,0,1,3.74.26c1.81.58,3.36-.07,5-.47.54-.13,1.07-1.19,1.6,0C101.28,232.21,101.78,232.08,101.89,231.8Zm-6.72-4c-.52-.16-.93-.7-1.39-1.07a6.78,6.78,0,0,1,1.49-.09,12.85,12.85,0,0,1,1.79.49c0,.2,0,.39-.07.58A5.66,5.66,0,0,1,95.17,227.84Z"/><path d="M56.53,91.75c-1.6-.57-3.34.09-4.92-1.71-1.42-1.62-4.27-2-6.49-3-.49-.21-1.14-.25-1.48-.6a12.46,12.46,0,0,0-6.07-3.33,12.57,12.57,0,0,1-2.84-1.67,1.7,1.7,0,0,0-2.58.52,1.93,1.93,0,0,1-.85.75,42.71,42.71,0,0,0,5,3.17c6.22,3.41,13.06,5.65,19,9.59l.05,0a6.55,6.55,0,0,1,.95-1.73,7.11,7.11,0,0,0,.94-1.14,4.59,4.59,0,0,0,.21-1.35C57.11,91.48,56.75,91.82,56.53,91.75Z"/><path class="cls-1" d="M156.81,122.83a18.54,18.54,0,0,1-2.57-8.63,4.73,4.73,0,0,0-2.16-4.15c-1.72-1.13-3.38-2.36-5-3.62a5.93,5.93,0,0,0-4.72-1.53,12.31,12.31,0,0,1-3.33-.51c-.53-.08-1.35-.33-1.53-.1a2.17,2.17,0,0,0-.43,1.74,4.31,4.31,0,0,0,1.24,1.59c1.37,1.33,3.23,2.39,4.09,4,1.7,3.16,2.87,6.61,4.27,9.93.37.89.78,1.75,1.25,2.8-1.63.64-3.37,1.27-5.07,2-2.07.87-4.47.87-6.27,2.47a.87.87,0,0,1-1.36-.9,7.49,7.49,0,0,1,.8-3,5.41,5.41,0,0,0,.64-4.64,19.6,19.6,0,0,1-.36-2.52c-.32-4.35-3.16-8.18-8.58-8.42a11.62,11.62,0,0,1-2.82-.88,9.23,9.23,0,0,0-2.72-.86,13.08,13.08,0,0,1-7.81-2.57c-2.81-2-2.62-1.85-.7-4.57,1.76-2.5,4-3.18,6.81-2.91.43,0,.86.06,1.29.08a2.22,2.22,0,0,1,2.45,1.72l.49-.06c1.12-2.1,2.26-4.19,3.34-6.31.19-.37.31-1.08.1-1.29a5.9,5.9,0,0,1-1.85-3.49c0-.3-.54-.64-.9-.82a3,3,0,0,0-3.92,1A9.49,9.49,0,0,1,118,91.63c-1.06.55-1.65,2-2.43,3a5.51,5.51,0,0,0-.49,1,4.73,4.73,0,0,1-1.06-1,1,1,0,0,1,.31-1,1.4,1.4,0,0,0,.32-2.18,2.49,2.49,0,0,0-2-.72,69.82,69.82,0,0,0-7.28,1.69,2.7,2.7,0,0,0-1.69,1.57c-.29,1.71-1,1.29-2,.73a15.08,15.08,0,0,0-7.36-2.09c-.77,0-2,.82-1.87-.94a4.26,4.26,0,0,0-.94,0,11,11,0,0,0-1.35.4,8.79,8.79,0,0,1,.06-1.78c.34-1.58.84-3.13,1.16-4.71.22-1.11-.28-1.57-1.49-1.25-2.78.72-3.83,2-4.1,5.18-.2,2.38-1.13,3.08-3.51,2.61-.42-.08-.82-.26-1.23-.38-3.36-1-5.28-.15-7,2.79-.34.58-1.22,1.4-1.64,1.29-1-.28-2.78-1-2.79-1.57a2.85,2.85,0,0,0-2.15-2.76,1.8,1.8,0,0,0-.4.1.56.56,0,0,1-.74-.56c-1-.42-1.63-.83-1.86-1.91s-.86-1.86-1.9-1.68A5.39,5.39,0,0,0,60,88.88a4.69,4.69,0,0,0-.89,1.57,43.9,43.9,0,0,0-4-2.49c-4.55-2.26-9.16-4.42-13.75-6.6-3-1.41-5.95-2.77-8.89-4.24A4.75,4.75,0,0,1,31,75.67c-.91-1.18-1.48-2.77-3.57-2.14a2.5,2.5,0,0,1-1.81-.47,2.26,2.26,0,0,0-2.23-.37,2.29,2.29,0,0,1-2.72-1.16c-.45-1.07-1.05-1.17-2-.5a2.54,2.54,0,0,1-1.47.2,8.18,8.18,0,0,1-1.59-.33c-1.2-.33-2.84.36-3.44-1.43-1.28,0-2.56.09-3.85.06-.21,0-.4-.38-.64-.52a1.17,1.17,0,0,0-.75-.24A33.32,33.32,0,0,0,2.64,70C-.1,71-.94,74.64,1.23,76.36a6.3,6.3,0,0,0,6.46,1.16c2.64-1,2.72-1.08,4.39,1.18a22.77,22.77,0,0,0,7.54,6.21c.74.41,1.45.71,2.15,0,2.21-2.16,5-2.3,7.82-2l.52,0a.57.57,0,0,1,.9-.39l.29.21a1.93,1.93,0,0,0,.85-.75,1.7,1.7,0,0,1,2.58-.52,12.57,12.57,0,0,0,2.84,1.67,12.46,12.46,0,0,1,6.07,3.33c.34.35,1,.39,1.48.6,2.22.93,5.07,1.34,6.49,3,1.58,1.8,3.32,1.14,4.92,1.71.22.07.58-.27.88-.42a4.59,4.59,0,0,1-.21,1.35,7.11,7.11,0,0,1-.94,1.14,6.55,6.55,0,0,0-.95,1.73c.36.29.11.77-.28.87a23.52,23.52,0,0,0-.45,4.5c-.06,1,1.2,2.1,2,3a2.75,2.75,0,0,0,1.22.61.5.5,0,0,1,.44-.2,6.36,6.36,0,0,0,.21-1.22c.08-1.54.07-3.08.15-4.62,0-.29.31-.57.48-.85.22.31.61.61.62.93a43.64,43.64,0,0,1,0,4.43c-.13,1.89,0,2.21,1.87,2.67s3.63.81,5.46,1.13c1.37.24,2.69.22,3.71-1,.55-.67,1.18-.9-.27-1.37-.84-.27-1.44-1.52-2-2.42-.73-1.23,0-2.2.89-3s1.54-.06,2.27.39,1.38.6,2,1c1.37.73,2.63,1.8,4.08,2.16s1.79,2.53,3.64,2c.07.41.31.89.18,1.23a20.85,20.85,0,0,1-1.17,2.31l.48.33A18.42,18.42,0,0,1,82.19,107c.22-.19.61-.19.92-.28a2.69,2.69,0,0,1,.13,1,14.41,14.41,0,0,1-.6,1.62l.52.29c.42-.6.86-1.19,1.28-1.8s.77-1.21,1.47-.56c.21.19,0,1-.21,1.43s-.87,1.43-.7,1.62a4.63,4.63,0,0,0,2.07,1.3c.25.08.78-.64,1.16-1,.53-.55.58-1.69,1.78-1.44a14.15,14.15,0,0,0-.8,1.94c-.14.58-1.7,1.89.65,1.53.17,0,.49.25.56.45.38,1,.83.46,1.18,0,.64-.79,1.21-1.63,1.81-2.45l.38.23c-.71,1.48-1.38,3-2.19,4.42-.12.22-.91.22-1.33.1-1.28-.4-2.53-.9-3.83-1.38.07,1.6.14,1.79,1.44,2.57,1.47.88,3,1.66,4.47,2.56s1.72,1.84.54,3.1a6.89,6.89,0,0,1-2.83,1.68,8.46,8.46,0,0,1-3,.14,2.81,2.81,0,0,0-3.08,1.8,4.27,4.27,0,0,0,.35,4.61c.21.27.6.63.84.6,1.7-.25,3,.85,4.43,1.29,2.32.71,4.69,1.22,7,1.89a11.63,11.63,0,0,1,2.09,1c1.49.79,3,1.63,4.46,2.36a1.33,1.33,0,0,0,1.2-.14,2.52,2.52,0,0,1,3.31-.38c1,.62,2.28,1,3,1.89a24.64,24.64,0,0,1,2.86,4.72,26.61,26.61,0,0,0,7.13,9.2,5.83,5.83,0,0,0,2.42,1.24c3.27.59,6.62.81,9.85,1.58a16.09,16.09,0,0,0,6.12.45c1-.15,2-.69,3.07-.75a7.27,7.27,0,0,0,2.15-.44l.06-.05a.47.47,0,0,1,.53-.19,9.75,9.75,0,0,0,3.64-3.13c1.32-1.73,2.28-3.73,3.43-5.59.33-.53.88-1.47,1.12-1.41,1.22.3,1-.35.91-1.05a4.6,4.6,0,0,1,1.09-3.73,10.67,10.67,0,0,0,1.48-2.55C158.46,132.54,159.57,127.77,156.81,122.83ZM87.1,100.94a1.83,1.83,0,0,1-2.49,1,4.38,4.38,0,0,1-1.79-1.17,4.93,4.93,0,0,0,1.39,0,4.31,4.31,0,0,0,1.05-.83c-.35-.36-.72-1-1.07-1a27.72,27.72,0,0,0-3.1.49A4.94,4.94,0,0,1,80,99.2a8.9,8.9,0,0,1,.67-.91,1,1,0,0,1,.58-.25c3.29-.14,6-2.16,9.35-2.7C89.3,97.37,88.15,99.13,87.1,100.94Zm11.81,17.29c-.47-.64-.78-1.17-.08-1.83a18.13,18.13,0,0,1,1.64-1.64c.34-.25,1.06-.42,1.32-.23s.44.88.71,1.5a28.14,28.14,0,0,1-2,2.3A1,1,0,0,1,98.91,118.23Zm13.88,14.25c-.18.27-.7.35-1.09.39-.09,0-.41-.6-.34-.67,1.15-1.2-.24-1.42-.74-1.42a10.05,10.05,0,0,0-3.72.53c-2.07.85-2.2.87-3.94-.51a4.9,4.9,0,0,0-2.31-.64c-.54-.08-1.18.23-1.66.05s-1.85-.32-1.43-1.39a1.75,1.75,0,0,1,2.26-1.12,9.85,9.85,0,0,1,1.68.92,3,3,0,0,0,2.81.51c.51-.21,1.23.12,1.87.14a7.27,7.27,0,0,0,2.09-.09c.33-.08.54-.65.8-1-.38-.1-.87-.39-1.13-.26-1.35.7-2,.23-2.28-1.11-.2-.88-.67-.92-1.41-.46-.26.16-.75,0-1.14,0a3.73,3.73,0,0,1,.41-1.09c.74-.94,1.12-1,3.09-.3a2.52,2.52,0,0,0-2.6-1.85c-.31,0-.59-.44-.89-.68.26-.21.5-.55.79-.59a3.29,3.29,0,0,0,2.5-2.07c.19-.33.75-.47,1.14-.7.1.38.37.81.28,1.14-.36,1.2-.56,2.24.84,3,.26.15.26.93.22,1.4a2.43,2.43,0,0,0,2,2.8,7.77,7.77,0,0,1,1.43.74l-1,1.69a13.69,13.69,0,0,1,1.45,1.53A1.26,1.26,0,0,1,112.79,132.48Zm11.8,11.67c-.3,1.31-.61,2.61-.9,3.92s-1,1.2-1.65.47c-1.28-1.34-2.51-2.73-3.65-4.18-1.71-2.18-3.29-4.46-5-6.63-.69-.87-.76-1.53.24-2,.81-.42,1.76-.58,2.53-1,.54-.32,1.67.88,1.69-.64,0,0,.3-.11.37,0a13.4,13.4,0,0,1,3,2.41,41.51,41.51,0,0,1,3.13,5.56,9.2,9.2,0,0,1,.5,2.19Zm3.34-9.58c-.32.21-.85.37-.92.64-.32,1.17-1.08,1.4-1.9.73-.61-.5-2.45-.21-1.5-2.05a14.44,14.44,0,0,0,1-3.69,18.28,18.28,0,0,0,.2-2.1l1.29.21c-.11-1-.19-1.85-.34-2.75a1.59,1.59,0,0,0-.45-.87.8.8,0,0,0-.71.18c-1,2.08-3.28,2.35-5,3.44l-.7.46c.47.56,2.85.51.58,1.83a2.1,2.1,0,0,0,.41.8,8.43,8.43,0,0,1,1.84,2.13,3.19,3.19,0,0,1-.88-.16c-1.4-.68-2.76-1.43-4.16-2.1-1.67-.8-1.76-1.21-.25-2.3.75-.54.51-.91,0-1.28-1.16-.77-2.15-.57-3,1-.27-1.72.66-2,1.65-2.27s2.06-.38,2-1.92c0-.87.74-1.07,1.54-.4.56.47,1.27,1.21,1.85,1.16a6.66,6.66,0,0,0,2.91-1.14c.94-.63.76-1.21-.28-1.59l-1.56-.53c1.07-1.46,2.14-2.79,3-4.23.35-.56.65-1.6.37-2-.61-.86-1.62-.7-2.48-.1-.28.2-.59.37-.88.55l-.37-.28a6.47,6.47,0,0,1,1.21-1.62c1.9-1.33,1.93-1.29,1.17-3.27,2-.38,3.12.07,3.9,1.92a23.69,23.69,0,0,1,1.2,4.48q.66,3.33,1.09,6.69c.17,1.23.81,1.37,1.79,1,.74-.27,1.45-.62,2.2-.83a1.07,1.07,0,0,1,.94.25c.14.17,0,.67-.12.92-1.8,2.77-3.62,5.54-5.48,8.28C128.91,134.12,128.35,134.3,127.93,134.57ZM127,148.89a2.49,2.49,0,0,1,0-1.54c0-.19.36-.35.55-.52a4.18,4.18,0,0,1,.76.95,13,13,0,0,1,.41,1.89C128,149.35,127.27,149.26,127,148.89Zm7.77-15.84a9.42,9.42,0,0,1-1.29,1.49c-.3-.77-.79-1.41-.63-1.69a15.49,15.49,0,0,1,2-2.57c.08-.09.6.21.92.33C135.47,131.43,135.19,132.27,134.79,133.05Z"/><path class="cls-1" d="M83.57,264a2.69,2.69,0,0,0,.62.86c1.41,1.51,2.86,3,4.24,4.51.87,1,1.35.58,1.58-.38a7.48,7.48,0,0,0-.78-6.13c-.71-1.07-1.46-2.1-2.11-3.2-.21-.37-.33-1.22-.18-1.3,1.57-.86.53-1.7.09-2.6a10.74,10.74,0,0,1-.69-2,3.85,3.85,0,0,1,0-1c.36.16.83.22,1.06.49a13.34,13.34,0,0,1,2.12,4.79c1.1,3.53,2.62,6.94,2.63,10.72a1.39,1.39,0,0,0,.38.94,2.53,2.53,0,0,0,1,.34,3.76,3.76,0,0,1,0-.82c0-.24.18-.67.3-.67a11.87,11.87,0,0,1,4-.07,20,20,0,0,1,4,2.17l-2.22-.07a62.33,62.33,0,0,0,8.1,2.2,8.93,8.93,0,0,0,2.85-.15.44.44,0,0,1,.46-.16c-1.44-1.2-1.47-1.27-.64-2.58,1.54-2.44,2.63-4.89.74-7.67a1.71,1.71,0,0,1-.13-.83c-.18-2.66-.45-5.32-.47-8a7.26,7.26,0,0,0-1.2-4.19,6.81,6.81,0,0,1-.69-2.51c-.19-1.07-.15-2.19-.44-3.23-1.13-4.08-2-8.13,0-12.19a60.71,60.71,0,0,0,4.72-16.21c1-5.83,2-11.68,3.32-17.46.8-3.56,2.17-7,3.26-10.49q4.36-14.06,8.68-28.11a4.16,4.16,0,0,0,.14-1.08.52.52,0,0,1-.14-.34c-1,.12-2,.47-2.77.17a40.84,40.84,0,0,1-4.58-2.61c-1.52-.88-1.69-.79-1.85,1-.07.7,0,1.41,0,2.11,0,2.46-1.22,3.3-3.71,2.67.51-.53,1.6-1.44,1.51-1.58-.68-1-1.44-2.26-2.48-2.68-1.83-.73-2-.51-1.53-2.48a4.39,4.39,0,0,1,1-1.92c2-2.17,2-2.3.33-4.29a11.55,11.55,0,0,1-.8,2.43c-.2.36-.91.43-1.39.63a4.55,4.55,0,0,1,0-1.23,7.77,7.77,0,0,1,1-2.11c.88-1.2.22-1.46-.84-1.49a3.62,3.62,0,0,0-1.68.22,7.19,7.19,0,0,1-7.17-.42c-1.06-.61-1.66-.37-2,.9-.87,3.56-1.91,7.09-2.75,10.66s-1.89,7-2.12,10.57c-.31,4.92-1.62,9.59-2.62,14.34a2.85,2.85,0,0,1-.63,1.32c-.41.43-1,1-1.47,1s-.85-.83-1.06-1.37c-.69-1.75-1.28-3.52-1.91-5.29a1.33,1.33,0,0,0-.37,1.1c.07.84.54,2,.16,2.44s-1.59.32-2.44.4c-2.19.18-4.42.81-6.48-.58a1.68,1.68,0,0,0-.82-.18c-.45,0-.9,0-1.34,0a5.15,5.15,0,0,1,.6-1.3c.57-.68,1.25-1.28,1.86-1.93.16-.16.39-.46.34-.56-.86-1.44.08-2.18,1-3,.29-.24.27-.82.39-1.24-.48.15-1.15.17-1.4.5-.84,1.13-1.53,2.36-2.27,3.56-.38.63-.76,1.26-1.35,2.26-.31-.89-.49-1.43-.65-1.87h-.07c-.23,1.85-.46,3.72-.67,5.59a2.68,2.68,0,0,0,.07.84c.82,4.67,1.57,9.34,1,14.1a3,3,0,0,0,.08,1.47c1.23,3.06.76,6.27.94,9.42.13,2.34,0,2.34,2.26,2.84.08,0,.12.22.15.28-.39.39-1,.74-1.08,1.14a19.19,19.19,0,0,0,0,4,1.69,1.69,0,0,0,.29.8.55.55,0,0,1,.64.31l.06.14a2.17,2.17,0,0,0,1.06-.13,5,5,0,0,1,1.84-.49,3.26,3.26,0,0,0,3.26-2.27,17,17,0,0,0,.85-2.39c.39-1.43,1.43-2.37,2.78-2,1.19.29,2.2,1.33,3.26,2.1a.76.76,0,0,1,0,.74c-1,.76-.62,1.54-.23,2.44.13.3-.15.85-.37,1.2-.56.87-.28,5,.46,5.6a1.27,1.27,0,0,0,.76.33c3.45-.06,5.83,2.56,8.9,3.47a1.75,1.75,0,0,1,.81,1.47,12.25,12.25,0,0,1-.93,3c-.11.28-.61.41-.93.62-.53-1.21-1.06-.15-1.6,0-1.63.4-3.18,1-5,.47a15.39,15.39,0,0,0-3.74-.26A2.77,2.77,0,0,0,92,233.67c1.4.55,3,.77,4.13,1.66a3.87,3.87,0,0,0,3.47.86,2.34,2.34,0,0,1-.19.93c-.41.62-.54,1.24-1.83.85a28.55,28.55,0,0,0-7-.89c-2.25-.11-4.46-.56-5.76-2.31A7.79,7.79,0,0,0,82,232.39a12.13,12.13,0,0,0-1.84-.65.49.49,0,0,1-.42.36,14,14,0,0,0-.51,1.87,5,5,0,0,0,.14,1.47,3.66,3.66,0,0,0,.2.68c.51-.16,1,.45.67.81a2.86,2.86,0,0,0,1.31.44c4.66.56,9.38,1,13,4.57h0a16.71,16.71,0,0,1,1.62,2.79c.76,2.11,1.32,4.28,1.95,6.43.09.31.25.76.11,1s-.65.22-1,.16c-3-.54-5.07-2.56-7.18-4.58l2,.72a37.37,37.37,0,0,0-3.1-3.26,26.29,26.29,0,0,0-7.49-5.63,4.75,4.75,0,0,0-1.72-.36,1.29,1.29,0,0,1,0,.39,3.37,3.37,0,0,0,1.3,1.11,8.69,8.69,0,0,1,5.7,5c.29.69.35.59-.53,1a2,2,0,0,1-2.9-1c-.71-1.75-2-1.49-3.23-1.35a19.72,19.72,0,0,0-2.72.51s0,0,0,0a.55.55,0,0,1-1,.23h0c-2,.61-3.69,1-5.51-.71a7.15,7.15,0,0,0-5.65-1.59,5.28,5.28,0,0,0-4.61,4.11,2.22,2.22,0,0,0,0,.51.61.61,0,0,1,.72.38l.17,0c2-.65,3.84.08,5.54,1a48.6,48.6,0,0,1,6,3.76C77.24,255.79,81.81,258.68,83.57,264ZM80.33,195l-.67-.62,2.28-2.08c.28.43.78.85.81,1.3C82.82,194.55,81.8,195.15,80.33,195Zm4,17.58c-.91,1.94-2.79,2.71-4.7,3.89.17-3.31,1.57-5,3.9-5C84.4,211.38,84.66,211.72,84.28,212.56Zm5.37-3.22a1.14,1.14,0,0,1-1,.15c-.18-.09-.36-.71-.24-.85,1.14-1.4,1.27-3.08,1.59-4.74a8.33,8.33,0,0,1,.91-1.8c1,2-.91,4.08.84,5.36C91.09,208.09,90.4,208.76,89.65,209.34ZM96.22,242c-.55,0-1.1-.06-1.65-.09.18-.78,1.73-1,1-2.2,0-.07.19-.3.3-.46a5.09,5.09,0,0,1,1,1.42C96.92,241.1,97.47,242,96.22,242Zm3.41-5.84a3.44,3.44,0,0,0-.93-.71c-.87-.31-.91-.9-.42-1.42s1-.45,1.5-.67c.17.45.51.91.47,1.34A5,5,0,0,1,99.63,236.15Zm-1.47,18.91c1.45-3.18,4.08-4.54,7.74-4.15a17.64,17.64,0,0,1,3.08,1.42c.4.29.38,1.17.55,1.79a6.39,6.39,0,0,1-1.42-.31c-1.38-.67-2.08-.34-2.4,1.21-.6,2.87-.6,2.88-3.23,1.4-1.12-.62-2.21-1.43-3.55-.44-.17.13-.52,0-.78,0A2.62,2.62,0,0,1,98.16,255.06Zm-2.51-.4c.25.08.47.49.55.79.13.47.1,1,.2,1.46.36,1.72.59,1.87,2.29,1.52a6.2,6.2,0,0,0,.78-.2c-.51,2-1.12,4-1.44,6-.23,1.45.43,1.88,1.9,1.63.39-.07.94-.78,1,.28.06.74-.11,1.31-1,1.22a5.07,5.07,0,0,1-1.63-.45c-3.56-1.72-4.32-3.13-3.88-7a13.54,13.54,0,0,0,.13-2.1c-.06-.9.26-2-1.32-2.16-.39,0-.68-1-1.21-1.92C93.55,254.12,94.62,254.33,95.65,254.66ZM83.2,252.13c.28.16.7.25.82.49.57,1.15,1.06,2.34,1.57,3.51l-.57.23c-.68-1-1.4-2-2-3.12C82.88,253,83.13,252.51,83.2,252.13Z"/><path class="cls-1" d="M138.08,38.46a1.63,1.63,0,0,0-.25-.55l-.26,0a.5.5,0,0,1-.44-.55,6.68,6.68,0,0,0-2.2-.51c-1.91-.23-2.44-.69-2.32-2.51.14-2.25.39-4.5.64-6.74s.25-4.31-1.34-6.18a4.79,4.79,0,0,1-1.16-2.68c-.15-3.41-1.63-6.41-2.74-9.53a6.72,6.72,0,0,0-3.87-4.06c-1-.41-2-.85-2.84-1.19a.5.5,0,0,1-.31.34l-.16,0-.38,2.31-.53,0c-.41-1.43-.81-2.85-1.23-4.27a.55.55,0,0,1-.42-.62.42.42,0,0,1,.14-.28c-.49-1.33-1.09-1.62-2.35-1.37V.22a9.89,9.89,0,0,1,.74,2.12A12.06,12.06,0,0,1,116.69,5a4.59,4.59,0,0,1-.25,1c-.46-.15-1-.19-1.32-.49s-.2-1-.42-1.39c-.41-.76-.93-1.46-1.4-2.19-.24.7-.47,1.41-.73,2.1,0,.1-.22.14-.44.27a8.5,8.5,0,0,1-.43-.92,8.48,8.48,0,0,0-.27-1c-.14-.3-.35-.69-.62-.77-.54-.16-2.3,1.81-2.23,2.45s.19,1,.32,1.72a5.48,5.48,0,0,1-.78-.28c-1.66-1.06-1.78-1-2.22,1.06a1,1,0,0,1-.69.65,9.1,9.1,0,0,1-1.65,0c-.62,0-1.23-.08-.78.88s1,2.05-1,1.57c-.19,0-.61.29-.71.53-.77,1.84-2.69,2.1-4.17,3-.25.15-.69,0-1,0,0-.39,0-.86.17-1.14q2.23-3.16,4.58-6.25c.24-.32.75-.44,1-.74a17.14,17.14,0,0,0,1.14-1.55l-.15-.16A.63.63,0,0,1,102,3c-1.07.68-2.16,1.34-3.2,2.06-.52.36-.88,1-1.43,1.25-2,.75-2.68,2.5-3.36,4.16-1.91,4.63-3.62,9.34-5.51,14a12.81,12.81,0,0,0-.39,9.1c.32,1,.52,2,.71,2.79l3.61-1.81c-.44,1.67-.44,1.67,1.15,2.22L92.64,38a16.32,16.32,0,0,0,3.46-1.77c.49-.29,1.25-.6,1.28.3a5.68,5.68,0,0,1-.75,2l2.2.25c.06,0,.1.1.16.14,2,1.37,2.9,1.42,4.86.39a2.32,2.32,0,0,1,1-.09,5.31,5.31,0,0,1,.67.08.52.52,0,0,1,.57-.08s0,0,0,0A7.15,7.15,0,0,0,107.5,38a11.56,11.56,0,0,0-1.4-.6,26.81,26.81,0,0,1-3.6-1.1c-.42-.2-.85-1.48-.69-1.63,1.76-1.57,1.6-3.79,2.34-5.7a7.6,7.6,0,0,0,.06-5.68,5,5,0,0,1,.81-5.18,5.38,5.38,0,0,0,1.2-3.48c0-.67,0-1.35,0-2a13.9,13.9,0,0,1,.47,3.3c0,.3.32.57.49.86.27-.28.66-.51.78-.84a3.25,3.25,0,0,0,0-1.25c-.1-1.7-.25-3.39-.3-5.08a23.51,23.51,0,0,1,.17-2.51c.52,2.7.54,5.38.81,8a12.38,12.38,0,0,0,1.16,3.07c.17,1,.34,1.93.52,2.89s.41,1.93.5,2.91c0,.34-.32.72-.49,1.08-.32-.24-.76-.42-.93-.74-.73-1.33-1.38-2.7-2.17-4.29a3.52,3.52,0,0,0-.14.88,64.88,64.88,0,0,0,1.71,7.48,8.16,8.16,0,0,1,.23,3c0,1.17.08,2.33.11,3.49,0,.07-.19.13-.31.21l-.5-2a9.19,9.19,0,0,0,.75,6.14c2.56-1.64,2.93-1.44,3.15,1.68,0,.21,0,.42,0,.63h0c.33.15.75.53.95.43,1.84-.88,3,.74,4.41,1.16a14.05,14.05,0,0,0,4,.78,17.12,17.12,0,0,0,4.12-.87c3.29-.92,6.59-1.81,9.83-2.89C136.6,39.94,138.19,38.83,138.08,38.46ZM111.78,22.3c-.69-1.48-1.27-2.76-1.86-4l.7-1.37.73,1.19a3.49,3.49,0,0,0,.38.72C113.18,20.24,113.19,20.23,111.78,22.3Z"/><path class="cls-1" d="M124,77c.31-.9.66-1.8.91-2.72.09-.33.08-.92-.12-1.06a1.17,1.17,0,0,0-1.12,0,8.71,8.71,0,0,0-1.81,2.74A5.19,5.19,0,0,1,117.75,80a2.51,2.51,0,0,0-.63.11c-5,2.56-10.61,1-15.79,2.34-1.2.32-1.62-.25-1.21-1.42.68-1.92,1.45-3.82,2.18-5.73a1.22,1.22,0,0,1,.32-.54c2.61-1.79,5-4.19,8.63-3.41a11.6,11.6,0,0,0,8.44-1.45,6.32,6.32,0,0,1,5.89-.48c1.34.54,3.47-.31,5.06-1,2.2-.91,4-.48,5.1,1.69.19.38.36.77.58,1.13.66,1.07,2,2.23,1.88,3.16a16.51,16.51,0,0,1-2.5,7.08,1.32,1.32,0,0,1-2,.48,12.91,12.91,0,0,1-2.78-2.53c-1.58-2.11-2.62-2.28-4.41-.43-.24.25-.47.63-.77.7a4.7,4.7,0,0,1-1.83,0c-.11,0-.12-.87-.08-1.33a10.58,10.58,0,0,1,.31-1.44Z"/><path class="cls-1" d="M165.3,65.77a22.67,22.67,0,0,0-2.63-3.23c-.46-.58-1.2-1.23-1.2-1.84a19.68,19.68,0,0,1,.56-5c.56-2.18-1.88-8.72-4-9.62a4.34,4.34,0,0,1-2.33-2.57,5.82,5.82,0,0,0-1.92-2.43,9.44,9.44,0,0,0-6.43-1.94,6.85,6.85,0,0,1-2.35,0,6.52,6.52,0,0,0-2.07-.2.46.46,0,0,1-.34.05h0a6.61,6.61,0,0,0-3.94,2.42,20.85,20.85,0,0,0,2.66-.44c2.55-.84,4.89.26,7,1.16a7.82,7.82,0,0,1,3.82,3.62c.75,1.62.55,3.69.64,5.57.05,1.17-.31,2.38-.15,3.53.41,2.86,1,5.7,1.55,8.55.36,1.83.33,1.9-1.49,2.11-.85.09-1.71.14-2.57.17-2,.07-3.24,1.33-4.19,2.89-.41.68-.48,1.59.56,1.57a25.8,25.8,0,0,0,4.62-.63c.67-.13,1.44-2,1.82.23a1.16,1.16,0,0,0,.74,0,2.88,2.88,0,0,1,3.42-.16,1.29,1.29,0,0,0,1.94-.63c.24-.44.55-.83.8-1.25.56-.93,1.13-1.34,2.22-.52a3.65,3.65,0,0,0,2.06.38,3,3,0,0,0,1-.16.59.59,0,0,1,.35-.31C165.66,66.73,165.59,66.33,165.3,65.77Z"/><path class="cls-1" d="M102.05,62.9c.09-2.84,1.51-4.38,4.43-4.75,3.81-.47,7.6-1.09,11.38-1.7a5.59,5.59,0,0,0,2-.77c1.34-.82,2.48-.92,3.54.47A6.86,6.86,0,0,0,125,57.5a3,3,0,0,0,3.19.28,22,22,0,0,1,4.35-1A29.2,29.2,0,0,0,136.3,56a24.53,24.53,0,0,0,3.86-1.79,4.49,4.49,0,0,0,1.69-1.51c.7-1.18,1.47-1,2.24-.26,1.22,1.18,2.15,2.61,1.63,4.36-.65,2.15-1.47,4.25-2.31,6.34-.39,1-1,1.28-1.87.26a9.59,9.59,0,0,0-7.25-3.4,27.46,27.46,0,0,0-11.56,1.58c-1.36.53-3,.4-4.42.73-1.72.39-3.41.94-5.1,1.46-1.09.34-2.13.83-3.23,1.13-2.13.59-4.29,1.08-6.43,1.63-1.34.34-1.66.1-1.73-1.27a4.57,4.57,0,0,1,0-.64C101.91,64,102,63.46,102.05,62.9Z"/><path class="cls-1" d="M170.23,86.47a2.37,2.37,0,0,0,0-.51c-.38-1.87-.66-3.75-1-5.63C169,78.8,168.67,78,168,77.57a.49.49,0,0,1-.84,0l-.14-.27a9.75,9.75,0,0,0-1.79.08c-.66.09-1.58.18-2-.17-1.48-1.26-2.87-.65-4.17,0-2.52,1.35-5.21,1.34-7.89,1-1.35-.17-2.35-.14-3.15,1.06a2.75,2.75,0,0,1-2.74,1.32c-1.31-.18-1.58.45-1.59,1.59a9,9,0,0,1-.49,2.87c-.87,2.32-.86,2.44,1.52,2.91l.85.14c0,.12,0,.24,0,.35a62.65,62.65,0,0,0,6.58-.41c3.62-.57,7.19-1.21,10.77.31a3.17,3.17,0,0,0,1.68.08c1.54-.29,3.06-.7,4.6-1a1.7,1.7,0,0,0,.51-.17c0-.12,0-.25,0-.37A.47.47,0,0,1,170.23,86.47Z"/><path class="cls-1" d="M169.23,119c-1.06-2.53-2.21-5-3.28-7.56-.57-1.35-1-2.77-1.56-4.12s.09-2,1.07-2.62c1.3-.87,2.57-1.78,3.79-2.75,1.76-1.39,2-3.36,1.74-5.38a1.87,1.87,0,0,0-.78-1.42.59.59,0,0,1-.91-.15,1.44,1.44,0,0,0-.37.15c-1.24.72-2.44,1.51-3.61,2.34-1.76,1.25-3.24,2.43-5.7.78-3.62-2.45-7.27-1.57-10.9,1.17,4.07.86,7.27,2.48,9.59,5.47a3.42,3.42,0,0,1,.91,2.06c-.26,2.61.6,5,1.07,7.5.42,2.17.87,3.87,3.51,4.49,1.21.28,2.09,1.82,3.19,2.7a2.67,2.67,0,0,0,.58.33l.08,0a.53.53,0,0,1,.78.19l0,0a2.36,2.36,0,0,0,1-1.46A2.89,2.89,0,0,0,169.23,119Zm-1.2,2.26-1.89-2.56a7.13,7.13,0,0,1,1-.72c.69.68,1.31,1.44,2,2.3Z"/><path class="cls-1" d="M98.16,137.46a2.25,2.25,0,0,0-1.93-.45c-1.27.59-1.84.09-2.66-.82-1.49-1.66-2.39-1.52-4-.06a19.49,19.49,0,0,1-2.86,1.81,8.5,8.5,0,0,0-2.13,1.35c-.79.92-1.31,1.26-2.4.29a2.16,2.16,0,0,0-3,.41c-.81,1-1.61,1.94-2.38,2.94l.13.18c.43.49-.32,1.07-.8.71l-.21.29a11.16,11.16,0,0,0-.89,2.38c.3,1.31.58,3,1.07,4.55a1.81,1.81,0,0,0,.42.77.64.64,0,0,1,.7,0,1.64,1.64,0,0,0,.42-.58c1.21-2.42,3.33-3.31,5.81-3.84a16.33,16.33,0,0,0,6.94-3.14,15.18,15.18,0,0,1,4-2c1.64-.64,3.24-1.27,3.81-3.1C98.28,138.64,98.44,137.71,98.16,137.46Z"/><path class="cls-1" d="M83.49,162c.56-.43.41-1-.54-1a12.59,12.59,0,0,1-2.73-.4c-2.12-.56-2.36-1.52-.85-3.08.14-.15.38-.3.4-.47a16,16,0,0,0,.1-1.7c-.57.17-1.4.16-1.65.54a15.29,15.29,0,0,0-1.28,2.85,8.25,8.25,0,0,1-.84,2c-.13.15-.24.3-.35.44,0,.31,0,.61,0,.91,0,.48-.53.54-.85.31-1.58,2.34-1.86,4.12-1.46,7.83.13-.82.23-1.44.34-2.06.4-2.43,1-3,3.38-3.31a1.57,1.57,0,0,1,1.19.52c.15.19-.1.81-.34,1.09a1.16,1.16,0,0,1-1,.26c-1.19-.21-1.28.45-1.57,1.39a11,11,0,0,0,0,6.55h0a.57.57,0,0,1,.36.09c.68-.49,1.39-1.15,1.7-1,1.18.59,1.31-.17,1.89-.8,1.2-1.29,2.45-2.43,1.51-4.41-.07-.16,0-.42.12-.61C81.9,166,81.48,163.57,83.49,162Z"/><path class="cls-1" d="M95.06,67.8l-.09.41c-1.28,5.46-1.28,5.46-6.15,8.25a1.66,1.66,0,0,1-1,.15c-.09,0-.2-.52-.15-.76.7-3.22,1.25-6.49,2.23-9.63.6-1.94,2.41-3.08,4.31-3.83,1.26-.5,1.7-.15,1.55,1.26s-.44,2.78-.67,4.16Z"/><path class="cls-1" d="M136.42,99.05c-.65.45-1.08,1-1.6,1.07a4.77,4.77,0,0,0-3.6,2,1.77,1.77,0,0,1-1.6.17c-.66-.3-1.5-.82-.93-1.78a12.46,12.46,0,0,1,1.32-1.6c.94-1.14,2.54-1.78,2.49-3.66,0-.76,1.67-.89,2.27,0A22.58,22.58,0,0,1,136.42,99.05Z"/><path class="cls-1" d="M99.39,49.33a1.16,1.16,0,0,0-.51-.39.57.57,0,0,1-.55,0c-.46.12-.92.5-1.37.61a3.69,3.69,0,0,0-.93.51c-3,2-5.52,4.18-6.45,8-.75,3.12-2.33,6-3.58,9.06a.53.53,0,0,1,0,.37v0l.38.23c1.4-3,3-5.89,4.15-8.94.88-2.24,1.93-4.26,4-5.55a17.77,17.77,0,0,1,3.09-1.33C98.38,51.63,99.76,49.8,99.39,49.33Z"/><path class="cls-1" d="M114.41,46c-1.29-1.24-1.44-2.87-2-4.34h0c-.61-.45-1.05-.83-1.68.17a16.14,16.14,0,0,1-2.35,2.32,9.51,9.51,0,0,0-1.08,1.31.5.5,0,0,1-.11.17l-.09.14a1.46,1.46,0,0,0,.12.92c1.62-.05,2.82.94,4.16,1.58.17.09.51-.18.78-.25a12.23,12.23,0,0,1,1.59-.37C114.9,47.47,115.28,46.84,114.41,46Z"/><path class="cls-1" d="M68.87,116.28a7,7,0,0,1-4.15-3.61,1.2,1.2,0,0,1,0-1c.62-1.11,3.67-1.09,4.32,0a21.93,21.93,0,0,1,1.28,2.19c.23.52.5,1.43.26,1.65A5,5,0,0,1,68.87,116.28Z"/><path class="cls-1" d="M93.62,88.07c1-3.06,1.82-5.69,2.7-8.31a.82.82,0,0,1,.64-.43c.19,0,.46.31.53.53C98.07,81.83,96,86.63,93.62,88.07Z"/><path class="cls-1" d="M81.26,82.12c-.35-.6-.91-1.17-.8-1.46a3.2,3.2,0,0,1,1.25-1.3,16.24,16.24,0,0,1,2,1.86Z"/><path class="cls-1" d="M157.13,146.05a.58.58,0,0,0,.22,0l.47-.5a2,2,0,0,0-.26-.59,14.65,14.65,0,0,0-1.2-1.41,8.41,8.41,0,0,0-1.06-.8c-.17.49-.54,1-.45,1.46A2.44,2.44,0,0,0,157.13,146.05Z"/><path class="cls-1" d="M62.9,114.15l.12-.06c-.42-1.31-.25-2.75-1.55-3.66a.49.49,0,0,1-.23.39c.17,1.81.57,2.68,1.6,3.38Z"/><path class="cls-1" d="M117.41,156.34c-.32-1.09-.66-2.18-.93-3.29-.06-.22.11-.49.17-.74.29.13.8.23.84.42.26,1.15.4,2.32.59,3.48Z"/><path d="M94.55,241.94c.15-.82,1.77-1,1-2.24,0-.07.19-.3.3-.46a5.09,5.09,0,0,1,1,1.42c.12.44.67,1.37-.58,1.33-.56,0-1.12-.06-1.69-.09Z"/><path class="cls-1" d="M97,227.75a5.66,5.66,0,0,1-1.82.09c-.52-.16-.93-.7-1.39-1.07a6.78,6.78,0,0,1,1.49-.09,12.85,12.85,0,0,1,1.79.49Z"/><path d="M124.8,128.1l1.29.21c-.11-1-.19-1.85-.34-2.75a1.59,1.59,0,0,0-.45-.87.8.8,0,0,0-.71.18c-1,2.08-3.28,2.35-5,3.44l-.7.46c.47.56,2.85.51.58,1.83a2.1,2.1,0,0,0,.41.8,8.43,8.43,0,0,1,1.84,2.13,3.19,3.19,0,0,1-.88-.16c-1.4-.68-2.76-1.43-4.16-2.1-1.67-.8-1.76-1.21-.25-2.3.75-.54.51-.91,0-1.28-1.16-.77-2.15-.56-3,1-.27-1.72.66-2,1.65-2.27s2.06-.38,2-1.92c0-.87.74-1.07,1.54-.4.56.47,1.27,1.21,1.85,1.16a6.66,6.66,0,0,0,2.91-1.14c.94-.63.76-1.21-.28-1.59l-1.56-.53c1.07-1.46,2.14-2.79,3-4.23.35-.56.65-1.6.37-2-.61-.86-1.62-.7-2.48-.1-.28.2-.59.37-.88.55l-.37-.28a6.47,6.47,0,0,1,1.21-1.62c1.9-1.33,1.93-1.29,1.17-3.27,2-.38,3.12.07,3.9,1.92a23.69,23.69,0,0,1,1.2,4.48q.66,3.33,1.09,6.69c.17,1.23.81,1.37,1.79,1,.74-.27,1.45-.62,2.2-.83a1.07,1.07,0,0,1,.94.25c.14.17,0,.67-.12.92-1.8,2.77-3.62,5.54-5.48,8.28-.26.38-.82.56-1.24.83s-.85.37-.92.64c-.32,1.17-1.08,1.4-1.9.73-.61-.5-2.45-.21-1.5-2.05a14.44,14.44,0,0,0,1-3.69A18.28,18.28,0,0,0,124.8,128.1Z"/><path d="M124.59,144.15c-.3,1.31-.61,2.61-.9,3.92s-1,1.2-1.65.47c-1.28-1.34-2.51-2.73-3.65-4.18-1.71-2.18-3.29-4.46-5-6.63-.69-.87-.76-1.53.24-2,.81-.42,1.76-.58,2.53-1,.54-.32,1.67.88,1.69-.64,0,0,.3-.11.37,0a13.4,13.4,0,0,1,3,2.41,41.51,41.51,0,0,1,3.13,5.56,9.2,9.2,0,0,1,.5,2.19Z"/><path d="M106.61,124.91a2.52,2.52,0,0,0-2.6-1.85c-.31,0-.59-.44-.89-.68.26-.21.5-.55.79-.59a3.29,3.29,0,0,0,2.5-2.07c.19-.33.75-.47,1.14-.7.1.38.37.81.28,1.14-.36,1.2-.56,2.24.84,3,.26.15.26.93.22,1.4a2.43,2.43,0,0,0,2,2.8,7.77,7.77,0,0,1,1.43.74l-1,1.69a13.69,13.69,0,0,1,1.45,1.53,1.26,1.26,0,0,1,0,1.15c-.18.27-.7.35-1.09.39-.09,0-.41-.6-.34-.67,1.15-1.2-.24-1.42-.74-1.42a10.05,10.05,0,0,0-3.72.53c-2.07.85-2.2.87-3.94-.51a4.9,4.9,0,0,0-2.31-.64c-.54-.08-1.18.23-1.66.05s-1.85-.32-1.43-1.39a1.75,1.75,0,0,1,2.26-1.12,9.85,9.85,0,0,1,1.68.92,3,3,0,0,0,2.81.51c.51-.21,1.23.12,1.87.14a7.27,7.27,0,0,0,2.09-.09c.33-.08.54-.65.8-1-.38-.1-.87-.39-1.13-.26-1.35.7-2,.23-2.28-1.11-.2-.88-.67-.92-1.41-.46-.26.16-.75,0-1.14,0a3.73,3.73,0,0,1,.41-1.09C104.26,124.27,104.64,124.25,106.61,124.91Z"/><path d="M90.56,95.34c-1.26,2-2.41,3.79-3.46,5.6a1.83,1.83,0,0,1-2.49,1,4.38,4.38,0,0,1-1.79-1.17,4.93,4.93,0,0,0,1.39,0,4.31,4.31,0,0,0,1.05-.83c-.35-.36-.72-1-1.07-1a27.72,27.72,0,0,0-3.1.49A4.94,4.94,0,0,1,80,99.2a8.9,8.9,0,0,1,.67-.91,1,1,0,0,1,.58-.25C84.5,97.9,87.24,95.88,90.56,95.34Z"/><path d="M102.5,116a28.14,28.14,0,0,1-2,2.3,1,1,0,0,1-1.64-.1c-.47-.64-.78-1.17-.08-1.83a18.13,18.13,0,0,1,1.64-1.64c.34-.25,1.06-.42,1.32-.23S102.23,115.41,102.5,116Z"/><path d="M133.5,134.54c-.3-.77-.79-1.41-.63-1.69a15.49,15.49,0,0,1,2-2.57c.08-.09.6.21.92.33-.33.82-.61,1.66-1,2.44A9.42,9.42,0,0,1,133.5,134.54Z"/><path d="M128.69,149.67c-.74-.32-1.42-.41-1.67-.78a2.49,2.49,0,0,1,0-1.54c0-.19.36-.35.55-.52a4.18,4.18,0,0,1,.76.95A13,13,0,0,1,128.69,149.67Z"/><path d="M99.47,258.23c-.51,2-1.12,4-1.44,6-.23,1.45.43,1.88,1.9,1.63.39-.07.94-.78,1,.28.06.74-.11,1.31-1,1.22a5.07,5.07,0,0,1-1.63-.45c-3.56-1.72-4.32-3.13-3.88-7a13.54,13.54,0,0,0,.13-2.1c-.06-.9.26-2-1.32-2.16-.39,0-.68-1-1.21-1.92,1.48.37,2.55.58,3.58.91.25.08.47.49.55.79.13.47.1,1,.2,1.46.36,1.72.59,1.87,2.29,1.52A6.2,6.2,0,0,0,99.47,258.23Z"/><path d="M105.9,250.91a17.64,17.64,0,0,1,3.08,1.42c.4.29.38,1.17.55,1.79a6.39,6.39,0,0,1-1.42-.31c-1.38-.67-2.08-.34-2.4,1.21-.6,2.87-.6,2.88-3.23,1.4-1.12-.62-2.21-1.43-3.55-.44-.17.13-.52,0-.78,0a2.62,2.62,0,0,1,0-1C99.61,251.88,102.24,250.52,105.9,250.91Z"/><path d="M79.58,216.45c.17-3.31,1.57-5,3.9-5,.92,0,1.18.32.8,1.16C83.37,214.5,81.49,215.27,79.58,216.45Z"/><path d="M91,202.1c1,2-.91,4.08.84,5.36-.7.63-1.39,1.3-2.14,1.88a1.14,1.14,0,0,1-1,.15c-.18-.09-.36-.71-.24-.85,1.14-1.4,1.27-3.08,1.59-4.74A8.83,8.83,0,0,1,91,202.1Z"/><path d="M80.33,195l-.67-.62,2.28-2.08c.28.43.78.85.81,1.3C82.82,194.55,81.8,195.15,80.33,195Z"/><path d="M99.66,236.18a4.12,4.12,0,0,0-1-.74c-.87-.31-.91-.9-.42-1.42s1-.45,1.5-.67c.17.45.51.91.47,1.34a4.86,4.86,0,0,1-.62,1.46Z"/><path d="M85,256.36c-.68-1-1.4-2-2-3.12-.14-.26.11-.73.18-1.11.28.16.7.25.82.49.57,1.15,1.06,2.34,1.57,3.51Z"/><path d="M109.92,18.28l.7-1.38.73,1.19a3.49,3.49,0,0,0,.38.72c1.45,1.43,1.46,1.42,0,3.49l-1.88-4.07Z"/><path d="M169.22,120.26l-1.19,1-1.89-2.56a7.13,7.13,0,0,1,1-.72C167.87,118.64,168.49,119.4,169.22,120.26Z"/></g></g></svg>