<svg xmlns="http://www.w3.org/2000/svg" viewBox="0 0 439.8 242.67"><defs><style>.cls-1{fill:#d04f3a;}</style></defs><g id="Layer_2" data-name="Layer 2"><g id="Layer_1-2" data-name="Layer 1"><path class="cls-1" d="M0,170.8a26.58,26.58,0,0,0,.31-10.19c-.46-3.69,2.37-7.79,3.76-11.71l1.18.06-3-2.13a19.88,19.88,0,0,0,1.36-2.07c1-2,1.95-4.09,2.9-6.14.1-.21,0-.52,0-.74.5-1.4.65-3.59,1.61-4,5.55-2.67,3.59-10.54,9.32-13,1-.42,1.52-1.87,2.23-2.87.13-.18,0-.52.14-.73.73-1.29,1.25-2.81,2.29-3.8,3.19-3.06,6.49-6,10-8.74.76-.6,2.41-.07,3.72.32-1.77,2-2.31,5.31-5.38,4.57A17.16,17.16,0,0,1,29,113q-8.13,11.45-16.41,22.77a35.54,35.54,0,0,1-3.53,3.63c.1.17,1,1,.82,1.58-1.22,3.94-2.63,7.81-4.06,11.67-.18.48-.9.72-1.31,1.14-.81.83-3,1.63-.07,2.65.31.11.51,1.08.44,1.6-1.12,8.6.94,16.35,5.3,23.84,3.12,5.36,8.17,8.18,12.71,11.72,2.59,2,5.55,3.59,8.34,5.36l.05-.08c-1.6,2-3.62,3.15-6,1.65A14.26,14.26,0,0,1,21,195.9c-4.91-.51-8.58-2.38-10.24-7.93-.5-1.7-3.54-2.65-5.42-3.94Z"/><path class="cls-1" d="M439.8,129.57l-1.65,2.8-26.73-3.3c1-1.38,1.67-2.22,2.65-3.52l25.45,3.32Z"/><path class="cls-1" d="M430.77,107.28c-1.1,2.88-2.33,4-5.74,2.19-2.4-1.25-5.74-.71-8.66-1l-4.89-.42c0-1.38,0-2.46.09-4l18.92,2.47Z"/><path class="cls-1" d="M310,109.84l2.14,4.56-17.36,15,.74.93,23.08-17-2.47-.6,8.62-4.24c0,4.59-2.16,7-5.26,8.24-2.15.9-3.27,2.39-4.81,3.89-2.4,2.33-5.1,5.3-9.25,5.18a3.27,3.27,0,0,0-2.4,1.69c-.23.49.8,1.56,1.45,2.68-3.69,2.8-9.75,2.86-10.63,7.89l-4.35,0c.17.5.34,1,.29.87-1.63,1.56-3.2,3.17-4.88,4.65-1.91,1.67-3.91,3.22-6.42,5.28,0,3.55-2.45,6.66-7,8.35-.85.32-1.38,1.68-1.92,2.63-.34.61-.18,1.66-.64,2-6.89,5.41-13.75,10.87-20.88,16-1.33,1-3.79.33-6.59.48,6.63-4.71,12.51-8.48,17.91-12.85A125.13,125.13,0,0,0,272.06,153c-2.74.58-5.21.2-7.86,2.65-2.17,2-5.62,6.22-10.26,3.08,0,3.93-2.67,6.11-7.24,6.63-1.24.14-2.37,1.18-3.57,1.77a67.38,67.38,0,0,1-7.49,3.56c-1.64.57-3.56.36-6.12.56l2,1.57c-.15.27-.21.57-.39.67-4.92,2.65-10.68,3.31-15.31,6.9-1.87,1.45-4.4.45-4.82-3,.74-.38,1.56-.86,2.42-1.24,8.21-3.71,16.21-8.05,24.71-10.9,7.77-2.59,13.92-7.68,21-11.33,7.2-3.72,14.05-8.14,20.91-12.48a13.81,13.81,0,0,0,4.72-5.69c-7.54,4.67-14.92,9.63-22.66,14-7.57,4.24-14.91,9.1-23.13,12l-.61-1.27c6-2.87,12.07-5.62,18-8.63,3.56-1.81,6.95-3.95,10.35-6,4.53-2.79,9.23-5.39,13.43-8.62,4.89-3.75,9.27-8.15,14-12.15,1.26-1.07,3-1.58,4.3-2.59a29.18,29.18,0,0,0,5.53-4.9c2-2.62,2.67-6.29,6.21-7.69Z"/><path class="cls-1" d="M352.17,75.1l1.75,1.29c-1.94,1.64-4.18,2.82-5.31,4.67s-1.12,4.35-1.63,6.64L341.93,86l10.49-18.5-1.2-.92a14.82,14.82,0,0,0-2.36,2.47c-2.88,5-5.59,10-8.5,15a4.07,4.07,0,0,1-3.12,1.72l10.83-17.44a19,19,0,0,0-3.25.54q-13.11,5.59-26.18,11.28c-.22.09-.44.41-.62.39-6.19-.89-7.67,5.46-11.79,7.84s-7.48,6.49-11.41,9.49c-1.24.95-3.31.81-5.47.56a35.44,35.44,0,0,1,2.78-3.08c3.75-3.3,7.6-6.48,11.33-9.79,1.4-1.24,3.76-1.55,3.62-4.47,0-.74,3-1.73,4.71-2.43s3.71-1.2,5.5-2c9.22-3.87,18.32-8,27.67-11.57,3.57-1.34,5.79-3,6.3-6.78a14.75,14.75,0,0,1,1-2.84l1.08.3-1.4,6.62c3.42.64,2.71-2.48,3.13-3.83,2.43-7.92,1.66-15.81-1.36-23.43-1.16-2.92.6-3.49,1.81-4.28,1.32,2.06,2.43,3.62,3.34,5.29.71,1.3,1.92,3,1.59,4.09-1.22,4.06.61,7.92.29,11.75-.27,3.26-2.24,6.38-3.27,9.1l23.65-2.42c-4.46,4.37-4.46,4.37-9.14,1.41l.46,3.38C362.35,61.45,355.65,65.6,352.17,75.1Z"/><path class="cls-1" d="M265.61,5.08c-8.57.45-17,3.54-24.85,1.41-1.62.94-2.6,1.87-3.72,2.1-11.56,2.38-23.28,4.14-34.69,7.09-10.5,2.72-20.67,6.73-31,10.07a40.54,40.54,0,0,1-5,.78,7,7,0,0,0-2.28.81c-.71.42-1.18,1.3-1.91,1.6-4.71,2-9.39,4.07-14.25,5.62-6.61,2.12-12.32,6.22-19,8.32.16-1.58.31-3.05.57-5.49,2.53-.6,6.44-.41,8.52-2.27,3.74-3.34,8.12-3.77,12.28-5.45,3.48-1.4,6.17-4.65,10.61-3.71.47.09,1.18-.7,1.71-1.16,2.64-2.25,5.37-3.95,9.14-3.18A3.8,3.8,0,0,0,175,20.49c1.93-2.86,4.65-2.87,7.57-2.91a13.92,13.92,0,0,0,3.82-1.1c.22-.07.36-.43.56-.47,3.21-.54,6.77-.35,9.53-1.75,3-1.5,5.49-4.24,9.09-3.44,2.75.61,4.72.27,6.53-1.89A3.06,3.06,0,0,1,215,8.42l-1.82.89,4.65,1.87c.28-.82.55-1.65.89-2.65.6-.06,1.81.18,2.39-.32,3.23-2.78,6.65-3.75,10.75-2.11.58.23,1.57-.4,2.29-.77s1.18-1.24,1.8-1.28c3.34-.23,7.06.6,9.94-.61,3.46-1.45,6.38-2.39,10-.94.84.34,2.14-.64,3.26-.78a8.36,8.36,0,0,1,4.88.61L266.64.82l.77.78-1.84,3.53Z"/><path class="cls-1" d="M252.64,227.53l2,.29.31.91-33.19,11.5-1-1.35c1.37-1.15,2.57-2.84,4.15-3.36,6.13-2,12.57-3.25,18.56-5.63,6.45-2.55,12.51-6,18.74-9.15.43-.21.81-.74,1.2-.73,2.59.06,3.95-.6,5.46-3.35s5.47-4.55,8.41-6.68c3.91-2.82,7.83-5.36,10.43-9.84s6.27-8,9.61-11.92c.61-.7,1.88-.82,2.15-1.6,2.35-3.55,4.56-7.21,7.08-10.63a112.73,112.73,0,0,1,7.71-9.2c.74-.81,2.19-1,3.05-1.31l7.92-10.15,2.43,3.32a2.6,2.6,0,0,1-.41.59c-11.13,9.55-19.17,21.74-28.22,33.06-2.45,3-5.71,5.43-8.35,8.34-1.84,2-3.08,4.57-4.94,6.56-1.19,1.27-3,1.94-4.56,2.88-.63.38-1.55.6-1.86,1.17-3.05,5.61-8.34,8.24-13.83,10.66-.87.38-1.46,1.48-2.33,1.75-2.37.74-3.82,5.15-7.36,1.86-.39-.36-2.22.83-3.37,1.3Z"/><path class="cls-1" d="M134.43,129.33q-1.62-8.76-3.22-17.57c2.37-2.36,4.24-2.54,6.06.72,1.58,2.82,3.75,5.32,5.38,8.12.64,1.09.52,2.63.79,4.26l2.62-.39c.46-4.31-3.72-8.63,1.05-13l-3-.48c-2.17-8.36-2.17-8.36,2.16-9.26,1.09,5.7,2.07,11.42,3.31,17.09.77,3.5,1.28,6.68-3.13,8.17,2,1.67,2,1.67,4-2.21.47,3.68.85,6.58,1.31,10.22l-3.53,1.62c-4-6.33-7.87-12.44-11.51-18.18a16.92,16.92,0,0,1,.57,3.14,17.13,17.13,0,0,1-.5,3.29c.77,2.34,1.62,4.6,2.23,6.92a3.85,3.85,0,0,1-.62,2.28,21.44,21.44,0,0,1-1.64,2.42l3.83.58c-.66,1.27-1,2.83-1.83,3.23a3.51,3.51,0,0,1-3.31-.7c-6-8.6-11.83-17.33-18.28-26.87,2-.25,4-1,4.38-.46a66.85,66.85,0,0,1,4.28,7.87C130.23,120.58,130.25,126.54,134.43,129.33Z"/><path class="cls-1" d="M184.49,188.53c0,1.1,0,2.28,0,4.27l-8.71.67c4.15,1.89,19.41,1.05,31.45-2.52,10.48-3.11,20.71-7.07,32.27-11.07-1.92,2.12-3,4.23-4.65,5-11.69,5.37-23.72,10.13-36.54,11.62-9.71,1.13-19.59.95-29.39,1-1.86,0-3.72-1.58-5.58-2.43l.24-1.42c4.1-1.24,8.21-2.42,12.29-3.74,5.31-1.73,10.54-3.71,15.89-5.3,2.34-.69,4.88-.67,7.54-1,1.72-6.25,6.26-.36,9.88-2.38-2.15,3.29-4.28,4.55-7.27,4-2-.37-3,.27-4.37,1.66-3.14,3.23-7.08,3.13-11.11,1.85-.46-.14-.92-.29-1.38-.41C185,188.32,184.84,188.41,184.49,188.53Z"/><path class="cls-1" d="M206.74,168,214,163.3l-4.09-10.08c2.69-1.35,5-3.47,7.47-.4,2.23,2.77,1.58,4.7-2.36,7.64.53,1.57,1.07,3.2,1.7,5.07.73-.22,2-.4,2-.64.3-5.23,5.42-4.29,8.09-6.44,1.19-1,3.54-2.23,3.38-2.85a30.37,30.37,0,0,0-3.37-7.36c-.17-.3-2.16.08-2.93.65a2.91,2.91,0,0,0-.48,2.54c.62,2,1.55,4,2.35,6l-1.28.55c-1.09-2.68-2.6-5.31-3-8.1-.15-1,2.15-2.92,3.66-3.41,1.06-.35,3.21.64,3.94,1.68,1.46,2.09,2.28,4.63,3.34,7,7-2.58,9.77-4.66,10.21-7.63a7.53,7.53,0,0,0,7.91-7.32l3,5c-1.56,1.25-2.71,2.14-3.81,3.08-.74.62-1.51,2-2.1,1.88-3.44-.5-4.4,2.47-6.46,4a65.09,65.09,0,0,1-10.78,6.62c-13.24,6.34-26.86,11.63-41.49,13.86a4.14,4.14,0,0,0-1.81.46c-2.84,2.28-5.73,2.23-8.73.4,2.12-1.84,6.28-2.09,5.25-5.94,2.5.29,5.23,1.13,7.8.79,4.3-.58,8.48-2,12.76-2.87A5.86,5.86,0,0,1,206.74,168ZM214,158.2c2.74-.57,3.49-2,2.14-3.85-.59-.79-2.32-.72-4.2-1.22Z"/><path class="cls-1" d="M265.57,5.13c1.22-.39,2.42-.84,3.66-1.16a26.53,26.53,0,0,1,2.67-.44c-.27-.79-.53-1.57-1.18-3.53,3.31.38,6.12.76,8.94,1,1.23.11,2.48-.07,3.71,0,2.88.06,5.75.16,8.63.26,1.33.05,2.66.07,4,.22,2.73.3,5.47.63,8.18,1.07,1,.16,2.11,1.1,3,.9,1.86-.43,3.63-1.68,4.72,1.1.07.16,1.32-.12,2-.23A12.75,12.75,0,0,1,315.43,4c1.48,3.94,4.69.95,6.65,1.74,5.41,2.19,11.11,3.8,16.18,6.65,1.54.86,2,3.72,3.07,6C348.5,14.65,349,21,351.61,26c-1.7-.24-3.12,0-3.95-.62-3.89-2.85-7.65-5.89-11.39-9a9.19,9.19,0,0,1-1.62-2c-3.41-1-6.12-2-8.9-2.73-6.52-1.69-13-3.51-19.63-4.8-4.78-.93-9.86-.52-14.54-1.74-5-1.31-9.9.71-15-.85-3.28-1-7.3.4-11,.75Z"/><path class="cls-1" d="M223.26,73.77c4.6-4.37,7.18-3.67,9.63,2.44,1.67,4.17,3.59,8.23,5.28,12.39,3.46,8.51-2.51,16.23-11.78,15.21a7.7,7.7,0,0,1-6.74-5.23c-1.55-4.17-3-8.41-4.45-12.61a4.28,4.28,0,0,0-.49-1c-3.47-5.71-2.2-10.11,3.8-13a6,6,0,0,1,3.76-.69L220.2,73l3.17.84A26.79,26.79,0,0,1,221,75.5c-4.29,2.4-4.77,3.56-3,8,1.39,3.55,2.85,7.07,4.29,10.59,2,5,3.06,7.36,9.63,4.15,3.28-1.6,4.21-3.35,2.87-6.86-1.46-3.81-3.23-7.52-4.52-11.39C229,76.48,227.16,74.1,223.26,73.77Z"/><path class="cls-1" d="M310.11,109.88l27.95-18.64c3.3-.61,6.13-.75,8.68-1.67a130.59,130.59,0,0,1,31.18-7.66l.43,1.09c-4.21,1.55-8.33,3.5-12.67,4.53-4.58,1.09-9,3.48-14.42,3a16.42,16.42,0,0,1-2.81,2.24c-4.77,2.59-9.65,5-14.4,7.59-.6.33-.82,1.56-1,2.41a6.81,6.81,0,0,1-7.49,5.41c-1-.09-2.09.36-3.8.68l4.84-4.18-1.08-1.43c-2.6,2-5.32,3.94-7.76,6.15-1.81,1.63-3.18,3.8-5.55.7-.31-.41-1.42-.22-2.17-.3Z"/><path class="cls-1" d="M92.24,123.14c4.46-1.81,9.49-3.72,14.4-5.89,2.74-1.2,4-.52,4.21,2.8l-14.92,6,4,9.81,11.1-4.5,1.86,3.73-11.24,4.55c1.21,5.08,2.32,9.7,7.72,11.07,1,.26,2.41-.88,3.63-1.37l-.44-1-2.57.43-.34-1.1L120.7,144l1.23,3-19.66,8c1.87-4.12-5.32-6.09-.71-10.41L98,143.93l2.09-2.7c-6.38-2.24-5.59-8.9-8.28-13.43-.22-.37.43-1.2.5-1.84A21.43,21.43,0,0,0,92.24,123.14Z"/><path class="cls-1" d="M251.65,84.74l-2.3,3.44-10-24.75c3.39-1.19,6.9-2.92,10.6-3.61,6-1.13,12.3,6.85,10.39,13.23-.79,2.63-2.73,4.92-4.29,7.61,2.22,2.6,8.35,1,9.58,6.54l3.93-1c-3.84,3.88-5.4,3.67-8-.42a2.65,2.65,0,0,0-1.88-.93C257.24,84.72,254.81,84.77,251.65,84.74Zm4.25-15.26c-2.9-6.65-4.59-7.1-11.06-3.18l4,13c2.72-4.63,10.63-2.79,10.39-10.28Z"/><path class="cls-1" d="M258.7,195.59l-2.11,2.12,1.93.58c-.11.44-.09.76-.23.88C241,213.29,197,224,175.8,219.28l1-2.87c8.72-.2,17.31-.72,25.88-.44a21.86,21.86,0,0,0,10.25-1.64c8.76-3.77,18.2-5.93,27.25-9.05,3-1,5.74-3.06,8.62-4.59S254.83,197.58,258.7,195.59Z"/><path class="cls-1" d="M276.45,66.78l21.47,8.69c-3.73,2.45-3.76,2.51-8.5.43-2.83-1.25-5.57-2.72-8.35-4.1l-1.25,1.27c1.26,2.59,2.51,5.19,3.85,7.93L280,82.92l-9.6-23.67,5.69-.8c3.22-3.73,1.86-11.93,10.38-13.75Z"/><path class="cls-1" d="M90.61,59.09c3.49-2.32,6.86-4.55,10.21-6.79.1-.06.19-.25.26-.24,4.79.76,6.16-4.83,9.86-5.49a18.41,18.41,0,0,0,9.61-4.91c2.52-2.28,5-1.34,4.84,1.19-.08,1.1-1.46,2.42-2.58,3.06-14.26,8.2-28.61,16.25-42.87,24.45-3.24,1.86-6.24,4.15-8.72,5.81L66.16,74c-.28.38-.14,0,.13-.16,2.85-1.62,6.55-2.57,8.37-4.95,2.37-3.13,5.56-3.53,8.57-4.8,2.7-1.13,5.42-2.21,8.43-3.42Z"/><path class="cls-1" d="M274.06,182.1c2.88-2.38,5.35-4.35,7.72-6.45a10.39,10.39,0,0,0,1.89-2.61c.43-.73.45-1.94,1-2.3,4.15-2.47,5-7.36,8-10.68s5.52-7.42,8.61-10.82c3.46-3.81,7.37-7.19,11-10.84,1.91-1.91,3.68-4,5.51-6l1,.81-1.61,2.81,3.6-1.9.34.43c-.74.67-1.47,1.37-2.22,2-10.28,8.85-18.31,19.62-26.39,30.39-1.71,2.28-4.29,3.91-7.07,6.35C286,177.93,280.61,183.12,274.06,182.1Z"/><path class="cls-1" d="M253.46,143.15c.43-1.19.56-2.62,1.33-3.5,2.53-2.89,5.3-5.58,8-8.42l-1.64-1.9c1.42-1.28,2.68-3.37,4-3.44,3.69-.17,4.18-3.37,5.89-5.29,2.58-2.87,4.65-6.19,7.13-9.17a8.23,8.23,0,0,1,3.38-2.24c2.07-.77.6-2.25,1-3.13a11.64,11.64,0,0,1,3.75-4.49c1.35-1,3.2-1.4,4.82-2.06l.65.83c-7,9-14,18-20.89,27-1.45,1.92-2,4.61-3.59,6.34-2.25,2.44-5.11,4.32-7.72,6.43q-2.39,1.94-4.79,3.85Z"/><path class="cls-1" d="M106.47,204.94c-2.51,4.44-7,6.29-11.44,4.94-2.16-.65-4.07-.94-6.33.37a7.1,7.1,0,0,1-5.73.39,7.6,7.6,0,0,0-7.65.16c-.21.11-.55.23-.72.14-6-3.35-13.4,1.55-19.18-3.29-.58-.49-1.82-.18-3-.26,1.29-2,2.5-2.89,5.33-2.44,5.2.83,10.55.6,15.81,1,2,.16,3.91,1.22,5.9,1.39a17.84,17.84,0,0,0,4.78-.76c.56-.11,1.08-.56,1.63-.59C92.64,205.64,99.37,205.31,106.47,204.94Z"/><path class="cls-1" d="M381.44,107.93l3.41-1.38-.09-.68a9.3,9.3,0,0,0-2.78.26c-2.88,1.24-5.58,2.94-8.54,3.94-9.85,3.34-19.78,6.45-30.32,9.06,1.67-1.44,3.12-3.39,5.06-4.23,12.89-5.65,26.23-9.81,40.35-11a52.06,52.06,0,0,1,10,.07C393.76,109.07,387.16,106.72,381.44,107.93Z"/><path class="cls-1" d="M328.25,153.51c3.47-2.37,6.92-4.78,10.43-7.07.36-.23,1.13.25,1.72.3s2,.13,2-.05c1.5-6,7.59-5.6,11.44-8.27a5,5,0,0,1,1.71-.75c1.87-.43,3.76-.78,6.12-1.26,0-.11.3-1.37.91-1.57,4.31-1.42,8.71-2.61,13.06-3.93a20.63,20.63,0,0,0,2.18-1.14c2.33-1.05,4.29-1.13,4.83,1.12-10.71,4.34-21.14,8.74-31.72,12.74a36.61,36.61,0,0,0-7.79,4.14c-4.28,2.91-9.18,4.92-13.81,7.3Z"/><path class="cls-1" d="M70.2,144.13c5-2.39,6-2,8.35,2.57A3,3,0,0,0,80,148.05c1.48.54,3,.88,5.16,1.48l-2.54,2.24,2.53.76c.14-.75.57-1.62.35-2.24-1.1-3.06-2.36-6.06-3.58-9.07-1.52-3.78-3-7.55-4.73-11.69L80.5,128,93,158.83l-2.9,1.4.41-1.22c-2.13-1.32-4.37-2.5-6.36-4C79.49,151.51,75,147.85,70.2,144.13Z"/><path class="cls-1" d="M68.67,77.81c-2.18,1.71-4.14,3.94-6.6,5-4.8,2.11-7.69,6.32-11.61,9.36-4.29,3.33-8.78,6.39-13.78,10-.64-4.27,1.55-5.94,3.7-7.45.54-.38,1.74.18,3,.35,2.46-3.54,3.56-9.35,10.07-9.67C54,85.38,54.6,84,55,83.17,57.11,79.15,63.23,76.17,68.67,77.81Z"/><path class="cls-1" d="M154.46,178.74c.36,2.21.63,3.88.91,5.56l-1.3.33c-1-4.11-2.08-8.22-3.06-12.12,4.88-4.24,9.81-.2,14.72-.66a16.73,16.73,0,0,1,.35-2.71c.15-.51.63-1.2,1-1.27a1.81,1.81,0,0,1,1.48.78c2,3.49,3.91,7,5.85,10.58l-.82.6c-.5-.38-1-.73-1.49-1.15-1-.85-1.86-1.73-2.8-2.6l-2.49,3.59-.61-6-.83,0-.19,2.16-8-.6c.15-1.16.26-2.07.4-3.21l-4.46,1c.21,1.26.4,2.41.63,3.76l4.84-.59.26.73Z"/><path class="cls-1" d="M136.1,203.83l-.32-3.47,26.1-6.17.23.46-3.66,2.86.24.42,4.16-1.69c-2.39,2.59-4.78,5-8.8,3.82a4.78,4.78,0,0,0-2.71.42c-2.38.83-4.65,2.08-7.09,2.62A59,59,0,0,1,136.1,203.83Z"/><path class="cls-1" d="M400.53,64.48,381.34,62.7c2.2-4.5,5-5,7.3-1.73,7.5-2,14.47.48,21.57,1.07.36,1.22.66,2.26,1.15,3.95-3.29-.68-6.9,1.3-8.85-3-.15-.34-1.06-.35-1.62-.51C400.78,63.1,400.66,63.75,400.53,64.48Z"/><path class="cls-1" d="M235,55.72l62.3-25.25.27.68L235.4,56.36Z"/><path class="cls-1" d="M392,81.64c5.25.44,10.5,1.12,15.76,1.23,4.84.1,9.21.86,12.89,5.23l-27-3.13L392,81.55Z"/><path class="cls-1" d="M127.78,47,78,75.1c15.44-11.42,32.11-20.63,49.31-28.92Z"/><path class="cls-1" d="M410.75,125.06c-1.31,4.73-7,5.78-9.55,3.73l-14.44,2.48c-.62-2.59-.23-4,2.63-4.19C396.4,126.55,403.4,125.77,410.75,125.06Z"/><path class="cls-1" d="M216.24,173.2l-50.66,18-.46-1.28,50.56-18.3Z"/><path class="cls-1" d="M230.58,12.29c17.74-4.11,35.8-5,53.91-5.29l.17,1.54c-4.25.13-8.5.22-12.75.4-4.57.2-9.16.35-13.72.77s-9.19,1.12-13.77,1.75-9,1.32-13.58,2Z"/><path class="cls-1" d="M184.73,87.31c2.35,1.11,5.14,1.74,6.93,3.43,2.4,2.27,4.42,3.93,7.92,1.5.2,3.53.88,6.73-2.8,8.36l-13-11.76Z"/><path class="cls-1" d="M35.24,196.1c-9.06-2.43-16.91-6.84-22.39-14.64-4.24-6-7.21-12.54-5-20.39C8.21,179.72,19.48,189.55,35.24,196.1Z"/><path class="cls-1" d="M111,161.32,66.9,179.21l-.32-.77,44.12-17.89Z"/><path class="cls-1" d="M133.87,198.11a181.91,181.91,0,0,1-47.39,4.59c7.86-.7,15.75-1.23,23.59-2.15s15.77-2.25,23.66-3.4Z"/><path class="cls-1" d="M72.22,150.59,68.15,152l-3.38-8.34-3.33-8.22,4.11-.54a9.84,9.84,0,0,0-.72,2.56,15.11,15.11,0,0,0,.6,3c5.58-1,5.58-1,7.11.47-4.44,1.41-4.48,1.47-4.46,7.28l2.47-1Z"/><path class="cls-1" d="M319.41,130.56c3.58-1.72,7.24-3.29,10.68-5.25,1.14-.65,3.84.19,3.34-3-.11-.67,2.9-1.83,4.59-2.83,1,4.83-12.55,13.6-18,12.17Z"/><path class="cls-1" d="M183.57,241.38l1.45-3.47,16.55,1C198.61,243.2,196.41,243.52,183.57,241.38Z"/><path class="cls-1" d="M116.59,206.78c1.24-6.17,6.34-2.82,9.43-4.39l-1.4,2.62c3.63.09,6.42-4.65,10.39-1.56-.63.7-.91,1.22-1.13,1.2-4.85-.57-8.71,3.15-13.41,3.09A19,19,0,0,1,116.59,206.78Z"/><path class="cls-1" d="M203.23,242.5c.62-3,2.15-4.23,5-4.3s5.43-.75,8.15-.88c1,0,1.94.74,2.91,1.15-.73.8-1.36,2.17-2.2,2.31C212.53,241.52,208,242,203.23,242.5Z"/><path class="cls-1" d="M191.54,21.49,227,12.33l.38,1.43-35.47,9Z"/><path class="cls-1" d="M199.87,100.29c1.83,4.52,3.58,8.82,5.25,13.15a21.07,21.07,0,0,1-1.94,1c0-1.09.09-1.84.12-2.59l-.78.54c-1-1-2.31-1.74-2.83-2.9C196.71,102.8,196.77,102.77,199.87,100.29Z"/><path class="cls-1" d="M89.05,88.41l5.41-3,.74,1.12-6.8,4.57L81.09,79.69l6.58-3.88.72,1.06-4.65,3.46,1.86,3.08,5.46-2.21C89.45,83.82,84.71,84.82,89.05,88.41Z"/><path class="cls-1" d="M286.56,8.18a88.32,88.32,0,0,1,33.24,4.56Z"/><path class="cls-1" d="M71.9,158.23,69.2,155l.83-1.35c1.39.7,3.06,1.14,4.06,2.2.59.62.13,2.24.14,3.28l4.24,5.54-4.33,2C73.31,163.53,70.43,161.23,71.9,158.23Z"/><path class="cls-1" d="M130.78,44.68l29.6-12c-9,5.7-19.73,7.91-28.91,13.39Z"/><path class="cls-1" d="M58.69,90.09,38.28,108.26l-1-1.08,20.24-18.3Z"/><path class="cls-1" d="M44.45,204.09l-6.62,1.61c4.11-4.32,6.79-4.48,14.26-1.42-1.58,2.34-3.41,4-6.31,2.87C45.05,206.85,44.88,205.16,44.45,204.09Z"/><path class="cls-1" d="M199.93,36.34l.58,4.14-1.15.28-3.78-12.38c2.6-1.18,4.84-2.39,7.85.51l-5.71.08,1.39,5.18,4.09-2.39.74.83Z"/><path class="cls-1" d="M235.15,110l23.91-9.7.34.83-23.91,9.69Z"/><path class="cls-1" d="M254.37,29c-2.42-1.52-2.56-6.24-7.26-3.8.2-2.63.3-4.87.6-7.07.08-.58.71-1.45,1.18-1.52a2,2,0,0,1,1.66,1C251.91,21.4,253.12,25.21,254.37,29Z"/><path class="cls-1" d="M39.31,123.75l-4.73,1.17c1.29-1.54,2.18-2.2,2.47-3.07a6.52,6.52,0,0,0-.1-2.55l5.64-.65-.72,2.75,2.56,1.53L39.84,127Z"/><path class="cls-1" d="M155.83,88.69,132,98.35l-.27-.74,23.85-9.67Z"/><path class="cls-1" d="M199.91,70.85l-22.2,9-.3-.68,22.2-9Z"/><path class="cls-1" d="M296.23,18.32c-.27,1.78-.51,3.34-.74,4.87l-5.5-.57c-1.2-3,1.78-5.22,3-7.88Z"/><path class="cls-1" d="M219.55,25.63c2.32.13,3.79.5,5.12.22,3.08-.64,4.82.33,5.35,3.49.57,3.33-1.24,4.54-4.15,4.85l-3.06.32-.25-1.07a15.16,15.16,0,0,0,3.84-1.14c.85-.51,1.94-2,1.72-2.56a3.7,3.7,0,0,0-2.61-2.12C223.54,27.56,221.46,28.48,219.55,25.63Z"/><path class="cls-1" d="M200.89,80.51c-.23,2.78-.45,5.47-.69,8.37l-3.65.56C195.55,82.84,195.87,82.17,200.89,80.51Z"/><path class="cls-1" d="M188.28,23.86l-20.19,6.79-.49-1.41,20.25-6.66C188,23,188.14,23.43,188.28,23.86Z"/><path class="cls-1" d="M398.54,107.39c3.88-6.32,8-2,11.72-1.92C407,109.44,403,106.47,398.54,107.39Z"/><path class="cls-1" d="M161,190.25c-1.55,2.66-15,6.28-21.79,5.83Z"/><path class="cls-1" d="M57.59,128.65,36.9,137l-.33-.84,20.61-8.36Z"/><path class="cls-1" d="M107.66,209.77l1.67-5.37,5.8-.73c-.54,1.72-.56,3.83-1.54,4.46C112,209.16,109.78,209.25,107.66,209.77Z"/><path class="cls-1" d="M61.58,201.46l19,1.13-.1,1.54L61.33,202.9Z"/><path class="cls-1" d="M182.94,41.59c-1.77-.32-3.37-.53-4.93-.9-1.75-.41-4.72-.63-5-1.52a3.75,3.75,0,0,1,3.42-5,3.57,3.57,0,0,1,2.41.18A17.23,17.23,0,0,0,176.39,36a21.54,21.54,0,0,0-2,2.53c1.09.14,2.28.63,3.26.36C180.62,38.06,182.65,38.37,182.94,41.59Z"/><path class="cls-1" d="M141.92,61.78q-.94-4.44-1.87-8.89c2.82,2.48,8,1.07,9,6.41-.89-.51-1.43-.77-1.92-1.11-1.12-.77-2.21-1.58-3.32-2.38-.2,1.44-.4,2.88-.61,4.32-.07.52-.19,1-.29,1.54Z"/><path class="cls-1" d="M74.22,86.59l-2.91,1.17-.54-.9,6.58-4.52.7.83-2,2.52,4.72,7.57-.86.66Z"/><path class="cls-1" d="M55.85,98.49l6.91,2.34-.11.83h-3c1.37,2.1,2.72,4.18,4.07,6.27l-1.11.75L55,98.82Z"/><path class="cls-1" d="M9.23,151.74c.6-6.6,4.16-12,6.52-18Q12.5,142.76,9.23,151.74Z"/><path class="cls-1" d="M167.22,44.76l-4.12,4.29c-.87-2.91-2.28-5.77-2.28-8.63,0-.94,3.68-1.87,5.68-2.8l.57,1.21-4.86,2.37,1,3.29Z"/><path class="cls-1" d="M68.64,104.91l-3.8-3-4.23-7.55.88-.68,8.08,10.18Z"/><path class="cls-1" d="M392,81.55,389.09,85l-8.06.13c3.28-4.27,7-4.4,11-3.52Z"/><path class="cls-1" d="M259.24,22.67c.92,2.48,1.44,5.65,5.44,3.26-.57-.65-1.11-1.25-2.42-2.71l4.22.51c-.41,1.31-.49,3.41-1.32,3.77-1.52.66-3.81.92-5.16.19-1.12-.61-1.34-2.87-2-4.4Z"/><path class="cls-1" d="M255.19,93.12l-3.3,1.33c-3.24-3-1.45-5.17.83-7.41Z"/><path class="cls-1" d="M162.78,140.28l-16.42,6.65-.29-.67,16.42-6.65Z"/><path class="cls-1" d="M31.27,199l8.38,1.67.14,1.14a32.14,32.14,0,0,1-5.35,2c-.49.1-1.41-1.47-2-2.37a20.19,20.19,0,0,1-1.14-2.55Z"/><path class="cls-1" d="M87,115.87l16.35-6.63.29.62-16.42,6.65Z"/><path class="cls-1" d="M235.19,164.07l-16,7.32-.62-1.34,16.32-6.61Z"/><path class="cls-1" d="M216.49,35.34c-2.61,1.68-5.17,3.1-6.72.51s-2.9-5.82-1.5-9.39C211.16,29.61,207.28,37.7,216.49,35.34Z"/><path class="cls-1" d="M154.09,42.67c-1.39,4.67,2.9,8.36,3,13.47-3.73-3.53-2.37-9.58-7.92-11.47Z"/><path class="cls-1" d="M130.64,55l2.29,5.66-1,.54c-.92-1.75-1.83-3.5-2.89-5.53l-3.43.52-.42-1,7.09-3.55.71.88Z"/><path class="cls-1" d="M187.8,161.44l7.45-2.62.95.76c-5,1.85-1.77,4.83-2.44,7.84l-2.66-4.84-3.11,0Z"/><path class="cls-1" d="M270.91,49.86l2.68,6.62-.68.86-5-3.8Z"/><path class="cls-1" d="M269.72,191.43l-2.7-3.26,9.92-4,.37.64a27.1,27.1,0,0,0-4.08,2.49A35.9,35.9,0,0,0,269.72,191.43Z"/><path class="cls-1" d="M50.85,201.27l-13.42-3.1.36-1.53L51.18,200Z"/><path class="cls-1" d="M280.74,92.49,267.6,97.82l-.32-.76,13.13-5.32Z"/><path class="cls-1" d="M77,120.57l-12.48,5.06-.29-.66,12.48-5.06Z"/><path class="cls-1" d="M94.27,77.29c-.26-1.36-1.19-3.19-.64-4a8.36,8.36,0,0,1,4.42-3c.91-.24,2.28,1.24,4,2.26H94.63L95.48,77Z"/><path class="cls-1" d="M232.83,57.69l-12.51,5.07-.34-.82,12.5-5.06Z"/><path class="cls-1" d="M124.21,101.76l-12.07,4.9-.35-.9,12.22-5Z"/><path class="cls-1" d="M278.86,27.09l-7.93.68c-.14-2.11-.26-3.89-.37-5.67l.73-.2,1.55,3.81,5.94.12Z"/><path class="cls-1" d="M157.93,86.77l11.2-4.54.34.71-11.2,4.53Z"/><path class="cls-1" d="M67.46,89.74,74.74,99.8l-1.33.94q-3.6-5.05-7.19-10.13Z"/><path class="cls-1" d="M181.57,163.83l-4.08,4.55,3.87,1.44c-1.69.27-3.25,1-4.14.53s-1.76-2.88-1.4-3.26a37.12,37.12,0,0,1,5.31-4.1Z"/><path class="cls-1" d="M356.14,28.69c-3,2.65-4.89,1.93-6.33-1l4.36-2Z"/><path class="cls-1" d="M233.86,18.91c2.53-.39,4.51-.69,6.5-1l.22.95-2.72,1.46v3.84l-1,.19a15.73,15.73,0,0,0-.85-2.73A20.26,20.26,0,0,0,233.86,18.91Z"/><path class="cls-1" d="M124.35,64.19c2.51,5.09,1.57,6.7-4.91,7.41,1.28-.85,3-1.43,3.74-2.61S124,66,124.35,64.19Z"/><path class="cls-1" d="M353.7,41.72l.3,9.61-1.34,0c-.2-3.2-.39-6.39-.59-9.59Z"/><path class="cls-1" d="M218.61,118.2,209,121.27l-.25-.68,9.35-3.8Z"/><path class="cls-1" d="M171.78,49.4l-7.16,2.9L164.19,51l7.34-2.46Z"/><path class="cls-1" d="M330,17.54l-7.94-3.77.34-.94,8.29,3.09Z"/><path class="cls-1" d="M53.19,114.9c2.61-1.59,5.13-3,2.45-6.73l1.38-.23c.53,1.3,1.7,2.75,1.45,3.89C58,114.26,56.07,115.53,53.19,114.9Z"/><path class="cls-1" d="M270.62,17.43c-.13-.91-.26-1.82-.46-3.16l9-.27c-2.33,3.48-7-1.12-7.54,4.55Z"/><path class="cls-1" d="M181.52,131.27l10-3.41.15.52-9.77,4Z"/><path class="cls-1" d="M250.29,132.79c-.58,2.54-1,4.34-1.56,6.79-.89-1.3-2.71-3-2.39-3.71C246.92,134.58,248.79,133.86,250.29,132.79Z"/><path class="cls-1" d="M141.7,182l-6.15,3.61C136.12,180.93,137.86,179.82,141.7,182Z"/><path class="cls-1" d="M328.63,96.21l6.55-7.85,1,.82-6.46,7.89Z"/><path class="cls-1" d="M36.74,110.24l-6.9,7-1-1,6.91-7Z"/><path class="cls-1" d="M194.2,126.8l8.4-3.41.19.59-8.35,3.38Z"/></g></g></svg>