<svg xmlns="http://www.w3.org/2000/svg" viewBox="0 0 1916.28 1636.04"><defs><style>.cls-1{fill:#5f8ab5;}.cls-2{fill:#fffef1;}</style></defs><g id="Layer_2" data-name="Layer 2"><g id="Layer_1-2" data-name="Layer 1"><rect class="cls-1" x="1847.7" y="749.44" width="68.58" height="68.58" transform="translate(1098.26 2665.72) rotate(-90)"/><rect class="cls-2" x="1847.7" y="680.87" width="68.58" height="68.58" transform="translate(1166.84 2597.15) rotate(-90)"/><rect class="cls-1" x="1847.7" y="613.27" width="68.58" height="68.58" transform="translate(1234.43 2529.55) rotate(-90)"/><rect class="cls-2" x="1847.7" y="544.69" width="68.58" height="68.58" transform="translate(1303.01 2460.97) rotate(-90)"/><rect class="cls-1" x="1847.7" y="477.1" width="68.58" height="68.58" transform="translate(1370.61 2393.38) rotate(-90)"/><rect class="cls-2" x="1847.7" y="408.52" width="68.58" height="68.58" transform="translate(1439.18 2324.8) rotate(-90)"/><rect class="cls-1" x="1847.7" y="340.92" width="68.58" height="68.58" transform="translate(1506.78 2257.2) rotate(-90)"/><rect class="cls-2" x="1847.7" y="272.35" width="68.58" height="68.58" transform="translate(1575.36 2188.63) rotate(-90)"/><rect class="cls-1" x="1847.7" y="204.75" width="68.58" height="68.58" transform="translate(1642.95 2121.03) rotate(-90)"/><rect class="cls-2" x="1847.7" y="136.17" width="68.58" height="68.58" transform="translate(1711.53 2052.45) rotate(-90)"/><rect class="cls-1" x="1847.7" y="68.58" width="68.58" height="68.58" transform="translate(1779.13 1984.86) rotate(-90)"/><rect class="cls-2" x="1847.7" width="68.58" height="68.58" transform="translate(1847.7 1916.28) rotate(-90)"/><rect class="cls-1" x="1779.13" width="68.58" height="68.58" transform="translate(1847.7 -1779.13) rotate(90)"/><rect class="cls-2" x="1779.13" y="68.58" width="68.58" height="68.58" transform="translate(1916.28 -1710.55) rotate(90)"/><rect class="cls-1" x="1779.13" y="136.17" width="68.58" height="68.58" transform="translate(1983.88 -1642.95) rotate(90)"/><rect class="cls-2" x="1779.13" y="204.75" width="68.58" height="68.58" transform="translate(2052.45 -1574.37) rotate(90)"/><rect class="cls-1" x="1779.13" y="272.35" width="68.58" height="68.58" transform="translate(2120.05 -1506.78) rotate(90)"/><rect class="cls-2" x="1779.13" y="340.92" width="68.58" height="68.58" transform="translate(2188.63 -1438.2) rotate(90)"/><rect class="cls-1" x="1779.13" y="408.52" width="68.58" height="68.58" transform="translate(2256.22 -1370.61) rotate(90)"/><rect class="cls-2" x="1779.13" y="477.1" width="68.58" height="68.58" transform="translate(2324.8 -1302.03) rotate(90)"/><rect class="cls-1" x="1779.13" y="544.69" width="68.58" height="68.58" transform="translate(2392.39 -1234.43) rotate(90)"/><rect class="cls-2" x="1779.13" y="613.27" width="68.58" height="68.58" transform="translate(2460.97 -1165.86) rotate(90)"/><rect class="cls-1" x="1779.13" y="680.87" width="68.58" height="68.58" transform="translate(2528.57 -1098.26) rotate(90)"/><rect class="cls-2" x="1779.13" y="749.44" width="68.58" height="68.58" transform="translate(2597.15 -1029.68) rotate(90)"/><rect class="cls-1" x="1710.85" y="749.44" width="68.58" height="68.58" transform="translate(961.4 2528.87) rotate(-90)"/><rect class="cls-2" x="1710.85" y="680.87" width="68.58" height="68.58" transform="translate(1029.98 2460.29) rotate(-90)"/><rect class="cls-1" x="1710.85" y="613.27" width="68.58" height="68.58" transform="translate(1097.58 2392.69) rotate(-90)"/><rect class="cls-2" x="1710.85" y="544.69" width="68.58" height="68.58" transform="translate(1166.15 2324.12) rotate(-90)"/><rect class="cls-1" x="1710.85" y="477.1" width="68.58" height="68.58" transform="translate(1233.75 2256.52) rotate(-90)"/><rect class="cls-2" x="1710.85" y="408.52" width="68.58" height="68.58" transform="translate(1302.33 2187.94) rotate(-90)"/><rect class="cls-1" x="1710.85" y="340.92" width="68.58" height="68.58" transform="translate(1369.92 2120.35) rotate(-90)"/><rect class="cls-2" x="1710.85" y="272.35" width="68.58" height="68.58" transform="translate(1438.5 2051.77) rotate(-90)"/><rect class="cls-1" x="1710.85" y="204.75" width="68.58" height="68.58" transform="translate(1506.1 1984.17) rotate(-90)"/><rect class="cls-2" x="1710.85" y="136.17" width="68.58" height="68.58" transform="translate(1574.67 1915.6) rotate(-90)"/><rect class="cls-1" x="1710.85" y="68.58" width="68.58" height="68.58" transform="translate(1642.27 1848) rotate(-90)"/><rect class="cls-2" x="1710.85" width="68.58" height="68.58" transform="translate(1710.85 1779.42) rotate(-90)"/><rect class="cls-1" x="1642.27" width="68.58" height="68.58" transform="translate(1710.85 -1642.27) rotate(90)"/><rect class="cls-2" x="1642.27" y="68.58" width="68.58" height="68.58" transform="translate(1779.42 -1573.69) rotate(90)"/><rect class="cls-1" x="1642.27" y="136.17" width="68.58" height="68.58" transform="translate(1847.02 -1506.1) rotate(90)"/><rect class="cls-2" x="1642.27" y="204.75" width="68.58" height="68.58" transform="translate(1915.6 -1437.52) rotate(90)"/><rect class="cls-1" x="1642.27" y="272.35" width="68.58" height="68.58" transform="translate(1983.19 -1369.92) rotate(90)"/><rect class="cls-2" x="1642.27" y="340.92" width="68.58" height="68.58" transform="translate(2051.77 -1301.35) rotate(90)"/><rect class="cls-1" x="1642.27" y="408.52" width="68.58" height="68.58" transform="translate(2119.37 -1233.75) rotate(90)"/><rect class="cls-2" x="1642.27" y="477.1" width="68.58" height="68.58" transform="translate(2187.94 -1165.17) rotate(90)"/><rect class="cls-1" x="1642.27" y="544.69" width="68.58" height="68.58" transform="translate(2255.54 -1097.58) rotate(90)"/><rect class="cls-2" x="1642.27" y="613.27" width="68.58" height="68.58" transform="translate(2324.12 -1029) rotate(90)"/><rect class="cls-1" x="1642.27" y="680.87" width="68.58" height="68.58" transform="translate(2391.71 -961.4) rotate(90)"/><rect class="cls-2" x="1642.27" y="749.44" width="68.58" height="68.58" transform="translate(2460.29 -892.83) rotate(90)"/><rect class="cls-1" x="1573.99" y="749.44" width="68.58" height="68.58" transform="translate(824.55 2392.01) rotate(-90)"/><rect class="cls-2" x="1573.99" y="680.87" width="68.58" height="68.58" transform="translate(893.12 2323.43) rotate(-90)"/><rect class="cls-1" x="1573.99" y="613.27" width="68.58" height="68.58" transform="translate(960.72 2255.84) rotate(-90)"/><rect class="cls-2" x="1573.99" y="544.69" width="68.58" height="68.58" transform="translate(1029.3 2187.26) rotate(-90)"/><rect class="cls-1" x="1573.99" y="477.1" width="68.58" height="68.58" transform="translate(1096.89 2119.66) rotate(-90)"/><rect class="cls-2" x="1573.99" y="408.52" width="68.58" height="68.58" transform="translate(1165.47 2051.09) rotate(-90)"/><rect class="cls-1" x="1573.99" y="340.92" width="68.58" height="68.58" transform="translate(1233.07 1983.49) rotate(-90)"/><rect class="cls-2" x="1573.99" y="272.35" width="68.58" height="68.58" transform="translate(1301.64 1914.91) rotate(-90)"/><rect class="cls-1" x="1573.99" y="204.75" width="68.58" height="68.58" transform="translate(1369.24 1847.32) rotate(-90)"/><rect class="cls-2" x="1573.99" y="136.17" width="68.58" height="68.58" transform="translate(1437.82 1778.74) rotate(-90)"/><rect class="cls-1" x="1573.99" y="68.58" width="68.58" height="68.58" transform="translate(1505.41 1711.14) rotate(-90)"/><rect class="cls-2" x="1573.99" width="68.58" height="68.58" transform="translate(1573.99 1642.57) rotate(-90)"/><rect class="cls-1" x="1505.41" width="68.58" height="68.58" transform="translate(1573.99 -1505.41) rotate(90)"/><rect class="cls-2" x="1505.41" y="68.58" width="68.58" height="68.58" transform="translate(1642.57 -1436.84) rotate(90)"/><rect class="cls-1" x="1505.41" y="136.17" width="68.58" height="68.58" transform="translate(1710.16 -1369.24) rotate(90)"/><rect class="cls-2" x="1505.41" y="204.75" width="68.58" height="68.58" transform="translate(1778.74 -1300.66) rotate(90)"/><rect class="cls-1" x="1505.41" y="272.35" width="68.58" height="68.58" transform="translate(1846.34 -1233.07) rotate(90)"/><rect class="cls-2" x="1505.41" y="340.92" width="68.58" height="68.58" transform="translate(1914.91 -1164.49) rotate(90)"/><rect class="cls-1" x="1505.41" y="408.52" width="68.58" height="68.58" transform="translate(1982.51 -1096.89) rotate(90)"/><rect class="cls-2" x="1505.41" y="477.1" width="68.58" height="68.58" transform="translate(2051.09 -1028.32) rotate(90)"/><rect class="cls-1" x="1505.41" y="544.69" width="68.58" height="68.58" transform="translate(2118.68 -960.72) rotate(90)"/><rect class="cls-2" x="1505.41" y="613.27" width="68.58" height="68.58" transform="translate(2187.26 -892.14) rotate(90)"/><rect class="cls-1" x="1505.41" y="680.87" width="68.58" height="68.58" transform="translate(2254.86 -824.55) rotate(90)"/><rect class="cls-2" x="1505.41" y="749.44" width="68.58" height="68.58" transform="translate(2323.43 -755.97) rotate(90)"/><rect class="cls-1" x="1437.13" y="749.44" width="68.58" height="68.58" transform="translate(687.69 2255.15) rotate(-90)"/><rect class="cls-2" x="1437.13" y="680.87" width="68.58" height="68.58" transform="translate(756.27 2186.58) rotate(-90)"/><rect class="cls-1" x="1437.13" y="613.27" width="68.58" height="68.58" transform="translate(823.87 2118.98) rotate(-90)"/><rect class="cls-2" x="1437.13" y="544.69" width="68.58" height="68.58" transform="translate(892.44 2050.4) rotate(-90)"/><rect class="cls-1" x="1437.13" y="477.1" width="68.58" height="68.58" transform="translate(960.04 1982.81) rotate(-90)"/><rect class="cls-2" x="1437.13" y="408.52" width="68.58" height="68.58" transform="translate(1028.62 1914.23) rotate(-90)"/><rect class="cls-1" x="1437.13" y="340.92" width="68.58" height="68.58" transform="translate(1096.21 1846.64) rotate(-90)"/><rect class="cls-2" x="1437.13" y="272.35" width="68.58" height="68.58" transform="translate(1164.79 1778.06) rotate(-90)"/><rect class="cls-1" x="1437.13" y="204.75" width="68.58" height="68.58" transform="translate(1232.38 1710.46) rotate(-90)"/><rect class="cls-2" x="1437.13" y="136.17" width="68.58" height="68.58" transform="translate(1300.96 1641.88) rotate(-90)"/><rect class="cls-1" x="1437.13" y="68.58" width="68.58" height="68.58" transform="translate(1368.56 1574.29) rotate(-90)"/><rect class="cls-2" x="1437.13" width="68.58" height="68.58" transform="translate(1437.13 1505.71) rotate(-90)"/><rect class="cls-1" x="1368.56" width="68.58" height="68.58" transform="translate(1437.13 -1368.56) rotate(90)"/><rect class="cls-2" x="1368.56" y="68.58" width="68.58" height="68.58" transform="translate(1505.71 -1299.98) rotate(90)"/><rect class="cls-1" x="1368.56" y="136.17" width="68.58" height="68.58" transform="translate(1573.31 -1232.38) rotate(90)"/><rect class="cls-2" x="1368.56" y="204.75" width="68.58" height="68.58" transform="translate(1641.88 -1163.81) rotate(90)"/><rect class="cls-1" x="1368.56" y="272.35" width="68.58" height="68.58" transform="translate(1709.48 -1096.21) rotate(90)"/><rect class="cls-2" x="1368.56" y="340.92" width="68.58" height="68.58" transform="translate(1778.06 -1027.63) rotate(90)"/><rect class="cls-1" x="1368.56" y="408.52" width="68.58" height="68.58" transform="translate(1845.65 -960.04) rotate(90)"/><rect class="cls-2" x="1368.56" y="477.1" width="68.58" height="68.58" transform="translate(1914.23 -891.46) rotate(90)"/><rect class="cls-1" x="1368.56" y="544.69" width="68.58" height="68.58" transform="translate(1981.83 -823.87) rotate(90)"/><rect class="cls-2" x="1368.56" y="613.27" width="68.58" height="68.58" transform="translate(2050.4 -755.29) rotate(90)"/><rect class="cls-1" x="1368.56" y="680.87" width="68.58" height="68.58" transform="translate(2118 -687.69) rotate(90)"/><rect class="cls-2" x="1368.56" y="749.44" width="68.58" height="68.58" transform="translate(2186.58 -619.11) rotate(90)"/><rect class="cls-1" x="1300.28" y="749.44" width="68.58" height="68.58" transform="translate(550.84 2118.3) rotate(-90)"/><rect class="cls-2" x="1300.28" y="680.87" width="68.58" height="68.58" transform="translate(619.41 2049.72) rotate(-90)"/><rect class="cls-1" x="1300.28" y="613.27" width="68.58" height="68.58" transform="translate(687.01 1982.13) rotate(-90)"/><rect class="cls-2" x="1300.28" y="544.69" width="68.58" height="68.58" transform="translate(755.59 1913.55) rotate(-90)"/><rect class="cls-1" x="1300.28" y="477.1" width="68.58" height="68.58" transform="translate(823.18 1845.95) rotate(-90)"/><rect class="cls-2" x="1300.28" y="408.52" width="68.58" height="68.58" transform="translate(891.76 1777.38) rotate(-90)"/><rect class="cls-1" x="1300.28" y="340.92" width="68.58" height="68.58" transform="translate(959.36 1709.78) rotate(-90)"/><rect class="cls-2" x="1300.28" y="272.35" width="68.58" height="68.58" transform="translate(1027.93 1641.2) rotate(-90)"/><rect class="cls-1" x="1300.28" y="204.75" width="68.58" height="68.58" transform="translate(1095.53 1573.61) rotate(-90)"/><rect class="cls-2" x="1300.28" y="136.17" width="68.58" height="68.58" transform="translate(1164.11 1505.03) rotate(-90)"/><rect class="cls-1" x="1300.28" y="68.58" width="68.58" height="68.58" transform="translate(1231.7 1437.43) rotate(-90)"/><rect class="cls-2" x="1300.28" width="68.58" height="68.58" transform="translate(1300.28 1368.86) rotate(-90)"/><rect class="cls-1" x="1231.7" width="68.58" height="68.58" transform="translate(1300.28 -1231.7) rotate(90)"/><rect class="cls-2" x="1231.7" y="68.58" width="68.58" height="68.58" transform="translate(1368.86 -1163.13) rotate(90)"/><rect class="cls-1" x="1231.7" y="136.17" width="68.58" height="68.58" transform="translate(1436.45 -1095.53) rotate(90)"/><rect class="cls-2" x="1231.7" y="204.75" width="68.58" height="68.58" transform="translate(1505.03 -1026.95) rotate(90)"/><rect class="cls-1" x="1231.7" y="272.35" width="68.58" height="68.58" transform="translate(1572.63 -959.36) rotate(90)"/><rect class="cls-2" x="1231.7" y="340.92" width="68.58" height="68.58" transform="translate(1641.2 -890.78) rotate(90)"/><rect class="cls-1" x="1231.7" y="408.52" width="68.58" height="68.58" transform="translate(1708.8 -823.18) rotate(90)"/><rect class="cls-2" x="1231.7" y="477.1" width="68.58" height="68.58" transform="translate(1777.38 -754.61) rotate(90)"/><rect class="cls-1" x="1231.7" y="544.69" width="68.58" height="68.58" transform="translate(1844.97 -687.01) rotate(90)"/><rect class="cls-2" x="1231.7" y="613.27" width="68.58" height="68.58" transform="translate(1913.55 -618.43) rotate(90)"/><rect class="cls-1" x="1231.7" y="680.87" width="68.58" height="68.58" transform="translate(1981.14 -550.84) rotate(90)"/><rect class="cls-2" x="1231.7" y="749.44" width="68.58" height="68.58" transform="translate(2049.72 -482.26) rotate(90)"/><rect class="cls-1" x="1163.42" y="749.44" width="68.58" height="68.58" transform="translate(413.98 1981.44) rotate(-90)"/><rect class="cls-2" x="1163.42" y="680.87" width="68.58" height="68.58" transform="translate(482.56 1912.87) rotate(-90)"/><rect class="cls-1" x="1163.42" y="613.27" width="68.58" height="68.58" transform="translate(550.15 1845.27) rotate(-90)"/><rect class="cls-2" x="1163.42" y="544.69" width="68.58" height="68.58" transform="translate(618.73 1776.69) rotate(-90)"/><rect class="cls-1" x="1163.42" y="477.1" width="68.58" height="68.58" transform="translate(686.33 1709.1) rotate(-90)"/><rect class="cls-2" x="1163.42" y="408.52" width="68.58" height="68.58" transform="translate(754.9 1640.52) rotate(-90)"/><rect class="cls-1" x="1163.42" y="340.92" width="68.58" height="68.58" transform="translate(822.5 1572.92) rotate(-90)"/><rect class="cls-2" x="1163.42" y="272.35" width="68.58" height="68.58" transform="translate(891.08 1504.35) rotate(-90)"/><rect class="cls-1" x="1163.42" y="204.75" width="68.58" height="68.58" transform="translate(958.67 1436.75) rotate(-90)"/><rect class="cls-2" x="1163.42" y="136.17" width="68.58" height="68.58" transform="translate(1027.25 1368.17) rotate(-90)"/><rect class="cls-1" x="1163.42" y="68.58" width="68.58" height="68.58" transform="translate(1094.85 1300.58) rotate(-90)"/><rect class="cls-2" x="1163.42" width="68.58" height="68.58" transform="translate(1163.42 1232) rotate(-90)"/><rect class="cls-1" x="1094.85" width="68.58" height="68.58" transform="translate(1163.42 -1094.85) rotate(90)"/><rect class="cls-2" x="1094.85" y="68.58" width="68.58" height="68.58" transform="translate(1232 -1026.27) rotate(90)"/><rect class="cls-1" x="1094.85" y="136.17" width="68.58" height="68.58" transform="translate(1299.6 -958.67) rotate(90)"/><rect class="cls-2" x="1094.85" y="204.75" width="68.58" height="68.58" transform="translate(1368.17 -890.1) rotate(90)"/><rect class="cls-1" x="1094.85" y="272.35" width="68.58" height="68.58" transform="translate(1435.77 -822.5) rotate(90)"/><rect class="cls-2" x="1094.85" y="340.92" width="68.58" height="68.58" transform="translate(1504.35 -753.92) rotate(90)"/><rect class="cls-1" x="1094.85" y="408.52" width="68.58" height="68.58" transform="translate(1571.94 -686.33) rotate(90)"/><rect class="cls-2" x="1094.85" y="477.1" width="68.58" height="68.58" transform="translate(1640.52 -617.75) rotate(90)"/><rect class="cls-1" x="1094.85" y="544.69" width="68.58" height="68.58" transform="translate(1708.12 -550.15) rotate(90)"/><rect class="cls-2" x="1094.85" y="613.27" width="68.58" height="68.58" transform="translate(1776.69 -481.58) rotate(90)"/><rect class="cls-1" x="1094.85" y="680.87" width="68.58" height="68.58" transform="translate(1844.29 -413.98) rotate(90)"/><rect class="cls-2" x="1094.85" y="749.44" width="68.58" height="68.58" transform="translate(1912.87 -345.4) rotate(90)"/><rect class="cls-1" x="1026.57" y="749.44" width="68.58" height="68.58" transform="translate(277.12 1844.59) rotate(-90)"/><rect class="cls-2" x="1026.57" y="680.87" width="68.58" height="68.58" transform="translate(345.7 1776.01) rotate(-90)"/><rect class="cls-1" x="1026.57" y="613.27" width="68.58" height="68.58" transform="translate(413.3 1708.41) rotate(-90)"/><rect class="cls-2" x="1026.57" y="544.69" width="68.58" height="68.58" transform="translate(481.87 1639.84) rotate(-90)"/><rect class="cls-1" x="1026.57" y="477.1" width="68.58" height="68.58" transform="translate(549.47 1572.24) rotate(-90)"/><rect class="cls-2" x="1026.57" y="408.52" width="68.58" height="68.58" transform="translate(618.05 1503.66) rotate(-90)"/><rect class="cls-1" x="1026.57" y="340.92" width="68.58" height="68.58" transform="translate(685.64 1436.07) rotate(-90)"/><rect class="cls-2" x="1026.57" y="272.35" width="68.58" height="68.58" transform="translate(754.22 1367.49) rotate(-90)"/><rect class="cls-1" x="1026.57" y="204.75" width="68.58" height="68.58" transform="translate(821.82 1299.89) rotate(-90)"/><rect class="cls-2" x="1026.57" y="136.17" width="68.58" height="68.58" transform="translate(890.39 1231.32) rotate(-90)"/><rect class="cls-1" x="1026.57" y="68.58" width="68.58" height="68.58" transform="translate(957.99 1163.72) rotate(-90)"/><rect class="cls-2" x="1026.57" width="68.58" height="68.58" transform="translate(1026.57 1095.14) rotate(-90)"/><rect class="cls-1" x="957.99" width="68.58" height="68.58" transform="translate(1026.57 -957.99) rotate(90)"/><rect class="cls-2" x="957.99" y="68.58" width="68.58" height="68.58" transform="translate(1095.14 -889.41) rotate(90)"/><rect class="cls-1" x="957.99" y="136.17" width="68.58" height="68.58" transform="translate(1162.74 -821.82) rotate(90)"/><rect class="cls-2" x="957.99" y="204.75" width="68.58" height="68.58" transform="translate(1231.32 -753.24) rotate(90)"/><rect class="cls-1" x="957.99" y="272.35" width="68.58" height="68.58" transform="translate(1298.91 -685.64) rotate(90)"/><rect class="cls-2" x="957.99" y="340.92" width="68.58" height="68.58" transform="translate(1367.49 -617.07) rotate(90)"/><rect class="cls-1" x="957.99" y="408.52" width="68.58" height="68.58" transform="translate(1435.09 -549.47) rotate(90)"/><rect class="cls-2" x="957.99" y="477.1" width="68.58" height="68.58" transform="translate(1503.66 -480.89) rotate(90)"/><rect class="cls-1" x="957.99" y="544.69" width="68.58" height="68.58" transform="translate(1571.26 -413.3) rotate(90)"/><rect class="cls-2" x="957.99" y="613.27" width="68.58" height="68.58" transform="translate(1639.84 -344.72) rotate(90)"/><rect class="cls-1" x="957.99" y="680.87" width="68.58" height="68.58" transform="translate(1707.43 -277.12) rotate(90)"/><rect class="cls-2" x="957.99" y="749.44" width="68.58" height="68.58" transform="translate(1776.01 -208.55) rotate(90)"/><rect class="cls-1" x="889.71" y="749.44" width="68.58" height="68.58" transform="translate(140.27 1707.73) rotate(-90)"/><rect class="cls-2" x="889.71" y="680.87" width="68.58" height="68.58" transform="translate(208.85 1639.15) rotate(-90)"/><rect class="cls-1" x="889.71" y="613.27" width="68.58" height="68.58" transform="translate(276.44 1571.56) rotate(-90)"/><rect class="cls-2" x="889.71" y="544.69" width="68.58" height="68.58" transform="translate(345.02 1502.98) rotate(-90)"/><rect class="cls-1" x="889.71" y="477.1" width="68.58" height="68.58" transform="translate(412.62 1435.39) rotate(-90)"/><rect class="cls-2" x="889.71" y="408.52" width="68.58" height="68.58" transform="translate(481.19 1366.81) rotate(-90)"/><rect class="cls-1" x="889.71" y="340.92" width="68.58" height="68.58" transform="translate(548.79 1299.21) rotate(-90)"/><rect class="cls-2" x="889.71" y="272.35" width="68.58" height="68.58" transform="translate(617.37 1230.63) rotate(-90)"/><rect class="cls-1" x="889.71" y="204.75" width="68.58" height="68.58" transform="translate(684.96 1163.04) rotate(-90)"/><rect class="cls-2" x="889.71" y="136.17" width="68.58" height="68.58" transform="translate(753.54 1094.46) rotate(-90)"/><rect class="cls-1" x="889.71" y="68.58" width="68.58" height="68.58" transform="translate(821.13 1026.87) rotate(-90)"/><rect class="cls-2" x="889.71" width="68.58" height="68.58" transform="translate(889.71 958.29) rotate(-90)"/><rect class="cls-1" x="821.13" width="68.58" height="68.58" transform="translate(889.71 -821.13) rotate(90)"/><rect class="cls-2" x="821.13" y="68.58" width="68.58" height="68.58" transform="translate(958.29 -752.56) rotate(90)"/><rect class="cls-1" x="821.13" y="136.17" width="68.58" height="68.58" transform="translate(1025.88 -684.96) rotate(90)"/><rect class="cls-2" x="821.13" y="204.75" width="68.58" height="68.58" transform="translate(1094.46 -616.38) rotate(90)"/><rect class="cls-1" x="821.13" y="272.35" width="68.58" height="68.58" transform="translate(1162.06 -548.79) rotate(90)"/><rect class="cls-2" x="821.13" y="340.92" width="68.58" height="68.58" transform="translate(1230.63 -480.21) rotate(90)"/><rect class="cls-1" x="821.13" y="408.52" width="68.58" height="68.58" transform="translate(1298.23 -412.62) rotate(90)"/><rect class="cls-2" x="821.13" y="477.1" width="68.58" height="68.58" transform="translate(1366.81 -344.04) rotate(90)"/><rect class="cls-1" x="821.13" y="544.69" width="68.58" height="68.58" transform="translate(1434.4 -276.44) rotate(90)"/><rect class="cls-2" x="821.13" y="613.27" width="68.58" height="68.58" transform="translate(1502.98 -207.86) rotate(90)"/><rect class="cls-1" x="821.13" y="680.87" width="68.58" height="68.58" transform="translate(1570.58 -140.27) rotate(90)"/><rect class="cls-2" x="821.13" y="749.44" width="68.58" height="68.58" transform="translate(1639.15 -71.69) rotate(90)"/><rect class="cls-1" x="752.86" y="749.44" width="68.58" height="68.58" transform="translate(3.41 1570.88) rotate(-90)"/><rect class="cls-2" x="752.86" y="680.87" width="68.58" height="68.58" transform="translate(71.99 1502.3) rotate(-90)"/><rect class="cls-1" x="752.86" y="613.27" width="68.58" height="68.58" transform="translate(139.59 1434.7) rotate(-90)"/><rect class="cls-2" x="752.86" y="544.69" width="68.58" height="68.58" transform="translate(208.16 1366.13) rotate(-90)"/><rect class="cls-1" x="752.86" y="477.1" width="68.58" height="68.58" transform="translate(275.76 1298.53) rotate(-90)"/><rect class="cls-2" x="752.86" y="408.52" width="68.58" height="68.58" transform="translate(344.34 1229.95) rotate(-90)"/><rect class="cls-1" x="752.86" y="340.92" width="68.58" height="68.58" transform="translate(411.93 1162.36) rotate(-90)"/><rect class="cls-2" x="752.86" y="272.35" width="68.58" height="68.58" transform="translate(480.51 1093.78) rotate(-90)"/><rect class="cls-1" x="752.86" y="204.75" width="68.58" height="68.58" transform="translate(548.11 1026.18) rotate(-90)"/><rect class="cls-2" x="752.86" y="136.17" width="68.58" height="68.58" transform="translate(616.68 957.61) rotate(-90)"/><rect class="cls-1" x="752.86" y="68.58" width="68.58" height="68.58" transform="translate(684.28 890.01) rotate(-90)"/><rect class="cls-2" x="752.86" width="68.58" height="68.58" transform="translate(752.86 821.43) rotate(-90)"/><rect class="cls-1" x="684.28" width="68.58" height="68.58" transform="translate(752.86 -684.28) rotate(90)"/><rect class="cls-2" x="684.28" y="68.58" width="68.58" height="68.58" transform="translate(821.43 -615.7) rotate(90)"/><rect class="cls-1" x="684.28" y="136.17" width="68.58" height="68.58" transform="translate(889.03 -548.11) rotate(90)"/><rect class="cls-2" x="684.28" y="204.75" width="68.58" height="68.58" transform="translate(957.61 -479.53) rotate(90)"/><rect class="cls-1" x="684.28" y="272.35" width="68.58" height="68.58" transform="translate(1025.2 -411.93) rotate(90)"/><rect class="cls-2" x="684.28" y="340.92" width="68.58" height="68.58" transform="translate(1093.78 -343.36) rotate(90)"/><rect class="cls-1" x="684.28" y="408.52" width="68.58" height="68.58" transform="translate(1161.38 -275.76) rotate(90)"/><rect class="cls-2" x="684.28" y="477.1" width="68.58" height="68.58" transform="translate(1229.95 -207.18) rotate(90)"/><rect class="cls-1" x="684.28" y="544.69" width="68.58" height="68.58" transform="translate(1297.55 -139.59) rotate(90)"/><rect class="cls-2" x="684.28" y="613.27" width="68.58" height="68.58" transform="translate(1366.13 -71.01) rotate(90)"/><rect class="cls-1" x="684.28" y="680.87" width="68.58" height="68.58" transform="translate(1433.72 -3.41) rotate(90)"/><rect class="cls-2" x="684.28" y="749.44" width="68.58" height="68.58" transform="translate(1502.3 65.16) rotate(90)"/><rect class="cls-1" x="616" y="749.44" width="68.58" height="68.58" transform="translate(-133.44 1434.02) rotate(-90)"/><rect class="cls-2" x="616" y="680.87" width="68.58" height="68.58" transform="translate(-64.87 1365.44) rotate(-90)"/><rect class="cls-1" x="616" y="613.27" width="68.58" height="68.58" transform="translate(2.73 1297.85) rotate(-90)"/><rect class="cls-2" x="616" y="544.69" width="68.58" height="68.58" transform="translate(71.31 1229.27) rotate(-90)"/><rect class="cls-1" x="616" y="477.1" width="68.58" height="68.58" transform="translate(138.9 1161.67) rotate(-90)"/><rect class="cls-2" x="616" y="408.52" width="68.58" height="68.58" transform="translate(207.48 1093.1) rotate(-90)"/><rect class="cls-1" x="616" y="340.92" width="68.58" height="68.58" transform="translate(275.08 1025.5) rotate(-90)"/><rect class="cls-2" x="616" y="272.35" width="68.58" height="68.58" transform="translate(343.65 956.92) rotate(-90)"/><rect class="cls-1" x="616" y="204.75" width="68.58" height="68.58" transform="translate(411.25 889.33) rotate(-90)"/><rect class="cls-2" x="616" y="136.17" width="68.58" height="68.58" transform="translate(479.83 820.75) rotate(-90)"/><rect class="cls-1" x="616" y="68.58" width="68.58" height="68.58" transform="translate(547.42 753.15) rotate(-90)"/><rect class="cls-2" x="616" width="68.58" height="68.58" transform="translate(616 684.58) rotate(-90)"/><rect class="cls-1" x="547.42" width="68.58" height="68.58" transform="translate(616 -547.42) rotate(90)"/><rect class="cls-2" x="547.42" y="68.58" width="68.58" height="68.58" transform="translate(684.58 -478.85) rotate(90)"/><rect class="cls-1" x="547.42" y="136.17" width="68.58" height="68.58" transform="translate(752.17 -411.25) rotate(90)"/><rect class="cls-2" x="547.42" y="204.75" width="68.58" height="68.58" transform="translate(820.75 -342.67) rotate(90)"/><rect class="cls-1" x="547.42" y="272.35" width="68.58" height="68.58" transform="translate(888.35 -275.08) rotate(90)"/><rect class="cls-2" x="547.42" y="340.92" width="68.58" height="68.58" transform="translate(956.92 -206.5) rotate(90)"/><rect class="cls-1" x="547.42" y="408.52" width="68.58" height="68.58" transform="translate(1024.52 -138.9) rotate(90)"/><rect class="cls-2" x="547.42" y="477.1" width="68.58" height="68.58" transform="translate(1093.1 -70.33) rotate(90)"/><rect class="cls-1" x="547.42" y="544.69" width="68.58" height="68.58" transform="translate(1160.69 -2.73) rotate(90)"/><rect class="cls-2" x="547.42" y="613.27" width="68.58" height="68.58" transform="translate(1229.27 65.85) rotate(90)"/><rect class="cls-1" x="547.42" y="680.87" width="68.58" height="68.58" transform="translate(1296.87 133.44) rotate(90)"/><rect class="cls-2" x="547.42" y="749.44" width="68.58" height="68.58" transform="translate(1365.44 202.02) rotate(90)"/><rect class="cls-1" x="479.14" y="749.44" width="68.58" height="68.58" transform="translate(-270.3 1297.16) rotate(-90)"/><rect class="cls-2" x="479.14" y="680.87" width="68.58" height="68.58" transform="translate(-201.72 1228.59) rotate(-90)"/><rect class="cls-1" x="479.14" y="613.27" width="68.58" height="68.58" transform="translate(-134.13 1160.99) rotate(-90)"/><rect class="cls-2" x="479.14" y="544.69" width="68.58" height="68.58" transform="translate(-65.55 1092.41) rotate(-90)"/><rect class="cls-1" x="479.14" y="477.1" width="68.58" height="68.58" transform="translate(2.05 1024.82) rotate(-90)"/><rect class="cls-2" x="479.14" y="408.52" width="68.58" height="68.58" transform="translate(70.62 956.24) rotate(-90)"/><rect class="cls-1" x="479.14" y="340.92" width="68.58" height="68.58" transform="translate(138.22 888.64) rotate(-90)"/><rect class="cls-2" x="479.14" y="272.35" width="68.58" height="68.58" transform="translate(206.8 820.07) rotate(-90)"/><rect class="cls-1" x="479.14" y="204.75" width="68.58" height="68.58" transform="translate(274.39 752.47) rotate(-90)"/><rect class="cls-2" x="479.14" y="136.17" width="68.58" height="68.58" transform="translate(342.97 683.89) rotate(-90)"/><rect class="cls-1" x="479.14" y="68.58" width="68.58" height="68.58" transform="translate(410.57 616.3) rotate(-90)"/><rect class="cls-2" x="479.14" width="68.58" height="68.58" transform="translate(479.14 547.72) rotate(-90)"/><rect class="cls-1" x="410.57" width="68.58" height="68.58" transform="translate(479.14 -410.57) rotate(90)"/><rect class="cls-2" x="410.57" y="68.58" width="68.58" height="68.58" transform="translate(547.72 -341.99) rotate(90)"/><rect class="cls-1" x="410.57" y="136.17" width="68.58" height="68.58" transform="translate(615.32 -274.39) rotate(90)"/><rect class="cls-2" x="410.57" y="204.75" width="68.58" height="68.58" transform="translate(683.89 -205.82) rotate(90)"/><rect class="cls-1" x="410.57" y="272.35" width="68.58" height="68.58" transform="translate(751.49 -138.22) rotate(90)"/><rect class="cls-2" x="410.57" y="340.92" width="68.58" height="68.58" transform="translate(820.07 -69.64) rotate(90)"/><rect class="cls-1" x="410.57" y="408.52" width="68.58" height="68.58" transform="translate(887.66 -2.05) rotate(90)"/><rect class="cls-2" x="410.57" y="477.1" width="68.58" height="68.58" transform="translate(956.24 66.53) rotate(90)"/><rect class="cls-1" x="410.57" y="544.69" width="68.58" height="68.58" transform="translate(1023.84 134.13) rotate(90)"/><rect class="cls-2" x="410.57" y="613.27" width="68.58" height="68.58" transform="translate(1092.41 202.7) rotate(90)"/><rect class="cls-1" x="410.57" y="680.87" width="68.58" height="68.58" transform="translate(1160.01 270.3) rotate(90)"/><rect class="cls-2" x="410.57" y="749.44" width="68.58" height="68.58" transform="translate(1228.59 338.88) rotate(90)"/><rect class="cls-1" x="342.29" y="749.44" width="68.58" height="68.58" transform="translate(-407.15 1160.31) rotate(-90)"/><rect class="cls-2" x="342.29" y="680.87" width="68.58" height="68.58" transform="translate(-338.58 1091.73) rotate(-90)"/><rect class="cls-1" x="342.29" y="613.27" width="68.58" height="68.58" transform="translate(-270.98 1024.14) rotate(-90)"/><rect class="cls-2" x="342.29" y="544.69" width="68.58" height="68.58" transform="translate(-202.4 955.56) rotate(-90)"/><rect class="cls-1" x="342.29" y="477.1" width="68.58" height="68.58" transform="translate(-134.81 887.96) rotate(-90)"/><rect class="cls-2" x="342.29" y="408.52" width="68.58" height="68.58" transform="translate(-66.23 819.39) rotate(-90)"/><rect class="cls-1" x="342.29" y="340.92" width="68.58" height="68.58" transform="translate(1.37 751.79) rotate(-90)"/><rect class="cls-2" x="342.29" y="272.35" width="68.58" height="68.58" transform="translate(69.94 683.21) rotate(-90)"/><rect class="cls-1" x="342.29" y="204.75" width="68.58" height="68.58" transform="translate(137.54 615.62) rotate(-90)"/><rect class="cls-2" x="342.29" y="136.17" width="68.58" height="68.58" transform="translate(206.12 547.04) rotate(-90)"/><rect class="cls-1" x="342.29" y="68.58" width="68.58" height="68.58" transform="translate(273.71 479.44) rotate(-90)"/><rect class="cls-2" x="342.29" width="68.58" height="68.58" transform="translate(342.29 410.87) rotate(-90)"/><rect class="cls-1" x="273.71" width="68.58" height="68.58" transform="translate(342.29 -273.71) rotate(90)"/><rect class="cls-2" x="273.71" y="68.58" width="68.58" height="68.58" transform="translate(410.87 -205.13) rotate(90)"/><rect class="cls-1" x="273.71" y="136.17" width="68.58" height="68.58" transform="translate(478.46 -137.54) rotate(90)"/><rect class="cls-2" x="273.71" y="204.75" width="68.58" height="68.58" transform="translate(547.04 -68.96) rotate(90)"/><rect class="cls-1" x="273.71" y="272.35" width="68.58" height="68.58" transform="translate(614.63 -1.37) rotate(90)"/><rect class="cls-2" x="273.71" y="340.92" width="68.58" height="68.58" transform="translate(683.21 67.21) rotate(90)"/><rect class="cls-1" x="273.71" y="408.52" width="68.58" height="68.58" transform="translate(750.81 134.81) rotate(90)"/><rect class="cls-2" x="273.71" y="477.1" width="68.58" height="68.58" transform="translate(819.39 203.38) rotate(90)"/><rect class="cls-1" x="273.71" y="544.69" width="68.58" height="68.58" transform="translate(886.98 270.98) rotate(90)"/><rect class="cls-2" x="273.71" y="613.27" width="68.58" height="68.58" transform="translate(955.56 339.56) rotate(90)"/><rect class="cls-1" x="273.71" y="680.87" width="68.58" height="68.58" transform="translate(1023.15 407.15) rotate(90)"/><rect class="cls-2" x="273.71" y="749.44" width="68.58" height="68.58" transform="translate(1091.73 475.73) rotate(90)"/><rect class="cls-1" x="205.43" y="749.44" width="68.58" height="68.58" transform="translate(-544.01 1023.45) rotate(-90)"/><rect class="cls-2" x="205.43" y="680.87" width="68.58" height="68.58" transform="translate(-475.43 954.88) rotate(-90)"/><rect class="cls-1" x="205.43" y="613.27" width="68.58" height="68.58" transform="translate(-407.84 887.28) rotate(-90)"/><rect class="cls-2" x="205.43" y="544.69" width="68.58" height="68.58" transform="translate(-339.26 818.7) rotate(-90)"/><rect class="cls-1" x="205.43" y="477.1" width="68.58" height="68.58" transform="translate(-271.66 751.11) rotate(-90)"/><rect class="cls-2" x="205.43" y="408.52" width="68.58" height="68.58" transform="translate(-203.09 682.53) rotate(-90)"/><rect class="cls-1" x="205.43" y="340.92" width="68.58" height="68.58" transform="translate(-135.49 614.93) rotate(-90)"/><rect class="cls-2" x="205.43" y="272.35" width="68.58" height="68.58" transform="translate(-66.91 546.36) rotate(-90)"/><rect class="cls-1" x="205.43" y="204.75" width="68.58" height="68.58" transform="translate(0.68 478.76) rotate(-90)"/><rect class="cls-2" x="205.43" y="136.17" width="68.58" height="68.58" transform="translate(69.26 410.18) rotate(-90)"/><rect class="cls-1" x="205.43" y="68.58" width="68.58" height="68.58" transform="translate(136.86 342.59) rotate(-90)"/><rect class="cls-2" x="205.43" width="68.58" height="68.58" transform="translate(205.43 274.01) rotate(-90)"/><rect class="cls-1" x="136.86" width="68.58" height="68.58" transform="translate(205.43 -136.86) rotate(90)"/><rect class="cls-2" x="136.86" y="68.58" width="68.58" height="68.58" transform="translate(274.01 -68.28) rotate(90)"/><rect class="cls-1" x="136.86" y="136.17" width="68.58" height="68.58" transform="translate(341.61 -0.68) rotate(90)"/><rect class="cls-2" x="136.86" y="204.75" width="68.58" height="68.58" transform="translate(410.18 67.89) rotate(90)"/><rect class="cls-1" x="136.86" y="272.35" width="68.58" height="68.58" transform="translate(477.78 135.49) rotate(90)"/><rect class="cls-2" x="136.86" y="340.92" width="68.58" height="68.58" transform="translate(546.36 204.07) rotate(90)"/><rect class="cls-1" x="136.86" y="408.52" width="68.58" height="68.58" transform="translate(613.95 271.66) rotate(90)"/><rect class="cls-2" x="136.86" y="477.1" width="68.58" height="68.58" transform="translate(682.53 340.24) rotate(90)"/><rect class="cls-1" x="136.86" y="544.69" width="68.58" height="68.58" transform="translate(750.13 407.84) rotate(90)"/><rect class="cls-2" x="136.86" y="613.27" width="68.58" height="68.58" transform="translate(818.7 476.41) rotate(90)"/><rect class="cls-1" x="136.86" y="680.87" width="68.58" height="68.58" transform="translate(886.3 544.01) rotate(90)"/><rect class="cls-2" x="136.86" y="749.44" width="68.58" height="68.58" transform="translate(954.88 612.59) rotate(90)"/><rect class="cls-1" x="68.58" y="749.44" width="68.58" height="68.58" transform="translate(-680.87 886.6) rotate(-90)"/><rect class="cls-2" x="68.58" y="680.87" width="68.58" height="68.58" transform="translate(-612.29 818.02) rotate(-90)"/><rect class="cls-1" x="68.58" y="613.27" width="68.58" height="68.58" transform="translate(-544.69 750.42) rotate(-90)"/><rect class="cls-2" x="68.58" y="544.69" width="68.58" height="68.58" transform="translate(-476.12 681.85) rotate(-90)"/><rect class="cls-1" x="68.58" y="477.1" width="68.58" height="68.58" transform="translate(-408.52 614.25) rotate(-90)"/><rect class="cls-2" x="68.58" y="408.52" width="68.58" height="68.58" transform="translate(-339.94 545.67) rotate(-90)"/><rect class="cls-1" x="68.58" y="340.92" width="68.58" height="68.58" transform="translate(-272.35 478.08) rotate(-90)"/><rect class="cls-2" x="68.58" y="272.35" width="68.58" height="68.58" transform="translate(-203.77 409.5) rotate(-90)"/><rect class="cls-1" x="68.58" y="204.75" width="68.58" height="68.58" transform="translate(-136.17 341.9) rotate(-90)"/><rect class="cls-2" x="68.58" y="136.17" width="68.58" height="68.58" transform="translate(-67.6 273.33) rotate(-90)"/><rect class="cls-1" x="68.58" y="68.58" width="68.58" height="68.58" transform="translate(0 205.73) rotate(-90)"/><rect class="cls-2" x="68.58" width="68.58" height="68.58" transform="translate(68.58 137.15) rotate(-90)"/><rect class="cls-1" width="68.58" height="68.58" transform="translate(68.58 0) rotate(90)"/><rect class="cls-2" y="68.58" width="68.58" height="68.58" transform="translate(137.15 68.58) rotate(90)"/><rect class="cls-1" y="136.17" width="68.58" height="68.58" transform="translate(204.75 136.17) rotate(90)"/><rect class="cls-2" y="204.75" width="68.58" height="68.58" transform="translate(273.33 204.75) rotate(90)"/><rect class="cls-1" y="272.35" width="68.58" height="68.58" transform="translate(340.92 272.35) rotate(90)"/><rect class="cls-2" y="340.92" width="68.58" height="68.58" transform="translate(409.5 340.92) rotate(90)"/><rect class="cls-1" y="408.52" width="68.58" height="68.58" transform="translate(477.1 408.52) rotate(90)"/><rect class="cls-2" y="477.1" width="68.58" height="68.58" transform="translate(545.67 477.1) rotate(90)"/><rect class="cls-1" y="544.69" width="68.58" height="68.58" transform="translate(613.27 544.69) rotate(90)"/><rect class="cls-2" y="613.27" width="68.58" height="68.58" transform="translate(681.85 613.27) rotate(90)"/><rect class="cls-1" y="680.87" width="68.58" height="68.58" transform="translate(749.44 680.87) rotate(90)"/><rect class="cls-2" y="749.44" width="68.58" height="68.58" transform="translate(818.02 749.44) rotate(90)"/><rect class="cls-1" x="1847.7" y="1567.46" width="68.58" height="68.58" transform="translate(280.24 3483.74) rotate(-90)"/><rect class="cls-2" x="1847.7" y="1498.89" width="68.58" height="68.58" transform="translate(348.82 3415.16) rotate(-90)"/><rect class="cls-1" x="1847.7" y="1431.29" width="68.58" height="68.58" transform="translate(416.41 3347.57) rotate(-90)"/><rect class="cls-2" x="1847.7" y="1362.71" width="68.58" height="68.58" transform="translate(484.99 3278.99) rotate(-90)"/><rect class="cls-1" x="1847.7" y="1295.12" width="68.58" height="68.58" transform="translate(552.59 3211.4) rotate(-90)"/><rect class="cls-2" x="1847.7" y="1226.54" width="68.58" height="68.58" transform="translate(621.16 3142.82) rotate(-90)"/><rect class="cls-1" x="1847.7" y="1158.94" width="68.58" height="68.58" transform="translate(688.76 3075.22) rotate(-90)"/><rect class="cls-2" x="1847.7" y="1090.37" width="68.58" height="68.58" transform="translate(757.34 3006.65) rotate(-90)"/><rect class="cls-1" x="1847.7" y="1022.77" width="68.58" height="68.58" transform="translate(824.93 2939.05) rotate(-90)"/><rect class="cls-2" x="1847.7" y="954.19" width="68.58" height="68.58" transform="translate(893.51 2870.47) rotate(-90)"/><rect class="cls-1" x="1847.7" y="886.6" width="68.58" height="68.58" transform="translate(961.11 2802.88) rotate(-90)"/><rect class="cls-2" x="1847.7" y="818.02" width="68.58" height="68.58" transform="translate(1029.68 2734.3) rotate(-90)"/><rect class="cls-1" x="1779.13" y="818.02" width="68.58" height="68.58" transform="translate(2665.72 -961.11) rotate(90)"/><rect class="cls-2" x="1779.13" y="886.6" width="68.58" height="68.58" transform="translate(2734.3 -892.53) rotate(90)"/><rect class="cls-1" x="1779.13" y="954.19" width="68.58" height="68.58" transform="translate(2801.9 -824.93) rotate(90)"/><rect class="cls-2" x="1779.13" y="1022.77" width="68.58" height="68.58" transform="translate(2870.47 -756.36) rotate(90)"/><rect class="cls-1" x="1779.13" y="1090.37" width="68.58" height="68.58" transform="translate(2938.07 -688.76) rotate(90)"/><rect class="cls-2" x="1779.13" y="1158.94" width="68.58" height="68.58" transform="translate(3006.65 -620.18) rotate(90)"/><rect class="cls-1" x="1779.13" y="1226.54" width="68.58" height="68.58" transform="translate(3074.24 -552.59) rotate(90)"/><rect class="cls-2" x="1779.13" y="1295.12" width="68.58" height="68.58" transform="translate(3142.82 -484.01) rotate(90)"/><rect class="cls-1" x="1779.13" y="1362.71" width="68.58" height="68.58" transform="translate(3210.41 -416.41) rotate(90)"/><rect class="cls-2" x="1779.13" y="1431.29" width="68.58" height="68.58" transform="translate(3278.99 -347.84) rotate(90)"/><rect class="cls-1" x="1779.13" y="1498.89" width="68.58" height="68.58" transform="translate(3346.59 -280.24) rotate(90)"/><rect class="cls-2" x="1779.13" y="1567.46" width="68.58" height="68.58" transform="translate(3415.16 -211.66) rotate(90)"/><rect class="cls-1" x="1710.85" y="1567.46" width="68.58" height="68.58" transform="translate(143.38 3346.89) rotate(-90)"/><rect class="cls-2" x="1710.85" y="1498.89" width="68.58" height="68.58" transform="translate(211.96 3278.31) rotate(-90)"/><rect class="cls-1" x="1710.85" y="1431.29" width="68.58" height="68.58" transform="translate(279.56 3210.71) rotate(-90)"/><rect class="cls-2" x="1710.85" y="1362.71" width="68.58" height="68.58" transform="translate(348.13 3142.14) rotate(-90)"/><rect class="cls-1" x="1710.85" y="1295.12" width="68.58" height="68.58" transform="translate(415.73 3074.54) rotate(-90)"/><rect class="cls-2" x="1710.85" y="1226.54" width="68.58" height="68.58" transform="translate(484.31 3005.96) rotate(-90)"/><rect class="cls-1" x="1710.85" y="1158.94" width="68.58" height="68.58" transform="translate(551.9 2938.37) rotate(-90)"/><rect class="cls-2" x="1710.85" y="1090.37" width="68.58" height="68.58" transform="translate(620.48 2869.79) rotate(-90)"/><rect class="cls-1" x="1710.85" y="1022.77" width="68.58" height="68.58" transform="translate(688.08 2802.19) rotate(-90)"/><rect class="cls-2" x="1710.85" y="954.19" width="68.58" height="68.58" transform="translate(756.65 2733.62) rotate(-90)"/><rect class="cls-1" x="1710.85" y="886.6" width="68.58" height="68.58" transform="translate(824.25 2666.02) rotate(-90)"/><rect class="cls-2" x="1710.85" y="818.02" width="68.58" height="68.58" transform="translate(892.83 2597.44) rotate(-90)"/><rect class="cls-1" x="1642.27" y="818.02" width="68.58" height="68.58" transform="translate(2528.87 -824.25) rotate(90)"/><rect class="cls-2" x="1642.27" y="886.6" width="68.58" height="68.58" transform="translate(2597.44 -755.67) rotate(90)"/><rect class="cls-1" x="1642.27" y="954.19" width="68.58" height="68.58" transform="translate(2665.04 -688.08) rotate(90)"/><rect class="cls-2" x="1642.27" y="1022.77" width="68.58" height="68.58" transform="translate(2733.62 -619.5) rotate(90)"/><rect class="cls-1" x="1642.27" y="1090.37" width="68.58" height="68.58" transform="translate(2801.21 -551.9) rotate(90)"/><rect class="cls-2" x="1642.27" y="1158.94" width="68.58" height="68.58" transform="translate(2869.79 -483.33) rotate(90)"/><rect class="cls-1" x="1642.27" y="1226.54" width="68.58" height="68.58" transform="translate(2937.39 -415.73) rotate(90)"/><rect class="cls-2" x="1642.27" y="1295.12" width="68.58" height="68.58" transform="translate(3005.96 -347.15) rotate(90)"/><rect class="cls-1" x="1642.27" y="1362.71" width="68.58" height="68.58" transform="translate(3073.56 -279.56) rotate(90)"/><rect class="cls-2" x="1642.27" y="1431.29" width="68.58" height="68.58" transform="translate(3142.14 -210.98) rotate(90)"/><rect class="cls-1" x="1642.27" y="1498.89" width="68.58" height="68.58" transform="translate(3209.73 -143.38) rotate(90)"/><rect class="cls-2" x="1642.27" y="1567.46" width="68.58" height="68.58" transform="translate(3278.31 -74.81) rotate(90)"/><rect class="cls-1" x="1573.99" y="1567.46" width="68.58" height="68.58" transform="translate(6.53 3210.03) rotate(-90)"/><rect class="cls-2" x="1573.99" y="1498.89" width="68.58" height="68.58" transform="translate(75.1 3141.45) rotate(-90)"/><rect class="cls-1" x="1573.99" y="1431.29" width="68.58" height="68.58" transform="translate(142.7 3073.86) rotate(-90)"/><rect class="cls-2" x="1573.99" y="1362.71" width="68.58" height="68.58" transform="translate(211.28 3005.28) rotate(-90)"/><rect class="cls-1" x="1573.99" y="1295.12" width="68.58" height="68.58" transform="translate(278.87 2937.68) rotate(-90)"/><rect class="cls-2" x="1573.99" y="1226.54" width="68.58" height="68.58" transform="translate(347.45 2869.11) rotate(-90)"/><rect class="cls-1" x="1573.99" y="1158.94" width="68.58" height="68.58" transform="translate(415.05 2801.51) rotate(-90)"/><rect class="cls-2" x="1573.99" y="1090.37" width="68.58" height="68.58" transform="translate(483.62 2732.93) rotate(-90)"/><rect class="cls-1" x="1573.99" y="1022.77" width="68.58" height="68.58" transform="translate(551.22 2665.34) rotate(-90)"/><rect class="cls-2" x="1573.99" y="954.19" width="68.58" height="68.58" transform="translate(619.8 2596.76) rotate(-90)"/><rect class="cls-1" x="1573.99" y="886.6" width="68.58" height="68.58" transform="translate(687.39 2529.16) rotate(-90)"/><rect class="cls-2" x="1573.99" y="818.02" width="68.58" height="68.58" transform="translate(755.97 2460.59) rotate(-90)"/><rect class="cls-1" x="1505.41" y="818.02" width="68.58" height="68.58" transform="translate(2392.01 -687.39) rotate(90)"/><rect class="cls-2" x="1505.41" y="886.6" width="68.58" height="68.58" transform="translate(2460.59 -618.82) rotate(90)"/><rect class="cls-1" x="1505.41" y="954.19" width="68.58" height="68.58" transform="translate(2528.18 -551.22) rotate(90)"/><rect class="cls-2" x="1505.41" y="1022.77" width="68.58" height="68.58" transform="translate(2596.76 -482.64) rotate(90)"/><rect class="cls-1" x="1505.41" y="1090.37" width="68.58" height="68.58" transform="translate(2664.36 -415.05) rotate(90)"/><rect class="cls-2" x="1505.41" y="1158.94" width="68.58" height="68.58" transform="translate(2732.93 -346.47) rotate(90)"/><rect class="cls-1" x="1505.41" y="1226.54" width="68.58" height="68.58" transform="translate(2800.53 -278.87) rotate(90)"/><rect class="cls-2" x="1505.41" y="1295.12" width="68.58" height="68.58" transform="translate(2869.11 -210.3) rotate(90)"/><rect class="cls-1" x="1505.41" y="1362.71" width="68.58" height="68.58" transform="translate(2936.7 -142.7) rotate(90)"/><rect class="cls-2" x="1505.41" y="1431.29" width="68.58" height="68.58" transform="translate(3005.28 -74.12) rotate(90)"/><rect class="cls-1" x="1505.41" y="1498.89" width="68.58" height="68.58" transform="translate(3072.88 -6.53) rotate(90)"/><rect class="cls-2" x="1505.41" y="1567.46" width="68.58" height="68.58" transform="translate(3141.45 62.05) rotate(90)"/><rect class="cls-1" x="1437.13" y="1567.46" width="68.58" height="68.58" transform="translate(-130.33 3073.17) rotate(-90)"/><rect class="cls-2" x="1437.13" y="1498.89" width="68.58" height="68.58" transform="translate(-61.75 3004.6) rotate(-90)"/><rect class="cls-1" x="1437.13" y="1431.29" width="68.58" height="68.58" transform="translate(5.85 2937) rotate(-90)"/><rect class="cls-2" x="1437.13" y="1362.71" width="68.58" height="68.58" transform="translate(74.42 2868.42) rotate(-90)"/><rect class="cls-1" x="1437.13" y="1295.12" width="68.58" height="68.58" transform="translate(142.02 2800.83) rotate(-90)"/><rect class="cls-2" x="1437.13" y="1226.54" width="68.58" height="68.58" transform="translate(210.6 2732.25) rotate(-90)"/><rect class="cls-1" x="1437.13" y="1158.94" width="68.58" height="68.58" transform="translate(278.19 2664.65) rotate(-90)"/><rect class="cls-2" x="1437.13" y="1090.37" width="68.58" height="68.58" transform="translate(346.77 2596.08) rotate(-90)"/><rect class="cls-1" x="1437.13" y="1022.77" width="68.58" height="68.58" transform="translate(414.36 2528.48) rotate(-90)"/><rect class="cls-2" x="1437.13" y="954.19" width="68.58" height="68.58" transform="translate(482.94 2459.9) rotate(-90)"/><rect class="cls-1" x="1437.13" y="886.6" width="68.58" height="68.58" transform="translate(550.54 2392.31) rotate(-90)"/><rect class="cls-2" x="1437.13" y="818.02" width="68.58" height="68.58" transform="translate(619.11 2323.73) rotate(-90)"/><rect class="cls-1" x="1368.56" y="818.02" width="68.58" height="68.58" transform="translate(2255.15 -550.54) rotate(90)"/><rect class="cls-2" x="1368.56" y="886.6" width="68.58" height="68.58" transform="translate(2323.73 -481.96) rotate(90)"/><rect class="cls-1" x="1368.56" y="954.19" width="68.58" height="68.58" transform="translate(2391.33 -414.36) rotate(90)"/><rect class="cls-2" x="1368.56" y="1022.77" width="68.58" height="68.58" transform="translate(2459.9 -345.79) rotate(90)"/><rect class="cls-1" x="1368.56" y="1090.37" width="68.58" height="68.58" transform="translate(2527.5 -278.19) rotate(90)"/><rect class="cls-2" x="1368.56" y="1158.94" width="68.58" height="68.58" transform="translate(2596.08 -209.61) rotate(90)"/><rect class="cls-1" x="1368.56" y="1226.54" width="68.58" height="68.58" transform="translate(2663.67 -142.02) rotate(90)"/><rect class="cls-2" x="1368.56" y="1295.12" width="68.58" height="68.58" transform="translate(2732.25 -73.44) rotate(90)"/><rect class="cls-1" x="1368.56" y="1362.71" width="68.58" height="68.58" transform="translate(2799.85 -5.85) rotate(90)"/><rect class="cls-2" x="1368.56" y="1431.29" width="68.58" height="68.58" transform="translate(2868.42 62.73) rotate(90)"/><rect class="cls-1" x="1368.56" y="1498.89" width="68.58" height="68.58" transform="translate(2936.02 130.33) rotate(90)"/><rect class="cls-2" x="1368.56" y="1567.46" width="68.58" height="68.58" transform="translate(3004.6 198.91) rotate(90)"/><rect class="cls-1" x="1300.28" y="1567.46" width="68.58" height="68.58" transform="translate(-267.18 2936.32) rotate(-90)"/><rect class="cls-2" x="1300.28" y="1498.89" width="68.58" height="68.58" transform="translate(-198.61 2867.74) rotate(-90)"/><rect class="cls-1" x="1300.28" y="1431.29" width="68.58" height="68.58" transform="translate(-131.01 2800.15) rotate(-90)"/><rect class="cls-2" x="1300.28" y="1362.71" width="68.58" height="68.58" transform="translate(-62.43 2731.57) rotate(-90)"/><rect class="cls-1" x="1300.28" y="1295.12" width="68.58" height="68.58" transform="translate(5.16 2663.97) rotate(-90)"/><rect class="cls-2" x="1300.28" y="1226.54" width="68.58" height="68.58" transform="translate(73.74 2595.4) rotate(-90)"/><rect class="cls-1" x="1300.28" y="1158.94" width="68.58" height="68.58" transform="translate(141.34 2527.8) rotate(-90)"/><rect class="cls-2" x="1300.28" y="1090.37" width="68.58" height="68.58" transform="translate(209.91 2459.22) rotate(-90)"/><rect class="cls-1" x="1300.28" y="1022.77" width="68.58" height="68.58" transform="translate(277.51 2391.63) rotate(-90)"/><rect class="cls-2" x="1300.28" y="954.19" width="68.58" height="68.58" transform="translate(346.09 2323.05) rotate(-90)"/><rect class="cls-1" x="1300.28" y="886.6" width="68.58" height="68.58" transform="translate(413.68 2255.45) rotate(-90)"/><rect class="cls-2" x="1300.28" y="818.02" width="68.58" height="68.58" transform="translate(482.26 2186.88) rotate(-90)"/><rect class="cls-1" x="1231.7" y="818.02" width="68.58" height="68.58" transform="translate(2118.3 -413.68) rotate(90)"/><rect class="cls-2" x="1231.7" y="886.6" width="68.58" height="68.58" transform="translate(2186.88 -345.11) rotate(90)"/><rect class="cls-1" x="1231.7" y="954.19" width="68.58" height="68.58" transform="translate(2254.47 -277.51) rotate(90)"/><rect class="cls-2" x="1231.7" y="1022.77" width="68.58" height="68.58" transform="translate(2323.05 -208.93) rotate(90)"/><rect class="cls-1" x="1231.7" y="1090.37" width="68.58" height="68.58" transform="translate(2390.65 -141.34) rotate(90)"/><rect class="cls-2" x="1231.7" y="1158.94" width="68.58" height="68.58" transform="translate(2459.22 -72.76) rotate(90)"/><rect class="cls-1" x="1231.7" y="1226.54" width="68.58" height="68.58" transform="translate(2526.82 -5.16) rotate(90)"/><rect class="cls-2" x="1231.7" y="1295.12" width="68.58" height="68.58" transform="translate(2595.4 63.41) rotate(90)"/><rect class="cls-1" x="1231.7" y="1362.71" width="68.58" height="68.58" transform="translate(2662.99 131.01) rotate(90)"/><rect class="cls-2" x="1231.7" y="1431.29" width="68.58" height="68.58" transform="translate(2731.57 199.59) rotate(90)"/><rect class="cls-1" x="1231.7" y="1498.89" width="68.58" height="68.58" transform="translate(2799.16 267.18) rotate(90)"/><rect class="cls-2" x="1231.7" y="1567.46" width="68.58" height="68.58" transform="translate(2867.74 335.76) rotate(90)"/><rect class="cls-1" x="1163.42" y="1567.46" width="68.58" height="68.58" transform="translate(-404.04 2799.46) rotate(-90)"/><rect class="cls-2" x="1163.42" y="1498.89" width="68.58" height="68.58" transform="translate(-335.46 2730.89) rotate(-90)"/><rect class="cls-1" x="1163.42" y="1431.29" width="68.58" height="68.58" transform="translate(-267.87 2663.29) rotate(-90)"/><rect class="cls-2" x="1163.42" y="1362.71" width="68.58" height="68.58" transform="translate(-199.29 2594.71) rotate(-90)"/><rect class="cls-1" x="1163.42" y="1295.12" width="68.58" height="68.58" transform="translate(-131.69 2527.12) rotate(-90)"/><rect class="cls-2" x="1163.42" y="1226.54" width="68.58" height="68.58" transform="translate(-63.12 2458.54) rotate(-90)"/><rect class="cls-1" x="1163.42" y="1158.94" width="68.58" height="68.58" transform="translate(4.48 2390.94) rotate(-90)"/><rect class="cls-2" x="1163.42" y="1090.37" width="68.58" height="68.58" transform="translate(73.06 2322.37) rotate(-90)"/><rect class="cls-1" x="1163.42" y="1022.77" width="68.58" height="68.58" transform="translate(140.65 2254.77) rotate(-90)"/><rect class="cls-2" x="1163.42" y="954.19" width="68.58" height="68.58" transform="translate(209.23 2186.19) rotate(-90)"/><rect class="cls-1" x="1163.42" y="886.6" width="68.58" height="68.58" transform="translate(276.83 2118.6) rotate(-90)"/><rect class="cls-2" x="1163.42" y="818.02" width="68.58" height="68.58" transform="translate(345.4 2050.02) rotate(-90)"/><rect class="cls-1" x="1094.85" y="818.02" width="68.58" height="68.58" transform="translate(1981.44 -276.83) rotate(90)"/><rect class="cls-2" x="1094.85" y="886.6" width="68.58" height="68.58" transform="translate(2050.02 -208.25) rotate(90)"/><rect class="cls-1" x="1094.85" y="954.19" width="68.58" height="68.58" transform="translate(2117.62 -140.65) rotate(90)"/><rect class="cls-2" x="1094.85" y="1022.77" width="68.58" height="68.58" transform="translate(2186.19 -72.08) rotate(90)"/><rect class="cls-1" x="1094.85" y="1090.37" width="68.58" height="68.58" transform="translate(2253.79 -4.48) rotate(90)"/><rect class="cls-2" x="1094.85" y="1158.94" width="68.58" height="68.58" transform="translate(2322.37 64.1) rotate(90)"/><rect class="cls-1" x="1094.85" y="1226.54" width="68.58" height="68.58" transform="translate(2389.96 131.69) rotate(90)"/><rect class="cls-2" x="1094.85" y="1295.12" width="68.58" height="68.58" transform="translate(2458.54 200.27) rotate(90)"/><rect class="cls-1" x="1094.85" y="1362.71" width="68.58" height="68.58" transform="translate(2526.14 267.87) rotate(90)"/><rect class="cls-2" x="1094.85" y="1431.29" width="68.58" height="68.58" transform="translate(2594.71 336.44) rotate(90)"/><rect class="cls-1" x="1094.85" y="1498.89" width="68.58" height="68.58" transform="translate(2662.31 404.04) rotate(90)"/><rect class="cls-2" x="1094.85" y="1567.46" width="68.58" height="68.58" transform="translate(2730.89 472.62) rotate(90)"/><rect class="cls-1" x="1026.57" y="1567.46" width="68.58" height="68.58" transform="translate(-540.9 2662.61) rotate(-90)"/><rect class="cls-2" x="1026.57" y="1498.89" width="68.58" height="68.58" transform="translate(-472.32 2594.03) rotate(-90)"/><rect class="cls-1" x="1026.57" y="1431.29" width="68.58" height="68.58" transform="translate(-404.72 2526.43) rotate(-90)"/><rect class="cls-2" x="1026.57" y="1362.71" width="68.58" height="68.58" transform="translate(-336.15 2457.86) rotate(-90)"/><rect class="cls-1" x="1026.57" y="1295.12" width="68.58" height="68.58" transform="translate(-268.55 2390.26) rotate(-90)"/><rect class="cls-2" x="1026.57" y="1226.54" width="68.58" height="68.58" transform="translate(-199.97 2321.68) rotate(-90)"/><rect class="cls-1" x="1026.57" y="1158.94" width="68.58" height="68.58" transform="translate(-132.38 2254.09) rotate(-90)"/><rect class="cls-2" x="1026.57" y="1090.37" width="68.58" height="68.58" transform="translate(-63.8 2185.51) rotate(-90)"/><rect class="cls-1" x="1026.57" y="1022.77" width="68.58" height="68.58" transform="translate(3.8 2117.91) rotate(-90)"/><rect class="cls-2" x="1026.57" y="954.19" width="68.58" height="68.58" transform="translate(72.37 2049.34) rotate(-90)"/><rect class="cls-1" x="1026.57" y="886.6" width="68.58" height="68.58" transform="translate(139.97 1981.74) rotate(-90)"/><rect class="cls-2" x="1026.57" y="818.02" width="68.58" height="68.58" transform="translate(208.55 1913.16) rotate(-90)"/><rect class="cls-1" x="957.99" y="818.02" width="68.58" height="68.58" transform="translate(1844.59 -139.97) rotate(90)"/><rect class="cls-2" x="957.99" y="886.6" width="68.58" height="68.58" transform="translate(1913.16 -71.39) rotate(90)"/><rect class="cls-1" x="957.99" y="954.19" width="68.58" height="68.58" transform="translate(1980.76 -3.8) rotate(90)"/><rect class="cls-2" x="957.99" y="1022.77" width="68.58" height="68.58" transform="translate(2049.34 64.78) rotate(90)"/><rect class="cls-1" x="957.99" y="1090.37" width="68.58" height="68.58" transform="translate(2116.93 132.38) rotate(90)"/><rect class="cls-2" x="957.99" y="1158.94" width="68.58" height="68.58" transform="translate(2185.51 200.95) rotate(90)"/><rect class="cls-1" x="957.99" y="1226.54" width="68.58" height="68.58" transform="translate(2253.11 268.55) rotate(90)"/><rect class="cls-2" x="957.99" y="1295.12" width="68.58" height="68.58" transform="translate(2321.68 337.13) rotate(90)"/><rect class="cls-1" x="957.99" y="1362.71" width="68.58" height="68.58" transform="translate(2389.28 404.72) rotate(90)"/><rect class="cls-2" x="957.99" y="1431.29" width="68.58" height="68.58" transform="translate(2457.86 473.3) rotate(90)"/><rect class="cls-1" x="957.99" y="1498.89" width="68.58" height="68.58" transform="translate(2525.45 540.9) rotate(90)"/><rect class="cls-2" x="957.99" y="1567.46" width="68.58" height="68.58" transform="translate(2594.03 609.47) rotate(90)"/><rect class="cls-1" x="889.71" y="1567.46" width="68.58" height="68.58" transform="translate(-677.75 2525.75) rotate(-90)"/><rect class="cls-2" x="889.71" y="1498.89" width="68.58" height="68.58" transform="translate(-609.17 2457.17) rotate(-90)"/><rect class="cls-1" x="889.71" y="1431.29" width="68.58" height="68.58" transform="translate(-541.58 2389.58) rotate(-90)"/><rect class="cls-2" x="889.71" y="1362.71" width="68.58" height="68.58" transform="translate(-473 2321) rotate(-90)"/><rect class="cls-1" x="889.71" y="1295.12" width="68.58" height="68.58" transform="translate(-405.4 2253.41) rotate(-90)"/><rect class="cls-2" x="889.71" y="1226.54" width="68.58" height="68.58" transform="translate(-336.83 2184.83) rotate(-90)"/><rect class="cls-1" x="889.71" y="1158.94" width="68.58" height="68.58" transform="translate(-269.23 2117.23) rotate(-90)"/><rect class="cls-2" x="889.71" y="1090.37" width="68.58" height="68.58" transform="translate(-200.65 2048.65) rotate(-90)"/><rect class="cls-1" x="889.71" y="1022.77" width="68.58" height="68.58" transform="translate(-133.06 1981.06) rotate(-90)"/><rect class="cls-2" x="889.71" y="954.19" width="68.58" height="68.58" transform="translate(-64.48 1912.48) rotate(-90)"/><rect class="cls-1" x="889.71" y="886.6" width="68.58" height="68.58" transform="translate(3.11 1844.89) rotate(-90)"/><rect class="cls-2" x="889.71" y="818.02" width="68.58" height="68.58" transform="translate(71.69 1776.31) rotate(-90)"/><rect class="cls-1" x="821.13" y="818.02" width="68.58" height="68.58" transform="translate(1707.73 -3.11) rotate(90)"/><rect class="cls-2" x="821.13" y="886.6" width="68.58" height="68.58" transform="translate(1776.31 65.46) rotate(90)"/><rect class="cls-1" x="821.13" y="954.19" width="68.58" height="68.58" transform="translate(1843.9 133.06) rotate(90)"/><rect class="cls-2" x="821.13" y="1022.77" width="68.58" height="68.58" transform="translate(1912.48 201.64) rotate(90)"/><rect class="cls-1" x="821.13" y="1090.37" width="68.58" height="68.58" transform="translate(1980.08 269.23) rotate(90)"/><rect class="cls-2" x="821.13" y="1158.94" width="68.58" height="68.58" transform="translate(2048.65 337.81) rotate(90)"/><rect class="cls-1" x="821.13" y="1226.54" width="68.58" height="68.58" transform="translate(2116.25 405.4) rotate(90)"/><rect class="cls-2" x="821.13" y="1295.12" width="68.58" height="68.58" transform="translate(2184.83 473.98) rotate(90)"/><rect class="cls-1" x="821.13" y="1362.71" width="68.58" height="68.58" transform="translate(2252.42 541.58) rotate(90)"/><rect class="cls-2" x="821.13" y="1431.29" width="68.58" height="68.58" transform="translate(2321 610.15) rotate(90)"/><rect class="cls-1" x="821.13" y="1498.89" width="68.58" height="68.58" transform="translate(2388.6 677.75) rotate(90)"/><rect class="cls-2" x="821.13" y="1567.46" width="68.58" height="68.58" transform="translate(2457.17 746.33) rotate(90)"/><rect class="cls-1" x="752.86" y="1567.46" width="68.58" height="68.58" transform="translate(-814.61 2388.9) rotate(-90)"/><rect class="cls-2" x="752.86" y="1498.89" width="68.58" height="68.58" transform="translate(-746.03 2320.32) rotate(-90)"/><rect class="cls-1" x="752.86" y="1431.29" width="68.58" height="68.58" transform="translate(-678.43 2252.72) rotate(-90)"/><rect class="cls-2" x="752.86" y="1362.71" width="68.58" height="68.58" transform="translate(-609.86 2184.15) rotate(-90)"/><rect class="cls-1" x="752.86" y="1295.12" width="68.58" height="68.58" transform="translate(-542.26 2116.55) rotate(-90)"/><rect class="cls-2" x="752.86" y="1226.54" width="68.58" height="68.58" transform="translate(-473.68 2047.97) rotate(-90)"/><rect class="cls-1" x="752.86" y="1158.94" width="68.58" height="68.58" transform="translate(-406.09 1980.38) rotate(-90)"/><rect class="cls-2" x="752.86" y="1090.37" width="68.58" height="68.58" transform="translate(-337.51 1911.8) rotate(-90)"/><rect class="cls-1" x="752.86" y="1022.77" width="68.58" height="68.58" transform="translate(-269.91 1844.2) rotate(-90)"/><rect class="cls-2" x="752.86" y="954.19" width="68.58" height="68.58" transform="translate(-201.34 1775.63) rotate(-90)"/><rect class="cls-1" x="752.86" y="886.6" width="68.58" height="68.58" transform="translate(-133.74 1708.03) rotate(-90)"/><rect class="cls-2" x="752.86" y="818.02" width="68.58" height="68.58" transform="translate(-65.16 1639.45) rotate(-90)"/><rect class="cls-1" x="684.28" y="818.02" width="68.58" height="68.58" transform="translate(1570.88 133.74) rotate(90)"/><rect class="cls-2" x="684.28" y="886.6" width="68.58" height="68.58" transform="translate(1639.45 202.32) rotate(90)"/><rect class="cls-1" x="684.28" y="954.19" width="68.58" height="68.58" transform="translate(1707.05 269.91) rotate(90)"/><rect class="cls-2" x="684.28" y="1022.77" width="68.58" height="68.58" transform="translate(1775.63 338.49) rotate(90)"/><rect class="cls-1" x="684.28" y="1090.37" width="68.58" height="68.58" transform="translate(1843.22 406.09) rotate(90)"/><rect class="cls-2" x="684.28" y="1158.94" width="68.58" height="68.58" transform="translate(1911.8 474.66) rotate(90)"/><rect class="cls-1" x="684.28" y="1226.54" width="68.58" height="68.58" transform="translate(1979.4 542.26) rotate(90)"/><rect class="cls-2" x="684.28" y="1295.12" width="68.58" height="68.58" transform="translate(2047.97 610.84) rotate(90)"/><rect class="cls-1" x="684.28" y="1362.71" width="68.58" height="68.58" transform="translate(2115.57 678.43) rotate(90)"/><rect class="cls-2" x="684.28" y="1431.29" width="68.58" height="68.58" transform="translate(2184.15 747.01) rotate(90)"/><rect class="cls-1" x="684.28" y="1498.89" width="68.58" height="68.58" transform="translate(2251.74 814.61) rotate(90)"/><rect class="cls-2" x="684.28" y="1567.46" width="68.58" height="68.58" transform="translate(2320.32 883.18) rotate(90)"/><rect class="cls-1" x="616" y="1567.46" width="68.58" height="68.58" transform="translate(-951.46 2252.04) rotate(-90)"/><rect class="cls-2" x="616" y="1498.89" width="68.58" height="68.58" transform="translate(-882.89 2183.46) rotate(-90)"/><rect class="cls-1" x="616" y="1431.29" width="68.58" height="68.58" transform="translate(-815.29 2115.87) rotate(-90)"/><rect class="cls-2" x="616" y="1362.71" width="68.58" height="68.58" transform="translate(-746.71 2047.29) rotate(-90)"/><rect class="cls-1" x="616" y="1295.12" width="68.58" height="68.58" transform="translate(-679.12 1979.69) rotate(-90)"/><rect class="cls-2" x="616" y="1226.54" width="68.58" height="68.58" transform="translate(-610.54 1911.12) rotate(-90)"/><rect class="cls-1" x="616" y="1158.94" width="68.58" height="68.58" transform="translate(-542.94 1843.52) rotate(-90)"/><rect class="cls-2" x="616" y="1090.37" width="68.58" height="68.58" transform="translate(-474.37 1774.94) rotate(-90)"/><rect class="cls-1" x="616" y="1022.77" width="68.58" height="68.58" transform="translate(-406.77 1707.35) rotate(-90)"/><rect class="cls-2" x="616" y="954.19" width="68.58" height="68.58" transform="translate(-338.19 1638.77) rotate(-90)"/><rect class="cls-1" x="616" y="886.6" width="68.58" height="68.58" transform="translate(-270.6 1571.17) rotate(-90)"/><rect class="cls-2" x="616" y="818.02" width="68.58" height="68.58" transform="translate(-202.02 1502.6) rotate(-90)"/><rect class="cls-1" x="547.42" y="818.02" width="68.58" height="68.58" transform="translate(1434.02 270.6) rotate(90)"/><rect class="cls-2" x="547.42" y="886.6" width="68.58" height="68.58" transform="translate(1502.6 339.17) rotate(90)"/><rect class="cls-1" x="547.42" y="954.19" width="68.58" height="68.58" transform="translate(1570.19 406.77) rotate(90)"/><rect class="cls-2" x="547.42" y="1022.77" width="68.58" height="68.58" transform="translate(1638.77 475.35) rotate(90)"/><rect class="cls-1" x="547.42" y="1090.37" width="68.58" height="68.58" transform="translate(1706.37 542.94) rotate(90)"/><rect class="cls-2" x="547.42" y="1158.94" width="68.58" height="68.58" transform="translate(1774.94 611.52) rotate(90)"/><rect class="cls-1" x="547.42" y="1226.54" width="68.58" height="68.58" transform="translate(1842.54 679.12) rotate(90)"/><rect class="cls-2" x="547.42" y="1295.12" width="68.58" height="68.58" transform="translate(1911.12 747.69) rotate(90)"/><rect class="cls-1" x="547.42" y="1362.71" width="68.58" height="68.58" transform="translate(1978.71 815.29) rotate(90)"/><rect class="cls-2" x="547.42" y="1431.29" width="68.58" height="68.58" transform="translate(2047.29 883.87) rotate(90)"/><rect class="cls-1" x="547.42" y="1498.89" width="68.58" height="68.58" transform="translate(2114.89 951.46) rotate(90)"/><rect class="cls-2" x="547.42" y="1567.46" width="68.58" height="68.58" transform="translate(2183.46 1020.04) rotate(90)"/><rect class="cls-1" x="479.14" y="1567.46" width="68.58" height="68.58" transform="translate(-1088.32 2115.18) rotate(-90)"/><rect class="cls-2" x="479.14" y="1498.89" width="68.58" height="68.58" transform="translate(-1019.74 2046.61) rotate(-90)"/><rect class="cls-1" x="479.14" y="1431.29" width="68.58" height="68.58" transform="translate(-952.15 1979.01) rotate(-90)"/><rect class="cls-2" x="479.14" y="1362.71" width="68.58" height="68.58" transform="translate(-883.57 1910.43) rotate(-90)"/><rect class="cls-1" x="479.14" y="1295.12" width="68.58" height="68.58" transform="translate(-815.97 1842.84) rotate(-90)"/><rect class="cls-2" x="479.14" y="1226.54" width="68.58" height="68.58" transform="translate(-747.4 1774.26) rotate(-90)"/><rect class="cls-1" x="479.14" y="1158.94" width="68.58" height="68.58" transform="translate(-679.8 1706.66) rotate(-90)"/><rect class="cls-2" x="479.14" y="1090.37" width="68.58" height="68.58" transform="translate(-611.22 1638.09) rotate(-90)"/><rect class="cls-1" x="479.14" y="1022.77" width="68.58" height="68.58" transform="translate(-543.63 1570.49) rotate(-90)"/><rect class="cls-2" x="479.14" y="954.19" width="68.58" height="68.58" transform="translate(-475.05 1501.91) rotate(-90)"/><rect class="cls-1" x="479.14" y="886.6" width="68.58" height="68.58" transform="translate(-407.45 1434.32) rotate(-90)"/><rect class="cls-2" x="479.14" y="818.02" width="68.58" height="68.58" transform="translate(-338.88 1365.74) rotate(-90)"/><rect class="cls-1" x="410.57" y="818.02" width="68.58" height="68.58" transform="translate(1297.16 407.45) rotate(90)"/><rect class="cls-2" x="410.57" y="886.6" width="68.58" height="68.58" transform="translate(1365.74 476.03) rotate(90)"/><rect class="cls-1" x="410.57" y="954.19" width="68.58" height="68.58" transform="translate(1433.34 543.63) rotate(90)"/><rect class="cls-2" x="410.57" y="1022.77" width="68.58" height="68.58" transform="translate(1501.91 612.2) rotate(90)"/><rect class="cls-1" x="410.57" y="1090.37" width="68.58" height="68.58" transform="translate(1569.51 679.8) rotate(90)"/><rect class="cls-2" x="410.57" y="1158.94" width="68.58" height="68.58" transform="translate(1638.09 748.38) rotate(90)"/><rect class="cls-1" x="410.57" y="1226.54" width="68.58" height="68.58" transform="translate(1705.68 815.97) rotate(90)"/><rect class="cls-2" x="410.57" y="1295.12" width="68.58" height="68.58" transform="translate(1774.26 884.55) rotate(90)"/><rect class="cls-1" x="410.57" y="1362.71" width="68.58" height="68.58" transform="translate(1841.86 952.15) rotate(90)"/><rect class="cls-2" x="410.57" y="1431.29" width="68.58" height="68.58" transform="translate(1910.43 1020.72) rotate(90)"/><rect class="cls-1" x="410.57" y="1498.89" width="68.58" height="68.58" transform="translate(1978.03 1088.32) rotate(90)"/><rect class="cls-2" x="410.57" y="1567.46" width="68.58" height="68.58" transform="translate(2046.61 1156.9) rotate(90)"/><rect class="cls-1" x="342.29" y="1567.46" width="68.58" height="68.58" transform="translate(-1225.17 1978.33) rotate(-90)"/><rect class="cls-2" x="342.29" y="1498.89" width="68.58" height="68.58" transform="translate(-1156.6 1909.75) rotate(-90)"/><rect class="cls-1" x="342.29" y="1431.29" width="68.58" height="68.58" transform="translate(-1089 1842.16) rotate(-90)"/><rect class="cls-2" x="342.29" y="1362.71" width="68.58" height="68.58" transform="translate(-1020.42 1773.58) rotate(-90)"/><rect class="cls-1" x="342.29" y="1295.12" width="68.58" height="68.58" transform="translate(-952.83 1705.98) rotate(-90)"/><rect class="cls-2" x="342.29" y="1226.54" width="68.58" height="68.58" transform="translate(-884.25 1637.4) rotate(-90)"/><rect class="cls-1" x="342.29" y="1158.94" width="68.58" height="68.58" transform="translate(-816.65 1569.81) rotate(-90)"/><rect class="cls-2" x="342.29" y="1090.37" width="68.58" height="68.58" transform="translate(-748.08 1501.23) rotate(-90)"/><rect class="cls-1" x="342.29" y="1022.77" width="68.58" height="68.58" transform="translate(-680.48 1433.64) rotate(-90)"/><rect class="cls-2" x="342.29" y="954.19" width="68.58" height="68.58" transform="translate(-611.9 1365.06) rotate(-90)"/><rect class="cls-1" x="342.29" y="886.6" width="68.58" height="68.58" transform="translate(-544.31 1297.46) rotate(-90)"/><rect class="cls-2" x="342.29" y="818.02" width="68.58" height="68.58" transform="translate(-475.73 1228.89) rotate(-90)"/><rect class="cls-1" x="273.71" y="818.02" width="68.58" height="68.58" transform="translate(1160.31 544.31) rotate(90)"/><rect class="cls-2" x="273.71" y="886.6" width="68.58" height="68.58" transform="translate(1228.89 612.89) rotate(90)"/><rect class="cls-1" x="273.71" y="954.19" width="68.58" height="68.58" transform="translate(1296.48 680.48) rotate(90)"/><rect class="cls-2" x="273.71" y="1022.77" width="68.58" height="68.58" transform="translate(1365.06 749.06) rotate(90)"/><rect class="cls-1" x="273.71" y="1090.37" width="68.58" height="68.58" transform="translate(1432.65 816.65) rotate(90)"/><rect class="cls-2" x="273.71" y="1158.94" width="68.58" height="68.58" transform="translate(1501.23 885.23) rotate(90)"/><rect class="cls-1" x="273.71" y="1226.54" width="68.58" height="68.58" transform="translate(1568.83 952.83) rotate(90)"/><rect class="cls-2" x="273.71" y="1295.12" width="68.58" height="68.58" transform="translate(1637.4 1021.4) rotate(90)"/><rect class="cls-1" x="273.71" y="1362.71" width="68.58" height="68.58" transform="translate(1705 1089) rotate(90)"/><rect class="cls-2" x="273.71" y="1431.29" width="68.58" height="68.58" transform="translate(1773.58 1157.58) rotate(90)"/><rect class="cls-1" x="273.71" y="1498.89" width="68.58" height="68.58" transform="translate(1841.17 1225.17) rotate(90)"/><rect class="cls-2" x="273.71" y="1567.46" width="68.58" height="68.58" transform="translate(1909.75 1293.75) rotate(90)"/><rect class="cls-1" x="205.43" y="1567.46" width="68.58" height="68.58" transform="translate(-1362.03 1841.47) rotate(-90)"/><rect class="cls-2" x="205.43" y="1498.89" width="68.58" height="68.58" transform="translate(-1293.45 1772.9) rotate(-90)"/><rect class="cls-1" x="205.43" y="1431.29" width="68.58" height="68.58" transform="translate(-1225.86 1705.3) rotate(-90)"/><rect class="cls-2" x="205.43" y="1362.71" width="68.58" height="68.58" transform="translate(-1157.28 1636.72) rotate(-90)"/><rect class="cls-1" x="205.43" y="1295.12" width="68.58" height="68.58" transform="translate(-1089.68 1569.13) rotate(-90)"/><rect class="cls-2" x="205.43" y="1226.54" width="68.58" height="68.58" transform="translate(-1021.11 1500.55) rotate(-90)"/><rect class="cls-1" x="205.43" y="1158.94" width="68.58" height="68.58" transform="translate(-953.51 1432.95) rotate(-90)"/><rect class="cls-2" x="205.43" y="1090.37" width="68.58" height="68.58" transform="translate(-884.93 1364.38) rotate(-90)"/><rect class="cls-1" x="205.43" y="1022.77" width="68.58" height="68.58" transform="translate(-817.34 1296.78) rotate(-90)"/><rect class="cls-2" x="205.43" y="954.19" width="68.58" height="68.58" transform="translate(-748.76 1228.2) rotate(-90)"/><rect class="cls-1" x="205.43" y="886.6" width="68.58" height="68.58" transform="translate(-681.16 1160.61) rotate(-90)"/><rect class="cls-2" x="205.43" y="818.02" width="68.58" height="68.58" transform="translate(-612.59 1092.03) rotate(-90)"/><rect class="cls-1" x="136.86" y="818.02" width="68.58" height="68.58" transform="translate(1023.45 681.16) rotate(90)"/><rect class="cls-2" x="136.86" y="886.6" width="68.58" height="68.58" transform="translate(1092.03 749.74) rotate(90)"/><rect class="cls-1" x="136.86" y="954.19" width="68.58" height="68.58" transform="translate(1159.63 817.34) rotate(90)"/><rect class="cls-2" x="136.86" y="1022.77" width="68.58" height="68.58" transform="translate(1228.2 885.91) rotate(90)"/><rect class="cls-1" x="136.86" y="1090.37" width="68.58" height="68.58" transform="translate(1295.8 953.51) rotate(90)"/><rect class="cls-2" x="136.86" y="1158.94" width="68.58" height="68.58" transform="translate(1364.38 1022.09) rotate(90)"/><rect class="cls-1" x="136.86" y="1226.54" width="68.58" height="68.58" transform="translate(1431.97 1089.68) rotate(90)"/><rect class="cls-2" x="136.86" y="1295.12" width="68.58" height="68.58" transform="translate(1500.55 1158.26) rotate(90)"/><rect class="cls-1" x="136.86" y="1362.71" width="68.58" height="68.58" transform="translate(1568.15 1225.86) rotate(90)"/><rect class="cls-2" x="136.86" y="1431.29" width="68.58" height="68.58" transform="translate(1636.72 1294.43) rotate(90)"/><rect class="cls-1" x="136.86" y="1498.89" width="68.58" height="68.58" transform="translate(1704.32 1362.03) rotate(90)"/><rect class="cls-2" x="136.86" y="1567.46" width="68.58" height="68.58" transform="translate(1772.9 1430.61) rotate(90)"/><rect class="cls-1" x="68.58" y="1567.46" width="68.58" height="68.58" transform="translate(-1498.89 1704.62) rotate(-90)"/><rect class="cls-2" x="68.58" y="1498.89" width="68.58" height="68.58" transform="translate(-1430.31 1636.04) rotate(-90)"/><rect class="cls-1" x="68.58" y="1431.29" width="68.58" height="68.58" transform="translate(-1362.71 1568.44) rotate(-90)"/><rect class="cls-2" x="68.58" y="1362.71" width="68.58" height="68.58" transform="translate(-1294.14 1499.87) rotate(-90)"/><rect class="cls-1" x="68.58" y="1295.12" width="68.58" height="68.58" transform="translate(-1226.54 1432.27) rotate(-90)"/><rect class="cls-2" x="68.58" y="1226.54" width="68.58" height="68.58" transform="translate(-1157.96 1363.69) rotate(-90)"/><rect class="cls-1" x="68.58" y="1158.94" width="68.58" height="68.58" transform="translate(-1090.37 1296.1) rotate(-90)"/><rect class="cls-2" x="68.58" y="1090.37" width="68.58" height="68.58" transform="translate(-1021.79 1227.52) rotate(-90)"/><rect class="cls-1" x="68.58" y="1022.77" width="68.58" height="68.58" transform="translate(-954.19 1159.92) rotate(-90)"/><rect class="cls-2" x="68.58" y="954.19" width="68.58" height="68.58" transform="translate(-885.62 1091.35) rotate(-90)"/><rect class="cls-1" x="68.58" y="886.6" width="68.58" height="68.58" transform="translate(-818.02 1023.75) rotate(-90)"/><rect class="cls-2" x="68.58" y="818.02" width="68.58" height="68.58" transform="translate(-749.44 955.17) rotate(-90)"/><rect class="cls-1" y="818.02" width="68.58" height="68.58" transform="translate(886.6 818.02) rotate(90)"/><rect class="cls-2" y="886.6" width="68.58" height="68.58" transform="translate(955.17 886.6) rotate(90)"/><rect class="cls-1" y="954.19" width="68.58" height="68.58" transform="translate(1022.77 954.19) rotate(90)"/><rect class="cls-2" y="1022.77" width="68.58" height="68.58" transform="translate(1091.35 1022.77) rotate(90)"/><rect class="cls-1" y="1090.37" width="68.58" height="68.58" transform="translate(1158.94 1090.37) rotate(90)"/><rect class="cls-2" y="1158.94" width="68.58" height="68.58" transform="translate(1227.52 1158.94) rotate(90)"/><rect class="cls-1" y="1226.54" width="68.58" height="68.58" transform="translate(1295.12 1226.54) rotate(90)"/><rect class="cls-2" y="1295.12" width="68.58" height="68.58" transform="translate(1363.69 1295.12) rotate(90)"/><rect class="cls-1" y="1362.71" width="68.58" height="68.58" transform="translate(1431.29 1362.71) rotate(90)"/><rect class="cls-2" y="1431.29" width="68.58" height="68.58" transform="translate(1499.87 1431.29) rotate(90)"/><rect class="cls-1" y="1498.89" width="68.58" height="68.58" transform="translate(1567.46 1498.89) rotate(90)"/><rect class="cls-2" y="1567.46" width="68.58" height="68.58" transform="translate(1636.04 1567.46) rotate(90)"/></g></g></svg>