<svg xmlns="http://www.w3.org/2000/svg" viewBox="0 0 97.51 97.52"><defs><style>.cls-1{fill:#fff;}</style></defs><g id="Layer_2" data-name="Layer 2"><g id="Layer_1-2" data-name="Layer 1"><path d="M48.79,97.52A48.76,48.76,0,1,1,97.51,48.71,48.78,48.78,0,0,1,48.79,97.52ZM14,18.72l-.45-3a2.77,2.77,0,0,0,.48,3,9.24,9.24,0,0,1-.65,1,45,45,0,0,0-9,18.67c-.48,2.11-.72,4.28-1.07,6.42l.25,0A45.28,45.28,0,0,1,46.67,3.41,44,44,0,0,1,77.82,13.9c9,7.53,14.09,17.28,15.92,28.82a3.4,3.4,0,0,0,0-.9A45.32,45.32,0,0,0,80.93,16.16c-.71-.73-1.43-1.44-2.15-2.16l2.92-.4a2.54,2.54,0,0,0-2.9.43,6.07,6.07,0,0,1-.64-.45A46.39,46.39,0,0,0,69.4,7.71a2.92,2.92,0,0,1-.5-.44l2.46-.92L71.19,6a3.54,3.54,0,0,0-2.27,1.32c-.34-.1-.69-.19-1-.3L58.57,3.84c-.29-.1-.59-.17-1-.28l2.17-1.84c-1.18-.05-1.51.74-2,1.25a1.35,1.35,0,0,1-1.37.47c-1.66-.24-3.32-.47-5-.55-1.91-.1-3.83,0-5.86,0L47.14.62c-.79.08-.82.06-1.49,1.51A1.43,1.43,0,0,1,44.41,3c-3.32.65-6.62,1.38-9.93,2.07-.21,0-.41.08-.69.13l.93-2.44-.36-.16A4.65,4.65,0,0,0,33.82,4c-.08,1.16-.74,1.57-1.73,2-2.8,1.29-5.5,2.79-8.24,4.2l-.81.46L23.29,8,23,7.89a2.69,2.69,0,0,0-.32.75,4.9,4.9,0,0,0,0,1.38,1.38,1.38,0,0,1-.63,1.39c-2.54,2.24-5,4.55-7.51,6.83C14.42,18.41,14.21,18.56,14,18.72Zm3.54,52.56c.56.67,1.13,1.33,1.68,2C20.74,75.14,22,75,23,72.76c-1.15.12-1.73-.64-2.31-1.41a37.59,37.59,0,0,1-7.36-17.74c-.18-1.25-.52-2.51.58-3.64-.46-.09-.78-.18-1.1-.23-1.5-.23-2.22.4-2.19,1.93a11.69,11.69,0,0,0,.08,1.18,37,37,0,0,0,4.12,13.69c.85,1.62,1.81,3.18,2.73,4.77a3.29,3.29,0,0,1-.54-.51,36.48,36.48,0,0,1-6-14.14c-.32-2-1.14-4-.6-6.13,0-.11-.31-.31-.65-.62a8.8,8.8,0,0,0,0,1.05c.48,3,.74,6,1.49,8.93A36.47,36.47,0,0,0,19.54,75a2.86,2.86,0,0,0,.69.46l.39-.61A8.73,8.73,0,0,1,17.56,71.28ZM29.37,74a3.73,3.73,0,0,1,.6.3,33.58,33.58,0,0,0,16.35,6.33c1.22.15,1.28.13,1.24-1.06-.14-4-.23-8.08-.45-12.12a23.82,23.82,0,0,0-.73-4.76,3,3,0,0,0-4.06-2.21,7.72,7.72,0,0,0-2.33,1c-2.25,1.59-4.5,3.2-6.63,4.94-1.74,1.44-3.34,3.07-4.95,4.66-.92.91-.85,1.25.1,2.06.32.26.6.58.9.87L28,73.26c-.72,1.08-.67,1.94.3,2.67a34.49,34.49,0,0,0,16.13,6.9A1.82,1.82,0,0,0,46.57,81a2.3,2.3,0,0,0-.28-.06A34.11,34.11,0,0,1,30,74.68,8.25,8.25,0,0,1,29.37,74ZM22.3,66.74c.8,1,1.6,2.06,2.38,3.1.41.55.75.61,1.24.07,3.16-3.45,6.37-6.83,9.48-10.31a12.76,12.76,0,0,0,2.05-3.22,2.73,2.73,0,0,0-1.23-3.66,14.65,14.65,0,0,0-3.56-1.37c-4.67-1.13-9.45-1.17-14.22-1.18-1.18,0-1.4.35-1.26,1.64a33.17,33.17,0,0,0,4.09,13c.37.66.71,1.32,1.06,2a3.18,3.18,0,0,1-.51-.53,32.34,32.34,0,0,1-4.26-10.43c-.31-1.46-.52-2.94-.77-4.42-1.34.35-1.86.93-1.7,2a34.49,34.49,0,0,0,6.49,16.3c.74,1,1.69,1.07,2.88.31-.23-.31-.48-.61-.68-.94C23.28,68.33,22.79,67.53,22.3,66.74ZM67.94,74.4a2.43,2.43,0,0,1-.43.47A32.5,32.5,0,0,1,55.85,80c-1.47.32-3,.52-4.43.77.25,1.31.88,1.85,2.07,1.7A27.19,27.19,0,0,0,56.31,82,34.57,34.57,0,0,0,69.62,76a1.87,1.87,0,0,0,.44-2.9l-2.15,1.29c.67-.56,1.33-1.13,2-1.67.48-.38.49-.7,0-1.12C66.47,68.44,63,65.19,59.5,62a12.24,12.24,0,0,0-3.06-2,2.82,2.82,0,0,0-3.75,1.24,11.86,11.86,0,0,0-1.17,2.8c-1.31,4.92-1.33,10-1.35,15,0,1.11.34,1.35,1.48,1.24A32.23,32.23,0,0,0,63.41,77C65,76.17,66.43,75.26,67.94,74.4Zm-44.46-45L24.26,28c-1.14-.74-2-.67-2.74.38a34.58,34.58,0,0,0-6.8,15.86c-.19,1.34.33,2,1.73,2.38,0-.06.09-.1.1-.16.06-.36.12-.71.17-1.07a33.35,33.35,0,0,1,6-15.15,8.73,8.73,0,0,1,.84-.88,2.08,2.08,0,0,1-.19.43,34,34,0,0,0-6.47,16.61c-.09.77,0,1.19.9,1.16,4.24-.18,8.48-.26,12.71-.49A20,20,0,0,0,35,46.31a2.88,2.88,0,0,0,2.07-3.71A11.27,11.27,0,0,0,36,39.89c-2.28-4.06-5.54-7.33-8.71-10.67A10.19,10.19,0,0,0,26,28.07c-.53-.4-1-.47-1.49.21A8.58,8.58,0,0,1,23.48,29.41Zm50.94.19c-.47-.57-1-1.11-1.42-1.72s-.93-.9-1.57-.11-1.37,1.42-2,2.16c-2.73,3-5.59,6-8.14,9.12s-1.77,5.55,2.2,6.75c5.14,1.55,10.45,1.52,15.74,1.54.86,0,1.26-.41,1.16-1.38a33.29,33.29,0,0,0-3.72-12.48c-.72-1.32-1.5-2.61-2.25-3.91a3.74,3.74,0,0,1,.54.51A32.59,32.59,0,0,1,79.74,40.8c.41,1.74.67,3.52,1,5.29,1.27-.23,1.84-.88,1.67-2.06a34.49,34.49,0,0,0-.63-3.49A33.68,33.68,0,0,0,76,27.9a1.85,1.85,0,0,0-2.9-.44ZM74,68.29a3.25,3.25,0,0,1,.31-.71,33.63,33.63,0,0,0,6.36-16.44c.14-1.15.12-1.22-1-1.18-4.11.13-8.22.24-12.32.45a22.46,22.46,0,0,0-4.47.68,3,3,0,0,0-2.26,4.34,16.16,16.16,0,0,0,1.62,3.25,63.55,63.55,0,0,0,8.67,10.21C72,70,72.2,70,73.31,69c-.14.56.1.84.65,1A1.94,1.94,0,0,0,76.08,69,35,35,0,0,0,82.8,53.21,1.78,1.78,0,0,0,81.29,51c-.91,3.21-1.68,6.44-2.77,9.55A23.06,23.06,0,0,1,74,68.29ZM69,24.22c.55.14.79-.14.9-.62a1.84,1.84,0,0,0-.74-2.08,35.05,35.05,0,0,0-16-6.81A1.76,1.76,0,0,0,51,16.26c3,.83,6.07,1.52,9,2.51A22.8,22.8,0,0,1,67.5,23a5.58,5.58,0,0,1-.79-.35A34.26,34.26,0,0,0,51,16.83c-.81-.1-1.05.15-1,.94.17,4.24.26,8.48.49,12.72a20.39,20.39,0,0,0,.74,4.45A3,3,0,0,0,55.12,37,12.36,12.36,0,0,0,57.9,35.8c4.15-2.44,7.54-5.8,10.95-9.13C70,25.54,70,25.37,69,24.22ZM47.6,22.38l-.25-.05c0-1.31,0-2.63,0-3.94,0-1.07-.35-1.33-1.4-1.23A34,34,0,0,0,27.7,24.65c-.58.47-.62.8-.05,1.32,3.24,3,6.43,6,9.71,9a16.41,16.41,0,0,0,3.56,2.44,2.87,2.87,0,0,0,4-1.27A8.08,8.08,0,0,0,46,33.47C46.56,29.78,47.06,26.07,47.6,22.38ZM88,49.35c.28-.92.09-1.22-.61-1.16-.32,0-.65,0-1,0C80,48.05,73.55,48,67.14,47.73A37.57,37.57,0,0,1,60,46.51a3.48,3.48,0,0,1-3-3.08,2.58,2.58,0,0,0,.08,1.39,9,9,0,0,1,.17,7.38,2.71,2.71,0,0,0,0,2.45,1.48,1.48,0,0,1-.41,2,15.49,15.49,0,0,1-1.42,1C63,63.21,69.29,70.4,76.35,76.88l.6-.67c-3.79-3.89-7.63-7.64-11.25-11.59-2.45-2.66-4.65-5.54-6.83-8.42a7.49,7.49,0,0,1-1.15-3.1,2,2,0,0,1,1.55-2.51A10.67,10.67,0,0,1,62.05,50c4.33-.25,8.67-.49,13-.59S83.68,49.35,88,49.35ZM21.45,77.1c.53-.61,1-1.2,1.5-1.72,2.5-2.48,4.94-5,7.54-7.4q4.77-4.35,9.79-8.43a10.26,10.26,0,0,1,3.79-1.78c1.55-.43,2.56.25,3,1.82a21.56,21.56,0,0,1,.73,4.27c.21,4.8.34,9.61.43,14.41.06,3.25,0,6.51,0,9.81h1.12V87c.14-6.65.18-13.3.48-19.94a38,38,0,0,1,1.33-7.44,3.27,3.27,0,0,1,3-2.65,2.88,2.88,0,0,0-1.5.12,9,9,0,0,1-7.38.1,2.48,2.48,0,0,0-2.25,0,1.7,1.7,0,0,1-2.32-.65A8.82,8.82,0,0,1,40,55.42c-5.72,7.58-12.86,13.91-19.37,21ZM76,20.13c-2.75,2.89-5.27,5.66-7.91,8.32A72.65,72.65,0,0,1,57,38.17a12,12,0,0,1-3.56,1.59A2.15,2.15,0,0,1,50.51,38a19,19,0,0,1-.74-4.16c-.22-5.46-.36-10.92-.48-16.38-.06-2.66,0-5.32,0-7.91-1.07-.39-1.09.14-1.1.77-.06,5.76-.09,11.52-.25,17.28a34.54,34.54,0,0,1-1.32,9.75c-.51,1.56-1.28,2.92-3.18,3.18a2.5,2.5,0,0,0,1.37-.09,9,9,0,0,1,7.47-.15,2.45,2.45,0,0,0,2.25,0,1.71,1.71,0,0,1,2.33.64,8.84,8.84,0,0,1,.68,1.19c5.7-7.61,12.86-13.92,19.29-20.89ZM9.42,49.34c.94,0,1.76,0,2.58,0,6.08.13,12.17.17,18.25.44A40.13,40.13,0,0,1,37.43,51a3.63,3.63,0,0,1,3.09,3.14,2.83,2.83,0,0,0-.11-1.43,9,9,0,0,1-.14-7.38,2.63,2.63,0,0,0,0-2.35,1.6,1.6,0,0,1,.54-2.17,8.87,8.87,0,0,1,1.3-.79C34.53,34.3,28.21,27.11,21.17,20.64l-.87,1c2.86,2.73,5.81,5.32,8.51,8.15,3.14,3.32,6.1,6.8,9,10.3a10.17,10.17,0,0,1,1.8,3.47c.64,2,0,3.21-2.14,3.62a40,40,0,0,1-6.35.75c-7,.21-14,.29-21,.43-.23,0-.45,0-.71.06ZM24.76,74.4c-.15.09-.49.29-.8.52a1.59,1.59,0,0,0-.21,2.71,5.78,5.78,0,0,0,.58.53A38.42,38.42,0,0,0,45.27,87c2.31.26,3.15-.82,2.4-2.71a11.13,11.13,0,0,1-2.48.29,36.61,36.61,0,0,1-19.11-8.22A8.17,8.17,0,0,1,24.76,74.4ZM49.82,13.56A3.06,3.06,0,0,1,52.68,13,37.77,37.77,0,0,1,70.89,20.7a3.05,3.05,0,0,1,1.59,2.52c2.54-1.12,2.45-2.54.59-4a57.41,57.41,0,0,0-5-3.51,38.62,38.62,0,0,0-16.27-5.26c-1.54-.15-2.31.68-2.1,2.2C49.74,13,49.77,13.21,49.82,13.56ZM24.67,23c.35-1.44.34-1.45,2-2.7A37.69,37.69,0,0,1,45,13.24a11.38,11.38,0,0,1,2.61.35,5.5,5.5,0,0,0,.15-.58c.3-1.69-.31-2.4-2-2.36l-.69,0a38.66,38.66,0,0,0-20.85,8.6C22.36,20.75,22.54,22,24.67,23ZM83.55,47.5c.35.1.6.18.85.23,1.8.35,2.51-.27,2.45-2.11,0-.27,0-.53,0-.79a38.87,38.87,0,0,0-8.58-20.66c-1.46-1.82-2.69-1.65-3.74.58,1.42-.1,2,1,2.67,1.89a37.91,37.91,0,0,1,7.07,17.78C84.37,45.52,84.53,46.59,83.55,47.5Zm-70.3.21A11.53,11.53,0,0,1,13,45.12a37,37,0,0,1,7.56-18.27c.68-.9,1.3-1.91,2.76-1.78-.26-.42-.4-.68-.56-.92-.94-1.36-1.88-1.43-3-.22-.18.19-.36.38-.53.59a38.65,38.65,0,0,0-8.68,21.3,2.74,2.74,0,0,0,.37,1.37C11.51,48.45,12.57,47.7,13.25,47.71ZM50,83.51c-.11.51-.2.82-.25,1.14-.24,1.53.37,2.23,1.91,2.21a8.83,8.83,0,0,0,.89,0,39.07,39.07,0,0,0,21-8.73,2,2,0,0,0,.89-2.23c-.21-.59-1-1-1.59-1.57-.3,1.6-.37,1.69-2,2.9a38.22,38.22,0,0,1-18.19,7.1A2.71,2.71,0,0,1,50,83.51ZM74.53,72.77l-.25-.19c.23.36.44.72.69,1.06a1.55,1.55,0,0,0,2.58.19,15.17,15.17,0,0,0,1.3-1.47A39.14,39.14,0,0,0,87,52.16c.11-1,0-1.91-.85-2.33a4.25,4.25,0,0,0-1.9-.06,12.11,12.11,0,0,1,.3,2.58,36.68,36.68,0,0,1-7.93,18.72A12,12,0,0,1,74.53,72.77ZM90,51a41.22,41.22,0,0,1-38,38.63,40.07,40.07,0,0,1-29.38-9.26C14,73.35,9.29,64.16,7.74,53.28c1.08,17.07,16.55,37.18,41.13,37C74.25,90.16,89.65,69.31,90,51ZM46.15,16.87c-.39-1.44-.94-1.93-2.09-1.77a34.44,34.44,0,0,0-16.23,6.43c-1,.79-1.15,1.75-.34,2.95A34,34,0,0,1,46.15,16.87Zm2.62,40.69A8.81,8.81,0,1,0,40,48.7,8.82,8.82,0,0,0,48.77,57.56ZM74.83,76.2a2.45,2.45,0,0,1-1.22,2.2,38.91,38.91,0,0,1-18.94,8.47c-1.34.18-2.72.13-4.08.23-.18,0-.35.27-.65.52,3.93.38,12-1.18,18.28-4.8a39,39,0,0,0,7.34-5.36L75,76.75l.79.45L76,77ZM47.45,10l-.21-.48c-2.72.43-5.46.71-8.14,1.32a37.51,37.51,0,0,0-16.52,8.62c-.31.27-.91.52-.25,1,0,0,0,.09-.06.13l-.6-.33-.22.26,1,1.06a3.12,3.12,0,0,1,1.41-2.45,38.72,38.72,0,0,1,19.1-8.55c1.31-.18,2.66-.13,4-.22C47.1,10.4,47.27,10.16,47.45,10Zm2.52.24a19.43,19.43,0,0,1,2.54,0c8.41,1.18,16.12,3.9,22.16,10.23.09.11.33.07.5.1,0-.17.12-.38,0-.5a2,2,0,0,0-.47-.5,38.86,38.86,0,0,0-13.29-7.94A38.37,38.37,0,0,0,50.12,9.5ZM10.37,47.34a7,7,0,0,1-.17-1.42A39.66,39.66,0,0,1,19,24.13,14.6,14.6,0,0,1,20.22,23a3.81,3.81,0,0,0,.45-.7C16,24,8.64,41,9.62,47.49Zm37,40c-1.32-.1-2.45-.12-3.57-.27A39.44,39.44,0,0,1,24,78.44c-.4-.33-.65-.82-1-1.18-.16-.15-.48-.14-.72-.2l-.09.33A39,39,0,0,0,47.43,88c0-.26,0-.39,0-.51A.58.58,0,0,0,47.4,87.36ZM77,75.2l.3.1a1,1,0,0,0,.24-.17A38.78,38.78,0,0,0,88,50.69c.06-.95-.43-.61-.83-.53a10.45,10.45,0,0,1,.14,1.56,39.59,39.59,0,0,1-8.94,21.84,14.65,14.65,0,0,1-1.1,1A2.13,2.13,0,0,0,77,75.2ZM87.42,47.45c1.08-6.92-4-19.57-9.82-25.34-.06-.06-.17-.07-.35-.13l-.26.56A18.71,18.71,0,0,1,78.47,24a39.3,39.3,0,0,1,8.61,20.12c.11.89,0,1.81,0,2.72C87.12,47.06,87.31,47.26,87.42,47.45ZM59.12,35.93,59,35.76l-.81.45c-1,.55-1.93,1.14-2.94,1.61A2.82,2.82,0,0,1,51,36c-.22-.66-.37-1.34-.55-2a12.75,12.75,0,0,0,.35,2.83C51.3,39,53,39.8,55,38.69,56.4,37.88,57.73,36.86,59.12,35.93ZM33.93,47.09l0,.16c1.06-.21,2.13-.36,3.17-.64,1.68-.44,2.51-1.83,1.78-3.4A50.21,50.21,0,0,0,36,38.38c.53,1.46,1.31,2.75,1.91,4.12a2.71,2.71,0,0,1-1.72,3.94C35.45,46.71,34.68,46.88,33.93,47.09Zm29.54,3.35,0-.14c-1,.17-1.93.3-2.86.54-2.05.51-2.83,2.13-1.83,4,.76,1.4,1.74,2.68,2.61,4l.2-.11-.35-.65c-.54-1-1.16-2-1.61-3a2.71,2.71,0,0,1,1.71-3.95C62,50.82,62.75,50.66,63.47,50.44ZM47.06,63.51l.17,0c-.2-1-.34-2.06-.61-3.06-.48-1.78-1.86-2.56-3.55-1.78a45.78,45.78,0,0,0-4.41,2.71l.14.21c1.11-.6,2.2-1.26,3.35-1.8,2.13-1,3.71-.28,4.43,2C46.76,62.31,46.9,62.91,47.06,63.51Zm0-31.34-.23,0c-.19.73-.35,1.46-.56,2.19s-.43,1.52-.72,2.25a2.8,2.8,0,0,1-4.15,1.62c-.36-.17-.7-.36-1-.53A5.28,5.28,0,0,0,41.89,39c1.73,1,3.43.49,4-1.41C46.45,35.8,46.69,34,47.07,32.17ZM59.84,40.4l-.18-.16c-.37.56-.79,1.11-1.13,1.7-1,1.67-.51,3.29,1.31,3.91a53,53,0,0,0,5.48,1.23c-1.34-.6-2.75-.94-4.1-1.41-2.24-.79-2.84-2.39-1.78-4.51C59.57,40.9,59.71,40.65,59.84,40.4ZM37.67,57.15l.2.1c.36-.54.75-1.06,1.08-1.63,1-1.73.49-3.42-1.41-4-1.7-.53-3.5-.77-5.26-1.14a1.83,1.83,0,0,0,.94.49c1.1.32,2.23.58,3.3,1a2.8,2.8,0,0,1,1.66,4.19C38,56.48,37.84,56.81,37.67,57.15Zm19.45,2.69.14-.19c-.6-.39-1.17-.82-1.8-1.16-1.57-.87-3.12-.48-3.71,1.21a50.5,50.5,0,0,0-1.34,5.62c.65-1.43,1-2.93,1.55-4.37a2.77,2.77,0,0,1,4.13-1.63C56.44,59.48,56.78,59.67,57.12,59.84ZM56.6,43.31a1.57,1.57,0,0,0-.08-2.2c-.86-1-1.7-.51-2.43-.2Zm-.11,10.56c-.43.49-.78.93-1.17,1.33S54.45,56,54,56.39c1,.79,1.46.83,2.26.23S57.22,55.56,56.49,53.87ZM41,54.15a1.54,1.54,0,0,0,0,2.25c.76.83,1.08.86,2.35.18ZM43.34,41a1.51,1.51,0,0,0-2.2,0c-.85.77-.87,1-.19,2.42ZM2.88,52,.7,50.42l-.18.26C1,51.58,2,51.7,2.88,52Zm93.93-4.9c-.22-1.23-1.31-1.26-2.18-1.61ZM87.1,22.8V23l2.43.25,0-.37A4.29,4.29,0,0,0,87.1,22.8ZM74.76,87.12l-.28,0-.26,2.46.29,0C75.12,88.82,74.69,87.94,74.76,87.12ZM8,74.22c.73,1,1.61.48,2.44.52l0-.25ZM52,94.66l-1.61,2.17.26.19C51.58,96.59,51.67,95.52,52,94.66ZM94.69,34.72l.14-.27c-.63-.82-1.64-.61-2.56-.69ZM16,83.91l0,.3c1,.34,1.74-.27,2.56-.7ZM5.27,63.78l-2.46-1-.13.33C3.35,63.84,4.35,63.7,5.27,63.78ZM64,92.37l-.24-.09-1,2.46C63.89,94.23,63.65,93.18,64,92.37Zm-24,1.86-.16-.2-2,1.59C39.07,95.74,39.39,94.77,40.05,94.23ZM95.58,59.59l.24-.17c-.13-1-1.06-1.32-1.61-2l-.19.16ZM83.5,79l.42,2.53.35-.06A3.34,3.34,0,0,0,83.5,79Zm-80.17-39,.19-.17-1.61-2-.27.21C1.86,39.05,2.74,39.44,3.33,40.07ZM91.19,71.36c.47-1.11-.41-1.63-1-2.27ZM6.32,26.16c-.46,1.11.41,1.63,1,2.28ZM26.06,91.23c.77.39,1.62,0,2.53-1.08Z"/><path class="cls-1" d="M88,49.35c-4.3,0-8.61-.07-12.92,0s-8.68.34-13,.59a10.67,10.67,0,0,0-2.78.63,2,2,0,0,0-1.55,2.51,7.49,7.49,0,0,0,1.15,3.1c2.18,2.88,4.38,5.76,6.83,8.42,3.62,3.95,7.46,7.7,11.25,11.59l-.6.67C69.29,70.4,63,63.21,55.43,57.56a15.49,15.49,0,0,0,1.42-1,1.48,1.48,0,0,0,.41-2,2.71,2.71,0,0,1,0-2.45,9,9,0,0,0-.17-7.38A2.58,2.58,0,0,1,57,43.43a3.48,3.48,0,0,0,3,3.08,37.57,37.57,0,0,0,7.18,1.22c6.41.28,12.83.32,19.25.46.33,0,.66,0,1,0C88.07,48.13,88.26,48.43,88,49.35Z"/><path class="cls-1" d="M21.45,77.1l-.84-.72c6.51-7,13.65-13.38,19.37-21a8.82,8.82,0,0,0,.68,1.16,1.7,1.7,0,0,0,2.32.65,2.48,2.48,0,0,1,2.25,0,9,9,0,0,0,7.38-.1,2.88,2.88,0,0,1,1.5-.12,3.27,3.27,0,0,0-3,2.65A38,38,0,0,0,49.8,67.1c-.3,6.64-.34,13.29-.48,19.94v1H48.2c0-3.3,0-6.56,0-9.81-.09-4.8-.22-9.61-.43-14.41A21.56,21.56,0,0,0,47,59.59c-.4-1.57-1.41-2.25-3-1.82a10.26,10.26,0,0,0-3.79,1.78q-5,4.06-9.79,8.43c-2.6,2.38-5,4.92-7.54,7.4C22.43,75.9,22,76.49,21.45,77.1Z"/><path class="cls-1" d="M76,20.13l.78,1.1c-6.43,7-13.59,13.28-19.29,20.89a8.84,8.84,0,0,0-.68-1.19,1.71,1.71,0,0,0-2.33-.64,2.45,2.45,0,0,1-2.25,0,9,9,0,0,0-7.47.15,2.5,2.5,0,0,1-1.37.09c1.9-.26,2.67-1.62,3.18-3.18a34.54,34.54,0,0,0,1.32-9.75c.16-5.76.19-11.52.25-17.28,0-.63,0-1.16,1.1-.77,0,2.59-.05,5.25,0,7.91.12,5.46.26,10.92.48,16.38A19,19,0,0,0,50.51,38a2.15,2.15,0,0,0,2.91,1.77A12,12,0,0,0,57,38.17a72.65,72.65,0,0,0,11.15-9.72C70.77,25.79,73.29,23,76,20.13Z"/><path class="cls-1" d="M9.42,49.34V48.4c.26,0,.48-.06.71-.06,7-.14,14-.22,21-.43a40,40,0,0,0,6.35-.75c2.09-.41,2.78-1.58,2.14-3.62a10.17,10.17,0,0,0-1.8-3.47c-2.93-3.5-5.89-7-9-10.3-2.7-2.83-5.65-5.42-8.51-8.15l.87-1c7,6.47,13.36,13.66,20.95,19.34a8.87,8.87,0,0,0-1.3.79,1.6,1.6,0,0,0-.54,2.17,2.63,2.63,0,0,1,0,2.35,9,9,0,0,0,.14,7.38,2.83,2.83,0,0,1,.11,1.43A3.63,3.63,0,0,0,37.43,51a40.13,40.13,0,0,0-7.18-1.18c-6.08-.27-12.17-.31-18.25-.44C11.18,49.32,10.36,49.34,9.42,49.34Z"/><path class="cls-1" d="M24.76,74.4a8.17,8.17,0,0,0,1.32,1.93,36.61,36.61,0,0,0,19.11,8.22,11.13,11.13,0,0,0,2.48-.29c.75,1.89-.09,3-2.4,2.71a38.42,38.42,0,0,1-20.94-8.81,5.78,5.78,0,0,1-.58-.53A1.59,1.59,0,0,1,24,74.92C24.27,74.69,24.61,74.49,24.76,74.4Z"/><path class="cls-1" d="M49.82,13.56c0-.35-.08-.61-.11-.87-.21-1.52.56-2.35,2.1-2.2a38.62,38.62,0,0,1,16.27,5.26,57.41,57.41,0,0,1,5,3.51c1.86,1.42,2,2.84-.59,4a3.05,3.05,0,0,0-1.59-2.52A37.77,37.77,0,0,0,52.68,13,3.06,3.06,0,0,0,49.82,13.56Z"/><path class="cls-1" d="M17.59,71.31c-.92-1.59-1.88-3.15-2.73-4.77a37,37,0,0,1-4.12-13.69,11.69,11.69,0,0,1-.08-1.18c0-1.53.69-2.16,2.19-1.93.32,0,.64.14,1.1.23-1.1,1.13-.76,2.39-.58,3.64a37.59,37.59,0,0,0,7.36,17.74c.58.77,1.16,1.53,2.31,1.41-1.07,2.24-2.3,2.38-3.8.53-.55-.68-1.12-1.34-1.68-2Z"/><path class="cls-1" d="M24.67,23c-2.13-1-2.31-2.26-.49-3.72A38.66,38.66,0,0,1,45,10.69l.69,0c1.72,0,2.33.67,2,2.36a5.5,5.5,0,0,1-.15.58A11.38,11.38,0,0,0,45,13.24,37.69,37.69,0,0,0,26.7,20.31C25,21.56,25,21.57,24.67,23Z"/><path class="cls-1" d="M83.55,47.5c1-.91.82-2,.67-3.08a37.91,37.91,0,0,0-7.07-17.78c-.67-.9-1.25-2-2.67-1.89,1-2.23,2.28-2.4,3.74-.58A38.87,38.87,0,0,1,86.8,44.83c0,.26,0,.52,0,.79.06,1.84-.65,2.46-2.45,2.11C84.15,47.68,83.9,47.6,83.55,47.5Z"/><path class="cls-1" d="M13.25,47.71c-.68,0-1.74.74-2.38-.52a2.74,2.74,0,0,1-.37-1.37,38.65,38.65,0,0,1,8.68-21.3c.17-.21.35-.4.53-.59,1.15-1.21,2.09-1.14,3,.22.16.24.3.5.56.92-1.46-.13-2.08.88-2.76,1.78A37,37,0,0,0,13,45.12,11.53,11.53,0,0,0,13.25,47.71Z"/><path class="cls-1" d="M50,83.51a2.71,2.71,0,0,0,2.65.78,38.22,38.22,0,0,0,18.19-7.1c1.64-1.21,1.71-1.3,2-2.9.62.58,1.38,1,1.59,1.57a2,2,0,0,1-.89,2.23,39.07,39.07,0,0,1-21,8.73,8.83,8.83,0,0,1-.89,0c-1.54,0-2.15-.68-1.91-2.21C49.79,84.33,49.88,84,50,83.51Z"/><path class="cls-1" d="M74.53,72.77a12,12,0,0,0,2.09-1.7,36.68,36.68,0,0,0,7.93-18.72,12.11,12.11,0,0,0-.3-2.58,4.25,4.25,0,0,1,1.9.06c.84.42,1,1.35.85,2.33a39.14,39.14,0,0,1-8.15,20.2,15.17,15.17,0,0,1-1.3,1.47A1.55,1.55,0,0,1,75,73.64c-.25-.34-.46-.7-.69-1.06Z"/><path class="cls-1" d="M78.78,14c.72.72,1.44,1.43,2.15,2.16A45.32,45.32,0,0,1,93.75,41.82a3.4,3.4,0,0,1,0,.9C91.91,31.18,86.81,21.43,77.82,13.9A44,44,0,0,0,46.67,3.41,45.28,45.28,0,0,0,3.6,44.79l-.25,0c.35-2.14.59-4.31,1.07-6.42a45,45,0,0,1,9-18.67,9.24,9.24,0,0,0,.65-1l0,0c.19-.16.4-.31.59-.48,2.5-2.28,5-4.59,7.51-6.83A1.38,1.38,0,0,0,22.75,10a4.9,4.9,0,0,1,0-1.38A2.69,2.69,0,0,1,23,7.89l.25.08L23,10.65l.81-.46c2.74-1.41,5.44-2.91,8.24-4.2,1-.46,1.65-.87,1.73-2a4.65,4.65,0,0,1,.54-1.35l.36.16-.93,2.44c.28,0,.48-.08.69-.13,3.31-.69,6.61-1.42,9.93-2.07a1.43,1.43,0,0,0,1.24-.88C46.32.68,46.35.7,47.14.62L45.56,2.87c2,0,3.95-.08,5.86,0,1.68.08,3.34.31,5,.55A1.35,1.35,0,0,0,57.79,3c.47-.51.8-1.3,2-1.25L57.6,3.56c.38.11.68.18,1,.28L67.9,7c.33.11.68.2,1,.3l0,0a2.92,2.92,0,0,0,.5.44,46.39,46.39,0,0,1,8.76,5.87,6.07,6.07,0,0,0,.64.45Z"/><path class="cls-1" d="M90,51c-.3,18.31-15.7,39.16-41.08,39.32-24.58.14-40-20-41.13-37C9.29,64.16,14,73.35,22.55,80.37a40.07,40.07,0,0,0,29.38,9.26A41.22,41.22,0,0,0,90,51Z"/><path class="cls-1" d="M69,24.22,67.5,23A22.8,22.8,0,0,0,60,18.77c-2.94-1-6-1.68-9-2.51a1.76,1.76,0,0,1,2.22-1.55,35.05,35.05,0,0,1,16,6.81,1.84,1.84,0,0,1,.74,2.08C69.77,24.08,69.53,24.36,69,24.22Z"/><path class="cls-1" d="M73.31,69l.66-.66a23.06,23.06,0,0,0,4.55-7.78c1.09-3.11,1.86-6.34,2.77-9.55a1.78,1.78,0,0,1,1.51,2.25A35,35,0,0,1,76.08,69a1.94,1.94,0,0,1-2.12.88C73.41,69.79,73.17,69.51,73.31,69Z"/><path class="cls-1" d="M29.37,74a8.25,8.25,0,0,0,.65.67,34.11,34.11,0,0,0,16.27,6.26,2.3,2.3,0,0,1,.28.06,1.82,1.82,0,0,1-2.12,1.83,34.49,34.49,0,0,1-16.13-6.9c-1-.73-1-1.59-.3-2.67l1.39.78Z"/><path class="cls-1" d="M22.3,66.74c.49.79,1,1.59,1.48,2.37.2.33.45.63.68.94-1.19.76-2.14.68-2.88-.31a34.49,34.49,0,0,1-6.49-16.3c-.16-1.12.36-1.7,1.7-2,.25,1.48.46,3,.77,4.42a32.34,32.34,0,0,0,4.26,10.43,3.18,3.18,0,0,0,.51.53Z"/><path class="cls-1" d="M46.15,16.87a34,34,0,0,0-18.66,7.61c-.81-1.2-.71-2.16.34-2.95A34.44,34.44,0,0,1,44.06,15.1C45.21,14.94,45.76,15.43,46.15,16.87Z"/><path class="cls-1" d="M67.91,74.43l2.15-1.29a1.87,1.87,0,0,1-.44,2.9A34.57,34.57,0,0,1,56.31,82a27.19,27.19,0,0,1-2.82.47c-1.19.15-1.82-.39-2.07-1.7,1.47-.25,3-.45,4.43-.77a32.5,32.5,0,0,0,11.66-5.08,2.43,2.43,0,0,0,.43-.47Z"/><path class="cls-1" d="M74.42,29.6l-1.29-2.14a1.85,1.85,0,0,1,2.9.44,33.68,33.68,0,0,1,5.75,12.64A34.49,34.49,0,0,1,82.41,44c.17,1.18-.4,1.83-1.67,2.06-.33-1.77-.59-3.55-1-5.29a32.59,32.59,0,0,0-4.81-10.72,3.74,3.74,0,0,0-.54-.51Z"/><path class="cls-1" d="M23.51,29.38a8.73,8.73,0,0,0-.84.88,33.35,33.35,0,0,0-6,15.15c0,.36-.11.71-.17,1.07,0,.06-.06.1-.1.16-1.4-.37-1.92-1-1.73-2.38a34.58,34.58,0,0,1,6.8-15.86c.78-1,1.6-1.12,2.74-.38l-.78,1.39Z"/><path class="cls-1" d="M48.77,57.56a8.81,8.81,0,1,1,8.79-8.79A8.8,8.8,0,0,1,48.77,57.56Zm-8.36-8.84a8.35,8.35,0,1,0,8.37-8.31A8.31,8.31,0,0,0,40.41,48.72Z"/><path class="cls-1" d="M74.83,76.2,76,77l-.13.16L75,76.75l.53.71a39,39,0,0,1-7.34,5.36C62,86.44,53.87,88,49.94,87.62c.3-.25.47-.5.65-.52,1.36-.1,2.74,0,4.08-.23A38.91,38.91,0,0,0,73.61,78.4,2.45,2.45,0,0,0,74.83,76.2Z"/><path class="cls-1" d="M47.45,10c-.18.14-.35.38-.54.4-1.32.09-2.67,0-4,.22a38.72,38.72,0,0,0-19.1,8.55,3.12,3.12,0,0,0-1.41,2.45l-1-1.06.22-.26.6.33s.07-.12.06-.13c-.66-.52-.06-.77.25-1A37.51,37.51,0,0,1,39.1,10.86c2.68-.61,5.42-.89,8.14-1.32Z"/><path class="cls-1" d="M50,10.26l.15-.76a38.37,38.37,0,0,1,11.34,2.16A38.86,38.86,0,0,1,74.75,19.6a2,2,0,0,1,.47.5c.07.12,0,.33,0,.5-.17,0-.41,0-.5-.1-6-6.33-13.75-9-22.16-10.23A19.43,19.43,0,0,0,50,10.26Z"/><path class="cls-1" d="M10.37,47.34l-.75.15C8.64,41,16,24,20.67,22.31a3.81,3.81,0,0,1-.45.7A14.6,14.6,0,0,0,19,24.13,39.66,39.66,0,0,0,10.2,45.92,7,7,0,0,0,10.37,47.34Z"/><path class="cls-1" d="M47.4,87.36a.58.58,0,0,1,.05.17c0,.12,0,.25,0,.51A39,39,0,0,1,22.18,77.39l.09-.33c.24.06.56,0,.72.2.38.36.63.85,1,1.18a39.44,39.44,0,0,0,19.81,8.65C45,87.24,46.08,87.26,47.4,87.36Z"/><path class="cls-1" d="M77,75.2a2.13,2.13,0,0,1,.26-.67,14.65,14.65,0,0,0,1.1-1,39.59,39.59,0,0,0,8.94-21.84,10.45,10.45,0,0,0-.14-1.56c.4-.08.89-.42.83.53A38.78,38.78,0,0,1,77.55,75.13a1,1,0,0,1-.24.17Z"/><path class="cls-1" d="M87.42,47.45c-.11-.19-.3-.39-.31-.59,0-.91.08-1.83,0-2.72A39.3,39.3,0,0,0,78.47,24,18.71,18.71,0,0,0,77,22.54l.26-.56c.18.06.29.07.35.13C83.46,27.88,88.5,40.53,87.42,47.45Z"/><path class="cls-1" d="M17.56,71.28a8.73,8.73,0,0,0,3.06,3.57l-.39.61a2.86,2.86,0,0,1-.69-.46,36.47,36.47,0,0,1-8.27-15.11c-.75-2.91-1-6-1.49-8.93a8.8,8.8,0,0,1,0-1.05c.34.31.68.51.65.62-.54,2.12.28,4.1.6,6.13a36.48,36.48,0,0,0,6,14.14,3.29,3.29,0,0,0,.54.51Z"/><path class="cls-1" d="M59.12,35.93c-1.39.93-2.72,2-4.16,2.76-2,1.11-3.66.3-4.17-1.91A12.75,12.75,0,0,1,50.44,34c.18.67.33,1.35.55,2a2.82,2.82,0,0,0,4.27,1.86c1-.47,2-1.06,2.94-1.61l.81-.45Z"/><path class="cls-1" d="M33.93,47.09c.75-.21,1.52-.38,2.25-.65A2.71,2.71,0,0,0,37.9,42.5c-.6-1.37-1.38-2.66-1.91-4.12a50.21,50.21,0,0,1,2.94,4.83c.73,1.57-.1,3-1.78,3.4-1,.28-2.11.43-3.17.64Z"/><path class="cls-1" d="M63.47,50.44c-.72.22-1.45.38-2.15.65A2.71,2.71,0,0,0,59.61,55c.45,1.05,1.07,2,1.61,3l.35.65-.2.11c-.87-1.33-1.85-2.61-2.61-4-1-1.86-.22-3.48,1.83-4,.93-.24,1.9-.37,2.86-.54Z"/><path class="cls-1" d="M47.06,63.51c-.16-.6-.3-1.2-.48-1.79-.72-2.25-2.3-3-4.43-2-1.15.54-2.24,1.2-3.35,1.8l-.14-.21a45.78,45.78,0,0,1,4.41-2.71c1.69-.78,3.07,0,3.55,1.78.27,1,.41,2,.61,3.06Z"/><path class="cls-1" d="M47.07,32.17c-.38,1.8-.62,3.63-1.16,5.37-.59,1.9-2.29,2.42-4,1.41a5.28,5.28,0,0,1-1.53-1.28c.35.17.69.36,1,.53a2.8,2.8,0,0,0,4.15-1.62c.29-.73.5-1.5.72-2.25s.37-1.46.56-2.19Z"/><path class="cls-1" d="M59.84,40.4c-.13.25-.27.5-.4.76-1.06,2.12-.46,3.72,1.78,4.51,1.35.47,2.76.81,4.1,1.41a53,53,0,0,1-5.48-1.23c-1.82-.62-2.26-2.24-1.31-3.91.34-.59.76-1.14,1.13-1.7Z"/><path class="cls-1" d="M37.67,57.15c.17-.34.35-.67.51-1a2.8,2.8,0,0,0-1.66-4.19c-1.07-.41-2.2-.67-3.3-1a1.83,1.83,0,0,1-.94-.49c1.76.37,3.56.61,5.26,1.14,1.9.6,2.42,2.29,1.41,4-.33.57-.72,1.09-1.08,1.63Z"/><path class="cls-1" d="M57.12,59.84c-.34-.17-.68-.36-1-.52A2.77,2.77,0,0,0,52,61c-.54,1.44-.9,2.94-1.55,4.37a50.5,50.5,0,0,1,1.34-5.62c.59-1.69,2.14-2.08,3.71-1.21.63.34,1.2.77,1.8,1.16Z"/><path class="cls-1" d="M56.6,43.31l-2.51-2.4c.73-.31,1.57-.84,2.43.2A1.57,1.57,0,0,1,56.6,43.31Z"/><path class="cls-1" d="M56.49,53.87c.73,1.69.69,2.05-.22,2.75S55,57.18,54,56.39c.44-.4.9-.77,1.31-1.19S56.06,54.36,56.49,53.87Z"/><path class="cls-1" d="M41,54.15l2.39,2.43c-1.27.68-1.59.65-2.35-.18A1.54,1.54,0,0,1,41,54.15Z"/><path class="cls-1" d="M43.34,41,41,43.41c-.68-1.37-.66-1.65.19-2.42A1.51,1.51,0,0,1,43.34,41Z"/><path class="cls-1" d="M2.88,52C2,51.7,1,51.58.52,50.68l.18-.26Z"/><path class="cls-1" d="M96.81,47.11,94.63,45.5C95.5,45.85,96.59,45.88,96.81,47.11Z"/><path class="cls-1" d="M87.1,22.8a4.29,4.29,0,0,1,2.46.12l0,.37L87.1,23Z"/><path class="cls-1" d="M74.76,87.12c-.07.82.36,1.7-.25,2.45l-.29,0,.26-2.46Z"/><path class="cls-1" d="M8,74.22l2.47.27,0,.25C9.57,74.7,8.69,75.18,8,74.22Z"/><path class="cls-1" d="M14.05,18.69a2.77,2.77,0,0,1-.48-3c.17,1.16.31,2.08.45,3Z"/><path class="cls-1" d="M52,94.66c-.33.86-.42,1.93-1.35,2.36l-.26-.19Z"/><path class="cls-1" d="M94.69,34.72l-2.42-1c.92.08,1.93-.13,2.56.69Z"/><path class="cls-1" d="M16,83.91l2.58-.4c-.82.43-1.6,1-2.56.7Z"/><path class="cls-1" d="M5.27,63.78c-.92-.08-1.92.06-2.59-.64l.13-.33Z"/><path class="cls-1" d="M64,92.37c-.35.81-.11,1.86-1.2,2.37l1-2.46Z"/><path class="cls-1" d="M40.05,94.23c-.66.54-1,1.51-2.14,1.39l2-1.59Z"/><path class="cls-1" d="M95.58,59.59l-1.56-2,.19-.16c.55.64,1.48,1,1.61,2Z"/><path class="cls-1" d="M68.92,7.29A3.54,3.54,0,0,1,71.19,6l.17.38-2.46.92Z"/><path class="cls-1" d="M78.8,14a2.54,2.54,0,0,1,2.9-.43l-2.92.4Z"/><path class="cls-1" d="M83.5,79a3.34,3.34,0,0,1,.77,2.47l-.35.06Z"/><path class="cls-1" d="M3.33,40.07c-.59-.63-1.47-1-1.69-2l.27-.21,1.61,2Z"/><path class="cls-1" d="M91.19,71.36l-1-2.27C90.78,69.73,91.66,70.25,91.19,71.36Z"/><path class="cls-1" d="M6.32,26.16l1,2.28C6.73,27.79,5.86,27.27,6.32,26.16Z"/><path class="cls-1" d="M26.06,91.23l2.53-1.08C27.68,91.25,26.83,91.62,26.06,91.23Z"/><path d="M40.41,48.72a8.35,8.35,0,1,1,8.28,8.39A8.31,8.31,0,0,1,40.41,48.72Zm13.86,3.22c1.52-1.7,1.07-5.18.09-6.33,0,0-.12,0-.19,0L54,45a6.37,6.37,0,0,0-7.61-2.3c-.17.07-.28.28-.42.43l-2.35,1.75c-2.31,2.63-1.61,7.33,1.34,9a5.25,5.25,0,0,0,4.28,1.3,5.68,5.68,0,0,0,5-3.33Z"/><path d="M54,45l.16.58A8,8,0,0,1,54.88,48a28,28,0,0,1-.61,3.92l0,0a6,6,0,0,1-.63.7c-.64.52-1.31,1-2,1.52,0-.16,0-.33,0-.49,0-1.16.09-1.25,1.27-1.13.56.06.61-.16.4-.63-.41-.92-.28-1.14.7-1.4a2,2,0,0,0,.46-.28c-.91-1.26-.91-1.26.1-2.49a1.27,1.27,0,0,0-.28-.24c-1.19-.46-1.19-.46-.74-1.59.2-.49,0-.62-.5-.55-1,.14-1.21-.16-1.11-1.12a3.09,3.09,0,0,0-.15-.75c-1.34,1.39-1.84.42-2.24-.66-.47.39-.84.93-1.23,1s-.88-.45-1.33-.71c-.68,1.58-.68,1.58-2.06,1.1,0,.07-.19.17-.17.21.48,1.35-.2,1.74-1.4,1.75-.08,0-.16.08-.25.12l.44-1.32L46,43.14a6.29,6.29,0,0,1,7.62,1.67A1.12,1.12,0,0,0,54,45Z"/><path class="cls-1" d="M51.71,54.12c.65-.5,1.32-1,2-1.52a6,6,0,0,0,.63-.7,5.68,5.68,0,0,1-5,3.33A5.25,5.25,0,0,1,45,53.93l.06-.07c.32.16.63.35,1,.49,2,.8,3.89,1.06,5.75-.27Z"/><path class="cls-1" d="M43.63,44.89l-.44,1.32,0,0a8.1,8.1,0,0,0-.59,1.49A6.42,6.42,0,0,0,45,53.86l-.06.07C42,52.22,41.32,47.52,43.63,44.89Z"/><path class="cls-1" d="M54,45a1.12,1.12,0,0,1-.41-.2A6.29,6.29,0,0,0,46,43.14c.14-.15.25-.36.42-.43A6.37,6.37,0,0,1,54,45Z"/><path class="cls-1" d="M54.27,51.94A28,28,0,0,0,54.88,48a8,8,0,0,0-.71-2.43c.07,0,.16,0,.19,0C55.34,46.76,55.79,50.24,54.27,51.94Z"/><path class="cls-1" d="M43.19,46.21c.09,0,.17-.12.25-.12,1.2,0,1.88-.4,1.4-1.75,0,0,.12-.14.17-.21,1.38.48,1.38.48,2.06-1.1.45.26.9.72,1.33.71s.76-.56,1.23-1c.4,1.08.9,2.05,2.24.66a3.09,3.09,0,0,1,.15.75c-.1,1,.15,1.26,1.11,1.12.53-.07.7.06.5.55-.45,1.13-.45,1.13.74,1.59a1.27,1.27,0,0,1,.28.24c-1,1.23-1,1.23-.1,2.49a2,2,0,0,1-.46.28c-1,.26-1.11.48-.7,1.4.21.47.16.69-.4.63-1.18-.12-1.28,0-1.27,1.13,0,.16,0,.33,0,.49l0,0a1.24,1.24,0,0,1-.39,0c-1.33-.61-1.33-.61-2,.58,0,0-.12,0-.18,0-1-1-1-1-2.45-.31a2.41,2.41,0,0,1-.16-.42c-.14-1.06-.35-1.19-1.38-.9-.16,0-.43.05-.51,0s0-.36,0-.53c.24-.93,0-1.2-.92-1.3a2.07,2.07,0,0,1-.46-.15c.21-.53.6-1,.52-1.42s-.62-.7-1-1.11c.23-.13.4-.25.59-.34.73-.35.82-.78.3-1.43-.14-.18-.27-.37-.4-.56Zm5.55-2.09a4.65,4.65,0,1,0,4.66,4.62A4.63,4.63,0,0,0,48.74,44.12Z"/><path d="M43.23,46.17c.13.19.26.38.4.56.52.65.43,1.08-.3,1.43-.19.09-.36.21-.59.34.41.41,1,.72,1,1.11s-.31.89-.52,1.42a2.07,2.07,0,0,0,.46.15c1,.1,1.16.37.92,1.3,0,.17-.08.42,0,.53s.35.08.51,0c1-.29,1.24-.16,1.38.9a2.41,2.41,0,0,0,.16.42c1.46-.73,1.46-.73,2.45.31.06,0,.16,0,.18,0,.7-1.19.7-1.19,2-.58a1.24,1.24,0,0,0,.39,0c-1.86,1.33-3.79,1.07-5.75.27-.33-.14-.64-.33-1-.49a6.42,6.42,0,0,1-2.39-6.2A8.1,8.1,0,0,1,43.23,46.17Z"/><path d="M48.74,44.12a4.65,4.65,0,1,1-4.62,4.66A4.64,4.64,0,0,1,48.74,44.12Z"/></g></g></svg>