<svg xmlns="http://www.w3.org/2000/svg" viewBox="0 0 905.8 683.22"><defs><style>.cls-1{fill:#dc143c;}.cls-2{fill:#f7931e;}.cls-3{fill:none;}</style></defs><g id="Layer_2" data-name="Layer 2"><g id="Layer_1-2" data-name="Layer 1"><path class="cls-1" d="M622.21,477.16l-56.49-32.61v41.86H373.9a37.58,37.58,0,0,1-32.28-18.09L185.13,212.5A37.82,37.82,0,0,1,217.34,155c.58,0,1.15,0,1.73,0l222.53,9.89,2.07-46.69L221.15,108.3a84.54,84.54,0,0,0-75.88,128.59L301.75,492.71a84,84,0,0,0,72.15,40.43H565.72V575l56.49-32.61,56.49-32.61Z"/><path class="cls-1" d="M373.9,494.74a45.85,45.85,0,0,1-39.39-22.07L178,216.85a46.16,46.16,0,0,1,39.32-70.24c.7,0,1.4,0,2.11,0l474.89,21.09a45.65,45.65,0,0,1,42.11,32.67c6.14,20.19-7.41,42.32-23.5,51.24a5.74,5.74,0,0,1-5.56-10c12.23-6.78,22.41-23.61,18.07-37.86a34.28,34.28,0,0,0-31.63-24.54L218.94,158.13c-.54,0-1.07,0-1.6,0a34.67,34.67,0,0,0-29.52,52.77L344.3,466.68a34.69,34.69,0,0,0,50.16,9.82L555.22,358a5.74,5.74,0,1,1,6.81,9.25L401.27,485.74A45.83,45.83,0,0,1,373.9,494.74Z"/><path class="cls-1" d="M373.86,474a25.73,25.73,0,0,1-4.86-.47,25.47,25.47,0,0,1-16.78-11.67L195.74,206a25.39,25.39,0,0,1,22.78-38.61l474.9,21.09a25.38,25.38,0,0,1,13.93,45.79l-16.84,12.42a5.74,5.74,0,1,1-6.82-9.24l16.85-12.42A13.9,13.9,0,0,0,692.91,200L218,178.88A13.89,13.89,0,0,0,205.54,200L362,455.84a13.91,13.91,0,0,0,20.11,3.94l145.41-107.2a5.74,5.74,0,1,1,6.81,9.25L388.94,469A25.43,25.43,0,0,1,373.86,474Z"/><path class="cls-1" d="M309.88,194.62l-25,43c-1.86,3.19-4.13,4.79-6.78,4.79a6,6,0,0,1-4.72-1.89,7.88,7.88,0,0,1-1.66-5.38L272.73,206l-14.79,31.62q-2.24,4.78-6.46,4.79a6.06,6.06,0,0,1-4.77-1.93,7.74,7.74,0,0,1-1.73-5.34l-.85-28.08q0-7.44-1.28-10t-5-2.58c-2.19,0-4.38,1.16-6.54,3.48s-3.25,4.65-3.25,7a6.27,6.27,0,0,0,6.62,6.63c.57,0,1.11,0,1.63,0l1,0q5,0,5,4.1a5.29,5.29,0,0,1-2.81,4.53,12.73,12.73,0,0,1-7.07,1.81,14.41,14.41,0,0,1-10.89-4.51,15.87,15.87,0,0,1-4.3-11.42q0-8.41,6.84-15t15.51-6.65q7.92,0,11.48,4.65t3.55,14.9l0,3.21.25,14.14,14.5-31.49q2.44-5.42,7.44-5.41a6.31,6.31,0,0,1,4.59,1.69,6,6,0,0,1,1.75,4.49l0,.45-.73,30.92,18.28-31.49.85-1.59a7.39,7.39,0,0,1,6.87-3.9h7.93q5.64,0,5.64,4a5,5,0,0,1-2,4.21,8.92,8.92,0,0,1-5.52,1.52Z"/><path class="cls-1" d="M301.46,229.8c0,1.45,1.08,2.17,3.26,2.17h8.57c2.43,0,3.64.85,3.64,2.57a3.28,3.28,0,0,1-1.28,2.74,5.86,5.86,0,0,1-3.6,1h-8.17q-4.56,0-6.94-2.25c-1.59-1.5-2.38-3.7-2.38-6.58a13.64,13.64,0,0,1,3.77-9.62,11.86,11.86,0,0,1,9-4,9,9,0,0,1,6.08,2,6.55,6.55,0,0,1,2.29,5.21,6.24,6.24,0,0,1-3.18,5.77,10.2,10.2,0,0,1-5.25,1.07Zm1.38-5.25H306c2.06,0,3.06-.45,3-1.36s-.72-1.53-2-1.53Q304.38,221.66,302.84,224.55Z"/><path class="cls-1" d="M325.76,232h3c2.45,0,3.67.85,3.67,2.57a3.28,3.28,0,0,1-1.28,2.74,5.86,5.86,0,0,1-3.6,1h-5.2a5.19,5.19,0,0,1-3.37-1,3.31,3.31,0,0,1-1.24-2.71,9.61,9.61,0,0,1,.83-3l11.67-28.69.31-.78c.89-2.15,2.3-3.23,4.25-3.23a2.89,2.89,0,0,1,2.06.81,2.56,2.56,0,0,1,.85,1.93,5.36,5.36,0,0,1-.43,2l-.32.78Z"/><path class="cls-1" d="M341.47,232h3c2.44,0,3.66.85,3.66,2.57a3.28,3.28,0,0,1-1.28,2.74,5.86,5.86,0,0,1-3.6,1h-5.19a5.22,5.22,0,0,1-3.38-1,3.31,3.31,0,0,1-1.24-2.71,9.43,9.43,0,0,1,.84-3L346,202.87l.32-.78c.88-2.15,2.3-3.23,4.24-3.23a2.88,2.88,0,0,1,2.06.81,2.56,2.56,0,0,1,.85,1.93,5.36,5.36,0,0,1-.43,2l-.32.78Z"/><path class="cls-1" d="M366,238.26H357.6a7.52,7.52,0,0,1-5.87-2.54,9.52,9.52,0,0,1-2.27-6.58,13.28,13.28,0,0,1,3.72-9.38,11.62,11.62,0,0,1,8.75-4,8,8,0,0,1,5.54,1.91,6.31,6.31,0,0,1,2.14,5,5.54,5.54,0,0,1-1.07,3.51,3.31,3.31,0,0,1-2.74,1.37c-1.77,0-2.66-.83-2.66-2.48v-.64q0-.32,0-.6a1.77,1.77,0,0,0-2-2,4.35,4.35,0,0,0-3.42,2,7.08,7.08,0,0,0-1.55,4.44,3.26,3.26,0,0,0,1.26,2.91,8,8,0,0,0,4.26.85h5.45c2.45,0,3.67.85,3.67,2.57a3.24,3.24,0,0,1-1.31,2.72A5.75,5.75,0,0,1,366,238.26Z"/><path class="cls-1" d="M385.28,215.77a9.43,9.43,0,0,1,6.89,2.66,9.06,9.06,0,0,1,2.7,6.75,14.52,14.52,0,0,1-1.42,6.14,13.27,13.27,0,0,1-3.66,4.86,9,9,0,0,1-3.11,1.63,17.41,17.41,0,0,1-4.49.45q-4.69,0-6.35-1.13a8.89,8.89,0,0,1-3.86-7.85,13,13,0,0,1,3.95-9.49A12.68,12.68,0,0,1,385.28,215.77Zm-.69,6.15a5.05,5.05,0,0,0-3.9,2.11,7.09,7.09,0,0,0-1.76,4.65q0,3.34,3.75,3.35a4.25,4.25,0,0,0,3.38-1.36,7.45,7.45,0,0,0,2-5.08,3.71,3.71,0,0,0-.95-2.66A3.26,3.26,0,0,0,384.59,221.92Z"/><path class="cls-1" d="M431.12,232h3.44c2.42,0,3.63.85,3.63,2.57a3.28,3.28,0,0,1-1.28,2.74,5.8,5.8,0,0,1-3.57,1h-5.86a4.57,4.57,0,0,1-3.08-1,3.32,3.32,0,0,1-1.19-2.66,8.83,8.83,0,0,1,.78-3.06l2.71-6.61a2.75,2.75,0,0,0,.23-1.06A1.67,1.67,0,0,0,425,222a4.34,4.34,0,0,0-2.92,1.33,9.25,9.25,0,0,0-2.3,3.52l-3.24,8q-1.59,3.85-4.62,3.86a2.88,2.88,0,0,1-2-.78,2.45,2.45,0,0,1-.83-1.84,5.58,5.58,0,0,1,.43-2l.32-.77,3.26-8.06a4.78,4.78,0,0,0,.43-1.67,1.38,1.38,0,0,0-.58-1.11,2,2,0,0,0-1.35-.48q-3.12,0-4.94,4.5l-3.38,8.29q-1.57,3.89-4.59,3.89a2.94,2.94,0,0,1-2-.76,2.4,2.4,0,0,1-.85-1.86,5.45,5.45,0,0,1,.43-2l.32-.77,5.74-14.15q1.21-3,3.64-3a2.91,2.91,0,0,1,3.12,2.36,15,15,0,0,1,3.19-2.22,7.43,7.43,0,0,1,3-.55,6.29,6.29,0,0,1,5.81,3.38,9.84,9.84,0,0,1,7.27-3.38,6.83,6.83,0,0,1,4.63,1.61,5,5,0,0,1,1.86,3.94,8.07,8.07,0,0,1-.63,3Z"/><path class="cls-1" d="M446.22,229.8c0,1.45,1.08,2.17,3.26,2.17h8.57c2.43,0,3.64.85,3.64,2.57a3.26,3.26,0,0,1-1.29,2.74,5.81,5.81,0,0,1-3.59,1h-8.17q-4.56,0-6.94-2.25c-1.59-1.5-2.38-3.7-2.38-6.58a13.63,13.63,0,0,1,3.76-9.62,11.88,11.88,0,0,1,9-4,9,9,0,0,1,6.07,2,6.56,6.56,0,0,1,2.3,5.21,6.24,6.24,0,0,1-3.18,5.77A10.2,10.2,0,0,1,452,229.8Zm1.38-5.25h3.18c2.06,0,3.06-.45,3-1.36s-.72-1.53-2-1.53Q449.14,221.66,447.6,224.55Z"/><path class="cls-1" d="M483,223.68h.59c1.61,0,2.42.57,2.42,1.7a2.15,2.15,0,0,1-.86,1.81,3.85,3.85,0,0,1-2.36.65h-1.4l-2.55,6.27h2.14c1.61,0,2.42.56,2.42,1.69a2.15,2.15,0,0,1-.85,1.81,3.86,3.86,0,0,1-2.37.65h-3.41a3.58,3.58,0,0,1-2.3-.67,2.15,2.15,0,0,1-.85-1.81,4.4,4.4,0,0,1,.34-1.56l.37-.84,2.24-5.54h-.28c-1.42,0-2.13-.55-2.13-1.66a2.2,2.2,0,0,1,.84-1.84,3.79,3.79,0,0,1,2.37-.66h.88l1-2.49.21-.52a3,3,0,0,1,2.82-2.11,1.88,1.88,0,0,1,1.34.52,1.66,1.66,0,0,1,.57,1.27,4.77,4.77,0,0,1-.5,1.83Z"/><path class="cls-1" d="M494,223.42a6.2,6.2,0,0,1,4.54,1.75,6,6,0,0,1,1.78,4.46,9.56,9.56,0,0,1-.93,4.05,8.78,8.78,0,0,1-2.42,3.21A5.7,5.7,0,0,1,494.9,238a11.34,11.34,0,0,1-3,.3c-2.07,0-3.47-.25-4.19-.74a5.88,5.88,0,0,1-2.56-5.19,8.61,8.61,0,0,1,2.61-6.26A8.37,8.37,0,0,1,494,223.42Zm-.46,4.06a3.32,3.32,0,0,0-2.57,1.39,4.63,4.63,0,0,0-1.16,3.06c0,1.48.82,2.21,2.47,2.21a2.78,2.78,0,0,0,2.23-.89,4.91,4.91,0,0,0,1.3-3.35,2.46,2.46,0,0,0-.63-1.76A2.17,2.17,0,0,0,493.52,227.48Z"/><path class="cls-1" d="M545.06,232h3.44c2.42,0,3.64.85,3.64,2.57a3.26,3.26,0,0,1-1.29,2.74,5.77,5.77,0,0,1-3.56,1h-5.86a4.62,4.62,0,0,1-3.09-1,3.32,3.32,0,0,1-1.19-2.66,8.83,8.83,0,0,1,.78-3.06l2.72-6.61a2.94,2.94,0,0,0,.23-1.06A1.68,1.68,0,0,0,539,222a4.3,4.3,0,0,0-2.91,1.33,9.39,9.39,0,0,0-2.31,3.52l-3.24,8q-1.57,3.85-4.61,3.86a2.84,2.84,0,0,1-2-.78A2.43,2.43,0,0,1,523,236a5.58,5.58,0,0,1,.43-2l.32-.77,3.26-8.06a4.78,4.78,0,0,0,.43-1.67,1.39,1.39,0,0,0-.57-1.11,2.07,2.07,0,0,0-1.36-.48q-3.12,0-4.93,4.5l-3.38,8.29q-1.59,3.89-4.59,3.89a3,3,0,0,1-2-.76,2.43,2.43,0,0,1-.85-1.86,5.67,5.67,0,0,1,.43-2l.32-.77,5.75-14.15c.8-2,2-3,3.63-3a2.9,2.9,0,0,1,3.12,2.36,15,15,0,0,1,3.19-2.22,7.48,7.48,0,0,1,3-.55,6.29,6.29,0,0,1,5.8,3.38,9.86,9.86,0,0,1,7.27-3.38,6.83,6.83,0,0,1,4.63,1.61,5,5,0,0,1,1.87,3.94,7.9,7.9,0,0,1-.64,3Z"/><path class="cls-1" d="M569.71,239.44h3.35q3.68,0,3.67,2.57a3.23,3.23,0,0,1-1.29,2.74,5.74,5.74,0,0,1-3.59,1h-4.68a45.2,45.2,0,0,1-3,6.58q-3.81,7.21-11.08,7.21a10.52,10.52,0,0,1-7.42-2.77,9,9,0,0,1-3-6.87,9.44,9.44,0,0,1,1.63-5.32,10.2,10.2,0,0,1,4.29-3.71q3.06-1.43,9-1.42h4.71l.83-2.08a10.17,10.17,0,0,1-3.92.9,7.64,7.64,0,0,1-5-1.57,5,5,0,0,1-1.92-4.09,13.68,13.68,0,0,1,1.24-4.59l3.15-7.76.31-.81c.93-2.17,2.36-3.26,4.31-3.26a3,3,0,0,1,2.12.81,2.69,2.69,0,0,1,.85,2,8.57,8.57,0,0,1-.75,2.71l-2.83,6.9a9.86,9.86,0,0,0-.69,2.16c-.06.95.54,1.42,1.79,1.42a5.5,5.5,0,0,0,2.71-.78,3.71,3.71,0,0,0,1.76-1.76l3.87-9.44.29-.81c.9-2.17,2.34-3.26,4.3-3.26a2.92,2.92,0,0,1,2.12.82,2.72,2.72,0,0,1,.85,2,5.35,5.35,0,0,1-.43,1.93l-.35.78Zm-9.43,6.3h-4q-6.65,0-6.64,4.15a3.17,3.17,0,0,0,.91,2.37,3.28,3.28,0,0,0,2.43.89,5.1,5.1,0,0,0,3.74-1.64A22,22,0,0,0,560.28,245.74Z"/><path class="cls-2" d="M329.76,266.74a18.18,18.18,0,0,1,7.5,1.58,19.42,19.42,0,0,1,6.11,4.28A20.53,20.53,0,0,1,347.5,279a20,20,0,0,1,1.53,7.75,20.19,20.19,0,0,1-1.53,7.85,20.53,20.53,0,0,1-4.13,6.37,19.42,19.42,0,0,1-6.11,4.28,18.18,18.18,0,0,1-7.5,1.58H309.28a9.65,9.65,0,0,1-4.18-.92v39.75h-.51V305.58a9.29,9.29,0,0,1-1.94-1.43v41.48h-.51v-42a8.77,8.77,0,0,1-1.94-3.37v45.36h-.51V276.32a9.35,9.35,0,0,1,.77-3.72,9.65,9.65,0,0,1,2-3.06,9.81,9.81,0,0,1,3-2,9.26,9.26,0,0,1,3.78-.77Zm0,39.55a17.65,17.65,0,0,0,7.29-1.53,18.83,18.83,0,0,0,6-4.18A20,20,0,0,0,343,273a18.83,18.83,0,0,0-6-4.18,17.65,17.65,0,0,0-7.29-1.53H309.28a9,9,0,0,0-9.08,9.07v20.9a8.79,8.79,0,0,0,1.94,5.6v-26.5a7.14,7.14,0,0,1,7.14-7.13h20.48a15.86,15.86,0,0,1,6.53,1.37,17.24,17.24,0,0,1,5.35,3.77,18.16,18.16,0,0,1,3.62,5.56,17.54,17.54,0,0,1,1.32,6.83,17.95,17.95,0,0,1-4.94,12.49,17.24,17.24,0,0,1-5.35,3.77,15.86,15.86,0,0,1-6.53,1.37H309.28A7.27,7.27,0,0,1,305.1,303v2.24a8.07,8.07,0,0,0,4.18,1Zm-25.17-30A4.48,4.48,0,0,1,306,273a4.63,4.63,0,0,1,3.32-1.33h20.48a13.77,13.77,0,0,1,5.61,1.18A14.18,14.18,0,0,1,340,276a15,15,0,0,1,3.05,4.79,16,16,0,0,1,0,11.82,15.6,15.6,0,0,1-3.05,4.84,13.95,13.95,0,0,1-10.2,4.44H309.28a4.39,4.39,0,0,1-4.18-2.55v3.06a6.34,6.34,0,0,0,4.18,1.42h20.48a15.3,15.3,0,0,0,6.32-1.32,16.38,16.38,0,0,0,5.2-3.67,17.21,17.21,0,0,0,3.52-5.45,17.46,17.46,0,0,0,1.27-6.68,17.33,17.33,0,0,0-4.79-12,16.54,16.54,0,0,0-5.2-3.67,15.3,15.3,0,0,0-6.32-1.32H309.28a6.61,6.61,0,0,0-6.63,6.62v20.9a6.4,6.4,0,0,0,1.94,4.69V276.32Zm0,26.3a6.53,6.53,0,0,1-1.94-2.75v3.57a8.7,8.7,0,0,0,1.94,1.52Zm.51-5.4a4.18,4.18,0,0,0,4.18,4.18h20.48a13.28,13.28,0,0,0,5.41-1.13,13.64,13.64,0,0,0,4.43-3.1,14.62,14.62,0,0,0,3-4.69,15.56,15.56,0,0,0,1.07-5.76,15.18,15.18,0,0,0-1.07-5.71,14.72,14.72,0,0,0-3-4.64,13.82,13.82,0,0,0-4.43-3.11,13.44,13.44,0,0,0-5.41-1.12H309.28a4.18,4.18,0,0,0-4.18,4.18Z"/><path class="cls-2" d="M385.72,266.64a26.49,26.49,0,0,1,10.5,2.09,26.88,26.88,0,0,1,14.32,14.32,26.49,26.49,0,0,1,2.09,10.5v25.28a26.2,26.2,0,0,1-2.09,10.39,26.79,26.79,0,0,1-14.32,14.32,26.32,26.32,0,0,1-10.5,2.09H382a26.08,26.08,0,0,1-10.4-2.09,26.79,26.79,0,0,1-14.32-14.32,26.2,26.2,0,0,1-2.09-10.39V293.55a26.49,26.49,0,0,1,2.09-10.5,26.88,26.88,0,0,1,14.32-14.32,26.25,26.25,0,0,1,10.4-2.09Zm26.4,26.91a25.56,25.56,0,0,0-2.09-10.3,26.75,26.75,0,0,0-14-14,25.56,25.56,0,0,0-10.3-2.09H382a25.48,25.48,0,0,0-10.29,2.09,26.68,26.68,0,0,0-8.36,5.66,26.13,26.13,0,0,0-7.65,18.65v25.28a25.72,25.72,0,0,0,2,10.19,26.27,26.27,0,0,0,5.61,8.36,26.65,26.65,0,0,0,8.36,5.65A25.31,25.31,0,0,0,382,345.12h3.77A25.39,25.39,0,0,0,396,343a26.66,26.66,0,0,0,14-14,25.25,25.25,0,0,0,2.09-10.19Zm-26.4-24.47A23.68,23.68,0,0,1,395.2,271a24.51,24.51,0,0,1,13.05,13.05,23.67,23.67,0,0,1,1.93,9.48v25.28a23.57,23.57,0,0,1-1.93,9.53,24.31,24.31,0,0,1-5.25,7.69,25.19,25.19,0,0,1-7.8,5.2,23.68,23.68,0,0,1-9.48,1.94H382a23.57,23.57,0,0,1-9.53-1.94,24.38,24.38,0,0,1-12.89-12.89,23.41,23.41,0,0,1-1.94-9.53V293.55a23.51,23.51,0,0,1,1.94-9.48,25.33,25.33,0,0,1,5.19-7.8,24.36,24.36,0,0,1,7.7-5.25,23.57,23.57,0,0,1,9.53-1.94Zm23.95,24.47a23.08,23.08,0,0,0-1.88-9.33,24.38,24.38,0,0,0-12.74-12.74,23.09,23.09,0,0,0-9.33-1.89H382a23.23,23.23,0,0,0-9.28,1.89,23.61,23.61,0,0,0-7.59,5.15,24.83,24.83,0,0,0-5.1,7.59,23.25,23.25,0,0,0-1.88,9.33v25.28A23.31,23.31,0,0,0,360,328.1a23.66,23.66,0,0,0,12.69,12.69,23.23,23.23,0,0,0,9.28,1.89h3.77a23.09,23.09,0,0,0,9.33-1.89,24.63,24.63,0,0,0,7.59-5.09,23.65,23.65,0,0,0,5.15-7.6,23.14,23.14,0,0,0,1.88-9.27Zm-23.95-22a21.26,21.26,0,0,1,8.56,1.73,22,22,0,0,1,6.93,4.74,23,23,0,0,1,4.69,7,21.1,21.1,0,0,1,1.74,8.56v25.28a21.13,21.13,0,0,1-1.74,8.56A22.1,22.1,0,0,1,394.28,339a21.26,21.26,0,0,1-8.56,1.73H382a21.26,21.26,0,0,1-8.56-1.73,22.1,22.1,0,0,1-11.62-11.62,21.13,21.13,0,0,1-1.74-8.56V293.55a21.1,21.1,0,0,1,1.74-8.56,23,23,0,0,1,4.69-7,22,22,0,0,1,6.93-4.74,21.26,21.26,0,0,1,8.56-1.73Zm21.41,22a20.76,20.76,0,0,0-1.69-8.31,22.32,22.32,0,0,0-4.58-6.88,21.25,21.25,0,0,0-6.83-4.64,20.92,20.92,0,0,0-8.31-1.68H382a20.78,20.78,0,0,0-8.36,1.68,21.37,21.37,0,0,0-6.78,4.64,22.32,22.32,0,0,0-4.58,6.88,20.93,20.93,0,0,0-1.69,8.31v25.28a20.73,20.73,0,0,0,1.69,8.35,21.58,21.58,0,0,0,11.36,11.37,20.78,20.78,0,0,0,8.36,1.68h3.77a20.92,20.92,0,0,0,8.31-1.68,21.45,21.45,0,0,0,11.41-11.37,20.57,20.57,0,0,0,1.69-8.35Z"/><path class="cls-2" d="M468.18,345.63h-.51L453.2,308.94a3,3,0,0,0-3.06-2.14H428.33a8.71,8.71,0,0,1-2.14-.26,9.39,9.39,0,0,1-2-.76v39.75h-.51V305.58a9.08,9.08,0,0,1-1.94-1.53v41.48h-.51v-42a7.85,7.85,0,0,1-1.93-3.37v45.36h-.51V276.22a9.34,9.34,0,0,1,.76-3.72,9.65,9.65,0,0,1,2-3.06,9.76,9.76,0,0,1,3-2,9.2,9.2,0,0,1,3.77-.76h20.48a18.15,18.15,0,0,1,7.5,1.58,19.42,19.42,0,0,1,6.11,4.28,20.49,20.49,0,0,1,5.66,14.22,20.17,20.17,0,0,1-11,18.14,7.46,7.46,0,0,1,1.22,2l15.19,38.73h-.61l-15.09-38.52a9.83,9.83,0,0,0-1.12-2c-.34.13-.66.25-1,.35s-.62.22-1,.36a7.4,7.4,0,0,1,1.22,2l14.88,37.81h-.51L455.54,308A3.41,3.41,0,0,0,455,307l-.76-1a11.87,11.87,0,0,1-1.33.31,11.25,11.25,0,0,0-1.32.31,4.1,4.1,0,0,1,2.14,2.14Zm-47-69.41a7.14,7.14,0,0,1,7.14-7.14h20.48a15.71,15.71,0,0,1,6.53,1.38,17.13,17.13,0,0,1,5.35,3.77,17.95,17.95,0,0,1,4.94,12.49,17.57,17.57,0,0,1-2.9,9.89,17.37,17.37,0,0,1-7.49,6.42c.27.2.52.41.76.61a6.84,6.84,0,0,1,.77.81,18.51,18.51,0,0,0,7.84-7.08,20.22,20.22,0,0,0-2.54-24.51,18.87,18.87,0,0,0-6-4.18,17.58,17.58,0,0,0-7.29-1.53H428.33a9,9,0,0,0-9.07,9.07v20.9a8.78,8.78,0,0,0,1.93,5.6v-26.5Zm2.45,0a4.69,4.69,0,0,1,4.69-4.69h20.48a13.3,13.3,0,0,1,5.61,1.22A14.87,14.87,0,0,1,459,276a15.22,15.22,0,0,1,3.06,4.79,15.62,15.62,0,0,1,1.12,5.91,14.9,14.9,0,0,1-3.26,9.58,14.34,14.34,0,0,1-8.16,5.2,8.1,8.1,0,0,1,3,1.12,16.18,16.18,0,0,0,7.49-6.12,17,17,0,0,0,2.9-9.78,17.46,17.46,0,0,0-1.27-6.68,17.21,17.21,0,0,0-3.52-5.45,16.38,16.38,0,0,0-5.2-3.67,15.3,15.3,0,0,0-6.32-1.33H428.33a6.62,6.62,0,0,0-6.63,6.63v20.9a6,6,0,0,0,1.94,4.68V276.22Zm0,26.3a7.61,7.61,0,0,1-1.94-2.75v3.56c.34.34.66.65,1,.92a6.5,6.5,0,0,0,1,.71Zm.51-5.4a4.21,4.21,0,0,0,1.22,3,4,4,0,0,0,3,1.28h20.48a12.67,12.67,0,0,0,5.41-1.18,14.28,14.28,0,0,0,4.43-3.16,14.68,14.68,0,0,0,3-4.63,15.77,15.77,0,0,0,0-11.42,14.36,14.36,0,0,0-7.39-7.8,12.81,12.81,0,0,0-5.41-1.17H428.33a4.17,4.17,0,0,0-4.18,4.18Zm4.18,4.79a4.17,4.17,0,0,1-2.5-.77,5.69,5.69,0,0,1-1.68-1.88v3.05a6.33,6.33,0,0,0,4.18,1.53H449a25.09,25.09,0,0,0,5.1-.91,7.73,7.73,0,0,0-4-1Zm20.48,4.38a16.07,16.07,0,0,0,2.55-.2c.82-.14,1.6-.31,2.35-.51a5.53,5.53,0,0,0-3.57-1.23H428.33a6.9,6.9,0,0,1-4.18-1.42v2.34a9.24,9.24,0,0,0,4.18,1Zm5.51-.92a7.89,7.89,0,0,0,1.94-.71,8.88,8.88,0,0,0-1.64-1.43,7.36,7.36,0,0,1-1.37.46l-1.48.36A6.92,6.92,0,0,1,454.32,305.37Z"/><path class="cls-2" d="M510.38,267.25a8.79,8.79,0,0,0-5.61,1.94h26v.51H510.38a6,6,0,0,0-4.69,1.93h25.08v.51H510.38a4.19,4.19,0,0,0-3,1.23,3.93,3.93,0,0,0-1.27,2.95v69.31h-.51V276.32a4.2,4.2,0,0,1,.76-2.5,5.63,5.63,0,0,1,1.89-1.68h-3.06a6.37,6.37,0,0,0-1.53,4.18v69.31h-.51V276.32a6.93,6.93,0,0,1,1.43-4.18h-2.34a9.27,9.27,0,0,0-1,4.18v69.31h-.51V276.32a9.27,9.27,0,0,1,1-4.18H476v-.51h25.89a9.05,9.05,0,0,1,1.53-1.93H476v-.51H504a7.77,7.77,0,0,1,3.36-1.94H476v-.51h54.74v.51Zm-6.22,2.45a4.1,4.1,0,0,0-.86.91c-.24.34-.5.68-.77,1H505a7.42,7.42,0,0,1,2.75-1.93Z"/><path class="cls-2" d="M536.47,345.63H536V276.22a9.35,9.35,0,0,1,.77-3.72,9.15,9.15,0,0,1,2.09-3.06,10.37,10.37,0,0,1,3.06-2,9.2,9.2,0,0,1,3.77-.76h36.08v.51H545.65a9,9,0,0,0-9.18,9.07v22.93a8.79,8.79,0,0,0,1.94,5.61V276.22a6.8,6.8,0,0,1,2.14-5.05,7.07,7.07,0,0,1,5.1-2.09h36.08v.51H545.65a6.55,6.55,0,0,0-4.74,1.94,6.3,6.3,0,0,0-2,4.69v22.93a6,6,0,0,0,.56,2.6,8.43,8.43,0,0,0,1.38,2.09V276.22a4.52,4.52,0,0,1,1.37-3.31,4.64,4.64,0,0,1,3.42-1.38h36.08V272H545.65a4.22,4.22,0,0,0-3,1.22,4,4,0,0,0-1.27,3v22.93a4,4,0,0,0,1.27,3,4.18,4.18,0,0,0,3,1.22H573v.51H545.65a4.48,4.48,0,0,1-4.28-2.55v3.06a7,7,0,0,0,4.28,1.53H573v.51H545.65a6.26,6.26,0,0,1-2.3-.41,9.74,9.74,0,0,1-2-1v2.25a8.72,8.72,0,0,0,4.28,1.12H573v.51H545.65a10.32,10.32,0,0,1-4.28-1v37.81h-.51V307.51a9.29,9.29,0,0,1-1.94-1.42v39.54h-.51V305.58a10.25,10.25,0,0,1-1.94-3.37Zm2.45-40.26a8.88,8.88,0,0,0,1.94,1.63v-2.44a6.56,6.56,0,0,1-1.94-2.76Z"/><path class="cls-2" d="M614.86,266.64a26.56,26.56,0,0,1,10.5,2.09,26.88,26.88,0,0,1,14.32,14.32,26.49,26.49,0,0,1,2.09,10.5v25.28a26.2,26.2,0,0,1-2.09,10.39,26.79,26.79,0,0,1-14.32,14.32,26.39,26.39,0,0,1-10.5,2.09h-3.77a26.08,26.08,0,0,1-10.4-2.09,26.79,26.79,0,0,1-14.32-14.32,26,26,0,0,1-2.09-10.39V293.55a26.32,26.32,0,0,1,2.09-10.5,26.88,26.88,0,0,1,14.32-14.32,26.25,26.25,0,0,1,10.4-2.09Zm26.4,26.91a25.56,25.56,0,0,0-2.09-10.3,26.72,26.72,0,0,0-14-14,25.48,25.48,0,0,0-10.29-2.09h-3.77a25.53,25.53,0,0,0-10.3,2.09,26.91,26.91,0,0,0-8.36,5.66,26.17,26.17,0,0,0-7.64,18.65v25.28a25.72,25.72,0,0,0,2,10.19,26.08,26.08,0,0,0,5.6,8.36,26.88,26.88,0,0,0,8.36,5.65,25.36,25.36,0,0,0,10.3,2.09h3.77A25.31,25.31,0,0,0,625.15,343a26.63,26.63,0,0,0,14-14,25.25,25.25,0,0,0,2.09-10.19Zm-26.4-24.47a23.68,23.68,0,0,1,9.48,1.94,24.54,24.54,0,0,1,13,13.05,23.68,23.68,0,0,1,1.94,9.48v25.28a23.57,23.57,0,0,1-1.94,9.53,24.31,24.31,0,0,1-5.25,7.69,25.14,25.14,0,0,1-7.79,5.2,23.68,23.68,0,0,1-9.48,1.94h-3.77a23.54,23.54,0,0,1-9.53-1.94,24.44,24.44,0,0,1-12.9-12.89,23.57,23.57,0,0,1-1.94-9.53V293.55a23.68,23.68,0,0,1,1.94-9.48,25.19,25.19,0,0,1,5.2-7.8,24.25,24.25,0,0,1,7.7-5.25,23.54,23.54,0,0,1,9.53-1.94Zm23.95,24.47a23.09,23.09,0,0,0-1.89-9.33,24.29,24.29,0,0,0-12.74-12.74,23,23,0,0,0-9.32-1.89h-3.77a23.16,23.16,0,0,0-9.28,1.89,23.61,23.61,0,0,0-7.59,5.15,24.83,24.83,0,0,0-5.1,7.59,23.09,23.09,0,0,0-1.89,9.33v25.28a23.15,23.15,0,0,0,1.89,9.27,23.66,23.66,0,0,0,12.69,12.69,23.16,23.16,0,0,0,9.28,1.89h3.77a23,23,0,0,0,9.32-1.89,24.79,24.79,0,0,0,7.6-5.09,23.62,23.62,0,0,0,5.14-7.6,23.15,23.15,0,0,0,1.89-9.27Zm-23.95-22a21.29,21.29,0,0,1,8.56,1.73,22,22,0,0,1,6.93,4.74,23.14,23.14,0,0,1,4.69,7,21.26,21.26,0,0,1,1.73,8.56v25.28a21.29,21.29,0,0,1-1.73,8.56A22.1,22.1,0,0,1,623.42,339a21.29,21.29,0,0,1-8.56,1.73h-3.77a21.31,21.31,0,0,1-8.57-1.73,22.1,22.1,0,0,1-11.62-11.62,21.29,21.29,0,0,1-1.73-8.56V293.55A21.26,21.26,0,0,1,590.9,285a23.14,23.14,0,0,1,4.69-7,22,22,0,0,1,6.93-4.74,21.31,21.31,0,0,1,8.57-1.73Zm21.4,22a20.92,20.92,0,0,0-1.68-8.31,22.17,22.17,0,0,0-4.59-6.88A21.2,21.2,0,0,0,614.86,272h-3.77a20.74,20.74,0,0,0-8.36,1.68,21.26,21.26,0,0,0-6.78,4.64,22.17,22.17,0,0,0-4.59,6.88,20.92,20.92,0,0,0-1.68,8.31v25.28a20.73,20.73,0,0,0,1.68,8.35,21.64,21.64,0,0,0,11.37,11.37,20.74,20.74,0,0,0,8.36,1.68h3.77a20.84,20.84,0,0,0,8.3-1.68,21.51,21.51,0,0,0,11.42-11.37,20.73,20.73,0,0,0,1.68-8.35Z"/><path class="cls-2" d="M693.44,345.63H657.36a9.2,9.2,0,0,1-3.77-.76,9.76,9.76,0,0,1-3-2,9.65,9.65,0,0,1-2-3.06,9.54,9.54,0,0,1-.76-3.82V266.64h.51V336a8.84,8.84,0,0,0,2.65,6.52,8.74,8.74,0,0,0,6.42,2.65h36.08Zm0-2.44H657.36a6.84,6.84,0,0,1-5.05-2.14,7.06,7.06,0,0,1-2.08-5.1V266.64h.51V336a6.51,6.51,0,0,0,1.93,4.79,6.4,6.4,0,0,0,4.69,1.94h36.08Zm0-2.45H657.36a4.54,4.54,0,0,1-3.31-1.37,4.64,4.64,0,0,1-1.38-3.42V266.64h.51V336a4.22,4.22,0,0,0,1.22,3,4,4,0,0,0,3,1.27h36.08Z"/><path class="cls-2" d="M701.8,345.94V267.05h.51v78.89Zm2.45,0V267.05h.51v78.89Zm2.55,0V267.05h.51v78.89Z"/><path class="cls-2" d="M746,266.64a26.53,26.53,0,0,1,10.5,2.09,26.88,26.88,0,0,1,14.32,14.32,26.49,26.49,0,0,1,2.09,10.5v25.28a26.2,26.2,0,0,1-2.09,10.39,26.79,26.79,0,0,1-14.32,14.32,26.35,26.35,0,0,1-10.5,2.09h-3.77a26.08,26.08,0,0,1-10.4-2.09,26.79,26.79,0,0,1-14.32-14.32,26.2,26.2,0,0,1-2.09-10.39V293.55a26.49,26.49,0,0,1,2.09-10.5,26.88,26.88,0,0,1,14.32-14.32,26.25,26.25,0,0,1,10.4-2.09Zm26.4,26.91a25.56,25.56,0,0,0-2.09-10.3,26.72,26.72,0,0,0-14-14A25.48,25.48,0,0,0,746,267.15h-3.77a25.56,25.56,0,0,0-10.3,2.09,26.91,26.91,0,0,0-8.36,5.66A26.17,26.17,0,0,0,716,293.55v25.28A25.72,25.72,0,0,0,718,329a26.24,26.24,0,0,0,5.6,8.36A26.88,26.88,0,0,0,732,343a25.39,25.39,0,0,0,10.3,2.09H746A25.31,25.31,0,0,0,756.33,343a26.63,26.63,0,0,0,14-14,25.25,25.25,0,0,0,2.09-10.19ZM746,269.08a23.68,23.68,0,0,1,9.48,1.94,24.8,24.8,0,0,1,7.8,5.25,25.15,25.15,0,0,1,5.25,7.8,23.67,23.67,0,0,1,1.93,9.48v25.28a23.57,23.57,0,0,1-1.93,9.53,24.65,24.65,0,0,1-5.25,7.69,25.19,25.19,0,0,1-7.8,5.2,23.68,23.68,0,0,1-9.48,1.94h-3.77a23.54,23.54,0,0,1-9.53-1.94,24.44,24.44,0,0,1-12.9-12.89,23.57,23.57,0,0,1-1.93-9.53V293.55a23.67,23.67,0,0,1,1.93-9.48,25.36,25.36,0,0,1,5.2-7.8,24.36,24.36,0,0,1,7.7-5.25,23.54,23.54,0,0,1,9.53-1.94Zm24,24.47a23.25,23.25,0,0,0-1.88-9.33,24.35,24.35,0,0,0-12.75-12.74,23,23,0,0,0-9.32-1.89h-3.77a23.2,23.2,0,0,0-9.28,1.89,23.61,23.61,0,0,0-7.59,5.15,24.83,24.83,0,0,0-5.1,7.59,23.08,23.08,0,0,0-1.88,9.33v25.28a23.14,23.14,0,0,0,1.88,9.27A23.66,23.66,0,0,0,733,340.79a23.2,23.2,0,0,0,9.28,1.89H746a23,23,0,0,0,9.32-1.89,24.79,24.79,0,0,0,7.6-5.09,23.81,23.81,0,0,0,5.15-7.6,23.31,23.31,0,0,0,1.88-9.27Zm-24-22a21.26,21.26,0,0,1,8.56,1.73,22,22,0,0,1,6.93,4.74,23.14,23.14,0,0,1,4.69,7,21.09,21.09,0,0,1,1.73,8.56v25.28a21.13,21.13,0,0,1-1.73,8.56A22.1,22.1,0,0,1,754.6,339a21.26,21.26,0,0,1-8.56,1.73h-3.77a21.26,21.26,0,0,1-8.56-1.73,22,22,0,0,1-11.62-11.62,21.13,21.13,0,0,1-1.74-8.56V293.55a21.1,21.1,0,0,1,1.74-8.56,22.93,22.93,0,0,1,4.68-7,21.94,21.94,0,0,1,6.94-4.74,21.26,21.26,0,0,1,8.56-1.73Zm21.4,22a20.92,20.92,0,0,0-1.68-8.31,22.32,22.32,0,0,0-4.58-6.88,21.25,21.25,0,0,0-6.83-4.64A20.92,20.92,0,0,0,746,272h-3.77a20.78,20.78,0,0,0-8.36,1.68,21.37,21.37,0,0,0-6.78,4.64,22.17,22.17,0,0,0-4.59,6.88,20.92,20.92,0,0,0-1.68,8.31v25.28a20.73,20.73,0,0,0,1.68,8.35,21.5,21.5,0,0,0,4.59,6.78,21.72,21.72,0,0,0,6.78,4.59,20.78,20.78,0,0,0,8.36,1.68H746a20.92,20.92,0,0,0,8.31-1.68,21.45,21.45,0,0,0,11.41-11.37,20.73,20.73,0,0,0,1.68-8.35Z"/><path class="cls-2" d="M342.69,367.88c.07-.11.27-.05.48.14s.3.43.23.54l-5.11,8.26a11.22,11.22,0,0,1,2.62-2,1,1,0,0,1,1,0l0,0a1.31,1.31,0,0,1,.5,1.05,3,3,0,0,1-.13.94c-.37,1.19-1.3,2.67-2.31,2.9a1.6,1.6,0,0,1-2.16-1.19c-1.1,1.09-1.92,2-1.94,2s-.28,0-.46-.16-.3-.43-.23-.54Zm-1.16,7.71a13.83,13.83,0,0,0-3.08,2.42c0,.25.07,1.23,1,1s1.78-1.62,2.1-2.74a3.42,3.42,0,0,0,.16-.77C341.66,375.52,341.6,375.57,341.53,375.59Zm.34-.14-.05,0c.05,0,.07,0,.05,0Z"/><path class="cls-2" d="M355.67,380.77a.77.77,0,0,1,.52.43c.12.2.09.36-.09.36a49.72,49.72,0,0,0-11,.05c-1.53,2.58-3.24,5.06-4,5.06a2.84,2.84,0,0,1-2.42-1.39,1.87,1.87,0,0,1-.18-1.48,2.86,2.86,0,0,1,1.11-1.35,11.76,11.76,0,0,1,4.86-1.62c.6-1,1.16-2,1.64-2.87a3.28,3.28,0,0,1-1.91,1.05,1.27,1.27,0,0,1-.53-.16,1.25,1.25,0,0,1-.7-1.12,2.19,2.19,0,0,1,.22-1,10.1,10.1,0,0,1,1.62-2.48c.1-.12.32,0,.51.16s.27.43.18.54a9.94,9.94,0,0,0-1.6,2.42c0,.09-.09.59.05.69,1.57.34,4.26-3.54,4.08-3.68v0c.09-.12.27-.05.48.13s.3.41.23.53l-.51.89,0,0s-1.16,2.26-2.55,4.7A51.39,51.39,0,0,1,355.67,380.77Zm-11.75,1.05a9.72,9.72,0,0,0-3.65,1.39,2.46,2.46,0,0,0-1,1.21,1.16,1.16,0,0,0,0,.89,1.73,1.73,0,0,0,1.35.57C341.25,385.88,342.6,384,343.92,381.82Z"/><path class="cls-2" d="M352.93,370.84c0,.14-.23.14-.43,0a.65.65,0,0,1-.3-.55,7.33,7.33,0,0,1,3.35-4.51,3.28,3.28,0,0,1,3.63.57c1.46,1.3.37,4.69-.64,7.84-.8,2.51-1.55,4.86-1.18,5.13,1.34,1.05,6.59-7.32,6.61-7.34s.3-.07.48.14a.58.58,0,0,1,.23.52c0,.09-4.72,12.29-2.42,13.43a1.33,1.33,0,0,0,.75.1c1.12-.14,2.47-1.33,3.88-3.15a39.35,39.35,0,0,0,3.19-5.06l-.07-.1a5.82,5.82,0,0,1-.95-2.21c-.8-3.62,1.5-10.95,3.69-15a11.44,11.44,0,0,1,1.53-2.24c.52-.52,1.05-.7,1.53-.41a2.71,2.71,0,0,1,1,2c.38,3.35-1.94,10.52-4.95,16.6-.25.53-.53,1-.78,1.53,1,.6,2.58.09,3.58-.41a11.06,11.06,0,0,0,2.72-2c.06-.09.29,0,.48.18s.27.43.2.53a10,10,0,0,1-2.76,2.25,4.26,4.26,0,0,1-4.47-.11,38.45,38.45,0,0,1-3.22,5.09c-1.46,1.87-2.85,3.1-4.06,3.23a1.82,1.82,0,0,1-1.09-.2c-2.35-1.14-.87-7.37.39-11.36-1.78,2.42-4.34,5.41-5.55,4.49s-.34-3.51.55-6.31,2-6.07,1.19-6.76a2.42,2.42,0,0,0-2.65,0A6.89,6.89,0,0,0,352.93,370.84Zm17.43,6.6c.25-.48.5-1,.73-1.49,3-6,5.31-13.11,4.92-16.37-.07-.62-.13-.92-.2-.94s-.46.09-.87.5a10.57,10.57,0,0,0-1.48,2.17c-2.17,3.95-4.45,11.15-3.65,14.64A4.71,4.71,0,0,0,370.36,377.44Z"/><path class="cls-2" d="M378,375.16c.09-.07.32,0,.5.22s.23.44.14.53a.66.66,0,0,0-.18.14,4.58,4.58,0,0,0-1.12,1.84,2.42,2.42,0,0,0-.16,1.37.63.63,0,0,0,.43,0,1.77,1.77,0,0,0,.69-.43,4.31,4.31,0,0,0,.89-1.21,4.67,4.67,0,0,0,.36-.94,3.2,3.2,0,0,1-.89-1.16,2.52,2.52,0,0,1-.23-1.12c.05-.32.19-.54.46-.59a1,1,0,0,1,.57.11,1.69,1.69,0,0,1,.71.78,2.7,2.7,0,0,1,.25.82,4,4,0,0,1,0,1,2.92,2.92,0,0,0,2.05-.27c.11-.07.23-.16.41,0s.14.37,0,.44a3,3,0,0,1-2.57.43,3.85,3.85,0,0,1-.44,1.14,4.5,4.5,0,0,1-.93,1.28,2.32,2.32,0,0,1-.78.48,1.17,1.17,0,0,1-.89-.09,1.74,1.74,0,0,1-.45-.37l-.14-.14a2.61,2.61,0,0,1-.09-2.16,4.74,4.74,0,0,1,1.19-2C377.88,375.27,378,375.2,378,375.16Zm1.67,1a4.42,4.42,0,0,0,0-1,2,2,0,0,0-.12-.5h0s-.09,0-.16,0-.2.13-.22.34a1.35,1.35,0,0,0,.13.71A1.24,1.24,0,0,0,379.69,376.14Z"/><path class="cls-2" d="M383.29,375.16c.09-.07.32,0,.5.22s.23.44.14.53a.66.66,0,0,0-.18.14,4.58,4.58,0,0,0-1.12,1.84,2.33,2.33,0,0,0-.16,1.37.63.63,0,0,0,.43,0,1.77,1.77,0,0,0,.69-.43,4.3,4.3,0,0,0,.88-1.21,4.71,4.71,0,0,0,.37-.94,3.2,3.2,0,0,1-.89-1.16,2.52,2.52,0,0,1-.23-1.12c0-.32.18-.54.46-.59a1,1,0,0,1,.57.11,1.69,1.69,0,0,1,.71.78,2.7,2.7,0,0,1,.25.82,4,4,0,0,1,0,1,2.92,2.92,0,0,0,2.05-.27c.11-.07.23-.16.41,0s.14.37,0,.44a3,3,0,0,1-2.57.43,4.15,4.15,0,0,1-.44,1.14,4.5,4.5,0,0,1-.93,1.28,2.32,2.32,0,0,1-.78.48,1.16,1.16,0,0,1-.89-.09,1.74,1.74,0,0,1-.45-.37,1.85,1.85,0,0,1-.14-.14,2.57,2.57,0,0,1-.09-2.16,4.83,4.83,0,0,1,1.18-2Zm1.66,1a3.55,3.55,0,0,0,0-1,1.7,1.7,0,0,0-.11-.5h0s-.09,0-.16,0-.2.13-.23.34a1.47,1.47,0,0,0,.14.71A1.21,1.21,0,0,0,385,376.14Z"/><path class="cls-2" d="M383.56,369.43c-.09.11-.73-.18-.91-.36s-.3-.44-.23-.55c2.24-3.2,9.22-4.79,13.07-4.5a3.75,3.75,0,0,1,2.51.87,1.23,1.23,0,0,1,.39.89c-.07,1-1.14,2.62-2.31,4.43-1.3,2.07-2.73,4.31-2.82,5.68,0,.41.09.93.73,1,2.64.16,7.23-4.38,10.28-7.3,1.69-1.62,2.94-2.83,3.4-2.69s.75.57.53,1.27-.6,1.65-1.21,3c-.37.86-.82,1.87-1.33,2.94.32-.11.62-.23.94-.32.11-.05.36.09.52.3s.19.43.05.47c-.71.23-1.39.51-2.1.78a85.87,85.87,0,0,1-5.36,9.6c-3,4.61-6.34,8.12-9,7.28l-.29-.09,0,0a4.18,4.18,0,0,1-1.82-1.43c-1.69-2.51.78-6.07,2.44-7.78,3.08-3.12,8.33-6.18,13.37-8.28.75-1.5,1.39-2.92,1.89-4.08s.78-1.85,1-2.44c-.55.45-1.37,1.25-2.33,2.16-3.1,3-7.61,7.3-10.4,7.14-1.55-.09-2.1-.89-2-2.05.09-1.46,1.55-3.74,2.9-5.84,1.12-1.75,2.17-3.4,2.24-4.26,0-.05,0,0,0-.05a3.36,3.36,0,0,0-1.74-.41C392,364.5,385.87,366.1,383.56,369.43ZM399,384.28a80.55,80.55,0,0,0,4.75-8.33,41,41,0,0,0-11.66,7.87c-1.25,1.3-4.31,4.81-3,6.78a2.48,2.48,0,0,0,1.09.79l0,0,.21.07C392.85,392.24,396,388.79,399,384.28Zm9-16.63s0,0-.05,0S408.08,367.67,408,367.65Z"/><path class="cls-2" d="M408.72,375.16c.09-.07.32,0,.5.22s.23.44.14.53a.66.66,0,0,0-.18.14,4.58,4.58,0,0,0-1.12,1.84,2.42,2.42,0,0,0-.16,1.37.63.63,0,0,0,.43,0,1.77,1.77,0,0,0,.69-.43,4.31,4.31,0,0,0,.89-1.21,4.67,4.67,0,0,0,.36-.94,3.2,3.2,0,0,1-.89-1.16,2.52,2.52,0,0,1-.23-1.12c.05-.32.19-.54.46-.59a1,1,0,0,1,.57.11,1.69,1.69,0,0,1,.71.78,2.7,2.7,0,0,1,.25.82,4,4,0,0,1,0,1,2.92,2.92,0,0,0,2.05-.27c.11-.07.23-.16.41,0s.14.37,0,.44a3,3,0,0,1-2.57.43,3.85,3.85,0,0,1-.44,1.14,4.5,4.5,0,0,1-.93,1.28,2.32,2.32,0,0,1-.78.48A1.17,1.17,0,0,1,408,380a1.74,1.74,0,0,1-.45-.37l-.14-.14a2.61,2.61,0,0,1-.09-2.16,4.74,4.74,0,0,1,1.19-2C408.58,375.27,408.65,375.2,408.72,375.16Zm1.67,1a4.42,4.42,0,0,0,0-1,2,2,0,0,0-.12-.5h0s-.09,0-.16,0-.2.13-.22.34a1.35,1.35,0,0,0,.13.71A1.24,1.24,0,0,0,410.39,376.14Z"/><path class="cls-2" d="M413.87,375c.07-.12.3-.07.48.11s.3.43.23.55l-.57,1c1.23-1,2.58-2,3.08-1.89h.05a.86.86,0,0,1,.64,1.21,6.75,6.75,0,0,1-.39.89l-.64,1.25c.73.48,3.19-1.68,3.22-1.68s.31-.39.5-.19.07.23,0,.34-2.48,2.95-3.67,2.17c-1-.66-.52-1.66-.09-2.55.09-.18.18-.37.25-.55a33.54,33.54,0,0,0-4.42,3.67c-.07.09-.28,0-.46-.14s-.3-.43-.23-.54Z"/><path class="cls-2" d="M432,380.77a.77.77,0,0,1,.52.43c.11.2.09.36-.09.36a49.71,49.71,0,0,0-11,.05c-1.53,2.58-3.24,5.06-4,5.06a2.83,2.83,0,0,1-2.41-1.39,1.87,1.87,0,0,1-.19-1.48,2.89,2.89,0,0,1,1.12-1.35,11.76,11.76,0,0,1,4.86-1.62c.5-.84,1.3-2.3,1.73-3.07a4.42,4.42,0,0,1-2.67,1.3c-.82-.19-1-.57-.84-1.28.3-1.58,2.78-3.65,4.24-1.85.5-.59.85-1.05.85-1.05s.27,0,.45.12.3.43.25.54l-.25.44,0,0s-1.16,2.26-2.55,4.7A51.39,51.39,0,0,1,432,380.77Zm-11.75,1.05a9.65,9.65,0,0,0-3.65,1.39,2.54,2.54,0,0,0-1,1.21,1.15,1.15,0,0,0,.05.89,1.71,1.71,0,0,0,1.34.57C417.57,385.88,418.92,384,420.24,381.82Zm2.71-5.5c-1-1.35-4,2.19-2.89,2.26A4.65,4.65,0,0,0,423,376.32Z"/><path class="cls-2" d="M459.83,362.41c0,.16-.22.16-.43,0a1.49,1.49,0,0,1-.27-.35l-6.78,12.09,2-.11c.14,0,.39.16.52.36s.12.41,0,.44l-3,.16-5.52,9.83a29.47,29.47,0,0,1-1.48,2.66c-.07.12-.27.05-.48-.11s-.29-.43-.23-.55c.51-.89,1-1.78,1.49-2.67a20.84,20.84,0,0,0,2.48-9c-2.16.09-4.79.18-7.8.22L437.44,380c-.07.09-.3.05-.48-.14s-.3-.43-.23-.54l2.46-3.9c-1.82,0-3.76.06-5.84.06-3.6,0-5.86-.82-6.91-2a2.64,2.64,0,0,1-.73-2.12,3.63,3.63,0,0,1,1-1.94c1.67-1.87,5.36-3.54,10.45-3.72a13.7,13.7,0,0,1,7.23,1.51l3.1-4.89c.07-.11.28,0,.48.14s.3.43.23.55l-3,4.72a8.58,8.58,0,0,1,2.6,3,9.9,9.9,0,0,1,1.05,3.62c.91,0,1.71-.09,2.42-.11l8.21-14.67c0-.11.22-.11.41.05a.73.73,0,0,1,.34.55Zm-20.14,12.2,4.38-6.94a13.11,13.11,0,0,0-6.45-1.18c-5,.18-8.62,1.8-10.24,3.62a3.34,3.34,0,0,0-.91,1.78,1.56,1.56,0,0,0,.34,1.28c.8.91,2.73,1.53,6.09,1.53C435.34,374.68,437.62,374.65,439.69,374.61Zm5.2-6.46-4.06,6.43c2.83-.06,5.27-.15,7.28-.22a9.13,9.13,0,0,0-1-3.72A6.74,6.74,0,0,0,444.89,368.15Zm3.56,11,2.31-4.11-1.9.07A15.62,15.62,0,0,1,448.45,379.17Z"/><path class="cls-2" d="M460.18,375.89c.09.22,0,.36-.16.31a.85.85,0,0,1-.5-.45c-.46-.44-1.58.09-2,.43a4.48,4.48,0,0,0-1.57,2.56c.8-.23,2.87-2.65,2.87-2.65s.3,0,.5.18.25.39.19.5a2.35,2.35,0,0,0-.19,1.35c.09.55,3.06-1.94,3.1-2a.3.3,0,0,1,.46,0c.18.2.16.38.07.47a21,21,0,0,1-3,2.47c-1.05.55-1.85.23-1.83-.89-.82.77-1.66,1.48-2.16,1.25a1.38,1.38,0,0,1-.46-.34,1.22,1.22,0,0,1-.27-1,2.45,2.45,0,0,1,.25-.86,5.49,5.49,0,0,1,1.41-1.83C457.92,374.61,459.79,374.56,460.18,375.89Z"/><circle class="cls-2" cx="418.9" cy="134.61" r="10.89"/><circle class="cls-2" cx="362.32" cy="131.22" r="10.89"/><circle class="cls-2" cx="246.29" cy="126.89" r="10.89"/><circle class="cls-2" cx="305.75" cy="128.38" r="10.89"/><circle class="cls-2" cx="186.83" cy="132.63" r="10.89"/><circle class="cls-2" cx="152.42" cy="182.26" r="10.89"/><circle class="cls-2" cx="172.55" cy="246.64" r="10.89"/><circle class="cls-2" cx="202.45" cy="296.86" r="10.89"/><circle class="cls-2" cx="237.22" cy="352.37" r="10.89"/><circle class="cls-2" cx="269.56" cy="404.24" r="10.89"/><circle class="cls-2" cx="298.42" cy="453.83" r="10.89"/><circle class="cls-2" cx="334.01" cy="501.55" r="10.89"/><circle class="cls-2" cx="384.93" cy="512.44" r="10.89"/><circle class="cls-2" cx="439.32" cy="512.44" r="10.89"/><circle class="cls-2" cx="492.79" cy="510.85" r="10.89"/><circle class="cls-2" cx="542.64" cy="510.85" r="10.89"/><rect class="cls-3" width="905.8" height="683.22"/></g></g></svg>