<svg xmlns="http://www.w3.org/2000/svg" viewBox="0 0 596.42 1397.17"><defs><style>.cls-1{fill:#5f8ab5;}.cls-2{fill:#fff;}</style></defs><g id="Layer_2" data-name="Layer 2"><g id="Layer_1-2" data-name="Layer 1"><rect class="cls-1" y="1347.17" width="50" height="50"/><rect class="cls-2" x="50" y="1347.17" width="50" height="50"/><rect class="cls-1" x="99.28" y="1347.17" width="50" height="50"/><rect class="cls-2" x="149.28" y="1347.17" width="50" height="50"/><rect class="cls-1" x="198.57" y="1347.17" width="50" height="50"/><rect class="cls-2" x="248.57" y="1347.17" width="50" height="50"/><rect class="cls-1" x="297.85" y="1347.17" width="50" height="50"/><rect class="cls-2" x="347.85" y="1347.17" width="50" height="50"/><rect class="cls-1" x="397.14" y="1347.17" width="50" height="50"/><rect class="cls-2" x="447.14" y="1347.17" width="50" height="50"/><rect class="cls-1" x="496.42" y="1347.17" width="50" height="50"/><rect class="cls-2" x="546.42" y="1347.17" width="50" height="50"/><rect class="cls-1" x="546.42" y="1297.17" width="50" height="50" transform="translate(1142.85 2644.35) rotate(-180)"/><rect class="cls-2" x="496.42" y="1297.17" width="50" height="50" transform="translate(1042.85 2644.35) rotate(-180)"/><rect class="cls-1" x="447.14" y="1297.17" width="50" height="50" transform="translate(944.28 2644.35) rotate(-180)"/><rect class="cls-2" x="397.14" y="1297.17" width="50" height="50" transform="translate(844.28 2644.35) rotate(-180)"/><rect class="cls-1" x="347.85" y="1297.17" width="50" height="50" transform="translate(745.71 2644.35) rotate(-180)"/><rect class="cls-2" x="297.85" y="1297.17" width="50" height="50" transform="translate(645.71 2644.35) rotate(-180)"/><rect class="cls-1" x="248.57" y="1297.17" width="50" height="50" transform="translate(547.14 2644.35) rotate(-180)"/><rect class="cls-2" x="198.57" y="1297.17" width="50" height="50" transform="translate(447.14 2644.35) rotate(-180)"/><rect class="cls-1" x="149.28" y="1297.17" width="50" height="50" transform="translate(348.57 2644.35) rotate(-180)"/><rect class="cls-2" x="99.28" y="1297.17" width="50" height="50" transform="translate(248.57 2644.35) rotate(-180)"/><rect class="cls-1" x="50" y="1297.17" width="50" height="50" transform="translate(150 2644.35) rotate(-180)"/><rect class="cls-2" y="1297.17" width="50" height="50" transform="translate(50 2644.35) rotate(-180)"/><rect class="cls-1" y="1247.39" width="50" height="50"/><rect class="cls-2" x="50" y="1247.39" width="50" height="50"/><rect class="cls-1" x="99.28" y="1247.39" width="50" height="50"/><rect class="cls-2" x="149.28" y="1247.39" width="50" height="50"/><rect class="cls-1" x="198.57" y="1247.39" width="50" height="50"/><rect class="cls-2" x="248.57" y="1247.39" width="50" height="50"/><rect class="cls-1" x="297.85" y="1247.39" width="50" height="50"/><rect class="cls-2" x="347.85" y="1247.39" width="50" height="50"/><rect class="cls-1" x="397.14" y="1247.39" width="50" height="50"/><rect class="cls-2" x="447.14" y="1247.39" width="50" height="50"/><rect class="cls-1" x="496.42" y="1247.39" width="50" height="50"/><rect class="cls-2" x="546.42" y="1247.39" width="50" height="50"/><rect class="cls-1" x="546.42" y="1197.39" width="50" height="50" transform="translate(1142.85 2444.78) rotate(-180)"/><rect class="cls-2" x="496.42" y="1197.39" width="50" height="50" transform="translate(1042.85 2444.78) rotate(-180)"/><rect class="cls-1" x="447.14" y="1197.39" width="50" height="50" transform="translate(944.28 2444.78) rotate(-180)"/><rect class="cls-2" x="397.14" y="1197.39" width="50" height="50" transform="translate(844.28 2444.78) rotate(-180)"/><rect class="cls-1" x="347.85" y="1197.39" width="50" height="50" transform="translate(745.71 2444.78) rotate(-180)"/><rect class="cls-2" x="297.85" y="1197.39" width="50" height="50" transform="translate(645.71 2444.78) rotate(-180)"/><rect class="cls-1" x="248.57" y="1197.39" width="50" height="50" transform="translate(547.14 2444.78) rotate(-180)"/><rect class="cls-2" x="198.57" y="1197.39" width="50" height="50" transform="translate(447.14 2444.78) rotate(-180)"/><rect class="cls-1" x="149.28" y="1197.39" width="50" height="50" transform="translate(348.57 2444.78) rotate(-180)"/><rect class="cls-2" x="99.28" y="1197.39" width="50" height="50" transform="translate(248.57 2444.78) rotate(-180)"/><rect class="cls-1" x="50" y="1197.39" width="50" height="50" transform="translate(150 2444.78) rotate(-180)"/><rect class="cls-2" y="1197.39" width="50" height="50" transform="translate(50 2444.78) rotate(-180)"/><rect class="cls-1" y="1147.61" width="50" height="50"/><rect class="cls-2" x="50" y="1147.61" width="50" height="50"/><rect class="cls-1" x="99.28" y="1147.61" width="50" height="50"/><rect class="cls-2" x="149.28" y="1147.61" width="50" height="50"/><rect class="cls-1" x="198.57" y="1147.61" width="50" height="50"/><rect class="cls-2" x="248.57" y="1147.61" width="50" height="50"/><rect class="cls-1" x="297.85" y="1147.61" width="50" height="50"/><rect class="cls-2" x="347.85" y="1147.61" width="50" height="50"/><rect class="cls-1" x="397.14" y="1147.61" width="50" height="50"/><rect class="cls-2" x="447.14" y="1147.61" width="50" height="50"/><rect class="cls-1" x="496.42" y="1147.61" width="50" height="50"/><rect class="cls-2" x="546.42" y="1147.61" width="50" height="50"/><rect class="cls-1" x="546.42" y="1097.61" width="50" height="50" transform="translate(1142.85 2245.22) rotate(-180)"/><rect class="cls-2" x="496.42" y="1097.61" width="50" height="50" transform="translate(1042.85 2245.22) rotate(-180)"/><rect class="cls-1" x="447.14" y="1097.61" width="50" height="50" transform="translate(944.28 2245.22) rotate(-180)"/><rect class="cls-2" x="397.14" y="1097.61" width="50" height="50" transform="translate(844.28 2245.22) rotate(-180)"/><rect class="cls-1" x="347.85" y="1097.61" width="50" height="50" transform="translate(745.71 2245.22) rotate(-180)"/><rect class="cls-2" x="297.85" y="1097.61" width="50" height="50" transform="translate(645.71 2245.22) rotate(-180)"/><rect class="cls-1" x="248.57" y="1097.61" width="50" height="50" transform="translate(547.14 2245.22) rotate(-180)"/><rect class="cls-2" x="198.57" y="1097.61" width="50" height="50" transform="translate(447.14 2245.22) rotate(-180)"/><rect class="cls-1" x="149.28" y="1097.61" width="50" height="50" transform="translate(348.57 2245.22) rotate(-180)"/><rect class="cls-2" x="99.28" y="1097.61" width="50" height="50" transform="translate(248.57 2245.22) rotate(-180)"/><rect class="cls-1" x="50" y="1097.61" width="50" height="50" transform="translate(150 2245.22) rotate(-180)"/><rect class="cls-2" y="1097.61" width="50" height="50" transform="translate(50 2245.22) rotate(-180)"/><rect class="cls-1" y="1047.83" width="50" height="50"/><rect class="cls-2" x="50" y="1047.83" width="50" height="50"/><rect class="cls-1" x="99.28" y="1047.83" width="50" height="50"/><rect class="cls-2" x="149.28" y="1047.83" width="50" height="50"/><rect class="cls-1" x="198.57" y="1047.83" width="50" height="50"/><rect class="cls-2" x="248.57" y="1047.83" width="50" height="50"/><rect class="cls-1" x="297.85" y="1047.83" width="50" height="50"/><rect class="cls-2" x="347.85" y="1047.83" width="50" height="50"/><rect class="cls-1" x="397.14" y="1047.83" width="50" height="50"/><rect class="cls-2" x="447.14" y="1047.83" width="50" height="50"/><rect class="cls-1" x="496.42" y="1047.83" width="50" height="50"/><rect class="cls-2" x="546.42" y="1047.83" width="50" height="50"/><rect class="cls-1" x="546.42" y="997.83" width="50" height="50" transform="translate(1142.85 2045.65) rotate(-180)"/><rect class="cls-2" x="496.42" y="997.83" width="50" height="50" transform="translate(1042.85 2045.65) rotate(-180)"/><rect class="cls-1" x="447.14" y="997.83" width="50" height="50" transform="translate(944.28 2045.65) rotate(-180)"/><rect class="cls-2" x="397.14" y="997.83" width="50" height="50" transform="translate(844.28 2045.65) rotate(-180)"/><rect class="cls-1" x="347.85" y="997.83" width="50" height="50" transform="translate(745.71 2045.65) rotate(-180)"/><rect class="cls-2" x="297.85" y="997.83" width="50" height="50" transform="translate(645.71 2045.65) rotate(-180)"/><rect class="cls-1" x="248.57" y="997.83" width="50" height="50" transform="translate(547.14 2045.65) rotate(-180)"/><rect class="cls-2" x="198.57" y="997.83" width="50" height="50" transform="translate(447.14 2045.65) rotate(-180)"/><rect class="cls-1" x="149.28" y="997.83" width="50" height="50" transform="translate(348.57 2045.65) rotate(-180)"/><rect class="cls-2" x="99.28" y="997.83" width="50" height="50" transform="translate(248.57 2045.65) rotate(-180)"/><rect class="cls-1" x="50" y="997.83" width="50" height="50" transform="translate(150 2045.65) rotate(-180)"/><rect class="cls-2" y="997.83" width="50" height="50" transform="translate(50 2045.65) rotate(-180)"/><rect class="cls-1" y="948.04" width="50" height="50"/><rect class="cls-2" x="50" y="948.04" width="50" height="50"/><rect class="cls-1" x="99.28" y="948.04" width="50" height="50"/><rect class="cls-2" x="149.28" y="948.04" width="50" height="50"/><rect class="cls-1" x="198.57" y="948.04" width="50" height="50"/><rect class="cls-2" x="248.57" y="948.04" width="50" height="50"/><rect class="cls-1" x="297.85" y="948.04" width="50" height="50"/><rect class="cls-2" x="347.85" y="948.04" width="50" height="50"/><rect class="cls-1" x="397.14" y="948.04" width="50" height="50"/><rect class="cls-2" x="447.14" y="948.04" width="50" height="50"/><rect class="cls-1" x="496.42" y="948.04" width="50" height="50"/><rect class="cls-2" x="546.42" y="948.04" width="50" height="50"/><rect class="cls-1" x="546.42" y="898.04" width="50" height="50" transform="translate(1142.85 1846.09) rotate(-180)"/><rect class="cls-2" x="496.42" y="898.04" width="50" height="50" transform="translate(1042.85 1846.09) rotate(-180)"/><rect class="cls-1" x="447.14" y="898.04" width="50" height="50" transform="translate(944.28 1846.09) rotate(-180)"/><rect class="cls-2" x="397.14" y="898.04" width="50" height="50" transform="translate(844.28 1846.09) rotate(-180)"/><rect class="cls-1" x="347.85" y="898.04" width="50" height="50" transform="translate(745.71 1846.09) rotate(-180)"/><rect class="cls-2" x="297.85" y="898.04" width="50" height="50" transform="translate(645.71 1846.09) rotate(-180)"/><rect class="cls-1" x="248.57" y="898.04" width="50" height="50" transform="translate(547.14 1846.09) rotate(-180)"/><rect class="cls-2" x="198.57" y="898.04" width="50" height="50" transform="translate(447.14 1846.09) rotate(-180)"/><rect class="cls-1" x="149.28" y="898.04" width="50" height="50" transform="translate(348.57 1846.09) rotate(-180)"/><rect class="cls-2" x="99.28" y="898.04" width="50" height="50" transform="translate(248.57 1846.09) rotate(-180)"/><rect class="cls-1" x="50" y="898.04" width="50" height="50" transform="translate(150 1846.09) rotate(-180)"/><rect class="cls-2" y="898.04" width="50" height="50" transform="translate(50 1846.09) rotate(-180)"/><rect class="cls-1" y="848.26" width="50" height="50"/><rect class="cls-2" x="50" y="848.26" width="50" height="50"/><rect class="cls-1" x="99.28" y="848.26" width="50" height="50"/><rect class="cls-2" x="149.28" y="848.26" width="50" height="50"/><rect class="cls-1" x="198.57" y="848.26" width="50" height="50"/><rect class="cls-2" x="248.57" y="848.26" width="50" height="50"/><rect class="cls-1" x="297.85" y="848.26" width="50" height="50"/><rect class="cls-2" x="347.85" y="848.26" width="50" height="50"/><rect class="cls-1" x="397.14" y="848.26" width="50" height="50"/><rect class="cls-2" x="447.14" y="848.26" width="50" height="50"/><rect class="cls-1" x="496.42" y="848.26" width="50" height="50"/><rect class="cls-2" x="546.42" y="848.26" width="50" height="50"/><rect class="cls-1" x="546.42" y="798.26" width="50" height="50" transform="translate(1142.85 1646.52) rotate(-180)"/><rect class="cls-2" x="496.42" y="798.26" width="50" height="50" transform="translate(1042.85 1646.52) rotate(-180)"/><rect class="cls-1" x="447.14" y="798.26" width="50" height="50" transform="translate(944.28 1646.52) rotate(-180)"/><rect class="cls-2" x="397.14" y="798.26" width="50" height="50" transform="translate(844.28 1646.52) rotate(-180)"/><rect class="cls-1" x="347.85" y="798.26" width="50" height="50" transform="translate(745.71 1646.52) rotate(-180)"/><rect class="cls-2" x="297.85" y="798.26" width="50" height="50" transform="translate(645.71 1646.52) rotate(-180)"/><rect class="cls-1" x="248.57" y="798.26" width="50" height="50" transform="translate(547.14 1646.52) rotate(-180)"/><rect class="cls-2" x="198.57" y="798.26" width="50" height="50" transform="translate(447.14 1646.52) rotate(-180)"/><rect class="cls-1" x="149.28" y="798.26" width="50" height="50" transform="translate(348.57 1646.52) rotate(-180)"/><rect class="cls-2" x="99.28" y="798.26" width="50" height="50" transform="translate(248.57 1646.52) rotate(-180)"/><rect class="cls-1" x="50" y="798.26" width="50" height="50" transform="translate(150 1646.52) rotate(-180)"/><rect class="cls-2" y="798.26" width="50" height="50" transform="translate(50 1646.52) rotate(-180)"/><rect class="cls-1" y="748.48" width="50" height="50"/><rect class="cls-2" x="50" y="748.48" width="50" height="50"/><rect class="cls-1" x="99.28" y="748.48" width="50" height="50"/><rect class="cls-2" x="149.28" y="748.48" width="50" height="50"/><rect class="cls-1" x="198.57" y="748.48" width="50" height="50"/><rect class="cls-2" x="248.57" y="748.48" width="50" height="50"/><rect class="cls-1" x="297.85" y="748.48" width="50" height="50"/><rect class="cls-2" x="347.85" y="748.48" width="50" height="50"/><rect class="cls-1" x="397.14" y="748.48" width="50" height="50"/><rect class="cls-2" x="447.14" y="748.48" width="50" height="50"/><rect class="cls-1" x="496.42" y="748.48" width="50" height="50"/><rect class="cls-2" x="546.42" y="748.48" width="50" height="50"/><rect class="cls-1" x="546.42" y="698.48" width="50" height="50" transform="translate(1142.85 1446.96) rotate(-180)"/><rect class="cls-2" x="496.42" y="698.48" width="50" height="50" transform="translate(1042.85 1446.96) rotate(-180)"/><rect class="cls-1" x="447.14" y="698.48" width="50" height="50" transform="translate(944.28 1446.96) rotate(-180)"/><rect class="cls-2" x="397.14" y="698.48" width="50" height="50" transform="translate(844.28 1446.96) rotate(-180)"/><rect class="cls-1" x="347.85" y="698.48" width="50" height="50" transform="translate(745.71 1446.96) rotate(-180)"/><rect class="cls-2" x="297.85" y="698.48" width="50" height="50" transform="translate(645.71 1446.96) rotate(-180)"/><rect class="cls-1" x="248.57" y="698.48" width="50" height="50" transform="translate(547.14 1446.96) rotate(-180)"/><rect class="cls-2" x="198.57" y="698.48" width="50" height="50" transform="translate(447.14 1446.96) rotate(-180)"/><rect class="cls-1" x="149.28" y="698.48" width="50" height="50" transform="translate(348.57 1446.96) rotate(-180)"/><rect class="cls-2" x="99.28" y="698.48" width="50" height="50" transform="translate(248.57 1446.96) rotate(-180)"/><rect class="cls-1" x="50" y="698.48" width="50" height="50" transform="translate(150 1446.96) rotate(-180)"/><rect class="cls-2" y="698.48" width="50" height="50" transform="translate(50 1446.96) rotate(-180)"/><rect class="cls-1" y="648.7" width="50" height="50"/><rect class="cls-2" x="50" y="648.7" width="50" height="50"/><rect class="cls-1" x="99.28" y="648.7" width="50" height="50"/><rect class="cls-2" x="149.28" y="648.7" width="50" height="50"/><rect class="cls-1" x="198.57" y="648.7" width="50" height="50"/><rect class="cls-2" x="248.57" y="648.7" width="50" height="50"/><rect class="cls-1" x="297.85" y="648.7" width="50" height="50"/><rect class="cls-2" x="347.85" y="648.7" width="50" height="50"/><rect class="cls-1" x="397.14" y="648.7" width="50" height="50"/><rect class="cls-2" x="447.14" y="648.7" width="50" height="50"/><rect class="cls-1" x="496.42" y="648.7" width="50" height="50"/><rect class="cls-2" x="546.42" y="648.7" width="50" height="50"/><rect class="cls-1" x="546.42" y="598.7" width="50" height="50" transform="translate(1142.85 1247.39) rotate(-180)"/><rect class="cls-2" x="496.42" y="598.7" width="50" height="50" transform="translate(1042.85 1247.39) rotate(-180)"/><rect class="cls-1" x="447.14" y="598.7" width="50" height="50" transform="translate(944.28 1247.39) rotate(-180)"/><rect class="cls-2" x="397.14" y="598.7" width="50" height="50" transform="translate(844.28 1247.39) rotate(-180)"/><rect class="cls-1" x="347.85" y="598.7" width="50" height="50" transform="translate(745.71 1247.39) rotate(-180)"/><rect class="cls-2" x="297.85" y="598.7" width="50" height="50" transform="translate(645.71 1247.39) rotate(-180)"/><rect class="cls-1" x="248.57" y="598.7" width="50" height="50" transform="translate(547.14 1247.39) rotate(-180)"/><rect class="cls-2" x="198.57" y="598.7" width="50" height="50" transform="translate(447.14 1247.39) rotate(-180)"/><rect class="cls-1" x="149.28" y="598.7" width="50" height="50" transform="translate(348.57 1247.39) rotate(-180)"/><rect class="cls-2" x="99.28" y="598.7" width="50" height="50" transform="translate(248.57 1247.39) rotate(-180)"/><rect class="cls-1" x="50" y="598.7" width="50" height="50" transform="translate(150 1247.39) rotate(-180)"/><rect class="cls-2" y="598.7" width="50" height="50" transform="translate(50 1247.39) rotate(-180)"/><rect class="cls-1" y="548.91" width="50" height="50"/><rect class="cls-2" x="50" y="548.91" width="50" height="50"/><rect class="cls-1" x="99.28" y="548.91" width="50" height="50"/><rect class="cls-2" x="149.28" y="548.91" width="50" height="50"/><rect class="cls-1" x="198.57" y="548.91" width="50" height="50"/><rect class="cls-2" x="248.57" y="548.91" width="50" height="50"/><rect class="cls-1" x="297.85" y="548.91" width="50" height="50"/><rect class="cls-2" x="347.85" y="548.91" width="50" height="50"/><rect class="cls-1" x="397.14" y="548.91" width="50" height="50"/><rect class="cls-2" x="447.14" y="548.91" width="50" height="50"/><rect class="cls-1" x="496.42" y="548.91" width="50" height="50"/><rect class="cls-2" x="546.42" y="548.91" width="50" height="50"/><rect class="cls-1" x="546.42" y="498.91" width="50" height="50" transform="translate(1142.85 1047.83) rotate(-180)"/><rect class="cls-2" x="496.42" y="498.91" width="50" height="50" transform="translate(1042.85 1047.83) rotate(-180)"/><rect class="cls-1" x="447.14" y="498.91" width="50" height="50" transform="translate(944.28 1047.83) rotate(-180)"/><rect class="cls-2" x="397.14" y="498.91" width="50" height="50" transform="translate(844.28 1047.83) rotate(-180)"/><rect class="cls-1" x="347.85" y="498.91" width="50" height="50" transform="translate(745.71 1047.83) rotate(-180)"/><rect class="cls-2" x="297.85" y="498.91" width="50" height="50" transform="translate(645.71 1047.83) rotate(-180)"/><rect class="cls-1" x="248.57" y="498.91" width="50" height="50" transform="translate(547.14 1047.83) rotate(-180)"/><rect class="cls-2" x="198.57" y="498.91" width="50" height="50" transform="translate(447.14 1047.83) rotate(-180)"/><rect class="cls-1" x="149.28" y="498.91" width="50" height="50" transform="translate(348.57 1047.83) rotate(-180)"/><rect class="cls-2" x="99.28" y="498.91" width="50" height="50" transform="translate(248.57 1047.83) rotate(-180)"/><rect class="cls-1" x="50" y="498.91" width="50" height="50" transform="translate(150 1047.83) rotate(-180)"/><rect class="cls-2" y="498.91" width="50" height="50" transform="translate(50 1047.83) rotate(-180)"/><rect class="cls-1" y="449.13" width="50" height="50"/><rect class="cls-2" x="50" y="449.13" width="50" height="50"/><rect class="cls-1" x="99.28" y="449.13" width="50" height="50"/><rect class="cls-2" x="149.28" y="449.13" width="50" height="50"/><rect class="cls-1" x="198.57" y="449.13" width="50" height="50"/><rect class="cls-2" x="248.57" y="449.13" width="50" height="50"/><rect class="cls-1" x="297.85" y="449.13" width="50" height="50"/><rect class="cls-2" x="347.85" y="449.13" width="50" height="50"/><rect class="cls-1" x="397.14" y="449.13" width="50" height="50"/><rect class="cls-2" x="447.14" y="449.13" width="50" height="50"/><rect class="cls-1" x="496.42" y="449.13" width="50" height="50"/><rect class="cls-2" x="546.42" y="449.13" width="50" height="50"/><rect class="cls-1" x="546.42" y="399.13" width="50" height="50" transform="translate(1142.85 848.26) rotate(-180)"/><rect class="cls-2" x="496.42" y="399.13" width="50" height="50" transform="translate(1042.85 848.26) rotate(-180)"/><rect class="cls-1" x="447.14" y="399.13" width="50" height="50" transform="translate(944.28 848.26) rotate(-180)"/><rect class="cls-2" x="397.14" y="399.13" width="50" height="50" transform="translate(844.28 848.26) rotate(-180)"/><rect class="cls-1" x="347.85" y="399.13" width="50" height="50" transform="translate(745.71 848.26) rotate(-180)"/><rect class="cls-2" x="297.85" y="399.13" width="50" height="50" transform="translate(645.71 848.26) rotate(-180)"/><rect class="cls-1" x="248.57" y="399.13" width="50" height="50" transform="translate(547.14 848.26) rotate(-180)"/><rect class="cls-2" x="198.57" y="399.13" width="50" height="50" transform="translate(447.14 848.26) rotate(-180)"/><rect class="cls-1" x="149.28" y="399.13" width="50" height="50" transform="translate(348.57 848.26) rotate(-180)"/><rect class="cls-2" x="99.28" y="399.13" width="50" height="50" transform="translate(248.57 848.26) rotate(-180)"/><rect class="cls-1" x="50" y="399.13" width="50" height="50" transform="translate(150 848.26) rotate(-180)"/><rect class="cls-2" y="399.13" width="50" height="50" transform="translate(50 848.26) rotate(-180)"/><rect class="cls-1" y="349.35" width="50" height="50"/><rect class="cls-2" x="50" y="349.35" width="50" height="50"/><rect class="cls-1" x="99.28" y="349.35" width="50" height="50"/><rect class="cls-2" x="149.28" y="349.35" width="50" height="50"/><rect class="cls-1" x="198.57" y="349.35" width="50" height="50"/><rect class="cls-2" x="248.57" y="349.35" width="50" height="50"/><rect class="cls-1" x="297.85" y="349.35" width="50" height="50"/><rect class="cls-2" x="347.85" y="349.35" width="50" height="50"/><rect class="cls-1" x="397.14" y="349.35" width="50" height="50"/><rect class="cls-2" x="447.14" y="349.35" width="50" height="50"/><rect class="cls-1" x="496.42" y="349.35" width="50" height="50"/><rect class="cls-2" x="546.42" y="349.35" width="50" height="50"/><rect class="cls-1" x="546.42" y="299.35" width="50" height="50" transform="translate(1142.85 648.7) rotate(-180)"/><rect class="cls-2" x="496.42" y="299.35" width="50" height="50" transform="translate(1042.85 648.7) rotate(-180)"/><rect class="cls-1" x="447.14" y="299.35" width="50" height="50" transform="translate(944.28 648.7) rotate(-180)"/><rect class="cls-2" x="397.14" y="299.35" width="50" height="50" transform="translate(844.28 648.7) rotate(-180)"/><rect class="cls-1" x="347.85" y="299.35" width="50" height="50" transform="translate(745.71 648.7) rotate(-180)"/><rect class="cls-2" x="297.85" y="299.35" width="50" height="50" transform="translate(645.71 648.7) rotate(-180)"/><rect class="cls-1" x="248.57" y="299.35" width="50" height="50" transform="translate(547.14 648.7) rotate(-180)"/><rect class="cls-2" x="198.57" y="299.35" width="50" height="50" transform="translate(447.14 648.7) rotate(-180)"/><rect class="cls-1" x="149.28" y="299.35" width="50" height="50" transform="translate(348.57 648.7) rotate(-180)"/><rect class="cls-2" x="99.28" y="299.35" width="50" height="50" transform="translate(248.57 648.7) rotate(-180)"/><rect class="cls-1" x="50" y="299.35" width="50" height="50" transform="translate(150 648.7) rotate(-180)"/><rect class="cls-2" y="299.35" width="50" height="50" transform="translate(50 648.7) rotate(-180)"/><rect class="cls-1" y="249.57" width="50" height="50"/><rect class="cls-2" x="50" y="249.57" width="50" height="50"/><rect class="cls-1" x="99.28" y="249.57" width="50" height="50"/><rect class="cls-2" x="149.28" y="249.57" width="50" height="50"/><rect class="cls-1" x="198.57" y="249.57" width="50" height="50"/><rect class="cls-2" x="248.57" y="249.57" width="50" height="50"/><rect class="cls-1" x="297.85" y="249.57" width="50" height="50"/><rect class="cls-2" x="347.85" y="249.57" width="50" height="50"/><rect class="cls-1" x="397.14" y="249.57" width="50" height="50"/><rect class="cls-2" x="447.14" y="249.57" width="50" height="50"/><rect class="cls-1" x="496.42" y="249.57" width="50" height="50"/><rect class="cls-2" x="546.42" y="249.57" width="50" height="50"/><rect class="cls-1" x="546.42" y="199.57" width="50" height="50" transform="translate(1142.85 449.13) rotate(-180)"/><rect class="cls-2" x="496.42" y="199.57" width="50" height="50" transform="translate(1042.85 449.13) rotate(-180)"/><rect class="cls-1" x="447.14" y="199.57" width="50" height="50" transform="translate(944.28 449.13) rotate(-180)"/><rect class="cls-2" x="397.14" y="199.57" width="50" height="50" transform="translate(844.28 449.13) rotate(-180)"/><rect class="cls-1" x="347.85" y="199.57" width="50" height="50" transform="translate(745.71 449.13) rotate(-180)"/><rect class="cls-2" x="297.85" y="199.57" width="50" height="50" transform="translate(645.71 449.13) rotate(-180)"/><rect class="cls-1" x="248.57" y="199.57" width="50" height="50" transform="translate(547.14 449.13) rotate(-180)"/><rect class="cls-2" x="198.57" y="199.57" width="50" height="50" transform="translate(447.14 449.13) rotate(-180)"/><rect class="cls-1" x="149.28" y="199.57" width="50" height="50" transform="translate(348.57 449.13) rotate(-180)"/><rect class="cls-2" x="99.28" y="199.57" width="50" height="50" transform="translate(248.57 449.13) rotate(-180)"/><rect class="cls-1" x="50" y="199.57" width="50" height="50" transform="translate(150 449.13) rotate(-180)"/><rect class="cls-2" y="199.57" width="50" height="50" transform="translate(50 449.13) rotate(-180)"/><rect class="cls-1" y="149.78" width="50" height="50"/><rect class="cls-2" x="50" y="149.78" width="50" height="50"/><rect class="cls-1" x="99.28" y="149.78" width="50" height="50"/><rect class="cls-2" x="149.28" y="149.78" width="50" height="50"/><rect class="cls-1" x="198.57" y="149.78" width="50" height="50"/><rect class="cls-2" x="248.57" y="149.78" width="50" height="50"/><rect class="cls-1" x="297.85" y="149.78" width="50" height="50"/><rect class="cls-2" x="347.85" y="149.78" width="50" height="50"/><rect class="cls-1" x="397.14" y="149.78" width="50" height="50"/><rect class="cls-2" x="447.14" y="149.78" width="50" height="50"/><rect class="cls-1" x="496.42" y="149.78" width="50" height="50"/><rect class="cls-2" x="546.42" y="149.78" width="50" height="50"/><rect class="cls-1" x="546.42" y="99.78" width="50" height="50" transform="translate(1142.85 249.57) rotate(-180)"/><rect class="cls-2" x="496.42" y="99.78" width="50" height="50" transform="translate(1042.85 249.57) rotate(-180)"/><rect class="cls-1" x="447.14" y="99.78" width="50" height="50" transform="translate(944.28 249.57) rotate(-180)"/><rect class="cls-2" x="397.14" y="99.78" width="50" height="50" transform="translate(844.28 249.57) rotate(-180)"/><rect class="cls-1" x="347.85" y="99.78" width="50" height="50" transform="translate(745.71 249.57) rotate(-180)"/><rect class="cls-2" x="297.85" y="99.78" width="50" height="50" transform="translate(645.71 249.57) rotate(-180)"/><rect class="cls-1" x="248.57" y="99.78" width="50" height="50" transform="translate(547.14 249.57) rotate(-180)"/><rect class="cls-2" x="198.57" y="99.78" width="50" height="50" transform="translate(447.14 249.57) rotate(-180)"/><rect class="cls-1" x="149.28" y="99.78" width="50" height="50" transform="translate(348.57 249.57) rotate(-180)"/><rect class="cls-2" x="99.28" y="99.78" width="50" height="50" transform="translate(248.57 249.57) rotate(-180)"/><rect class="cls-1" x="50" y="99.78" width="50" height="50" transform="translate(150 249.57) rotate(-180)"/><rect class="cls-2" y="99.78" width="50" height="50" transform="translate(50 249.57) rotate(-180)"/><rect class="cls-1" y="50" width="50" height="50"/><rect class="cls-2" x="50" y="50" width="50" height="50"/><rect class="cls-1" x="99.28" y="50" width="50" height="50"/><rect class="cls-2" x="149.28" y="50" width="50" height="50"/><rect class="cls-1" x="198.57" y="50" width="50" height="50"/><rect class="cls-2" x="248.57" y="50" width="50" height="50"/><rect class="cls-1" x="297.85" y="50" width="50" height="50"/><rect class="cls-2" x="347.85" y="50" width="50" height="50"/><rect class="cls-1" x="397.14" y="50" width="50" height="50"/><rect class="cls-2" x="447.14" y="50" width="50" height="50"/><rect class="cls-1" x="496.42" y="50" width="50" height="50"/><rect class="cls-2" x="546.42" y="50" width="50" height="50"/><rect class="cls-1" x="546.42" width="50" height="50" transform="translate(1142.85 50) rotate(-180)"/><rect class="cls-2" x="496.42" width="50" height="50" transform="translate(1042.85 50) rotate(-180)"/><rect class="cls-1" x="447.14" width="50" height="50" transform="translate(944.28 50) rotate(-180)"/><rect class="cls-2" x="397.14" width="50" height="50" transform="translate(844.28 50) rotate(-180)"/><rect class="cls-1" x="347.85" width="50" height="50" transform="translate(745.71 50) rotate(-180)"/><rect class="cls-2" x="297.85" width="50" height="50" transform="translate(645.71 50) rotate(-180)"/><rect class="cls-1" x="248.57" width="50" height="50" transform="translate(547.14 50) rotate(-180)"/><rect class="cls-2" x="198.57" width="50" height="50" transform="translate(447.14 50) rotate(-180)"/><rect class="cls-1" x="149.28" width="50" height="50" transform="translate(348.57 50) rotate(-180)"/><rect class="cls-2" x="99.28" width="50" height="50" transform="translate(248.57 50) rotate(-180)"/><rect class="cls-1" x="50" width="50" height="50" transform="translate(150 50) rotate(-180)"/><rect class="cls-2" width="50" height="50" transform="translate(50 50) rotate(-180)"/></g></g></svg>