<svg xmlns="http://www.w3.org/2000/svg" viewBox="0 0 534.76 219.96"><defs><style>.cls-1{fill:#fff;}</style></defs><g id="Layer_2" data-name="Layer 2"><g id="Layer_1-2" data-name="Layer 1"><path class="cls-1" d="M267.38,217.46c-69.94,0-135.78-10.74-185.4-30.24C30.73,167.08,2.5,139.65,2.5,110S30.73,52.88,82,32.74C131.6,13.24,197.44,2.5,267.38,2.5s135.79,10.74,185.4,30.24C504,52.88,532.26,80.31,532.26,110s-28.23,57.1-79.48,77.24C403.17,206.72,337.33,217.46,267.38,217.46Z"/><path class="cls-1" d="M267.38,220c-70.25,0-136.42-10.8-186.31-30.41C28.79,169,0,140.75,0,110S28.79,51,81.07,30.41C131,10.8,197.13,0,267.38,0S403.8,10.8,453.7,30.41C506,51,534.76,79.21,534.76,110S506,169,453.7,189.55C403.8,209.16,337.63,220,267.38,220ZM267.38,5C197.74,5,132.23,15.68,82.9,35.07,32.67,54.81,5,81.41,5,110s27.66,55.17,77.89,74.91C132.23,204.28,197.74,215,267.38,215s135.16-10.67,184.48-30.06c50.23-19.74,77.9-46.34,77.9-74.91s-27.67-55.17-77.9-74.91C402.54,15.68,337,5,267.38,5Z"/><path d="M267.38,214.39c-69.57,0-135-10.66-184.27-30C33.11,164.72,5.57,138.3,5.57,110S33.11,55.24,83.11,35.59c49.26-19.36,114.7-30,184.27-30s135,10.66,184.28,30c50,19.65,77.53,46.07,77.53,74.39s-27.53,54.74-77.53,74.39C402.4,203.73,337,214.39,267.38,214.39Zm0-203.82c-69,0-133.75,10.54-182.45,29.68C37,59.09,10.57,83.86,10.57,110S37,160.87,84.93,179.72c48.7,19.13,113.49,29.67,182.45,29.67s133.76-10.54,182.45-29.67c47.95-18.85,74.36-43.62,74.36-69.74s-26.41-50.89-74.36-69.73C401.14,21.11,336.34,10.57,267.38,10.57Z"/><path d="M166.73,138.58c-.15-.37-.3-.72-.44-1.05s-.3-.69-.45-1.06a75.68,75.68,0,0,1-7.35,4.62,14.51,14.51,0,0,1-7,1.95,13.33,13.33,0,0,1-8.18-2.45,16.84,16.84,0,0,1-5.17-6.46,32.52,32.52,0,0,1-2.68-9.07,68.19,68.19,0,0,1-.77-10.41A41.56,41.56,0,0,1,136,104.36a30.76,30.76,0,0,1,3.78-9A20.15,20.15,0,0,1,146,89a16.12,16.12,0,0,1,8.79-2.39,12.47,12.47,0,0,1,5.23,1.17,11.92,11.92,0,0,1,4.12,2.94,8.06,8.06,0,0,0,.89,1V71h-3.9a1.16,1.16,0,0,1-1.11-.61,2.62,2.62,0,0,1-.33-1.28,2.09,2.09,0,0,1,.44-1.33,1.5,1.5,0,0,1,1.23-.56h3.23A12.83,12.83,0,0,0,170,66.13a14.69,14.69,0,0,0,4.34-3,15.68,15.68,0,0,0,3-4.12,1.45,1.45,0,0,1,.84-.66,2.08,2.08,0,0,1,1.17-.11,2,2,0,0,1,.83.44,1.25,1.25,0,0,1,.39,1c-.15,1.41-.28,2.8-.39,4.18s-.24,2.76-.39,4.17c-.07,1.11-.13,2.21-.16,3.28s-.06,2.17-.06,3.29v51.47q0,1.84.06,3.06c0,.82.07,1.52.11,2.12s.09,1.15.16,1.67q.22,2.34,2,2.34a2.44,2.44,0,0,0,1.56-.67A17.6,17.6,0,0,0,185,133a13.31,13.31,0,0,0,1.39-1.89c.41-.67.76-1.23,1.06-1.67.82-1.34,1.74-1.82,2.78-1.45s1.12,1.37.45,3a29.75,29.75,0,0,1-2.23,4.23,22.79,22.79,0,0,1-3.11,3.89,16.13,16.13,0,0,1-4.23,3.23,10.72,10.72,0,0,1-5,1.22,11,11,0,0,1-5.84-1.39A9.59,9.59,0,0,1,166.73,138.58Zm-8.57-4.34a5.79,5.79,0,0,0,5.06-2.72,12.6,12.6,0,0,0,1.84-7.18V105.42a25.75,25.75,0,0,0-.28-3.73,13.86,13.86,0,0,0-.94-3.51,7.05,7.05,0,0,0-1.9-2.61,4.39,4.39,0,0,0-3-1.06,5.63,5.63,0,0,0-4.45,1.89,12.22,12.22,0,0,0-2.51,4.84,31,31,0,0,0-1,6.51q-.23,3.57-.23,6.9a64.8,64.8,0,0,0,.39,7.18,35.23,35.23,0,0,0,1.23,6.29,11.72,11.72,0,0,0,2.28,4.45A4.5,4.5,0,0,0,158.16,134.24Z"/><path d="M221.93,113.21a15.72,15.72,0,0,1-5.51,3.5,17.14,17.14,0,0,1-6.28,1.28c-1.78,0-3.23,0-4.34,0s-2.31-.13-3.57-.28q0,1.78.06,3.51c0,1.15.13,2.35.28,3.61s.52,2.88.89,4.4a17.73,17.73,0,0,0,1.61,4.23,10.16,10.16,0,0,0,2.62,3.17,5.91,5.91,0,0,0,3.78,1.22,11.25,11.25,0,0,0,5.51-1.44,16.61,16.61,0,0,0,4.73-4l2-2.17a1.59,1.59,0,0,1,1.9-.39q2,.68.11,3.79a24.21,24.21,0,0,1-3.23,4.11,19.41,19.41,0,0,1-14.47,5.9,17.67,17.67,0,0,1-7.12-1.5,22.88,22.88,0,0,1-6-3.73,22.54,22.54,0,0,1-6.74-10.18,41.18,41.18,0,0,1-2.05-13.08,43.52,43.52,0,0,1,1.27-10.57,26.39,26.39,0,0,1,4.18-9.13A21.18,21.18,0,0,1,199,89a23.78,23.78,0,0,1,11.13-2.39,26.22,26.22,0,0,1,7.51,1.11,12,12,0,0,1,5.95,3.78,13.45,13.45,0,0,1,2.62,4.29,13.26,13.26,0,0,1,.83,4.62,19.87,19.87,0,0,1-1.28,7A14.5,14.5,0,0,1,221.93,113.21ZM212.81,107a22.57,22.57,0,0,0,.78-6.12,17.45,17.45,0,0,0-1.06-6.29q-1.07-2.72-3.51-2.72a3.33,3.33,0,0,0-2.45,1,8.75,8.75,0,0,0-1.67,2.45,20.5,20.5,0,0,0-1.11,3.06c-.3,1.08-.52,2-.67,2.84-.29,1.85-.52,3.78-.66,5.78a8,8,0,0,0,.55,4.23,2.84,2.84,0,0,0,2.79,1.56Q211.25,112.76,212.81,107Z"/><path d="M263.56,95.07a10.17,10.17,0,0,1-2.17,6.45,8.14,8.14,0,0,1-5.51,3.23,5.08,5.08,0,0,1-3.95-.84c-1-.78-1.32-2-1-3.72a31.85,31.85,0,0,0,.61-3.57,10.27,10.27,0,0,0-.27-3.45,3.29,3.29,0,0,0-2.23-2.61,5.18,5.18,0,0,0-3.56-.17A4.77,4.77,0,0,0,243,92.28a5.25,5.25,0,0,0-.89,3,12.3,12.3,0,0,0,.89,4.95,11.41,11.41,0,0,0,2.45,3.62,22.36,22.36,0,0,0,3.5,2.84q2,1.27,4.18,2.61t4.62,3a37.18,37.18,0,0,1,4.67,3.67,19.49,19.49,0,0,1,3.56,4.34,9.82,9.82,0,0,1,1.39,5.12,19.82,19.82,0,0,1-1.11,6.9,15.59,15.59,0,0,1-3.67,5.57,18.69,18.69,0,0,1-6.46,4.28,20.56,20.56,0,0,1-7.57,1.39,28.29,28.29,0,0,1-8-1.11,15.53,15.53,0,0,1-6.68-4,13.74,13.74,0,0,1-3-4.17,11.7,11.7,0,0,1-.89-4.73,11.38,11.38,0,0,1,1.28-5.29,17.18,17.18,0,0,1,3.17-4.39c.52-.52,1-1,1.5-1.4s1-.79,1.5-1.16a17.32,17.32,0,0,1-2.33-2.68,21.44,21.44,0,0,1-3.23-5.23,15.17,15.17,0,0,1-1-5.78A17.88,17.88,0,0,1,232,97.4,15.08,15.08,0,0,1,235.51,92a20.49,20.49,0,0,1,13.91-6.23,21.79,21.79,0,0,1,6.35.72A11.81,11.81,0,0,1,261,89.17a8,8,0,0,1,1.84,2.5A7.75,7.75,0,0,1,263.56,95.07Zm-7.68,37.06a5.84,5.84,0,0,0-.95-3.45,11.51,11.51,0,0,0-2.39-2.45,44.82,44.82,0,0,0-5.23-3.62,10.87,10.87,0,0,0-5.57-1.72,4.18,4.18,0,0,0-1.89.5,5.24,5.24,0,0,0-1.67,1.28q-2.34,2.67-1.78,5.23a10.83,10.83,0,0,0,1.67,4.34,13.62,13.62,0,0,0,3.45,3.34,11.88,11.88,0,0,0,2.84,1.39,26.67,26.67,0,0,0,3.17.83,10,10,0,0,0,3,0,5.53,5.53,0,0,0,2.89-1.11,7.73,7.73,0,0,0,1.78-1.95A4.73,4.73,0,0,0,255.88,132.13Z"/><path d="M295.5,129.46c.82-1.34,1.74-1.82,2.78-1.45s1.12,1.37.45,3a29.75,29.75,0,0,1-2.23,4.23,22.79,22.79,0,0,1-3.11,3.89,16.13,16.13,0,0,1-4.23,3.23,11.8,11.8,0,0,1-10.46,0,9.34,9.34,0,0,1-3.34-3.17,13,13,0,0,1-1.73-4.34,23.9,23.9,0,0,1-.5-4.85V98h-3.9a1.16,1.16,0,0,1-1.11-.61,2.68,2.68,0,0,1-.33-1.28,2.12,2.12,0,0,1,.44-1.34,1.5,1.5,0,0,1,1.23-.56h3.22a14.58,14.58,0,0,0,9.69-3.45,10,10,0,0,0,1.78-1.78,11.27,11.27,0,0,0,1.22-2.11,1.42,1.42,0,0,1,.84-.67,2.16,2.16,0,0,1,1.17-.11,2.06,2.06,0,0,1,.83.45,1.23,1.23,0,0,1,.39,1q-.23,2.11-.39,4.17c-.11,1.37-.24,2.77-.39,4.17-.07,1.12-.13,2.21-.17,3.29s0,2.17,0,3.28v19.14c0,1.94,0,3.83,0,5.68s.13,3.75.28,5.68q.22,2.34,2,2.34a2.44,2.44,0,0,0,1.55-.67,16.39,16.39,0,0,0,1.56-1.56,13.31,13.31,0,0,0,1.39-1.89C294.85,130.46,295.2,129.9,295.5,129.46ZM273.8,72a7.3,7.3,0,0,1,2.11-5.29,7.13,7.13,0,0,1,10.24,0A7.3,7.3,0,0,1,288.27,72a7.12,7.12,0,0,1-2.12,5.23,7.27,7.27,0,0,1-10.24,0A7.11,7.11,0,0,1,273.8,72Z"/><path d="M312.86,170.53a12.47,12.47,0,0,1-5.45-1.17,12.1,12.1,0,0,1-4.12-3.17,15.69,15.69,0,0,1-2.61-4.51,14.36,14.36,0,0,1-.95-5.18,15.87,15.87,0,0,1,2-8.18,22.76,22.76,0,0,1,4.9-5.84,12.24,12.24,0,0,1-5.95-3.67,20.58,20.58,0,0,1-3.84-6.4,35.57,35.57,0,0,1-2.06-8.35,71.16,71.16,0,0,1-.62-9.41,43.49,43.49,0,0,1,1.23-10.29,30.61,30.61,0,0,1,3.67-9A19.66,19.66,0,0,1,305.29,89a16.18,16.18,0,0,1,8.8-2.39,12.81,12.81,0,0,1,5.34,1.22,12.4,12.4,0,0,1,4.23,3,10.51,10.51,0,0,0,1.11,1V89.06c0-1.49.67-2.23,2-2.23h10c1,0,1.58.2,1.84.61a3.47,3.47,0,0,1,.39,1.84v46.85a49.35,49.35,0,0,1-.61,7.63,47,47,0,0,1-1.84,7.51,39.06,39.06,0,0,1-3.06,6.9,27,27,0,0,1-4.4,5.79,22.25,22.25,0,0,1-16.25,6.57Zm1.67-5.79a6,6,0,0,0,3.68-1.17,12.13,12.13,0,0,0,2.72-2.89,14.82,14.82,0,0,0,1.84-3.84,22.25,22.25,0,0,0,.89-4.12,72.42,72.42,0,0,0,.67-9.91c0-1.56-.24-2.56-.73-3s-1.46-.37-3,.22c-1,.37-2,.76-2.95,1.17s-1.87.8-2.83,1.17a11.93,11.93,0,0,0-5.9,5.17,14.7,14.7,0,0,0-2.12,7.52,12.65,12.65,0,0,0,.5,3.5,10.27,10.27,0,0,0,1.51,3.12,7.76,7.76,0,0,0,2.39,2.22A6.23,6.23,0,0,0,314.53,164.74Zm3.12-30.5a5.81,5.81,0,0,0,5.06-2.67,12.3,12.3,0,0,0,1.84-7.12v-19a25.75,25.75,0,0,0-.28-3.73,13.86,13.86,0,0,0-.94-3.51,7.05,7.05,0,0,0-1.9-2.61,4.4,4.4,0,0,0-3-1.06A5.63,5.63,0,0,0,314,96.4a12.22,12.22,0,0,0-2.51,4.84,31.63,31.63,0,0,0-1.06,6.51c-.14,2.38-.22,4.68-.22,6.9a64.8,64.8,0,0,0,.39,7.18,35.23,35.23,0,0,0,1.23,6.29,11.72,11.72,0,0,0,2.28,4.45A4.5,4.5,0,0,0,317.65,134.24Z"/><path d="M361.06,113.88v25.37a4.28,4.28,0,0,1-.56,2.39c-.37.56-1.23.84-2.56.84h-8.68c-1.12,0-1.84-.3-2.17-.89a4.18,4.18,0,0,1-.5-2.12V98h-3.9a1.15,1.15,0,0,1-1.11-.61,2.69,2.69,0,0,1-.34-1.28,2.07,2.07,0,0,1,.45-1.34,1.48,1.48,0,0,1,1.22-.56h3.23a14.54,14.54,0,0,0,9.68-3.45,9.72,9.72,0,0,0,1.79-1.78,11.27,11.27,0,0,0,1.22-2.11,1.43,1.43,0,0,1,.83-.67,2.18,2.18,0,0,1,1.17-.11,2,2,0,0,1,.84.45,1.23,1.23,0,0,1,.39,1c-.15,1.41-.28,2.74-.39,4s-.24,2.71-.39,4.34a5.09,5.09,0,0,0-.11,1.06v1.39c.74-1,1.44-1.81,2.11-2.56s1.37-1.48,2.12-2.22a29.54,29.54,0,0,1,6.9-5.12,17.69,17.69,0,0,1,8.23-1.78,8.55,8.55,0,0,1,5.9,1.89,9.42,9.42,0,0,1,2.73,4.28,17.6,17.6,0,0,1,.83,5.4V125q0,3.9.34,7.91c.15,1.56.81,2.34,2,2.34a2.44,2.44,0,0,0,1.56-.67,16.39,16.39,0,0,0,1.56-1.56,14.13,14.13,0,0,0,1.39-1.89c.41-.67.76-1.23,1.06-1.67.81-1.34,1.74-1.82,2.78-1.45s1.11,1.37.44,3a28.67,28.67,0,0,1-2.22,4.23,22.37,22.37,0,0,1-3.12,3.89,16,16,0,0,1-4.23,3.23,10.72,10.72,0,0,1-5,1.22,10.86,10.86,0,0,1-5.45-1.22,9.51,9.51,0,0,1-3.34-3.17,13,13,0,0,1-1.72-4.34,23.22,23.22,0,0,1-.51-4.85V100.74q0-4.78-3.22-4.78a4.55,4.55,0,0,0-2.73.83,18.71,18.71,0,0,0-2.39,2.06,34.35,34.35,0,0,0-2.28,3,18.8,18.8,0,0,0-1.62,2.79,28.28,28.28,0,0,0-1.56,4.28A18.6,18.6,0,0,0,361.06,113.88Z"/></g></g></svg>