<svg xmlns="http://www.w3.org/2000/svg" viewBox="0 0 812.15 740.88"><defs><style>.cls-1{isolation:isolate;}.cls-2{fill:#2b7aa5;}.cls-3{fill:orange;}.cls-4,.cls-7{fill:#fbb03b;}.cls-5{opacity:0.75;mix-blend-mode:multiply;}.cls-6,.cls-7{stroke:#000;stroke-miterlimit:10;stroke-width:3px;}</style></defs><g class="cls-1"><g id="Layer_2" data-name="Layer 2"><g id="Layer_1-2" data-name="Layer 1"><circle class="cls-2" cx="420.61" cy="370.44" r="347.75"/><path class="cls-3" d="M420.61,739.38A368.83,368.83,0,0,1,159.73,109.56,368.94,368.94,0,1,1,564.22,710.38,366.48,366.48,0,0,1,420.61,739.38Zm0-707.88C233.72,31.5,81.67,183.55,81.67,370.44S233.72,709.38,420.61,709.38s338.94-152,338.94-338.94S607.5,31.5,420.61,31.5Z"/><path d="M420.61,740.88A370.53,370.53,0,0,1,276.41,29.12,370.43,370.43,0,0,1,682.55,632.38a369.34,369.34,0,0,1-261.94,108.5ZM420.61,3a367.53,367.53,0,0,0-143,706A367.53,367.53,0,0,0,563.64,31.88,365.23,365.23,0,0,0,420.61,3Zm0,707.88c-187.72,0-340.44-152.72-340.44-340.44S232.89,30,420.61,30,761.05,182.72,761.05,370.44,608.33,710.88,420.61,710.88Zm0-677.88C234.55,33,83.17,184.38,83.17,370.44S234.55,707.88,420.61,707.88,758.05,556.51,758.05,370.44,606.68,33,420.61,33Z"/><path d="M555.09,337.62l-9.25,4.51,7.3,6.9L552,350.45l-19-14.52-5,.66,4.45,6.31-15.92-.65-4.49.46c2.35,6.49,9.73,9.68,8.3,18.31l-7.49-4.95-1.33,1.07c2.12,2.7,4,5.71,6.42,8,4.66,4.37,9.68,8.34,14.55,12.48L531.33,379l-10.08-8.76-.37.3,5,7.07-1,1.33c-2.37-1.68-4.7-3.42-7.11-5-1.91-1.29-3.91-2.44-6.28-3.9-2.28,8.15,4.16,10,8.14,13.38l-.83,1.13-14.05-8,1.65,5.33-6.76-2.36h0c-1.11-3.12.27-7.61-4.72-8.59-2.82-9.6-12.86-11.54-18.22-18.44L475,354.18q5.4,4.38,10.78,8.78c-.21.75-.43,1.49-.64,2.23-2.37-4.74-4.64-3.1-6.67-.85-3.41-4.21-5.29-9.92-13.39-8.35,7.65,2.57,10.23,7.25,10,14.32-3.86-1.68-.35-13-9.15-6.5l-4.88-7-1.92,1.24c2.44,4.68,5.08,9.26,7.21,14.08.67,1.51-.05,3.64-.13,5.49l-1.53-.12c-4.25-13.93-8-17.47-14.31-21.43l3.84,6.92-1,.67-9.42-9.18c-.89,5.85-1.54,10.1-2.18,14.26q-2.62-9.75-5.26-19.52l-1.8.38-1,5-4.23-4.45c-.59,2.38-.94,3.81-1.29,5.23l.05-.16c-.12,2.58-.66,5.22-.25,7.71.35,2.08,1.8,4,2.76,6l4.63-3.24a34.89,34.89,0,0,1-4.44,28.32c-1.35,2.14-1.66,4.93-2.42,7.44-2.5-.85-5-1.86-7.51-2.51-6.23-1.58-12.51-3-18.78-4.44a7.65,7.65,0,0,0-3.07-.24c-4.65.93-9.24,2.56-13.92,2.91-10.89.82-20.61-11.94-17-22.37.89-2.59,3.51-4.59,5.59-7.19,8.45,6,20.15,6.64,26.92,16.49,7.65-5.67,16.84-10.18,16.92-21.91l-5.54,5.11c7.5-8.28,2-16.92.34-26.68-2.08,1.37-4.57,2.17-5.43,3.82s.05,4.05.19,6.12l1.48-.06c.34-1.81.68-3.63,1.15-6.08,3.52,7.43,2,15.42-3.72,21.8-.26-1.76-.5-3.41-1-6.59-2.05,2.55-3.23,4-4.36,5.4-.29-3.72-.68-7.19-.79-10.67-.08-2.73.19-5.46.31-8.2l-.07.15c-1,.94-2.89,1.88-2.89,2.83,0,2.92.67,5.84,1.12,9.06-7-3.49-6.18,4.11-9.46,6.62-3.59-6.94,2-12.79,2.06-17.94-2.35,1.1-6.22,3.49-6.62,3-3.89-4.73-5.56-1-7.59,1.58-1.08,1.39-2.06,2.85-3.09,4.28l-.68-.29,1.86-9.48c-4.55,3.31-8.11,5.85-11.6,8.47s-6.93,5.33-11.07,8.52l10.33-16.09-2.31-1.37c-1.46,2.63-2.76,5.38-4.44,7.87a55.43,55.43,0,0,1-4.75,5.46l-1.18-1,4.29-7.92-.92-.58q-3.09,3.15-6.17,6.29l-1.26-.75c.46-2.5.91-5,1.12-6.13l8.93-4.12c-.27-.88-.54-1.76-.8-2.63-4.36.74-8.75,1.36-13,2.39-.6.14-1.11,2.39-1,3.58.43,3.5-2,6.6-5.4,6.39l-9.31-.58c2.11-1.09,5.13-2.45,7.92-4.19.86-.54,1.08-2.1,1.59-3.2l-3.53-.52,0-.14c-1.76,1.42-3.38,3.8-5.32,4.08-7.79,1.16-12.76,6.12-17.38,11.72-2,2.42-3.77,5-5.65,7.54L302,367.68c1.25-2.43,2.49-4.85,4-7.79l-6.25,2.54a1.93,1.93,0,0,1-3.12,1.34l0,0L290,366.39c1.05,3.79,2.29,6.93,2.71,10.18.52,4-.51,8.31.62,12,4.49,14.82,9.25,29.57,14.54,44.11,2.73,7.5,5.93,15.11,10.43,21.62,9.53,13.77,19.62,27.22,30.32,40.11a55.1,55.1,0,0,0,27.08,17.9c17.43,5.24,34.6,5.49,51.75-.33,15.54-5.27,31.15-10.64,44.4-20.73,9.89-7.52,19.65-15.3,28.85-23.64,6.7-6.07,12.55-13.13,18.51-20,6.4-7.36,12.51-15,18.71-22.5,2.67-3.25,5.26-6.58,7.88-9.87.3-1.25,2-1.69,2.58-2.74,4.59-9,11.58-16.8,12.71-27.66.49-4.72,4-9.05,1.88-14.35-.27-.68,1.66-2.25,2.14-2.87l-.36-.74a1.81,1.81,0,0,1-2.28-1.63,13.8,13.8,0,0,1,.08-2.95c-1.12-2.34-2.26-4.69-3.44-7.17l4.79.13a8.69,8.69,0,0,0-.23-3.44c-.09-.29-.19-.58-.3-.86C559.53,346.92,554.89,343.86,555.09,337.62Zm-104,35.74c4.31-.67,4.31-.67,5.22-5.22,2.08,5.06-3.33,16.76-7.56,17.4-1.13.18-3.09-1.06-3.68-2.17C443.72,380.88,448.2,373.8,451.05,373.36ZM356.76,360.6l1.53.58-4.05,11.34-1.95-.75Zm-17.2,27.21c-.52-2.75-2.49-7.12,2-7.69,1.74-.22,4.13,4.1,6.09,6.46.37.45.23,1.32.28,2l-5.14,5.75C341.65,392.19,340,390.12,339.56,387.81Zm8.42.91c5.74-2.93,8.75-1.35,9.34,4.92.29,3.09.54,6.18.87,9.27,0,.19.62.33,1.3.68.85-.66,1.86-1.39,2.81-2.18a8.83,8.83,0,0,1,13.53,2.75c1.41,2.84-.63,6.16-4.29,5.93-4-.25-8-1.77-12-2.3C347.57,406.22,347.72,397.54,348,388.72Zm94.47,32.33a30,30,0,0,1-3.79.05c-3.69-.5-6.78,3.87-11.38.17-2.16-1.73-7.71,1.41-11.64,1.11-13.41-1-27.15.68-40.15-4.43-2.14-.83-4.75-.38-7.09-.82-3.42-.64-6.79-1.55-10.18-2.34l.36-2,24.54.36c-1.31-3.23-3.51-6-2.88-7.82s3.95-3,6.29-4c1.27-.55,2.94-.17,4.43-.21,5.35-.12,11.14-1.14,12.64,7.26,2.31-7.56,7.56-5.79,12.45-5.75,4.09,0,8.19-.82,12.28-1.29,0,0,0,.06,0,.09.33-.16.67-.31,1-.49,5.51-2.89,11.11-7.09,15.6,2.69,1.14-9.91,2.24-11,11-13.76,2.19-.7,3.88-2.83,6-4,1.33-.71,3-.79,4.54-1.16.34,1.55,1.17,3.18.92,4.62-.48,2.72-1.07,5.69-2.58,7.9-1.28,1.86-3.93,2.78-6,4.12l-.84-1.33L452.8,414c7.24,1.94,16.19-1.62,20.71-8.14,3.56-5.12,7.55-9.93,11.35-14.88l2,.55c-.22,1.74.17,4-.76,5.15-4.13,5.27-8.68,10.2-13,15.33-.79,1-1.09,2.29-1.74,3.38s-1.14,2.44-2.06,2.81C460.68,421.76,451.52,421.12,442.45,421.05Zm30,34.53c-.53,2.27-1.36,4.47-2.43,7.86-1.76-1.84-4.42-3.49-4.22-4.66.39-2.33,2.27-4.45,3.76-6.5.23-.32,2-.08,2.41.43A3.84,3.84,0,0,1,472.44,455.58Zm34.4-46.19c-1.28-1.26-2.36-2.95-3.9-3.65-1.33-.61-3.18-.1-5.58-.07,1.4,2.82,2.55,4.54,3.13,6.43.84,2.75.94,5.1-2.45,6.9s-6.21,4.83-9.37,7.21c-1.73,1.3-3.64,2.36-5.5,3.56,2.53,2.77,2.9,5.83-.55,9.08-.93.88-.68,2.89-1.35,4.19-.9,1.74-1.91,4.39-3.31,4.72-4.25,1-7.26-1.67-8.27-5.53-.46-1.79.94-4.18,1.85-6.14.53-1.16,2-1.86,2.59-3,2.17-4.29,4.09-8.71,6.25-13a20.9,20.9,0,0,1,2.56-3.41c.28-2,.06-4.42,1-6.27,4.11-8.39,8.54-16.63,12.86-24.92-2.39,9.95,6.75,14.9,10.07,22.38A1.66,1.66,0,0,1,506.84,409.39Zm-2.95-19.3-.69.64L497,385.06c.87-1.83,1.75-3.65,2.63-5.48Zm47.73-21.43-8.8-5.77,2.23-5.88c2.41,2,6.78,2.45,2.52,6.79l4.88,3.33Z"/><path d="M420.82,139.87c3.93-2.16,7.67-2.85,12-.29,1.77,1.06,5.62,1.26,6.87.09,5.36-5,11.75-2,17.55-3.09,2.13-.38,4.38-.12,6.55-.35s5-1.71,5.32,2.45a2,2,0,0,0,1.21,1.32c8.34,2.72,17,4.73,25,8.2,11.54,5,20.52,12.55,27,24.31,6.17,11.29,5.88,21.67,2.53,32.93-.65,2.18-2,4.15-3.29,6.58-3.69.12-7.64-.44-9.23-5.75-.25-.84-3.41-1.83-4.12-1.29-1.56,1.19-3.77,3.81-3.33,5,1.5,3.95-.43,5.77-3.86,8.53l.43-10.29c1-1.38,1.93-2.76,2.1-3-2.7-1.84-5.59-3.21-7.66-5.37-2.41-2.53-3.69-6.17-6.19-8.56-6.71-6.39-14.2-11.78-24.23-9.54-5,1.12-9.79,3.35-14.89,5.16l1,3.69-8.72.06v1.56c2.43.41,4.87,1.15,7.3,1.17,12.88.11,25.74.57,37.45,6.66,4.49,2.33,8.4,5.78,12.57,8.72-1.2,5.93-5.17,9.52-11,13l-.34-8.35-1.31-.3c-.58,1.55-1.64,3.11-1.63,4.65.05,4.64-2.75,6.59-6.53,8s-6,.47-9.42-2c-4-3-9.69-3.51-14.05-4.91.43,1.45,1.14,3.84,2.29,7.74-6.87-3.89-12.8-6.81-18.26-10.43-7.12-4.71-3.14-13.42-6.81-20.53l-2.72,8.52c-1.19-2.21-2.19-3.35-2.43-4.62-1.23-6.58-.61-13.53-6.82-18.65-2-1.64-1.64-6.09-2.48-9.78l-5.25-.73c2.28,5.18.74,9.27-4,10.92-3.15,1.1-3.23,2.62-1.26,4.91.95,1.11,1.76,2.34,3,4-4,.88-6.61,2.29-4.55,6.75.26.55-2.06,2.29-3.15,3.44l4.69,3.5c-3.51-.58-6.66-2-9.3-1.3s-5,3.22-7.3,5.2c-9.17,7.94-18.84,14.51-31.76,14.29-9.65-.17-17.72-3.55-24.32-10.54-.89-.94-1.73-2-2.65-2.88-.19-.19-.67-.1-2,.82l11.87,11.52c-7.46-.8-13.58-4.68-16.92-11.93-1.66-3.61-6-6.36-4.4-11.35.08-.24-1.35-1.36-2.08-1.36a2.58,2.58,0,0,0-2,1.5c-1.3,6.09-5.66,7.72-10.31,7.9-1.45,2.32-2.67,4.29-4.41,7.09-.72-11-1.23-20.54-2-30.06-1.06-13.37,4.19-24.11,14-32.67,5.15-4.51,10-10.6,18.35-8.25,5.78-6,14-3.41,20.91-5.18,5.61-1.45,11.51-6.65,18.18-2.89,10.67-5.14,19,4.54,29.53,3.3,1.08-2.11,2.9-3.69,6.48-.41,1.63,1.49,4.36,1.77,6.59,2.61l-6.61,3.9c1.28,4.74,4.35,4,7.54,1.65,5.9,5.34,16.32,6.58,19.86,2.32Zm-34.52,53c-1.25-8-5.74-12-11.66-10.5-1.66-5.91-7.06-6-11.54-6.84a15.26,15.26,0,0,0-14.24,4.53c-3.46,3.44-5.7,9.7-12.19,7.26l-6.38,6.56C348.61,187.45,367.09,184.79,386.3,192.92Zm-36.13,16.25-1.46.16c1.75,3.07,3,6.73,5.47,9,1.36,1.21,4.91,0,8.48-.23Zm119.72-30.33,15.75,3.38.29-1.47C481.31,179,477.17,174.48,469.89,178.84Z"/><path d="M500.36,79.2A208,208,0,0,0,482.1,59.59C476,54,467.77,50.85,459.85,52.33c-9.67,1.79-18.53.71-27.54-2.07-6.13-1.9-12.08-2-18,.91-10.72,5.3-21.86,9.85-32.14,15.88C367,76,350.62,83.55,341.51,100.14c-2.31,4.22-5.86,7.73-8.71,11.67-15.67,21.61-31.51,43.11-46.84,65-5.12,7.3-9.08,15.41-10.59,24.34a2.06,2.06,0,0,1,2.42.61c.72-1.29,1.44-2.58,2.11-3.89,3.4-6.65,6-13.82,10.3-19.86,15.59-22.14,31.93-43.73,47.56-65.84C349,96.26,361.19,81.86,379.42,73.51c11.7-5.35,23-11.6,34.42-17.55,6.2-3.23,12.24-2.88,19-1.25,7.33,1.77,15.23,3.15,22.6,2.28,9.88-1.16,18.31.85,25.56,6.94,5.09,4.28,9.33,9.63,13.65,14.75,18.72,22.18,32.14,47.21,39.29,75.39,5,19.53,9.4,39.19,14,58.82.88,3.76,2.92,8-2.18,10.73-.59.32-.93,1.71-.85,2.55.55,5.94-1.09,12.66,5.61,16.53,1,.6,2,1.28,3.05,1.94a2.06,2.06,0,0,1,2.07-1.61,4,4,0,0,0,.92-2.51c-1.76-11.06-3.56-22.12-6-33.05-2.31-10.53-6.14-20.77-7.92-31.37C536.55,140.22,524.16,107.24,500.36,79.2Z"/><path d="M299.36,288.91l-4.37-.42a32,32,0,0,1-4.46.33,5.66,5.66,0,0,0-2.35.29,2.05,2.05,0,0,1-.72.5l-.31.09a5.83,5.83,0,0,0-1.79,4.33c-.1,1.67,1,3.41,1.29,4.26-.7,2.79-2.13,5.32-1.75,7.55,1.1,6.59,7.2,1.18,10.66,3.78-1.18.27-1.88.47-2.6.6-10.77,1.93-11.8,3.9-8.74,14.52a53.37,53.37,0,0,1,1.69,12c.4,7.9,2.73,9.24,9.81,5.79A22.25,22.25,0,0,1,301.9,341a1.91,1.91,0,0,1,2.22-2l1.08-4.62-1.54-.55c1.19-3.16,6-6,.87-9.69,3.88-3.3,4.66-8.62,2.3-14.05a10.71,10.71,0,0,1-.73-4.18c0-5,.14-9.95.24-15Z"/><path d="M304,263.27c-5.11-2.31-10.43.54-11.89,5.87-.3,1.08-1.95,1.78-3.29,2.54.56.67,1.1,1.35,1.63,2,1.28,1.63-.57,3.52-2.14,3.08a22.69,22.69,0,0,1-.1,3.68c-.2,1.59-1.76,3-2.71,4.51,1.72.83,3.39,1.78,5.16,2.46a36.8,36.8,0,0,0,4.32,1.06l4.37.42c9.87-.27,7.63,1.81,10.31-8.2a43.92,43.92,0,0,0,1.08-5.46C311.89,267,311.79,266.79,304,263.27Z"/><path d="M513.43,300A79,79,0,0,1,536,312.21l-.74,1.29-4.19-2.34-1.29,1.34,6,6.19-14.58-4.33c3.68,4,10.84,4.59,8.8,12.38L511,320.88c-1.37-4-3.33-8.22,4.27-7.52-5-4.8-5.47-9.76-1.63-13.34Z"/><path d="M513.59,300l-2.66-1.78c-.38-3.12-1-5.28-.8-7.37a14.7,14.7,0,0,1,1.33-4.26c-.24-2.86-1.06-5.53-.38-6a8,8,0,0,1,5.53-.9c.75.13,1.11,2.46,2,4.67,9.24-.12,7.11,7.43,6,14.58l-11.21,1Z"/><path d="M374.83,296.34c3.21.19,5.81.18,7,4.44,1.88,6.9,9,7.17,14.24,9,4.7,1.59,5.61,5.11,8.73,9.1-8.68,1.27-14.42-1.49-20.08-5.83S375.6,303.66,374.83,296.34Z"/><path d="M445.18,303.79c-6.83,5.49-12.75,11.09-19.54,15.3-2.77,1.73-7.4.58-11.17.41-.52,0-1.58-2.76-1.32-3a42.55,42.55,0,0,1,7.67-5.6c1.65-.87,3.94-.41,5.83-1s5-1.16,5.6-2.57C434.92,301.05,439.4,302.26,445.18,303.79Z"/><path d="M528,336.59l4.45,6.31-15.92-.65-9.68-10.73c.44-.53.87-1.07,1.31-1.61C515.19,330.77,522.4,331,528,336.59Z"/><path d="M530,326.74c1.86,1.11,4,2,5.51,3.41,1.07,1,1.38,2.79,2,4.22l-4.74,1.44.25.11c-6.32-3-12.77-5.79-18.86-9.22-1.65-.93-6.22-1.7-3.28-5.82Z"/><path d="M314.33,342.15c1.81-5.58,7.6-3.82,10.32-6.22,4.21-3.71,8.21.3,11.18-.9,4.46-1.8,7.45-1.39,11.24,1.77-4.79,1.69-9.21,3.7-13.86,4.66-1.85.39-4.18-1.56-6.91-2.7Z"/><path d="M417.48,362.09c.32-2,.64-4,1.16-7.17l2,5,6.14-6.83,1.22,2.28.05-.16c-.94,2.94-2.63,5.86-2.69,8.82-.13,6.44-.23,6.82-6.76,5.46-.38-2.49-.77-5-1.15-7.55Z"/><path d="M300,348.28a2.08,2.08,0,0,1-.37.85l-.36.35a2,2,0,0,1-1,.4h-.51a1.49,1.49,0,0,1-.7-.26,1.53,1.53,0,0,1-.41-.31,13.55,13.55,0,0,0-6.15,4.87,4.49,4.49,0,0,0-.34,3.56c.18.53,2.23,1.08,2.87.69,1.07-.66,2.27-1.22,3.44-1.82v-.26a2,2,0,0,1,2.23-1.67,2.34,2.34,0,0,1,.6.2,8.84,8.84,0,0,0,3.51-7.09C301.82,347.91,300.88,348.07,300,348.28Z"/><path d="M555,337c-4.73-1.57-6.53-5-6.12-9.77l4.59,3.38c2.52,2.49,7.34,3.37,5.83,9.26Z"/><path d="M313.23,332.92c2.23-1.64,4.08-3.48,6.31-4.46,1.39-.61,3.39-.1,5,.3.33.08.62,2.62.23,2.86a14.4,14.4,0,0,1-5.29,2.07C317.8,333.91,316,333.3,313.23,332.92Z"/><path d="M320.32,309.52l-2.71,5.2c-1.43-7.45-5.4-2.27-8.9-3.35.62-2,1.17-3.81,1.59-5.15Z"/><path d="M501.42,223.14l-13.15,6.48-.28-.89c2.36-2.63,4.43-5.65,7.21-7.7,1.21-.88,3.89.25,5.91.46Z"/><path d="M302,341.45c-4.67,1.83-9.9,2.67-12.83,7.52a16.59,16.59,0,0,0,7-1.94l0-.23a1.9,1.9,0,0,1,.39-.91l.36-.36a2,2,0,0,1,1-.4h.51a1.53,1.53,0,0,1,.46.14,30.5,30.5,0,0,0,3.43-3.13A2.12,2.12,0,0,1,302,341.45Z"/><path d="M562.93,328.9a11.42,11.42,0,0,0,0-2.34c0-.09-.06-.39-.08-.51s-.11-.29-.13-.33c-.17-.34-.34-.68-.5-1a21.15,21.15,0,0,1-1.1-2.76c-2.71,2.83-2.24,5.15.23,7C561.69,329.22,562.28,329.1,562.93,328.9Z"/><path d="M332.24,345.63l-13.84,3.13c2.58-6.24,8.56-7.78,13.8-3Z"/><path d="M553.48,330.57l-4.59-3.38L536,318.6c5,2.32,10.07,4.41,14.84,7.08C552.2,326.45,552.63,328.9,553.48,330.57Z"/><path d="M311.34,264.87l-6.14-2.39-.34-1.69c2.1-.63,4.29-1.89,6.27-1.62.93.13,1.45,3.21,2.16,4.95Z"/><path d="M344.85,329l-14.15,2.53-.39-2.11,13.89-2.25Z"/><path d="M342.47,263.6l15.83,4.25-.41,1.51-15.78-4.45Z"/><path d="M322.64,324.16,309.74,327c3.7-6.38,9.11-2.1,12.74-4.79C322.53,322.85,322.59,323.51,322.64,324.16Z"/><path d="M546.27,314.63l5.3,4.33-4,3-1.49-.83c1.68-2.31,3.48-4.64-2.78-4.95Z"/><path d="M400,346.23c.82,0,2.3-.24,2.35-.05.93,3.34,1.7,6.74,2.49,10.12l-1.62.4-3.15-10.62Z"/><polygon points="565.2 323.36 565.2 323.35 565.2 323.36 565.2 323.36"/><path d="M566.77,271.63a92.82,92.82,0,0,0-6-15.94,4.11,4.11,0,0,0,.54-2.49,1.72,1.72,0,0,0-1.08-1.44,2.67,2.67,0,0,0-.05-1.63,41.69,41.69,0,0,1-2.13-8.36c-.27-1.8-2.54-2.79-4.14-2.35-1.93.53-2.62,2.33-2.35,4.14a41.69,41.69,0,0,0,2.13,8.36,3.47,3.47,0,0,0,4,2.38l0,.06a1.72,1.72,0,0,0-.26,2,82.43,82.43,0,0,1,6,15.64c1.57,5.2,3.63,10.9,1.64,16.27a1.48,1.48,0,0,0-.07.87q-2.06,6.4-4.12,12.81a41.29,41.29,0,0,0-1.75,6.81c-.11.41-.21.81-.3,1.22a16,16,0,0,0,.19,8.69,9,9,0,0,0,.86,1.91l-.26.14a1.68,1.68,0,0,0-.6,2.3,22.36,22.36,0,0,0,2.15,2.31,2.49,2.49,0,0,1,.74,2.49c-.34,2.7-.87,5.38-1.3,8.06a31.42,31.42,0,0,0-.72,7.79,16.15,16.15,0,0,0,2.07,6.58,1.47,1.47,0,0,0,0,.47,1.59,1.59,0,0,1-.1.89,2.59,2.59,0,0,1-.26.46,1.23,1.23,0,0,0-.2.63,1.27,1.27,0,0,0,0,.67,1.21,1.21,0,0,0,.3.57,1.24,1.24,0,0,0,.47.44,2.18,2.18,0,0,0,.67.21,1.51,1.51,0,0,0,1.24.56,1.71,1.71,0,0,0,1.1-2.95,5.49,5.49,0,0,0,.14-1,5.33,5.33,0,0,0-.1-1.05,1.52,1.52,0,0,0-.18-1.27c-2.89-4.86-1.51-10.1-.67-15.34l.6-3.72,0,0a6.24,6.24,0,0,0,1.34-2.36c.05-.17.09-.34.13-.5v0a.88.88,0,0,0,.07-.14l.16-.16c.13-.13.26-.24.4-.36a1.69,1.69,0,0,0-1.19-2.87l-.45,0-.12,0-.09,0c0,.1,0,.16,0,.17v0h0l0-.11v0h0a.17.17,0,0,0,0-.07l0,.06v-.15a1.8,1.8,0,0,0,.26-1.66c.35-.16.7-.33,1-.48a1.61,1.61,0,0,0,.52-.37,1.7,1.7,0,0,0-.45-3.27l0,0c-1.29-.82-1.3-2.66-1-4,.41-2.21,1.27-4.25,1.42-6.51s-.26-4.53.07-6.76c.2-1.38.63-2.63.34-3.84.17-1.54.3-3.08.35-4.63.21-.64.42-1.29.62-1.93a1.65,1.65,0,0,0,.06-.81C570.34,283.21,568.44,277.17,566.77,271.63Z"/><path d="M376.43,105.52c-14.68-6.33-34.77-10-44.27,6.67a4.63,4.63,0,0,0,0,4.86,37.77,37.77,0,0,0-3.84,5.25,2.83,2.83,0,0,0-1.51.76,17.87,17.87,0,0,0-2.37,2.9,17.5,17.5,0,0,0-1.66,3.36l-.1.75c0,.25.06.49.1.74a1.43,1.43,0,0,0,.08.22,46.64,46.64,0,0,0-11.05,11,2.28,2.28,0,0,0-.39,1.53,3,3,0,0,0-.84.6,92.42,92.42,0,0,0-16,22.42,3.06,3.06,0,0,0-.32,1,4.19,4.19,0,0,0-2.84,3.54l-.13,0c-2.17.6-4,3.25-3.14,5.52a5.78,5.78,0,0,1,.21,3.8,4.77,4.77,0,0,0-1.89,1,28.79,28.79,0,0,0-10.06,16.65l-.11,0a5.22,5.22,0,0,0-2.45,3.37,6.5,6.5,0,0,0,.25,2.44l.57,2.44a1.08,1.08,0,0,0,.49.64,19.9,19.9,0,0,1-.32,4.07,32.44,32.44,0,0,1-1.24,4.3,4.21,4.21,0,0,0-.26,1.57.7.7,0,0,0-.08.2,22.54,22.54,0,0,0-.26,6.3c.1,1,.31,2,.45,2.94a6.35,6.35,0,0,1,.06,1.51,3,3,0,0,1-.17.73l-.15.2-.17,0c-1.35-.06-1.42,1.78-.3,2.2a3.25,3.25,0,0,0,.46.13,5.93,5.93,0,0,1,.63,1.57,5.23,5.23,0,0,0,1,1.34c0,.69,0,1.38.08,2.07a1.62,1.62,0,0,1-.45.36c-.79.42-.7,1.91.27,2.05a1.91,1.91,0,0,1,.38.1s0,.06,0,.09A3.31,3.31,0,0,0,274,242c.54,2.72-1.43,4.91-.58,7.73.75,2.52,2.43,4.94,3.66,7.26a2.94,2.94,0,0,0,2.12,1.62c.18.65.35,1.3.53,2a3.27,3.27,0,0,0-.61,2.74,35.91,35.91,0,0,0,3.42,8.67c1.88,3.86,1.75,6.66,1.93,10.85s6.92,4.33,6.73,0c-.09-2-.05-3.78-.18-5.54a2.2,2.2,0,0,0,.17-.25,4,4,0,0,0,.48-2.3,4,4,0,0,0,3-3.36,25.22,25.22,0,0,0,5.27,1.1,3.46,3.46,0,0,0,2-.36,51.28,51.28,0,0,0,5.35,6.9c2.18,2.48,5.18,1.47,6.64-.67q.75,1.13,1.56,2.22a.41.41,0,0,1,0,.09h0l.69.92c3.37,4.32,9-1.19,7-5.44a16.24,16.24,0,0,0-3-4.36,31.52,31.52,0,0,1-3.54-11.34c-.53-4.06-1-7.72-3.2-11.28a4.21,4.21,0,0,0-2.46-1.93,15.55,15.55,0,0,0-.87-2.1c-1.94-3.92-8.7-2.13-8.36,2.26.25,3.37-.89,6.38-1.82,9.43-.6-.36-1.21-.7-1.83-1-.17-.09-.34-.14-.5-.21a19.44,19.44,0,0,1-3.08-8.74c1-4.65,1.61-9.08.46-13.91a4,4,0,0,0-1.75-2.49,21.63,21.63,0,0,0-1.71-4.56c-1-2-2-3.91-3-5.87.36-1.52.79-3.05,1.31-4.57a3.91,3.91,0,0,0-2-4.9,30.38,30.38,0,0,1,3.61-5.39c3.66-4.38-2.56-10.7-6.28-6.41A22.32,22.32,0,0,1,290,190.6a3.43,3.43,0,0,0,1.69-.63c4.34-3.23,6.84-8.61,5.67-13.92,2.65-1,3.34-4.38,2.07-6.61l0-.05a87.18,87.18,0,0,1,15.09-21.28,2.63,2.63,0,0,0,.78-2.16,3.39,3.39,0,0,0,1.32-1.11c.18-.26.37-.51.55-.76l.21-.28,0,0c.39-.49.78-1,1.19-1.44.82-.94,1.68-1.85,2.57-2.72s1.79-1.65,2.73-2.42l.36-.29s.49-.38.18-.15l.14-.1.38-.28c.52-.39,1.06-.77,1.6-1.13a3,3,0,0,0,1.29-3.18l4.16-1.84a4.61,4.61,0,0,0,4.71-2.38c8.1-13.65,22.87-14.25,37.15-12.91C378.72,115.37,381,107.48,376.43,105.52Z"/><path d="M403.61,209.73a2.87,2.87,0,0,0-3.83-1c-2.33,1-3.63,3.35-4.38,5.67a2.92,2.92,0,0,0-2.67,2c.1-.19.08-.13-.08.17-.09.15-.19.3-.29.44a5.22,5.22,0,0,0-.41.4,7.28,7.28,0,0,1-1.47,1c-1.46.87-3,1.62-4.43,2.5a66.22,66.22,0,0,0-9.2,6.77c-1.86,1.62-.34,4.81,2,4.78a33.32,33.32,0,0,0,9.61-1.46c2.72-.85,6.62-2,7.94-4.79a9.59,9.59,0,0,0,.55-2.45s.11-.22.12-.27l.4-.41a11.42,11.42,0,0,0,2.46-4.18c.4-1.18.6-2.43,1.06-3.59,0,0,.25-.54.25-.54s.43-.7.26-.47a1.94,1.94,0,0,1,1.13-.81C404,213,404.31,210.92,403.61,209.73Z"/><path d="M483.47,234.5a3.36,3.36,0,0,0-2.72.48,2.65,2.65,0,0,0-.7-1.22,2.78,2.78,0,0,0-2-.82,3.05,3.05,0,0,0-1.69.59,3.24,3.24,0,0,1-.47.28l-.16,0h-.15a2.25,2.25,0,0,1-.35-.09,1.71,1.71,0,0,1-.23-.13,2.16,2.16,0,0,0-1-.33,2.13,2.13,0,0,0-1.12,0l-.13.05-1.79-.65a1.27,1.27,0,0,0-.67,0l-.21,0a1,1,0,0,0-.86-.44,1.13,1.13,0,0,0-.37,2.17,1.51,1.51,0,0,0,.21.74l.27.34a1.72,1.72,0,0,0,.74.43l.75.27a1.91,1.91,0,0,0,.1.53l.28.67a2.87,2.87,0,0,0,1,1,3.65,3.65,0,0,0,.55.3,7.88,7.88,0,0,0,1.05.41,3.38,3.38,0,0,0,2.83,2.9l.06,0a2.89,2.89,0,0,0,.73.83,3.44,3.44,0,0,0,1.54,2.12,5,5,0,0,0,6.58-1.48,5.22,5.22,0,0,0,1.06-3.24A4.69,4.69,0,0,0,483.47,234.5Z"/><path class="cls-4" d="M497,385.07l2.7-5.61-.13,0,4.34,10.68-.69.64L496.89,385A.9.9,0,0,1,497,385.07Z"/><path class="cls-4" d="M559.13,355.18c1.18,2.48,2.32,4.83,3.44,7.17a32.14,32.14,0,0,1,.75-3.94,22.94,22.94,0,0,0,.6-3.1Z"/><path class="cls-4" d="M481,63.93c-7.25-6.09-15.68-8.1-25.56-6.94-7.37.87-15.27-.51-22.6-2.28-6.72-1.63-12.76-2-19,1.25-11.42,5.95-22.72,12.2-34.42,17.55-18.23,8.35-30.45,22.75-41.66,38.63-15.63,22.11-32,43.7-47.56,65.84-4.26,6-6.9,13.21-10.3,19.86-.67,1.31-1.39,2.6-2.11,3.89a2,2,0,0,1,.37.89,27.71,27.71,0,0,1-1.44,14.46,8.88,8.88,0,0,0,1.24.28,2,2,0,0,1,1.28,3.14,14.61,14.61,0,0,0-1.88,3.77,4,4,0,0,0,0,2.27c.73,2.26,2.27,4.27,3.25,6.43a18.48,18.48,0,0,1,1.64,9.32,14.85,14.85,0,0,1-2.69,6.72,7.89,7.89,0,0,1,3,8.32,9.54,9.54,0,0,1,3.77,5.45,7.57,7.57,0,0,1-1,5.58,17.17,17.17,0,0,1,3.55,3.32c1.34-.76,3-1.46,3.29-2.54,1.46-5.33,6.78-8.18,11.89-5.87,7.78,3.52,7.88,3.68,6.74,12a43.92,43.92,0,0,1-1.08,5.46c-2.68,10-.44,7.93-10.31,8.2l7,1.94c-.1,5.1-.24,10.08-.24,15a10.71,10.71,0,0,0,.73,4.18c2.36,5.43,1.58,10.75-2.3,14.05,5.17,3.71.32,6.53-.87,9.69l1.54.55L304.12,339c1.67.28,2.39,3,.43,3.76a1.79,1.79,0,0,1-2.2-.6,30.5,30.5,0,0,1-3.43,3.13l.24.12a2,2,0,0,1,1,2c0,.29-.11.56-.13.85a.14.14,0,0,0,0,.07c.91-.21,1.85-.37,2.84-.5a8.84,8.84,0,0,1-3.51,7.09,1.64,1.64,0,0,1,.68.55,4.65,4.65,0,0,1,.68,1.85,4.91,4.91,0,0,1-.05,1.48,19.3,19.3,0,0,1-.63,2.31,6.2,6.2,0,0,0-.19,1.13,1.94,1.94,0,0,1,0,.24l6.25-2.54c-1.52,2.94-2.76,5.36-4,7.79l1.88,1.29c1.88-2.52,3.65-5.12,5.65-7.54,4.62-5.6,9.59-10.56,17.38-11.72,1.9-.28,3.49-2.56,5.21-4l.07.06c1.18.16,2.35.34,3.53.51-.51,1.1-.73,2.66-1.59,3.2-2.79,1.74-5.81,3.1-7.92,4.19l9.31.58c3.37.21,5.83-2.89,5.4-6.39-.15-1.19.36-3.44,1-3.58,4.28-1,8.67-1.65,13-2.39.26.87.53,1.75.8,2.63l-8.93,4.12c-.21,1.13-.66,3.63-1.12,6.13l1.26.75q3.09-3.13,6.17-6.29l.92.58-4.29,7.92,1.18,1a55.43,55.43,0,0,0,4.75-5.46c1.68-2.49,3-5.24,4.44-7.87l2.31,1.37-10.33,16.09c4.14-3.19,7.57-5.89,11.07-8.52s7.05-5.16,11.6-8.47l-1.86,9.48.68.29c1-1.43,2-2.89,3.09-4.28,2-2.6,3.7-6.31,7.59-1.58.4.48,4.27-1.91,6.62-3-.05,5.15-5.65,11-2.06,17.94,3.28-2.51,2.48-10.11,9.46-6.62-.45-3.22-1.14-6.14-1.12-9.06,0-.95,1.87-1.89,2.89-2.83h.06c-.12,2.69-.38,5.37-.3,8,.11,3.48.5,7,.79,10.67,1.13-1.4,2.31-2.85,4.36-5.4.47,3.18.71,4.83,1,6.59,5.73-6.38,7.24-14.37,3.72-21.8-.47,2.45-.81,4.27-1.15,6.08l-1.48.06c-.14-2.07-1-4.54-.19-6.12s3.35-2.45,5.43-3.82c1.65,9.76,7.16,18.4-.34,26.68l5.57-5.13c.32-2,.64-4,1.16-7.17l2,5,6.14-6.83,1.22,2.28c.35-1.42.7-2.85,1.29-5.23l4.23,4.45,1-5,1.8-.38q2.64,9.76,5.26,19.52c.64-4.16,1.29-8.41,2.18-14.26l9.42,9.18,1-.67-3.84-6.92c6.29,4,10.06,7.5,14.31,21.43l1.53.12c.08-1.85.8-4,.13-5.49-2.13-4.82-4.77-9.4-7.21-14.08l1.92-1.24,4.88,7c8.8-6.5,5.29,4.82,9.15,6.5.26-7.07-2.32-11.75-10-14.32,8.1-1.57,10,4.14,13.39,8.35,2-2.25,4.3-3.89,6.67.85.21-.74.43-1.48.64-2.23q-5.39-4.4-10.78-8.78l1.73-1.75c5.36,6.9,15.4,8.84,18.22,18.44,5,1,3.61,5.47,4.72,8.59l-.13,0,6.89,2.41-1.65-5.33,14.05,8,.83-1.13c-4-3.38-10.42-5.23-8.14-13.38,2.37,1.46,4.37,2.61,6.28,3.9,2.41,1.62,4.74,3.36,7.11,5l1-1.33-5-7.07.37-.3L531.33,379l1.16-1.32c-4.87-4.14-9.89-8.11-14.55-12.48-2.47-2.33-4.3-5.34-6.42-8l1.33-1.07,7.49,4.95c1.43-8.63-6-11.82-8.3-18.31l4.5-.45-9.69-10.74c.44-.53.87-1.07,1.31-1.61,7,.86,14.24,1.1,19.84,6.68l5.08-.67c-6.32-3-12.77-5.79-18.86-9.22-1.65-.93-6.22-1.7-3.28-5.82-1.36-4-3.32-8.22,4.28-7.52-5-4.8-5.47-9.75-1.64-13.33A78.91,78.91,0,0,1,536,312.21l-.74,1.29-4.19-2.34-1.29,1.34,6,6.19.18-.09c5,2.32,10.07,4.41,14.84,7.08,1.37.77,1.8,3.22,2.65,4.89,2.52,2.49,7.34,3.37,5.83,9.26L555,337a5.16,5.16,0,0,0,.08.7c-.2,6.21,4.44,9.26,8.3,13.35-.76-2-2-3.84-2.61-5.93a14.6,14.6,0,0,1-.13-7.31c.66-2.95,2-5.85,2.28-8.87-.65.2-1.24.32-1.55.08-2.47-1.89-2.94-4.21-.23-7a20.72,20.72,0,0,1-.62-2.31,26.92,26.92,0,0,1-.21-10.39,94.61,94.61,0,0,1,2.86-9.75,52.07,52.07,0,0,0,2.65-12.68,40.46,40.46,0,0,0-1.55-12.57c-2.72-9.87-6.82-19.1-10.68-28.56a1.93,1.93,0,0,1-.12-1c-1-.66-2-1.34-3.05-1.94-6.7-3.87-5.06-10.59-5.61-16.53-.08-.84.26-2.23.85-2.55,5.1-2.75,3.06-7,2.18-10.73-4.55-19.63-9-39.29-14-58.82-7.15-28.18-20.57-53.21-39.29-75.39C490.29,73.56,486.05,68.21,481,63.93ZM305.2,262.48c-.11-.56-.23-1.12-.34-1.69,2.1-.63,4.29-1.89,6.27-1.62.93.13,1.45,3.21,2.16,4.95l-2,.75Zm5.1,43.74,10,3.3-2.71,5.2c-1.43-7.45-5.4-2.27-8.9-3.35C309.33,309.38,309.88,307.56,310.3,306.22Zm12.18,16,.16,2L309.74,327C313.44,320.61,318.85,324.89,322.48,322.2Zm2.31,9.42a14.4,14.4,0,0,1-5.29,2.07c-1.7.22-3.51-.39-6.27-.77,2.23-1.64,4.08-3.48,6.31-4.46,1.39-.61,3.39-.1,5,.3C324.89,328.84,325.18,331.38,324.79,331.62Zm-6.39,17.14c2.56-6.19,8.46-7.75,13.66-3.09Zm14.81-7.3c-1.85.39-4.18-1.56-6.91-2.7l-12,3.39c1.81-5.58,7.6-3.82,10.32-6.22,4.21-3.71,8.21.3,11.18-.9,4.46-1.8,7.45-1.39,11.24,1.77C342.28,338.49,337.86,340.5,333.21,341.46ZM344.85,329l-14.15,2.53-.39-2.11,13.89-2.25C344.41,327.79,344.63,328.4,344.85,329Zm13-59.65-15.78-4.45.36-1.31,15.83,4.25C358.17,268.35,358,268.85,357.89,269.36Zm47,86.94-1.62.4q-1.56-5.24-3.11-10.47c.83,0,2.19-.23,2.24-.05C403.32,349.52,404.09,352.92,404.88,356.3ZM384.69,313c-5.57-4.27-9.09-9.35-9.86-16.67,3.21.19,5.81.18,7,4.44,1.88,6.9,9,7.17,14.24,9,4.7,1.59,5.61,5.11,8.73,9.1C396.09,320.11,390.35,317.35,384.69,313Zm40.95,6.08c-2.77,1.73-7.4.58-11.17.41-.52,0-1.58-2.76-1.32-3a42.55,42.55,0,0,1,7.67-5.6c1.65-.87,3.94-.41,5.83-1s5-1.16,5.6-2.57c2.67-6.33,7.15-5.12,12.93-3.59C438.35,309.28,432.43,314.88,425.64,319.09Zm99-20.13-11.13,1-2.57-1.72c-.38-3.12-1-5.28-.8-7.37a14.7,14.7,0,0,1,1.33-4.26c-.24-2.86-1.06-5.53-.38-6a8,8,0,0,1,5.52-.9c.76.13,1.12,2.46,2,4.67C527.86,284.26,525.73,291.8,524.63,299Zm-23.21-75.82-13.15,6.48-.28-.89c2.36-2.63,4.43-5.65,7.21-7.7,1.21-.88,3.89.25,5.91.46Zm46.2,98.78-1.49-.83c1.68-2.31,3.48-4.64-2.78-4.95l2.92-1.51,5.3,4.33ZM524.76,205.44c-.65,2.18-2,4.15-3.29,6.58-3.69.12-7.64-.44-9.23-5.75-.25-.84-3.41-1.83-4.12-1.29-1.56,1.19-3.77,3.81-3.33,5,1.5,3.94-.43,5.77-3.86,8.53l.43-10.29-1.3.53c-1.2,5.93-5.17,9.52-11,13-.14-3.35-.24-5.85-.34-8.35l-1.31-.3c-.58,1.55-1.64,3.11-1.63,4.65.05,4.64-2.75,6.59-6.53,8s-6,.47-9.42-2c-4-3-9.69-3.51-14.05-4.91.43,1.45,1.14,3.84,2.29,7.74-6.87-3.89-12.8-6.81-18.26-10.43-7.12-4.71-3.14-13.42-6.81-20.53l-2.72,8.52c-1.19-2.21-2.19-3.35-2.43-4.62-1.23-6.58-.61-13.53-6.82-18.65-2-1.64-1.64-6.09-2.48-9.78l-5.25-.73c2.28,5.18.74,9.27-4,10.92-3.15,1.1-3.23,2.62-1.26,4.91.95,1.1,1.76,2.34,3,4-4,.88-6.61,2.29-4.55,6.75.26.55-2.06,2.29-3.15,3.44l4.69,3.5c-3.51-.58-6.66-2-9.3-1.3s-5,3.22-7.3,5.2c-9.17,7.94-18.84,14.51-31.76,14.29-9.65-.17-17.72-3.55-24.32-10.54-.89-.94-1.73-2-2.65-2.88-.19-.19-.67-.1-2,.82l11.87,11.52c-7.46-.8-13.58-4.68-16.92-11.93-1.66-3.61-6-6.36-4.4-11.35.08-.24-1.35-1.36-2.08-1.36a2.57,2.57,0,0,0-2,1.5c-1.3,6.09-5.66,7.72-10.31,7.9-1.45,2.32-2.67,4.29-4.41,7.09-.72-11-1.23-20.54-2-30.06-1.06-13.37,4.19-24.11,14-32.67,5.15-4.51,10-10.6,18.35-8.25,5.78-6,14-3.41,20.91-5.18,5.61-1.45,11.51-6.65,18.18-2.89,10.67-5.14,19,4.54,29.53,3.3,1.08-2.11,2.9-3.69,6.48-.41,1.63,1.49,4.36,1.77,6.59,2.61l6.27.68c3.93-2.16,7.67-2.85,12-.29,1.77,1,5.62,1.26,6.87.09,5.36-5,11.75-2,17.55-3.09,2.13-.38,4.38-.12,6.55-.35s5-1.7,5.32,2.45a2,2,0,0,0,1.21,1.32c8.34,2.72,17,4.73,25,8.2,11.54,5,20.52,12.55,27,24.31C528.4,183.8,528.11,194.18,524.76,205.44Z"/><path class="cls-4" d="M500.06,208.7c-4.17-2.94-8.08-6.39-12.57-8.72-11.71-6.09-24.57-6.55-37.45-6.66-2.43,0-4.87-.76-7.3-1.17v-1.56l8.72-.06-1-3.69c5.1-1.81,9.87-4,14.89-5.16,10-2.24,17.52,3.15,24.23,9.54,2.5,2.39,3.78,6,6.19,8.56,2.07,2.16,5,3.53,7.66,5.37-.17.26-1.14,1.64-2.1,3Z"/><path class="cls-4" d="M530,326.74c2-7.79-5.12-8.41-8.8-12.38l14.58,4.33.18-.09,12.9,8.59c-.41,4.79,1.39,8.2,6.12,9.77a4.53,4.53,0,0,0,.08.68c-3,1.45-6,2.92-9.25,4.49l7.3,6.9L552,350.45l-19.17-14.64,4.74-1.44c-.65-1.43-1-3.23-2-4.22C534,328.71,531.89,327.85,530,326.74Z"/><path class="cls-4" d="M420.82,139.87l14.52,7.19c-3.54,4.26-14,3-19.86-2.32-3.19,2.36-6.26,3.09-7.54-1.65l6.61-3.9Z"/><path class="cls-4" d="M428.31,401.47c.33-.17.67-.32,1-.5,5.51-2.89,11.11-7.09,15.6,2.69,1.14-9.91,2.24-11,11-13.76,2.19-.7,3.88-2.83,6-4,1.33-.71,3-.79,4.54-1.16.34,1.55,1.17,3.18.92,4.62-.48,2.72-1.07,5.69-2.58,7.9-1.28,1.86-3.93,2.78-6,4.12l-.84-1.33L452.8,414c7.24,1.94,16.19-1.62,20.71-8.14,3.56-5.12,7.55-9.93,11.35-14.88l2,.55c-.21,1.74.18,4-.75,5.15-4.13,5.27-8.68,10.2-13,15.33-.79,1-1.09,2.29-1.74,3.38s-1.14,2.44-2.06,2.81c-8.66,3.55-17.82,2.91-26.89,2.84a30,30,0,0,1-3.79.05c-3.69-.5-6.78,3.87-11.38.17-2.16-1.73-7.71,1.41-11.64,1.11-13.41-1-27.15.68-40.15-4.43-2.14-.83-4.75-.38-7.09-.82-3.42-.64-6.79-1.55-10.18-2.34l.36-2,24.54.36c-1.31-3.23-3.51-6-2.88-7.82s3.95-3,6.29-4c1.27-.55,2.94-.17,4.43-.21,5.35-.12,11.14-1.14,12.64,7.26,2.31-7.56,7.56-5.79,12.45-5.75,4.1,0,8.2-.83,12.31-1.3Z"/><path class="cls-4" d="M417.46,361.91c.38,2.53.77,5.06,1.15,7.55,6.53,1.36,6.63,1,6.76-5.46.06-3,1.75-5.88,2.69-8.82-.12,2.58-.66,5.22-.25,7.71.35,2.08,1.8,4,2.76,6l4.63-3.24a34.89,34.89,0,0,1-4.44,28.32c-1.36,2.16-1.66,5-2.45,7.53a.93.93,0,0,0,.05-.1c-2.51-.84-5-1.85-7.53-2.5-6.23-1.58-12.51-3-18.78-4.44a7.65,7.65,0,0,0-3.07-.24c-4.65.93-9.24,2.56-13.92,2.91-10.89.82-20.61-11.94-17-22.37.89-2.59,3.51-4.59,5.59-7.19,8.45,6,20.15,6.64,26.92,16.49C408.22,378.32,417.49,373.8,417.46,361.91Z"/><path class="cls-4" d="M496.89,385c-2.83,10.3,6.57,15.29,9.95,22.9a1.66,1.66,0,0,1,0,1.53c-1.28-1.26-2.36-2.95-3.9-3.65-1.33-.61-3.18-.1-5.58-.07,1.4,2.82,2.55,4.54,3.13,6.43.84,2.75.94,5.1-2.45,6.9s-6.21,4.83-9.37,7.21c-1.73,1.3-3.64,2.36-5.5,3.56,2.53,2.77,2.9,5.83-.55,9.08-.93.88-.68,2.89-1.35,4.19-.9,1.74-1.91,4.39-3.31,4.72-4.25,1-7.26-1.67-8.27-5.53-.46-1.79.94-4.18,1.85-6.14.53-1.16,2-1.86,2.59-3,2.17-4.29,4.09-8.71,6.25-13a20.9,20.9,0,0,1,2.56-3.41c.28-2,.06-4.42,1-6.27,4.18-8.53,8.68-16.9,13.07-25.33Z"/><path class="cls-4" d="M347.91,388.75c5.79-3,8.82-1.41,9.41,4.89.29,3.09.54,6.18.87,9.27,0,.19.62.33,1.3.68.85-.66,1.86-1.39,2.81-2.18a8.83,8.83,0,0,1,13.53,2.75c1.41,2.84-.63,6.16-4.29,5.93-4-.25-8-1.77-12-2.3-12.08-1.58-11.84-10.38-11.57-19.27Z"/><path class="cls-4" d="M456.27,368.14c2.08,5.06-3.33,16.76-7.56,17.4-1.13.18-3.09-1.06-3.68-2.17-1.31-2.49,3.17-9.57,6-10C455.36,372.69,455.36,372.69,456.27,368.14Z"/><path class="cls-4" d="M347.91,388.75l.08-.23-5.23,5.85c-1.11-2.18-2.77-4.25-3.2-6.56-.52-2.75-2.49-7.12,2-7.69,1.74-.22,4.13,4.1,6.09,6.46C348,387.06,347.83,388,347.91,388.75Z"/><path class="cls-4" d="M551.62,368.66l-8.8-5.77,2.23-5.88c2.41,2,6.78,2.45,2.52,6.79l4.88,3.33Z"/><path class="cls-4" d="M470,463.44c-1.76-1.84-4.42-3.49-4.22-4.66.39-2.33,2.27-4.45,3.76-6.5.23-.32,2-.08,2.41.43a3.84,3.84,0,0,1,.48,2.87C471.91,457.85,471.08,460.05,470,463.44Z"/><path class="cls-4" d="M358.29,361.18l-4.05,11.34-1.95-.75,4.47-11.17Z"/><path class="cls-4" d="M386.3,192.92c-19.21-8.13-37.69-5.47-56,1l6.38-6.56c6.49,2.44,8.73-3.82,12.19-7.26a15.26,15.26,0,0,1,14.24-4.53c4.48.84,9.88.93,11.54,6.84C380.56,181,385.05,184.92,386.3,192.92Z"/><path class="cls-4" d="M350.17,209.17l12.49,8.89c-3.57.19-7.12,1.44-8.48.23-2.5-2.23-3.72-5.89-5.47-9Z"/><path class="cls-4" d="M469.89,178.84c7.28-4.36,11.42.11,16,1.91l-.29,1.47Z"/><path class="cls-4" d="M484.33,246.65c-1.83-1-3.69-2-5.49-3s-2.71-2.61-4.06-4c-2.52-2.59-6-3.88-9.33-5.09-.68-.25-1,.83-.29,1.08a44.16,44.16,0,0,1,4.93,2,.44.44,0,0,0,.11.6c4.21,3.49,8.41,7.65,13.7,9.42A.56.56,0,0,0,484.33,246.65Z"/><path class="cls-4" d="M489.65,235.41c-2.25-.52-4.48-1.13-6.69-1.8a.5.5,0,0,0-.4-.59l-.85-.14a13.6,13.6,0,0,0-4.23-.84c-.86-.14-1.73-.27-2.61-.36h0l-.15,0c-.67-.07-.7.9-.15,1.11.27.1.55.17.83.27a.54.54,0,0,0,.26.15l.68.15a21,21,0,0,0,4.23.73q4.33,1.41,8.78,2.43C490.05,236.65,490.35,235.57,489.65,235.41Z"/><path d="M530.37,151.72a2.91,2.91,0,0,0,3.86-3.32,87.14,87.14,0,0,0-9.45-24c-2.19-3.8-4.57-7.48-6.59-11.38a94.1,94.1,0,0,1-5-11.62,3.49,3.49,0,0,0-.53-1,2.87,2.87,0,0,0-1-1.72.84.84,0,0,1-.06-.14q-4.58-7.87-9.52-15.53a2.86,2.86,0,0,0-3.84-1l0,0c0-.14-.06-.29-.1-.42a.57.57,0,0,0-.69-.39.56.56,0,0,0-.35.29l-.78-1.81a.56.56,0,0,0-1,.56L496.91,84a2.5,2.5,0,0,0,.32,1.89q5,7.63,9.52,15.52a1.91,1.91,0,0,0,.24.32c0,.05,0,.09,0,.13a8.49,8.49,0,0,0-1,2l-.73-.1-.75.1-.67.29a2,2,0,0,0-.79.72,1.43,1.43,0,0,0-.36.62,1.41,1.41,0,0,0-.19.7,1.58,1.58,0,0,0,0,.75,2.07,2.07,0,0,0,.34,1,1.51,1.51,0,0,0,.15.28,8.16,8.16,0,0,0,.5.66l.12.14a5,5,0,0,0,.5.42,4.21,4.21,0,0,0,.55.39,2.16,2.16,0,0,0,1,.33h.1c-.16,1.29-.31,2.57-.46,3.86-.45-.56-.92-1.1-1.41-1.6a20.33,20.33,0,0,0-6.22-4.3,2.86,2.86,0,0,0-1-3.81c-1.22-.65-3.2-.43-3.84,1a28.07,28.07,0,0,1-3.05,5.25,1.29,1.29,0,0,0-1-.21,1.31,1.31,0,0,0-.82.58c-.12.15-.28.51-.44.58a.62.62,0,0,0-.35.32h-2.9a.57.57,0,0,0-.29,1,19.15,19.15,0,0,0,5.8,2.45.54.54,0,0,0,.63-.33,3.51,3.51,0,0,0,1.35.37c1.55.15,3.1.32,4.65.45h0l.38.08.13,0a3,3,0,0,1,.07.32,6.5,6.5,0,0,0,2.93,4.17l3.77,2.75a2.74,2.74,0,0,0,2,2.84c4.07.62,6.68,4.18,9,7.3a57.22,57.22,0,0,1,4,5.92c1.08,1.95.9,4.12,1.52,6.21a11.73,11.73,0,0,0,1.57,3.17c.21.32,1,1.19,1,1.5s-.46.67-.55.83a7.73,7.73,0,0,0-.78,1.85,7.43,7.43,0,0,0,.05,3.57c.53,2.21,1.91,4.08,2.85,6.12a17.23,17.23,0,0,1,1.48,6.89c0,3.13,4.69,3.86,5.5.75,1.57-5.93-1.21-11.65-1-17.59Zm-16.14-29.83-2.33-1.36c-.49-.28-1.1-.55-1.61-.9,0-.45.13-.94.17-1.36l.21-2a34.16,34.16,0,0,1,5.14,5.34c.41.61.8,1.23,1.18,1.87Z"/><path d="M310,288.49a4.62,4.62,0,0,0-.87-.22,5,5,0,0,0-1.23,0,4.11,4.11,0,0,0-4.19-3.38,4.23,4.23,0,0,0-4.33,4.42l-.3.86a1.13,1.13,0,0,0,.78,1.38h0a4,4,0,0,0,3.75,2.31c-.35.67-.83,1.34-1.12,1.93a33.24,33.24,0,0,0-1.58,3.81,29.67,29.67,0,0,0-1.36,8c-.26,5.77,8.71,5.76,9,0a19.26,19.26,0,0,1,1.72-7.27c.62-1.34,1.26-2.53,1.76-3.77a7.24,7.24,0,0,0,1.27-2.68A4.4,4.4,0,0,0,310,288.49Z"/><path d="M434.8,69.31a40.35,40.35,0,0,0-6.41-.16c-1.86.11-3.85.64-5.71.44s-3.31-1.29-5-1.67a7.31,7.31,0,0,0-5.93.86,2.87,2.87,0,0,0-1,3.83,2.83,2.83,0,0,0,3.84,1l.27-.19a3.25,3.25,0,0,0,1.47,1.06c6.28,2.34,14,4.54,19.92,0A2.83,2.83,0,0,0,434.8,69.31Z"/><g class="cls-5"><path class="cls-6" d="M144.48,568.78a179.69,179.69,0,0,0,8.77,27.61c3,7,6.56,10.05,10.84,9.14,2.65-.57,4.78-3.58,6.43-9A88.21,88.21,0,0,0,173.68,576a240,240,0,0,0-.29-27.65A224.69,224.69,0,0,0,169.48,518,140.24,140.24,0,0,0,165,502a77.17,77.17,0,0,0-8.84-18.49,103.15,103.15,0,0,1-6.53-10.91,44.39,44.39,0,0,1-3.81-11.08c-1.06-5.14-.64-9.45,1-12.82a10.23,10.23,0,0,1,7.38-6.06c2.67-.53,5.56.45,8.37,3,2.52,2.24,4.88,5.69,7.07,10.1a113.49,113.49,0,0,1,5.8,14q2.49,7.35,4.26,14.26c1.18,4.61,2.07,8.41,2.58,11.34,1.95,11.2,3.37,22.51,4.38,33.87a282,282,0,0,1,.81,32.63,243.46,243.46,0,0,1-2.55,29.49,124,124,0,0,1-5.88,24.1,52,52,0,0,1-8.92,16,22.62,22.62,0,0,1-12.32,7.71c-7.17,1.62-13.91-1.23-20.39-8.31-7.44-8.11-11.45-18.1-15.33-28.26-.42,5.26-1,10.1-1.74,14.54a106,106,0,0,1-2.83,12.53,52.15,52.15,0,0,1-8.11,16.48,22.74,22.74,0,0,1-12,8.35,16.21,16.21,0,0,1-11.31-.85,33.1,33.1,0,0,1-10.78-8.15,67.78,67.78,0,0,1-9.61-13.93,112.66,112.66,0,0,1-7.59-17.86q-16.32-49.1-32.82-98.12c-3.54,1.09-5.31,1.64-8.84,2.75a2.83,2.83,0,0,1-3.12-1.17,11,11,0,0,1-2.15-3.84,9.51,9.51,0,0,1-.4-4.59,3.12,3.12,0,0,1,2.09-2.63c2.79-.88,4.19-1.31,7-2.17a17.44,17.44,0,0,0,10.2-6.83,58.93,58.93,0,0,0,6.52-11.5,30.19,30.19,0,0,0,2.17-6.68,47.88,47.88,0,0,0,.67-7.41,3.8,3.8,0,0,1,1.48-2.76,4.22,4.22,0,0,1,2.74-1.17,5.56,5.56,0,0,1,2.56,1,5.14,5.14,0,0,1,2.08,3.12c1.1,4.27,2.11,8.82,3.2,13.31s2.27,9,3.55,13.6l3,10.64q1.47,5.24,3.22,10.57Q71.15,552.3,81,584.77A173.76,173.76,0,0,0,90.82,612c3.25,6.87,7,9.73,11.21,8.58,2.63-.71,4.57-3.81,5.87-9.32a93.21,93.21,0,0,0,2-20.65A227.62,227.62,0,0,0,108.07,563a233.83,233.83,0,0,0-5.61-30.08q-7.12-27.39-14.27-54.76c-1.21-4.84-.35-7.64,2.61-8.38,9.3-2.61,14-3.88,23.29-6.32,2.14-.5,3.66-.13,4.54,1.08a16.22,16.22,0,0,1,2.22,5.83Q132.71,519.58,144.48,568.78Z"/><path class="cls-6" d="M296.6,519.76a194.19,194.19,0,0,1,.14,35.76,135.77,135.77,0,0,1-6.44,31.56c-3.23,9.34-7.48,17.11-12.83,23.16A31,31,0,0,1,258,620.9c-8.56,1.18-16.07-.4-22.66-4.8s-12.38-10.72-17.42-18.8c-5.61-9-9.67-19-12.83-28.78a262.27,262.27,0,0,1-8.56-35A216.9,216.9,0,0,1,193.05,498c-.06-10.42.85-21.47,3.93-31.85,2.81-9.51,7.17-17.59,13.2-24s14-10.29,24-11.65c10.1-1.38,18.88.24,26.21,4.78s13.49,11.17,18.5,19.61c5.5,9.26,9.12,19.65,11.72,29.69A225.86,225.86,0,0,1,296.6,519.76ZM230.24,528q1.29,8.53,3.75,21.8t5.78,25.47a113.85,113.85,0,0,0,7.63,20.85c2.87,5.77,6,8.4,9.58,7.92s5.87-3.94,7.07-10.4a130.4,130.4,0,0,0,1.89-22.53q.1-12.86-1.07-26.12t-2.19-21.44q-1.17-9.28-3.19-22.64a256.08,256.08,0,0,0-5.17-25.59,91.75,91.75,0,0,0-7.64-20.56c-3-5.53-6.41-8-10.24-7.52-4,.54-6.73,4-8.19,10.23a97.78,97.78,0,0,0-2.17,22.09,255.8,255.8,0,0,0,1.42,26.12Q228.91,519.08,230.24,528Z"/><path class="cls-6" d="M404.38,513.76a194.65,194.65,0,0,1-2.85,35.64,135.58,135.58,0,0,1-9,30.92c-4,9-8.86,16.42-14.69,22a30.87,30.87,0,0,1-20.29,9c-8.61.46-15.94-1.74-22.13-6.67s-11.42-11.72-15.76-20.2c-4.83-9.42-8-19.75-10.36-29.75a262.55,262.55,0,0,1-5.59-35.61,215.31,215.31,0,0,1-.48-35.71c.8-10.38,2.63-21.31,6.55-31.41,3.59-9.24,8.59-16.92,15.11-22.77s14.83-9.08,24.82-9.6c10.16-.53,18.76,1.82,25.68,7s12.49,12.25,16.78,21.08c4.7,9.68,7.44,20.34,9.19,30.56A228.07,228.07,0,0,1,404.38,513.76Zm-66.7,2.65q.56,8.6,1.91,22t3.63,25.86a113.9,113.9,0,0,0,5.85,21.41c2.38,6,5.32,8.89,8.87,8.7s6.17-3.44,7.9-9.77a131.36,131.36,0,0,0,3.76-22.3q1.17-12.8,1.11-26.11t-.41-21.55q-.37-9.36-1.28-22.83a255.63,255.63,0,0,0-3-25.94,91.71,91.71,0,0,0-5.88-21.12c-2.51-5.76-5.71-8.55-9.56-8.35-4,.21-7,3.39-9,9.51a98.53,98.53,0,0,0-4,21.83,254.8,254.8,0,0,0-.75,26.15Q337.08,507.43,337.68,516.41Z"/><path class="cls-6" d="M475.68,593.87c-.24-1.26-.48-2.46-.73-3.59s-.5-2.33-.74-3.6a196.52,196.52,0,0,1-15.22,15c-4.84,4.23-9.49,6.3-14,6.21-6.44-.12-11.77-2.92-16.09-8.44s-7.74-12.8-10.34-21.74a163,163,0,0,1-5.63-30.51c-1-11.7-1.88-23.51-1.92-35a255.3,255.3,0,0,1,2.49-34.68,121.71,121.71,0,0,1,8.26-30.38c3.75-8.81,8.49-16,14.27-21.29a27.9,27.9,0,0,1,20.17-7.72A20.84,20.84,0,0,1,468,422.39a30.08,30.08,0,0,1,9,10.26,27.61,27.61,0,0,0,1.88,3.45q1.42-34.82,2.87-69.64c-3.69-.15-5.54-.22-9.23-.35a2.74,2.74,0,0,1-2.57-2.15,11.93,11.93,0,0,1-.65-4.33,8.83,8.83,0,0,1,1.21-4.46,3.22,3.22,0,0,1,3-1.77c3.08.11,4.62.16,7.71.29a23.66,23.66,0,0,0,12.95-3.17,39,39,0,0,0,11-9.55,57.9,57.9,0,0,0,8.09-13.42,4,4,0,0,1,2.18-2.11,3.83,3.83,0,0,1,2.87-.2,4.61,4.61,0,0,1,1.93,1.63,4.9,4.9,0,0,1,.73,3.43c-.48,4.56-1.3,9.37-1.88,14s-1.26,9.31-1.85,14c-.47,3.67-.79,7.4-1.12,11s-.6,7.28-.85,11q-5.13,78.9-10.27,157.8-.58,9-1,15.15c-.26,4.11-.45,7.54-.55,10.29s-.18,5.12-.24,7.12,0,3.9,0,5.63c0,5.17,1.13,8,3.52,8.12,1,.07,2.14-.6,3.29-2a51.55,51.55,0,0,0,3.53-5,54.32,54.32,0,0,0,3.3-6.15c1-2.17,1.86-4,2.59-5.43,2-4.36,4.11-5.83,6.08-4.4s1.9,4.82.07,10.16a132.58,132.58,0,0,1-5.66,13.82,92.38,92.38,0,0,1-7.24,12.6,44.48,44.48,0,0,1-9.15,10.24,14.79,14.79,0,0,1-10.12,3.49,15.49,15.49,0,0,1-11.26-5.31A31.46,31.46,0,0,1,475.68,593.87ZM459,578.63c4.34.13,7.85-2.8,10.57-8.82s4.32-14,4.74-24Q475.64,514,477,482.16c.16-4,.13-8.19-.1-12.57a65,65,0,0,0-1.61-11.88,25.78,25.78,0,0,0-3.88-9,8.2,8.2,0,0,0-6.61-3.78c-4.15-.13-7.54,1.91-10.12,6.09a50,50,0,0,0-5.9,16.18A153.34,153.34,0,0,0,446,489.11q-.69,12-.89,23.22-.21,12.38.39,24.18a194.26,194.26,0,0,0,2.13,21.22A54.44,54.44,0,0,0,452,572.82Q454.75,578.51,459,578.63Z"/><path class="cls-6" d="M620.58,528.91a193.41,193.41,0,0,1-8.76,34.68,135.53,135.53,0,0,1-14.1,29c-5.45,8.23-11.5,14.7-18.19,19.24A31,31,0,0,1,558,617.27c-8.58-1-15.45-4.37-20.73-10.27s-9.3-13.46-12.17-22.54c-3.19-10.1-4.62-20.82-5.25-31.07a261.28,261.28,0,0,1,.43-36,217.5,217.5,0,0,1,5.48-35.29c2.53-10.1,6.15-20.58,11.7-29.87,5.09-8.52,11.3-15.26,18.71-19.93s16.14-6.48,26.1-5.33,18.22,4.93,24.2,11.15,10.29,14.17,13,23.6c3,10.33,4,21.29,4,31.67A226.15,226.15,0,0,1,620.58,528.91Zm-66.32-8.53q-.88,8.58-1.79,22t-.74,26.11a113.52,113.52,0,0,0,2.2,22.09c1.35,6.3,3.77,9.64,7.31,10s6.66-2.36,9.42-8.32A130.23,130.23,0,0,0,578.1,571q3.28-12.42,5.45-25.56t3.21-21.32q1.18-9.29,2.54-22.71a258.06,258.06,0,0,0,1.35-26.09,91.79,91.79,0,0,0-2.28-21.81c-1.52-6.09-4.22-9.38-8-9.82-4-.47-7.5,2.16-10.47,7.87a99,99,0,0,0-7.59,20.86,255.75,255.75,0,0,0-5.11,25.65Q555.17,511.42,554.26,520.38Z"/><path class="cls-6" d="M711.55,477.27a47.26,47.26,0,0,1-9.32,20.22q-6.66,8.16-14.11,8.16a8.38,8.38,0,0,1-8-4.47c-1.66-3-1.55-7.24.37-12.72,1.5-4.28,2.73-8.12,3.65-11.5a57.31,57.31,0,0,0,1.62-11.52c.24-4.19-.76-7.48-3.26-9.61s-5.14-2.82-7.85-2.06a12.41,12.41,0,0,0-6.87,5.21,24.6,24.6,0,0,0-3.78,9.6,62.22,62.22,0,0,0-1,16.76,45.11,45.11,0,0,0,3.11,13,63.12,63.12,0,0,0,5.77,10.82c2.24,3.35,4.73,6.83,7.22,10.39s5,7.5,7.76,11.9a93.39,93.39,0,0,1,7.25,14.17,66,66,0,0,1,4.26,15.89,48.67,48.67,0,0,1-.91,17.46,107.43,107.43,0,0,1-7.29,22.18,65,65,0,0,1-11.28,16.71c-5.17,5.53-10.35,9.35-15.6,11.46A27.32,27.32,0,0,1,647.7,631a36.05,36.05,0,0,1-14.92-6.57q-6.74-5-10.83-15.55a55.1,55.1,0,0,1-3.7-14.85,63.69,63.69,0,0,1,.73-16,58.52,58.52,0,0,1,5.44-17.15,63.22,63.22,0,0,1,9-13.53c1.36-1.54,2.67-2.9,3.91-4.09s2.5-2.29,3.8-3.34a56.8,56.8,0,0,1-3.39-9.7,91.77,91.77,0,0,1-4-18.51,77.59,77.59,0,0,1,1-19.59,86.94,86.94,0,0,1,5.8-20.32A56,56,0,0,1,651.41,455c10.21-8.86,20.55-17,35-15a34.72,34.72,0,0,1,13.83,5.23,25.27,25.27,0,0,1,9.85,11.43,28.39,28.39,0,0,1,2.31,9.12A36.81,36.81,0,0,1,711.55,477.27ZM669.67,596a29.35,29.35,0,0,0,.42-11.77,35.81,35.81,0,0,0-3.23-9.06,99.62,99.62,0,0,0-8.39-14c-3.24-4.56-6.74-7.17-10.43-7.84a6.46,6.46,0,0,0-4.2,1,13.87,13.87,0,0,0-4.2,3.64A29,29,0,0,0,633,574.6a56.26,56.26,0,0,0,.89,15,42.65,42.65,0,0,0,4.94,12.29,22.91,22.91,0,0,0,4.79,5.63,36.87,36.87,0,0,0,5.76,3.94,12.27,12.27,0,0,0,5.93,1.14,9.59,9.59,0,0,0,6.44-2.55,26.89,26.89,0,0,0,4.83-5.72A25,25,0,0,0,669.67,596Z"/><path class="cls-6" d="M790.43,589.81q-2.61,8.61-4.4,14.53t-2.87,9.89c-.72,2.66-1.34,4.95-1.84,6.88s-.92,3.8-1.3,5.48c-1.14,5-.69,8,1.62,8.72,1,.31,2.24-.09,3.7-1.21a50.81,50.81,0,0,0,4.6-4.06,53.82,53.82,0,0,0,4.64-5.23c1.47-1.89,2.73-3.45,3.77-4.7,3-3.77,5.37-4.73,7-2.88s.77,5.14-2.23,9.91a132.7,132.7,0,0,1-8.7,12.17,93.41,93.41,0,0,1-10,10.6,44.88,44.88,0,0,1-11.32,7.88,15,15,0,0,1-10.75,1.07,15.71,15.71,0,0,1-9.87-7.75,31.47,31.47,0,0,1-3.45-13.63,47.11,47.11,0,0,1,.38-8.06,159.33,159.33,0,0,1-17.54,13.28c-5.55,3.57-10.85,4.71-16,3.41-4.28-1.09-7.56-3.89-9.88-8.44a50,50,0,0,1-4.74-16.15,94.88,94.88,0,0,1-.46-19.93,121.89,121.89,0,0,1,3-20.08,158.28,158.28,0,0,1,12.93-33.93c4.24-8.34,12.41-17.53,20.87-22a70.43,70.43,0,0,1,.48-31.12,49.45,49.45,0,0,1,6.85-16.08,34.67,34.67,0,0,1,10.45-10.16,32.41,32.41,0,0,1,12-4.49,29,29,0,0,1,11.89.59A42.21,42.21,0,0,1,797.63,474,38.33,38.33,0,0,1,808,490.64c5,16.07,2.18,31.65-1.91,47.52Q798.24,564,790.43,589.81Zm-14.77-61.23q2-7.22,3.32-14.82a71.06,71.06,0,0,0,1.15-14.06,26.27,26.27,0,0,0-2.36-10.94,10.56,10.56,0,0,0-7.08-5.76c-3.42-.9-6.88,0-10.35,2.73s-5.88,6.89-7.29,12.46a96.46,96.46,0,0,0-2.45,12.71,47.65,47.65,0,0,0,.41,12.29c1.33.08,2.56.2,3.7.37a22.35,22.35,0,0,1,3.12.62,27.1,27.1,0,0,1,8.81,4.47,35.69,35.69,0,0,1,6.92,7.52Zm-17.57,63.57q5.38-19.5,10.78-39a36.24,36.24,0,0,0-4-4.19,10.82,10.82,0,0,0-4.48-2.37c-2.17-.59-4.34.07-6.49,1.95a31.13,31.13,0,0,0-6.14,7.88,76,76,0,0,0-5.43,12q-2.5,6.9-4.29,13.8-1.59,6.17-3.16,12.73a82.71,82.71,0,0,0-2,12.05,31.57,31.57,0,0,0,.38,9.39c.57,2.6,1.87,4.17,3.92,4.71a7.05,7.05,0,0,0,6.72-1.88,31.46,31.46,0,0,0,6.06-7.48,63.53,63.53,0,0,0,4.87-9.93A100.4,100.4,0,0,0,758.09,592.15Z"/></g><path class="cls-7" d="M136.31,562.31a177.06,177.06,0,0,0,8.92,27.55c3,7,6.64,10,10.94,9.07,2.67-.59,4.8-3.6,6.45-9.06a88.91,88.91,0,0,0,3.1-20.57,241.75,241.75,0,0,0-.4-27.65,226.06,226.06,0,0,0-4-30.34,137.65,137.65,0,0,0-4.59-15.9,76.31,76.31,0,0,0-9-18.43,103.45,103.45,0,0,1-6.62-10.88,44.7,44.7,0,0,1-3.87-11.05c-1.09-5.13-.68-9.45,1-12.84a10.31,10.31,0,0,1,7.4-6.1c2.68-.55,5.59.41,8.43,2.9a33.56,33.56,0,0,1,7.15,10.06A113.35,113.35,0,0,1,167.06,463q2.53,7.34,4.35,14.24c1.2,4.6,2.11,8.4,2.64,11.32,2,11.19,3.48,22.49,4.54,33.85a282.06,282.06,0,0,1,.94,32.63,241.78,241.78,0,0,1-2.45,29.52,123.16,123.16,0,0,1-5.83,24.14,52.16,52.16,0,0,1-8.92,16.1A22.91,22.91,0,0,1,150,632.61c-7.21,1.67-14-1.14-20.56-8.17-7.51-8.06-11.58-18-15.52-28.17q-.61,7.89-1.7,14.56a106.87,106.87,0,0,1-2.82,12.55,52.25,52.25,0,0,1-8.1,16.55,23,23,0,0,1-12,8.43,16.42,16.42,0,0,1-11.39-.77A33.16,33.16,0,0,1,67,639.52a67.47,67.47,0,0,1-9.72-13.88,111.92,111.92,0,0,1-7.7-17.81q-16.59-49-33.34-97.94c-3.56,1.11-5.33,1.67-8.88,2.81a2.85,2.85,0,0,1-3.15-1.15A11.12,11.12,0,0,1,2,507.72a9.39,9.39,0,0,1-.41-4.59,3.09,3.09,0,0,1,2.08-2.64c2.81-.9,4.21-1.35,7-2.23A17.59,17.59,0,0,0,21,491.36a59.11,59.11,0,0,0,6.52-11.55,29.91,29.91,0,0,0,2.16-6.7,47,47,0,0,0,.65-7.41,3.82,3.82,0,0,1,1.48-2.78,4.21,4.21,0,0,1,2.75-1.18,5.45,5.45,0,0,1,2.58,1,5.09,5.09,0,0,1,2.1,3.1c1.13,4.27,2.16,8.81,3.26,13.3s2.32,9,3.63,13.57q1.55,5.41,3,10.63c1,3.49,2.09,7,3.28,10.56q10,32.4,20,64.82a172.61,172.61,0,0,0,10,27.15c3.3,6.86,7,9.69,11.31,8.52,2.64-.73,4.59-3.85,5.88-9.37a92.74,92.74,0,0,0,1.94-20.67,225,225,0,0,0-1.94-27.57,231.93,231.93,0,0,0-5.75-30.06q-7.26-27.35-14.55-54.68c-1.24-4.84-.38-7.65,2.59-8.4,9.34-2.67,14-4,23.4-6.48,2.15-.51,3.68-.15,4.57,1.05a16.34,16.34,0,0,1,2.26,5.82Q124.28,513.17,136.31,562.31Z"/><path class="cls-7" d="M289.19,512.33a192.6,192.6,0,0,1,.3,35.77,135.57,135.57,0,0,1-6.34,31.6c-3.22,9.35-7.45,17.15-12.82,23.24a31.31,31.31,0,0,1-19.58,10.77c-8.61,1.24-16.18-.3-22.83-4.66s-12.51-10.64-17.63-18.69c-5.68-9-9.8-19-13-28.71a259.52,259.52,0,0,1-8.75-35,214.57,214.57,0,0,1-3.62-35.52c-.1-10.42.77-21.48,3.82-31.89,2.8-9.52,7.15-17.63,13.18-24S216,424.85,226,423.44c10.15-1.44,19,.13,26.39,4.63s13.61,11.08,18.69,19.5c5.57,9.22,9.27,19.59,11.93,29.62A225.72,225.72,0,0,1,289.19,512.33ZM222.45,521q1.32,8.52,3.86,21.77t5.92,25.44A113.28,113.28,0,0,0,240,589c2.92,5.76,6.13,8.37,9.68,7.87s5.89-4,7.07-10.44a130.37,130.37,0,0,0,1.81-22.55q0-12.86-1.19-26.11t-2.3-21.43q-1.22-9.28-3.3-22.62a257.61,257.61,0,0,0-5.32-25.57,91.61,91.61,0,0,0-7.77-20.52c-3-5.51-6.49-8-10.33-7.46-4,.57-6.76,4-8.2,10.28a97.23,97.23,0,0,0-2.09,22.11,250.86,250.86,0,0,0,1.54,26.12Q221.06,512.05,222.45,521Z"/><path class="cls-7" d="M397.62,505.74a193,193,0,0,1-2.68,35.66,135.51,135.51,0,0,1-8.94,31c-4,9-8.84,16.47-14.68,22.08a31.23,31.23,0,0,1-20.38,9.1c-8.67.52-16.07-1.64-22.32-6.55s-11.55-11.65-16-20.1c-4.9-9.39-8.17-19.71-10.56-29.69a260.85,260.85,0,0,1-5.79-35.59,215.29,215.29,0,0,1-.65-35.7c.77-10.39,2.55-21.34,6.45-31.45,3.57-9.26,8.57-17,15.1-22.86s14.87-9.15,24.92-9.73c10.21-.59,18.88,1.71,25.86,6.82s12.62,12.18,17,21c4.78,9.65,7.59,20.3,9.4,30.51A226.77,226.77,0,0,1,397.62,505.74Zm-67.11,3q.62,8.61,2,22t3.77,25.84a113.07,113.07,0,0,0,6,21.39c2.42,6,5.39,8.85,9,8.64s6.19-3.47,7.9-9.81a131.35,131.35,0,0,0,3.68-22.32q1.11-12.81,1-26.12t-.51-21.55q-.43-9.34-1.4-22.81a254.19,254.19,0,0,0-3.17-25.93,90.92,90.92,0,0,0-6-21.09c-2.55-5.74-5.79-8.52-9.66-8.3-4,.24-7,3.43-9,9.56a97.5,97.5,0,0,0-3.92,21.86,252.57,252.57,0,0,0-.64,26.15Q329.88,499.78,330.51,508.75Z"/><path class="cls-7" d="M469.8,585.5c-.25-1.26-.5-2.46-.76-3.6s-.51-2.32-.76-3.59A196.52,196.52,0,0,1,453,593.39c-4.85,4.26-9.52,6.35-14.08,6.29-6.49-.09-11.87-2.87-16.24-8.36s-7.86-12.76-10.52-21.69a161.14,161.14,0,0,1-5.82-30.48c-1.1-11.7-2-23.5-2.11-35a252,252,0,0,1,2.33-34.69A121.12,121.12,0,0,1,414.75,439c3.73-8.83,8.46-16,14.25-21.36a28.19,28.19,0,0,1,20.24-7.82,21.07,21.07,0,0,1,11.91,4.22,30.28,30.28,0,0,1,9.09,10.22,25.28,25.28,0,0,0,1.9,3.44q1.26-34.83,2.51-69.65c-3.71-.14-5.56-.2-9.28-.31a2.73,2.73,0,0,1-2.59-2.13,11.77,11.77,0,0,1-.68-4.33,8.93,8.93,0,0,1,1.19-4.47,3.28,3.28,0,0,1,3-1.79l7.75.26a23.88,23.88,0,0,0,13-3.24,39,39,0,0,0,11-9.6A58,58,0,0,0,506.09,319a3.94,3.94,0,0,1,2.17-2.13,3.88,3.88,0,0,1,2.89-.21,4.7,4.7,0,0,1,2,1.62,4.88,4.88,0,0,1,.74,3.43c-.45,4.55-1.25,9.37-1.8,14s-1.22,9.31-1.79,14c-.45,3.67-.76,7.4-1.07,11s-.57,7.28-.79,11q-4.74,78.93-9.47,157.86-.54,9-.91,15.14t-.5,10.3c-.09,2.75-.15,5.12-.2,7.12s0,3.91,0,5.63c.06,5.18,1.17,7.95,3.58,8.11q1.57.09,3.3-2a50.79,50.79,0,0,0,3.53-5,53.55,53.55,0,0,0,3.28-6.16q1.5-3.27,2.58-5.45c2-4.36,4.11-5.84,6.09-4.42s1.94,4.81.13,10.16a132.25,132.25,0,0,1-5.62,13.85A93.29,93.29,0,0,1,507,589.39a44.53,44.53,0,0,1-9.16,10.28,14.92,14.92,0,0,1-10.17,3.54A15.66,15.66,0,0,1,476.3,598,31.4,31.4,0,0,1,469.8,585.5Zm-16.86-15.16c4.38.11,7.89-2.84,10.6-8.88s4.28-14,4.64-24q1.14-31.83,2.3-63.67.21-6-.17-12.56a64.44,64.44,0,0,0-1.69-11.87,25.39,25.39,0,0,0-3.95-8.94,8.21,8.21,0,0,0-6.66-3.75c-4.18-.11-7.58,1.94-10.15,6.14A49.79,49.79,0,0,0,442,459a151.54,151.54,0,0,0-2.62,21.88q-.64,12-.78,23.23-.15,12.36.52,24.18a194.41,194.41,0,0,0,2.25,21.2,54.22,54.22,0,0,0,4.44,15.07Q448.65,570.23,452.94,570.34Z"/><path class="cls-7" d="M615.24,519.88a192.74,192.74,0,0,1-8.61,34.71,134.93,134.93,0,0,1-14,29c-5.45,8.26-11.49,14.75-18.2,19.32a31.34,31.34,0,0,1-21.64,5.57c-8.64-.94-15.57-4.31-20.92-10.19s-9.44-13.41-12.38-22.48c-3.27-10.08-4.76-20.8-5.46-31a262.93,262.93,0,0,1,.23-36,215.36,215.36,0,0,1,5.32-35.31c2.49-10.12,6.08-20.61,11.61-29.93,5.06-8.54,11.27-15.31,18.7-20s16.2-6.55,26.21-5.44c10.18,1.13,18.36,4.84,24.4,11s10.44,14.13,13.27,23.54c3.11,10.31,4.11,21.28,4.2,31.65A225.18,225.18,0,0,1,615.24,519.88Zm-66.77-8.25q-.84,8.58-1.68,22t-.59,26.11a113.39,113.39,0,0,0,2.34,22.09c1.4,6.3,3.85,9.63,7.41,10s6.7-2.39,9.44-8.36a129.89,129.89,0,0,0,7.36-21.39q3.24-12.43,5.34-25.59t3.09-21.32q1.14-9.3,2.43-22.74a254.06,254.06,0,0,0,1.21-26.09,91,91,0,0,0-2.43-21.8c-1.56-6.09-4.29-9.36-8.15-9.79-4-.45-7.53,2.2-10.48,7.92a97.74,97.74,0,0,0-7.51,20.9,250.32,250.32,0,0,0-5,25.67Q549.33,502.68,548.47,511.63Z"/><path class="cls-7" d="M706.4,467.85a47,47,0,0,1-9.24,20.27c-4.43,5.46-9.13,8.18-14.13,8.21-3.68,0-6.35-1.44-8-4.43s-1.6-7.24.29-12.73c1.48-4.29,2.69-8.13,3.6-11.52a56.78,56.78,0,0,0,1.56-11.53c.22-4.19-.81-7.47-3.34-9.59s-5.18-2.81-7.91-2a12.41,12.41,0,0,0-6.86,5.24,24.36,24.36,0,0,0-3.75,9.62,61.44,61.44,0,0,0-.92,16.77,44.73,44.73,0,0,0,3.21,12.94,62.34,62.34,0,0,0,5.87,10.8c2.27,3.34,4.79,6.81,7.32,10.36s5.08,7.49,7.88,11.87a93.21,93.21,0,0,1,7.38,14.15,66,66,0,0,1,4.39,15.88,48.63,48.63,0,0,1-.8,17.47,106.91,106.91,0,0,1-7.2,22.21,64.55,64.55,0,0,1-11.24,16.75c-5.16,5.56-10.35,9.4-15.62,11.53a27.54,27.54,0,0,1-15.71,1.74,36.49,36.49,0,0,1-15.06-6.51q-6.8-5-11-15.51A55,55,0,0,1,613.29,585a63,63,0,0,1,.64-16,57.83,57.83,0,0,1,5.37-17.18,63,63,0,0,1,8.93-13.56q2.06-2.33,3.91-4.11c1.23-1.19,2.5-2.3,3.81-3.36a57,57,0,0,1-3.48-9.69,91.81,91.81,0,0,1-4.1-18.49,77.15,77.15,0,0,1,.86-19.6,86.6,86.6,0,0,1,5.7-20.34,55.84,55.84,0,0,1,10.87-16.85c10.23-8.92,20.58-17.08,35.07-15.13a35.06,35.06,0,0,1,13.93,5.17,25.33,25.33,0,0,1,10,11.4,28.15,28.15,0,0,1,2.39,9.11A36.69,36.69,0,0,1,706.4,467.85ZM665,586.74a29,29,0,0,0,.34-11.77,35.52,35.52,0,0,0-3.3-9.05,100,100,0,0,0-8.53-14c-3.29-4.54-6.82-7.14-10.54-7.79a6.49,6.49,0,0,0-4.22,1,13.67,13.67,0,0,0-4.2,3.66A28.81,28.81,0,0,0,628,565.52a56.34,56.34,0,0,0,1,15,42.84,42.84,0,0,0,5,12.27,23,23,0,0,0,4.86,5.61,36.6,36.6,0,0,0,5.82,3.92,12.37,12.37,0,0,0,6,1.12,9.66,9.66,0,0,0,6.47-2.58,26.86,26.86,0,0,0,4.82-5.73A24.87,24.87,0,0,0,665,586.74Z"/><path class="cls-7" d="M786.45,580.14q-2.55,8.61-4.31,14.55t-2.83,9.91c-.7,2.65-1.31,4.95-1.8,6.89s-.9,3.8-1.27,5.48c-1.11,5.06-.64,8,1.69,8.72,1,.31,2.26-.1,3.71-1.22a49.73,49.73,0,0,0,4.6-4.08,56.35,56.35,0,0,0,4.63-5.24q2.21-2.85,3.76-4.72c3-3.79,5.37-4.75,7-2.91s.82,5.14-2.17,9.93a132,132,0,0,1-8.66,12.2,92.89,92.89,0,0,1-9.95,10.64,44.88,44.88,0,0,1-11.33,7.92,15.22,15.22,0,0,1-10.81,1.11,15.88,15.88,0,0,1-10-7.72A31.5,31.5,0,0,1,745.16,628a47.78,47.78,0,0,1,.33-8.06,160.61,160.61,0,0,1-17.55,13.35c-5.56,3.59-10.89,4.74-16.07,3.46q-6.47-1.59-10-8.39A49.76,49.76,0,0,1,697,612.18a93.86,93.86,0,0,1-.6-19.93,121.46,121.46,0,0,1,2.86-20.1,157.4,157.4,0,0,1,12.78-34c4.22-8.36,12.38-17.59,20.84-22a70,70,0,0,1,.29-31.13A49,49,0,0,1,740,468.87a34.73,34.73,0,0,1,10.44-10.21,32.47,32.47,0,0,1,12.09-4.54,29.35,29.35,0,0,1,12,.54,42.56,42.56,0,0,1,18.48,9.62,38.43,38.43,0,0,1,10.49,16.58c5.18,16,2.4,31.65-1.6,47.55Zm-15.26-61.2q2-7.23,3.25-14.85A70.63,70.63,0,0,0,775.5,490a26.35,26.35,0,0,0-2.45-10.93,10.6,10.6,0,0,0-7.15-5.74c-3.45-.88-6.92,0-10.38,2.78s-5.88,6.91-7.26,12.48a97.55,97.55,0,0,0-2.38,12.73,47.08,47.08,0,0,0,.5,12.29c1.33.08,2.57.2,3.71.36a22.59,22.59,0,0,1,3.15.61,27.55,27.55,0,0,1,8.88,4.43,36,36,0,0,1,7,7.5C770,523.49,770.37,522,771.19,518.94ZM754,582.6q5.28-19.53,10.58-39.07a37.9,37.9,0,0,0-4-4.18A11.1,11.1,0,0,0,756,537c-2.19-.57-4.37.09-6.52,2a30.85,30.85,0,0,0-6.13,7.9,75.63,75.63,0,0,0-5.37,12q-2.49,6.9-4.22,13.81-1.56,6.18-3.1,12.75a83.51,83.51,0,0,0-2,12.06,31.65,31.65,0,0,0,.45,9.39q.89,3.9,4,4.7a7.14,7.14,0,0,0,6.76-1.91,31.09,31.09,0,0,0,6-7.5,63.19,63.19,0,0,0,4.84-9.95Q752.77,586.95,754,582.6Z"/></g></g></g></svg>