<svg xmlns="http://www.w3.org/2000/svg" xmlns:xlink="http://www.w3.org/1999/xlink" viewBox="0 0 156.52 224.75"><defs><style>.cls-1{fill:url(#linear-gradient);}.cls-2{opacity:0.94;fill:url(#linear-gradient-2);}.cls-3{fill:#e3d2b1;}.cls-4{fill:none;stroke-width:4px;}.cls-4,.cls-6{stroke:#998675;stroke-miterlimit:10;}.cls-5{fill:#998675;}.cls-6{fill:#534741;}</style><linearGradient id="linear-gradient" x1="78.26" y1="225.85" x2="78.26" y2="3.5" gradientUnits="userSpaceOnUse"><stop offset="0" stop-color="#8e795c"/><stop offset="0.04" stop-color="#937e61"/><stop offset="0.32" stop-color="#b6a384"/><stop offset="0.58" stop-color="#cfbd9d"/><stop offset="0.82" stop-color="#deccac"/><stop offset="1" stop-color="#e3d2b1"/></linearGradient><linearGradient id="linear-gradient-2" x1="78.34" y1="8.68" x2="78.34" y2="214.76" gradientUnits="userSpaceOnUse"><stop offset="0" stop-color="#f7f0e4"/><stop offset="0.48" stop-color="#f6efe2"/><stop offset="0.68" stop-color="#f3ebdb"/><stop offset="0.82" stop-color="#efe4cf"/><stop offset="0.94" stop-color="#e8d9bd"/><stop offset="1" stop-color="#e3d2b1"/></linearGradient></defs><g id="Layer_2" data-name="Layer 2"><g id="Layer_1-2" data-name="Layer 1"><rect class="cls-1" width="156.52" height="224.75" rx="61.04"/><path class="cls-2" d="M127.64,24.36V157.77S97.85,224.2,7.2,157.89a61,61,0,0,0,60.88,56.76H88.44a61,61,0,0,0,60.89-56.88c.09-1.38.16-2.77.16-4.17V71.15A60.92,60.92,0,0,0,127.64,24.36Z"/><path class="cls-3" d="M127.64,157.77V24.36A60.82,60.82,0,0,0,88.44,10.1H68.08A61,61,0,0,0,7,71.15V153.6c0,1.44.06,2.87.16,4.29C97.85,224.2,127.64,157.77,127.64,157.77Z"/><line class="cls-4" x1="78.26" x2="78.26" y2="46.15"/><line class="cls-4" x1="1.38" y1="46.15" x2="155.15" y2="46.15"/><rect class="cls-5" x="65.22" y="14.81" width="25.57" height="49.04"/><rect class="cls-6" x="69.09" y="22.24" width="17.82" height="34.19" rx="4.1"/></g></g></svg>