<svg xmlns="http://www.w3.org/2000/svg" viewBox="0 0 808.44 303.37"><defs><style>.cls-1{fill:#241b28;}.cls-2{fill:#b394c0;}.cls-3{fill:#7e3560;}.cls-4{fill:#373932;}.cls-5{fill:#297164;}.cls-6{fill:#f9e10d;}.cls-7{fill:#f8637f;}.cls-8{fill:#cf767d;}.cls-9{fill:#cb5667;}.cls-10{fill:#1d3641;}</style></defs><g id="Layer_2" data-name="Layer 2"><g id="Layer_1-2" data-name="Layer 1"><path class="cls-1" d="M14.36,209.41,0,206.74c.44-7.37.88-14.76,1.36-22.9l15.76-1.43C20.8,139.34,24.48,96.29,28.2,52.78l-15.06-3c.79-7.94,1.57-15.87,2.48-25.15,22.29,1.55,44.09,2.87,65.83,4.89,2.37.22,5.28,4.21,6.34,7,2.79,7.51,4.7,15.34,7,23,1.74,6.86,3.45,13.73,5.23,20.59q8.56,33,17.16,66.05l2.84.27q19.24-44.65,38.5-89.33c4.28-18.28,15.08-23.77,33.49-19.8,13.06,2.82,26.88,2.06,42.76,3.05-5.2,9.35,6.27,22.77-11.11,26.49-2.37,2.15-6.64,4.15-6.82,6.46-2.8,35.69-5.07,71.42-7.47,107.14-.4,3.13-.81,6.25-1.21,9.38L207,192.65l6.57,6,2.75.84c1.89,2.73,5,5.3,5.41,8.22.64,5-.45,10.27-.9,16.52l-76.26-5.34q1.23-11.06,2.45-22.12l17.76-3.71q2.82-45.45,5.65-91l-2.72-.61-21.84,49.91c-7.81,14.72-16.52,29.06-23.11,44.31-3.88,9-9.07,10.29-17.52,9.79-8-.48-15-1-16.3-10.82a1.6,1.6,0,0,0-.77-2Q77.89,157.32,67.56,122c-.41-1.48-.83-3-1.25-4.43-.66-2.44-1.33-4.87-2-7.3L59.46,88.91l-2.8.53-1.59,21Q52.49,137,49.92,163.58l-.42,7.36q-.61,6.12-1.24,12.23l3.55,2.44,14,2.76v22.57l-11.66,1.3-2.41,0-9.67-.52-9.74-1.13-6.86-.44Z"/><path class="cls-2" d="M469.85,124q42.07-.84,84.16-1.7c12.84-.28,25.67-.73,38.5-1.11-1.69.87-3.35,2.43-5.08,2.51-15.22.74-30.45,1.16-45.68,1.79-21.78.91-43.55,1.94-65.33,2.85C473.32,128.43,469.75,128.86,469.85,124Z"/><path class="cls-3" d="M544.73,30.69,576.84,3.83c3.82-3.2,7.66-6.23,12.17-1L587.93,4V4L570.84,17.5l-.07.06-3,2.78c-11,9.82-22,19.69-33,29.41-2.82,2.47-6.09,4.42-9.54,6.88l63.1,56.53-.69,2.16c-13.55-1-27.27,3.26-40.65-2.86-.56-.56-1.11-1.14-1.67-1.71l-34.71-35-1.83.88v38H480.26c0-17.63-.2-35.28.05-52.92.24-17.22.95-34.42,1.41-51.64.26-9.77.65-10.2,10.22-9.89,17.38.56,17.37.56,17.35,18.21,0,13.76,0,27.53,0,42.59l20.65-17.1Z"/><path class="cls-4" d="M628.62,71.5c3.54,2.83,8.1,5,10.44,8.62,6.94,10.67-.1,23.24-13.67,25.08-9.6,1.3-17.71-1.81-23.81-9.41-4.13-5.14-5.34-10.75-2.48-17.19,3.48-7.85,10.22-9.3,17.57-10Z"/><path class="cls-2" d="M550.73,217.48l76.41,18.89c-1.9.61-4,2.1-5.67,1.72q-32.87-7.64-65.61-15.88C553.88,221.71,552.43,219.11,550.73,217.48Z"/><path class="cls-4" d="M603.5,192.21a19.25,19.25,0,0,0,4.52-.07c4.93-1.11,9.22-1.42,10.7,5,1.35,5.86,3,11.43-3.81,15.52-8.67,5.17-17.58,8.42-27.8,6.22C574,216,567.81,207.52,571.4,194.68c4.9-17.53,10.85-34.77,16.84-52,1.44-4.13,1.9-6.3-2.56-8.49-2.45-1.2-5.79-4.34-5.64-6.39.43-6-1.14-13.81,6.32-16.87,11.77-4.83,23.6-4.28,34.82,2.17,8.12,4.66,10.12,12.42,8.05,20.59-1.83,7.25-5.48,14.07-8.57,21C615.08,167.16,609.31,179.54,603.5,192.21Z"/><path class="cls-5" d="M660.27,216.57l-6.94.76-5.17.08c-.62-2.42-1.82-4.85-1.77-7.26.75-33.8,1.78-67.59,2.42-101.39.13-6.61,2.82-9.29,9.17-9.42,4-.08,8-.8,12-1.19,11.14-1.11,11.5-.77,11.17,10.75q-1,35.23-2.1,70.45a48.77,48.77,0,0,0,.57,5.45c9.17-1,18.27-1.52,27.2-3.08,7.72-1.35,9.84,1.78,9.28,8.72-.37,4.56.32,9.31-.71,13.69-.63,2.66-3.62,4.77-5.55,7.13Zm13.42-111.29c-4.7.51-8.05,1.14-11.41,1.17-4.94,0-6.1,2.55-6.18,7.07-.41,21.75-1.14,43.49-1.68,65.24-.25,10.11-.3,20.23-.46,31,15.3-1.65,29.21-3.17,43.13-4.65,12.5-1.33,12.84-1.8,10.17-16.09-8.63.93-17.4,1.64-26.1,2.89-7.18,1-10.07-.31-9.63-8.83C672.85,157.71,673,132.24,673.69,105.28Z"/><path class="cls-6" d="M711.48,281.64l-12,1.33-9,.14c-1.07-4.2-3.15-8.43-3.06-12.6,1.29-58.64,3.08-117.27,4.2-175.92.22-11.47,4.89-16.12,15.91-16.34,6.93-.14,13.84-1.39,20.77-2.07,19.32-1.92,20-1.34,19.37,18.66Q745.85,156,744,217.06c-.07,2.43.48,4.88,1,9.46,15.91-1.72,31.71-2.63,47.19-5.34,13.4-2.35,17.07,3.08,16.11,15.13-.64,7.92.55,16.16-1.24,23.75-1.09,4.62-6.28,8.28-9.63,12.37ZM734.77,88.55c-8.16.88-14,2-19.79,2-8.59.08-10.59,4.43-10.74,12.27-.71,37.74-2,75.47-2.91,113.2-.43,17.55-.53,35.11-.8,53.84,26.55-2.86,50.69-5.5,74.84-8.07,21.68-2.3,22.28-3.11,17.64-27.91-15,1.61-30.19,2.85-45.28,5-12.47,1.79-17.48-.54-16.71-15.31C733.31,179.51,733.62,135.33,734.77,88.55Z"/><path class="cls-1" d="M405.7,65.9l80.67-24.28c18.5,61.35,28.74,123.25,24.71,188.14L402.83,250.59c-1.8-7.41-4-14.53-5.2-21.83-3.41-21.45-6.34-43-9.63-64.45a29.81,29.81,0,0,0-2.88-8.59c-11.84-23.71-23.79-47.36-36.22-72l17.47-5.91Zm47.92,51.21,10.35.73,5.77-1.85,17.91-4.34-4.32-17.83c-.16-.78-.31-1.57-.47-2.35l-.39-1.94c-3.92-10.81-10.21-19.27-22.07-22.17C451.22,62.42,442,64,432.75,67.1c-27.58,1.39-42,19.79-41.56,40.08.16,7.56,2.79,15.06,4.3,22.59,2.92,13,11.19,20.84,24,23.55,9.25,2,18.63,3.35,28,4.63,15.37,2.11,21.85,10.71,19.87,26.89l-14.61,6.86c-12.85-4.55-9.59-18.16-15.3-28.11-9.25,2.25-18.45,4.38-27.59,6.73-5.73,1.47-6.29,4.73-2.63,9.07a37.26,37.26,0,0,0,9,26.72l21.77,12,21.36-1.7c12.64-1,24.63-3.4,32.55-14.78,10.15-8.57,12.53-22.49,6.71-39.34-2.78-21.68-11.24-29.7-32.52-32a202,202,0,0,1-27.05-5c-8.52-2.13-14.5-14.24-12.38-23.52,1.61-7,7.21-9.56,18.34-8.24Z"/><path class="cls-7" d="M445,93.61c-11.13-1.32-16.73,1.19-18.34,8.24-2.12,9.28,3.86,21.39,12.38,23.52a202,202,0,0,0,27.05,5c21.28,2.28,29.74,10.3,32.52,32-5.48,8.69-13.05,16.39-13.75,27.44l7.36,2.33c-.12,3.54-.22,6.55-.32,9.57C484,213,472,215.45,459.36,216.44c1.15-3.09,2.62-6.1,3.37-9.28,1.73-7.39,3.11-14.87,4.64-22.31,2-16.19-4.49-24.79-19.86-26.9-9.37-1.28-18.75-2.68-28-4.63-12.83-2.71-21.1-10.52-24-23.55,9.27-14.83,18.66-29.59,27.74-44.53,3.54-5.83,6.36-12.08,9.52-18.14,9.24-3.13,18.47-4.68,27.64.26Z"/><path class="cls-7" d="M407.25,179.39c-3.66-4.34-3.1-7.6,2.63-9.07,9.14-2.35,18.34-4.48,27.59-6.73,5.71,9.95,2.45,23.56,15.3,28.11q-7.39,13.22-14.77,26.44l-21.77-12,6.87-14.27c-8.1,1.3-10.45-.65-9.41-6.92C414.3,181.29,412.43,177.69,407.25,179.39Z"/><path class="cls-8" d="M453.62,117.11c2.18-4,4.13-8.13,6.6-11.93,2.57-4,3.2-10.63,9.63-9.19-2,7.47-4,14.66-5.88,21.85Z"/><path class="cls-8" d="M469.74,116c2.35-2.73,5.16-5.19,6.95-8.25,2.6-4.41,4.46-9.25,6.64-13.91,1.43,5.87,2.85,11.76,4.32,17.82Z"/><path class="cls-8" d="M482.86,91.47a7.77,7.77,0,0,1-.74-1.27c-.06-.16.22-.45.35-.67Z"/><path class="cls-2" d="M316.07,166.05c-2,7.76-3.86,15.56-6.11,23.25Q304.7,207.23,298.9,225c-.68,2.08-2.58,3.77-3.91,5.63l-1.33-1c.54-5.39,1.09-10.79,1.74-17.14l-26.66,13c.86-2.69,1.59-5.43,2.59-8.06,4.57-12,9.44-23.9,13.65-36,.92-2.65-.45-6.09-.77-9.17-13-4.74-13.1-4.68-18,7.67-1.51,3.82-3.05,7.63-4.55,11.46-5.64,14.39-16.47,23.93-29.64,31.05-2.14,1.16-6.18,1.46-7.78.19-1.44-1.14-1.06-5-.87-7.64s1.13-5,1.75-7.49c4.33-9.6,8.89-19.1,12.89-28.83,1.48-3.58,1.64-7.69,2.41-11.56-9.61-5-14.84-3.48-19.43,5.19-2.7,5.09-5.83,9.95-8.76,14.92l-.44-.6c3.09-11.4,6.38-22.75,9.19-34.22,1.31-5.38,3.65-7.34,9.21-5.6a172.72,172.72,0,0,0,19.41,4.88c2.35.45,5-.77,7.53-1.23,2.65,1.31,5.18,3.17,8,3.85C282.09,158.31,299.09,162.14,316.07,166.05Z"/><path class="cls-2" d="M293.36,237.12c.82,13-5.52,21.95-16.9,27-15,6.73-25.69,17.2-31,32.89-2,5.81-5.29,7.6-11.68,5.44-17.94-6.06-36.11-11.43-53.85-17,3.4-13.08,6.6-25.37,9.8-37.66l12.84-38q4-11.73,8-23.47a3.87,3.87,0,0,1,1.31.16l.44.59-6.48,36c-2.87,18,1.65,24,16.84,22.59-5.92,7.48-15.71,12.61-14.7,24.29.55,3.06.17,6.77,1.8,9.07,6.63,9.38,21.46,11.47,29.93,3.63,5.08-4.71,8.66-11.17,12.4-17.18,2.69-4.33,3.31-11.4,7-13.43C269.91,246.11,281.84,242,293.36,237.12Z"/><path class="cls-9" d="M211.83,186.54a3.87,3.87,0,0,0-1.31-.16l-2.86-1q4.58-15.43,9.16-30.87l.51-1.86c3.11-12,4.87-13.31,16.2-10.11,8,2.26,15.76,5.17,23.64,7.8-2.52.46-5.18,1.68-7.53,1.23a172.72,172.72,0,0,1-19.41-4.88c-5.56-1.74-7.9.22-9.21,5.6C218.21,163.79,214.92,175.14,211.83,186.54Z"/><path class="cls-8" d="M207.66,185.41l2.86,1q-4,11.75-8,23.47c-.24-3.23-1.3-6.66-.54-9.64C203.27,195.13,205.71,190.33,207.66,185.41Z"/><path class="cls-8" d="M217.33,152.68l-.51,1.86Z"/><path class="cls-4" d="M293.36,237.12c-11.52,4.86-23.45,9-34.33,15-3.66,2-4.28,9.1-7,13.43-3.74,6-7.32,12.47-12.4,17.18-8.47,7.84-23.3,5.75-29.93-3.63-1.63-2.3-1.25-6-1.8-9.07a28.23,28.23,0,0,1,4,2.11c13.88,10.33,25.08,8.93,35.13-5.15,3.65-5.12,5.92-11.2,9-16.76,1.29-2.37,2.47-5.62,4.57-6.59,10.85-5,22-9.42,33-14.05l1.33,1C294.45,232.8,293.9,235,293.36,237.12Z"/><path class="cls-5" d="M293.66,229.6c-11,4.63-22.15,9-33,14.05-2.1,1-3.28,4.22-4.57,6.59-3.06,5.56-5.33,11.64-9,16.76-10.05,14.08-21.25,15.48-35.13,5.15a28.23,28.23,0,0,0-4-2.11c-1-11.68,8.78-16.81,14.69-24.29,15.19-5.53,23.83-12.38,23.5-18.63-4.24,2.32-8.42,4.76-12.73,6.95-14.45,7.37-22,4.47-27.15-10.28a2.92,2.92,0,0,0-.45-.63l6.48-36c2.93-5,6.06-9.82,8.76-14.91,4.59-8.67,9.82-10.17,19.43-5.19-2.71,5.48-5.91,10.78-8,16.48-2.87,7.81-4.9,15.92-7.29,23.91-.62,2.49-1.57,5-1.75,7.49s-.57,6.5.87,7.64c1.6,1.27,5.64,1,7.78-.19,13.17-7.12,24-16.66,29.64-31.05,1.5-3.83,3-7.64,4.55-11.46,4.86-12.35,5-12.41,18-7.67-5.46,15.37-11,30.7-16.22,46.17-.66,2-5.53,5.45.74,7.09l26.66-13C294.75,218.81,294.2,224.21,293.66,229.6Zm-71,36.08c9.25-1.17,13.18-4.91,15.45-14.16C228.81,253,223.4,257.78,222.62,265.68Z"/><path class="cls-4" d="M268.74,225.44c-6.27-1.64-1.4-5.1-.74-7.09,5.18-15.47,10.76-30.8,16.22-46.17.31,3.08,1.68,6.52.76,9.17-4.21,12.13-9.08,24-13.65,36C270.33,220,269.6,222.75,268.74,225.44Z"/><path class="cls-4" d="M225.16,207.42c2.39-8,4.42-16.1,7.29-23.91,2.1-5.7,5.3-11,8-16.48-.77,3.87-.93,8-2.41,11.56C234.05,188.32,229.49,197.82,225.16,207.42Z"/><path class="cls-10" d="M205.79,223.16a2.92,2.92,0,0,1,.45.63c5.13,14.75,12.7,17.65,27.15,10.28,4.31-2.19,8.49-4.63,12.73-6.95.33,6.25-8.31,13.1-23.5,18.63C207.44,247.2,202.92,241.14,205.79,223.16Z"/><path class="cls-10" d="M222.62,265.68c.78-7.9,6.19-12.68,15.45-14.16C235.8,260.77,231.87,264.51,222.62,265.68Z"/></g></g></svg>