<svg xmlns="http://www.w3.org/2000/svg" viewBox="0 0 787.37 358.86"><defs><style>.cls-1,.cls-2,.cls-3,.cls-4{fill:none;stroke-miterlimit:10;}.cls-1,.cls-2{stroke:#000;}.cls-2{stroke-width:2px;}.cls-3,.cls-4{stroke:#4d4d4d;}.cls-4{stroke-dasharray:11.9 11.9;}</style></defs><g id="Layer_2" data-name="Layer 2"><g id="Layer_1-2" data-name="Layer 1"><line class="cls-1" x1="215.64" y1="2.39" x2="215.64" y2="358.86"/><path class="cls-2" d="M786.37,302.65V55.82c-22.64,0-41-24.54-41-54.82H42C42,31.28,23.64,55.82,1,55.82V302.65c22.64,0,41,24.55,41,54.82H745.38C745.38,327.2,763.73,302.65,786.37,302.65Z"/><line class="cls-3" x1="1" y1="145.23" x2="7" y2="145.23"/><line class="cls-4" x1="18.9" y1="145.23" x2="774.42" y2="145.23"/><line class="cls-3" x1="780.37" y1="145.23" x2="786.37" y2="145.23"/><line class="cls-3" x1="1" y1="84.97" x2="7" y2="84.97"/><line class="cls-4" x1="18.9" y1="84.97" x2="774.42" y2="84.97"/><line class="cls-3" x1="780.37" y1="84.97" x2="786.37" y2="84.97"/><line class="cls-3" x1="1" y1="205.49" x2="7" y2="205.49"/><line class="cls-4" x1="18.9" y1="205.49" x2="774.42" y2="205.49"/><line class="cls-3" x1="780.37" y1="205.49" x2="786.37" y2="205.49"/><line class="cls-3" x1="1" y1="265.75" x2="7" y2="265.75"/><line class="cls-4" x1="18.9" y1="265.75" x2="774.42" y2="265.75"/><line class="cls-3" x1="780.37" y1="265.75" x2="786.37" y2="265.75"/></g></g></svg>