<?xml version="1.0" encoding="utf-8"?>
<!-- Generator: Adobe Illustrator 27.7.0, SVG Export Plug-In . SVG Version: 6.00 Build 0)  -->
<svg version="1.1" id="레이어_1" xmlns="http://www.w3.org/2000/svg" xmlns:xlink="http://www.w3.org/1999/xlink" x="0px"
	 y="0px" viewBox="0 0 1469 298.1" style="enable-background:new 0 0 1469 298.1;" xml:space="preserve">
<style type="text/css">
	.st0{fill:none;}
	.st1{fill:#D7C08E;}
	.st2{fill:url(#SVGID_1_);}
	.st3{fill:url(#SVGID_00000044164026880697855020000009297330156219115961_);}
	.st4{fill:url(#SVGID_00000075140982082349647180000003100297107613783201_);}
	.st5{fill:url(#SVGID_00000047740255504080899060000009339580787490633656_);}
	.st6{fill:url(#SVGID_00000138537896022208044900000006485709178516615308_);}
	.st7{fill:url(#SVGID_00000039130197510259667280000006503722333459413927_);}
	.st8{fill:url(#SVGID_00000092425085374598066590000005896205258816624289_);}
</style>
<pattern  y="298.1" width="29.5" height="30" patternUnits="userSpaceOnUse" id="SVGID_0000011045169210659686173" viewBox="0 -30 29.5 30" style="overflow:visible;">
	<g>
		<rect y="-30" class="st0" width="29.5" height="30"/>
		<g>
			<rect y="-30" class="st0" width="29.5" height="30"/>
			<rect y="-30" class="st0" width="29.5" height="30"/>
			<rect y="-30" class="st1" width="29.5" height="30"/>
		</g>
	</g>
</pattern>
<g>
	
		<pattern  id="SVGID_1_" xlink:href="#SVGID_0000011045169210659686173" patternTransform="matrix(2.1067 0 0 2.1067 8314.0527 44390.2344)">
	</pattern>
	<path class="st2" d="M132.2,226.9c-8.6-4.3-18.5-12.3-29.6-23.9l-53.1-55.6v83.4H26.8V94.3c0-8.6-1.2-15-3.5-19.1
		C20.9,71,16.2,69,9.1,69H4v-5.1h22.8c6.2,0,10.9,0.8,14,2.4c3.1,1.6,5.3,4.5,6.7,8.7c1.3,4.2,2,10.6,2,19.2v49.3l53.1-53.1l5.1-5.3
		c4.7-4.9,8.7-8.7,11.9-11.5c3.2-2.8,7-5.1,11.4-7c4.4-1.9,9.3-2.8,14.7-2.8h12.6v6.3c-7.1,0-13.2,1.2-18.5,3.7
		c-5.2,2.4-11.3,7.1-18.2,14l-49.3,49.3l58.1,60.7c7.4,7.6,14.9,13.9,22.5,19.1c7.6,5.1,14.4,8.1,20.5,9v4.8
		c-5.1,1.7-10.5,2.5-16.4,2.5C149.1,233.3,140.8,231.1,132.2,226.9z"/>
	
		<pattern  id="SVGID_00000021803810170959675210000006439381442066754189_" xlink:href="#SVGID_0000011045169210659686173" patternTransform="matrix(2.1067 0 0 2.1067 8314.0527 44390.2344)">
	</pattern>
	<path style="fill:url(#SVGID_00000021803810170959675210000006439381442066754189_);" d="M222,225.1c-9.4-5.5-16.1-13.6-20.1-24.4
		c-4-10.8-5.9-24.8-5.9-42V94.3c0-8.6-1.2-15-3.5-19.1C190,71,185.3,69,178.2,69h-5.1v-5.1h22.8c6.2,0,10.9,0.8,14,2.4
		c3.1,1.6,5.3,4.5,6.7,8.7c1.3,4.2,2,10.6,2,19.2v72c0,18.7,3.5,32.9,10.4,42.5c6.9,9.6,18.4,14.4,34.4,14.4c12.8,0,23-2.3,30.5-6.8
		c7.5-4.6,12.8-11.5,16.1-20.7c3.2-9.3,4.8-21.6,4.8-36.9V63.9h10.1v94.8c0,17.5-1.9,31.6-5.6,42.3c-3.7,10.7-10.2,18.8-19.6,24.1
		c-9.4,5.4-22.5,8.1-39.3,8.1C244.2,233.3,231.4,230.6,222,225.1z"/>
	
		<pattern  id="SVGID_00000021803449874851438330000002218280015417545100_" xlink:href="#SVGID_0000011045169210659686173" patternTransform="matrix(2.1067 0 0 2.1067 8314.0527 44390.2344)">
	</pattern>
	<path style="fill:url(#SVGID_00000021803449874851438330000002218280015417545100_);" d="M528.6,236.6c-6.7-3.7-11.5-9.5-14.3-17.3
		c-2.8-7.8-4.2-18.3-4.2-31.5V90.5l-63.2,140.3h-5.1L376.2,87.9v142.8H366V63.9h24l60.7,131.5l59.4-131.5h22.8v123.9
		c0,15.7,2,27.8,5.9,36.4c4,8.6,10,12.9,18.1,12.9v5.1C544.8,242.1,535.3,240.3,528.6,236.6z"/>
	
		<pattern  id="SVGID_00000052091640470368674200000001391558204608329874_" xlink:href="#SVGID_0000011045169210659686173" patternTransform="matrix(2.1067 0 0 2.1067 8314.0527 44390.2344)">
	</pattern>
	<path style="fill:url(#SVGID_00000052091640470368674200000001391558204608329874_);" d="M690.9,226.9
		c-8.6-4.3-18.5-12.3-29.6-23.9l-53.1-55.6v83.4h-22.8V94.3c0-8.6-1.2-15-3.5-19.1c-2.4-4.1-7.1-6.2-14.2-6.2h-5.1v-5.1h22.8
		c6.2,0,10.9,0.8,14,2.4c3.1,1.6,5.3,4.5,6.7,8.7c1.3,4.2,2,10.6,2,19.2v49.3l53.1-53.1l5.1-5.3c4.7-4.9,8.7-8.7,11.9-11.5
		c3.2-2.8,7-5.1,11.4-7c4.4-1.9,9.3-2.8,14.7-2.8h12.6v6.3c-7.1,0-13.2,1.2-18.5,3.7c-5.2,2.4-11.3,7.1-18.2,14L631,137.2l58.1,60.7
		c7.4,7.6,14.9,13.9,22.5,19.1c7.6,5.1,14.4,8.1,20.5,9v4.8c-5.1,1.7-10.5,2.5-16.4,2.5C707.7,233.3,699.5,231.1,690.9,226.9z"/>
	
		<pattern  id="SVGID_00000181068073165731512830000015958296445090039182_" xlink:href="#SVGID_0000011045169210659686173" patternTransform="matrix(2.1067 0 0 2.1067 8314.0527 44390.2344)">
	</pattern>
	<path style="fill:url(#SVGID_00000181068073165731512830000015958296445090039182_);" d="M862.8,225.3c-7.9-4.5-14.2-13.2-19-26.2
		l-6.3-16.4h-70.8l-20.2,48h-11.4l70.8-166.8h7.6l55.6,135.2c4.2,9.8,8.2,16.5,11.9,20.1c3.7,3.6,9,5.8,15.9,6.4v5.1
		c-3,0.8-6.4,1.3-10.1,1.3C878.7,232,870.7,229.8,862.8,225.3z M770.5,172.6h61.9l-30.3-73.3L770.5,172.6z"/>
	
		<pattern  id="SVGID_00000168808944736194660510000002585994252548342689_" xlink:href="#SVGID_0000011045169210659686173" patternTransform="matrix(2.1067 0 0 2.1067 8314.0527 44390.2344)">
	</pattern>
	<path style="fill:url(#SVGID_00000168808944736194660510000002585994252548342689_);" d="M927.8,98.1v132.7h-10.1V94.3
		c0-8.1-1.7-14.3-5.2-18.7c-3.5-4.4-9.3-6.6-17.6-6.6h-2.5v-5.1h16.4c7.8,0,14.3,1.3,19.7,3.8c5.4,2.5,10.2,6.3,14.4,11.4l88.5,110
		V63.9h10.1v169.4h-5.1L927.8,98.1z"/>
	
		<pattern  id="SVGID_00000022549157283921398490000003390445275546978714_" xlink:href="#SVGID_0000011045169210659686173" patternTransform="matrix(2.1067 0 0 2.1067 8314.0527 44390.2344)">
	</pattern>
	<path style="fill:url(#SVGID_00000022549157283921398490000003390445275546978714_);" d="M1115.5,223.7
		c-13.1-8.1-23.3-19.1-30.6-33c-7.3-13.9-11-29.2-11-45.9c0-16,3.2-30.5,9.6-43.6c6.4-13.1,15.5-23.4,27.4-31s25.7-11.4,41.3-11.4
		c14.5,0,27,1.9,37.5,5.7c10.5,3.8,18.2,8.6,23.1,14.5c2.7,3.4,4.4,7.8,5.2,13.4c0.8,5.6,1.1,12.5,1.1,20.7h-5.1
		c-3.2-14.8-9.3-25.9-18.2-33.2c-8.9-7.3-21-11-36.1-11c-13.7,0-25,3.6-34.1,10.7c-9.1,7.2-15.8,16.5-20.1,27.9
		c-4.3,11.5-6.4,23.8-6.4,37.2c0,28.5,5.6,49.1,16.7,61.8c11.1,12.7,25.8,19.1,44,19.1c8.6,0,15.9-0.8,22-2.3s11.8-3.7,17.2-6.6v-44
		c0-5.7,0.9-10.7,2.8-14.9c1.9-4.2,5.9-7.7,12-10.5c6.2-2.8,15.1-4.2,26.9-4.2v5.1c-7.6,0-12.6,1.9-15.2,5.8
		c-2.5,3.9-3.8,9.9-3.8,18.2v47.5c-9.1,5.6-18.6,9.6-28.6,12.1c-9.9,2.5-21.1,3.8-33.4,3.8C1143.3,235.8,1128.5,231.8,1115.5,223.7z
		"/>
</g>
</svg>
