<?xml version="1.0" encoding="utf-8"?>
<!-- Generator: Adobe Illustrator 27.2.0, SVG Export Plug-In . SVG Version: 6.00 Build 0)  -->
<svg version="1.1" id="레이어_1" xmlns="http://www.w3.org/2000/svg" xmlns:xlink="http://www.w3.org/1999/xlink" x="0px"
	 y="0px" viewBox="0 0 1469 298.1" style="enable-background:new 0 0 1469 298.1;" xml:space="preserve">
<style type="text/css">
	.st0{fill:none;}
	.st1{fill:#D7C08E;}
	.st2{enable-background:new    ;}
	.st3{fill:url(#SVGID_1_);}
	.st4{fill:url(#SVGID_00000056409663597171990740000000342093378371955083_);}
	.st5{fill:url(#SVGID_00000054987556175824914490000004307144176544012169_);}
	.st6{fill:url(#SVGID_00000091693678469771799030000010065133102423941776_);}
	.st7{fill:url(#SVGID_00000123429538702914294490000004278815782641842322_);}
	.st8{fill:url(#SVGID_00000074417096477545979300000008565791061475002046_);}
	.st9{fill:url(#SVGID_00000068668981151192881080000018082762873869193348_);}
</style>
<pattern  y="298.1" width="29.5" height="30" patternUnits="userSpaceOnUse" id="New_Pattern_Swatch_1" viewBox="0 -30 29.5 30" style="overflow:visible;">
	<g>
		<rect y="-30" class="st0" width="29.5" height="30"/>
		<rect y="-30" class="st0" width="29.5" height="30"/>
		<rect y="-30" class="st1" width="29.5" height="30"/>
	</g>
</pattern>
<g class="st2">
	<pattern  id="SVGID_1_" xlink:href="#New_Pattern_Swatch_1" patternTransform="matrix(1 0 0 -1 -18.65 -15947.7002)"  class="st2">
	</pattern>
	<path class="st3" d="M36.3,203.1V64.2c0-5.8-0.6-10.1-1.8-13c-1.2-2.9-3.7-4.9-7.4-6c-3.7-1.1-9.1-1.7-16.4-1.7
		c-0.4,0-0.6-0.6-0.6-1.8s0.2-1.8,0.6-1.8c4.8,0,10.2,0.2,16.2,0.5s12.3,0.5,18.9,0.5c7.2,0,13.7-0.2,19.6-0.5
		c5.9-0.3,11.1-0.5,15.8-0.5c0.6,0,0.9,0.6,0.9,1.8s-0.3,1.8-0.9,1.8c-7.2,0-12.6,0.6-16.2,1.8c-3.6,1.2-6.1,3.3-7.4,6.3
		c-1.3,3-2,7.4-2,13.2v138.3c0,5.8,0.6,10.2,1.8,13.2c1.2,3,3.6,5,7.4,6c3.7,1,9.1,1.5,16.3,1.5c0.6,0,0.9,0.6,0.9,1.8
		s-0.3,1.8-0.9,1.8c-4.8,0-10.1-0.1-15.9-0.3c-5.8-0.2-12.3-0.3-19.5-0.3c-6.6,0-13,0.1-19,0.3c-6.1,0.2-11.6,0.3-16.4,0.3
		c-0.4,0-0.6-0.6-0.6-1.8s0.2-1.8,0.6-1.8c7.2,0,12.7-0.5,16.5-1.5c3.8-1,6.3-3,7.5-6S36.3,208.9,36.3,203.1z M42.6,141.3L120,64.2
		c7.4-7.6,10.5-12.9,9.5-16c-1.1-3.1-6.9-4.7-17.2-4.7c-0.4,0-0.6-0.6-0.6-1.8s0.2-1.8,0.6-1.8c5,0,10,0.2,15,0.5
		c5,0.3,11.6,0.5,19.8,0.5c7.8,0,14-0.2,18.6-0.5c4.6-0.3,9-0.5,13.2-0.5c0.6,0,0.9,0.6,0.9,1.8s-0.3,1.8-0.9,1.8
		c-7.2,0-15.5,1.7-24.9,5c-9.4,3.3-18.4,9.2-27,17.5l-76.8,75.3H42.6z M111.6,183.9l-47.7-60l15-12l43.8,55.8
		c9,11.8,16.6,21.3,22.9,28.5c6.3,7.2,11.6,12.8,15.8,16.7c4.2,3.9,8,6.6,11.2,8.1c3.3,1.5,6.5,2.4,9.5,2.5c3,0.2,6.4,0.3,10.2,0.3
		c0.6,0,0.9,0.6,0.9,1.8s-0.3,1.8-0.9,1.8c-9,0-16.2,0-21.6,0c-5.4,0-9.4,0-12,0c-4.2,0-7.4,0-9.6,0c-2.2,0-4-0.5-5.4-1.7
		c-1.4-1.1-3.2-3.1-5.4-6c-2.2-2.9-5.4-7.2-9.4-13C124.7,200.9,119,193.3,111.6,183.9z"/>
</g>
<pattern  id="SVGID_00000113319109851070317750000015621665435418310818_" xlink:href="#New_Pattern_Swatch_1" patternTransform="matrix(1 0 0 -1 -18.65 -15947.7002)">
</pattern>
<path style="fill:url(#SVGID_00000113319109851070317750000015621665435418310818_);" d="M355,72.9c0-9.8-2.2-17.1-6.5-22
	c-4.3-4.9-10.9-7.4-19.6-7.4c-0.6,0-0.9-0.6-0.9-1.8s0.3-1.8,0.9-1.8c4.6,0,9.3,0.2,14.1,0.5c4.8,0.3,10.1,0.5,15.9,0.5
	c4.6,0,9.3-0.2,14.1-0.5c4.8-0.3,9.2-0.5,13.2-0.5c0.4,0,0.6,0.6,0.6,1.8s-0.2,1.8-0.6,1.8c-8,0-14,2.5-18,7.4c-4,4.9-6,12.3-6,22
	v85.2c0,15.4-3,28.6-8.8,39.5c-5.9,10.9-14.2,19.3-24.8,25c-10.6,5.8-23,8.7-37.2,8.7c-14.8,0-27.8-2.9-38.9-8.7
	c-11.1-5.8-19.7-14-25.8-24.8c-6.1-10.7-9.1-23.2-9.1-37.7v-96c0-5.8-0.6-10.1-1.8-13c-1.2-2.9-3.7-4.9-7.4-6
	c-3.7-1.1-9.1-1.7-16.3-1.7c-0.4,0-0.6-0.6-0.6-1.8s0.2-1.8,0.6-1.8c4.8,0,10.1,0.2,16,0.5c5.9,0.3,12.2,0.5,19,0.5
	c7,0,13.5-0.2,19.5-0.5s11.2-0.5,15.6-0.5c0.6,0,0.9,0.6,0.9,1.8s-0.3,1.8-0.9,1.8c-7.2,0-12.6,0.6-16.2,1.8c-3.6,1.2-6,3.3-7.2,6.3
	s-1.8,7.4-1.8,13.2v84.9c0,23.8,5.3,41.9,16,54.2c10.7,12.3,25.6,18.5,44.9,18.5c18,0,32-5.6,42-17c10-11.3,15-26.9,15-47V72.9z"/>
<pattern  id="SVGID_00000155864726865197526480000001327404992639555478_" xlink:href="#New_Pattern_Swatch_1" patternTransform="matrix(1 0 0 -1 -18.65 -15947.7002)">
</pattern>
<path style="fill:url(#SVGID_00000155864726865197526480000001327404992639555478_);" d="M421.5,194.7l3-147.9l7.2,0.6l-3,147.3
	c-0.2,10.4,1.5,17.9,5.2,22.4c3.7,4.5,10.4,6.8,20.2,6.8c0.4,0,0.6,0.6,0.6,1.8s-0.2,1.8-0.6,1.8c-4.4,0-9-0.1-13.6-0.3
	c-4.7-0.2-9.9-0.3-15.5-0.3c-5.2,0-10.1,0.1-14.7,0.3c-4.6,0.2-8.9,0.3-12.9,0.3c-0.4,0-0.6-0.6-0.6-1.8s0.2-1.8,0.6-1.8
	c8.4,0,14.4-2.2,18.1-6.8C419.3,212.6,421.3,205.1,421.5,194.7z M629.4,223.8c0.6,0,0.9,0.6,0.9,1.8s-0.3,1.8-0.9,1.8
	c-4.8,0-10.3-0.1-16.3-0.3c-6.1-0.2-12.5-0.3-19-0.3c-6.4,0-12.4,0.1-17.9,0.3c-5.5,0.2-10.5,0.3-14.8,0.3c-0.4,0-0.6-0.6-0.6-1.8
	s0.2-1.8,0.6-1.8c10,0,16.4-1.3,19.2-3.9c2.8-2.6,4-8.2,3.6-16.8l-5.7-144.9l9.9-13.8l-78,180.9c-0.2,0.8-1,1.2-2.4,1.2
	c-1.4,0-2.3-0.4-2.7-1.2L429.9,64.8c-6.8-14.2-16.9-21.3-30.3-21.3c-0.4,0-0.6-0.6-0.6-1.8s0.2-1.8,0.6-1.8c3.2,0,6.6,0.1,10.4,0.3
	c3.7,0.2,6.8,0.3,9.1,0.3c3.2,0,6.2-0.1,8.9-0.3c2.7-0.2,4.7-0.3,6.1-0.3c2.8,0,5,0.9,6.6,2.7c1.6,1.8,4,6.1,7.2,12.9l68.4,144
	l-9.3,15.6l73.2-167.7c1-2.4,2.3-4.2,3.9-5.5c1.6-1.3,3.3-2,5.1-2c1.2,0,2.8,0.1,4.8,0.3c2,0.2,4.4,0.3,7.2,0.3
	c5.4,0,9.8-0.1,13.2-0.3c3.4-0.2,7-0.3,10.8-0.3c0.4,0,0.6,0.6,0.6,1.8s-0.2,1.8-0.6,1.8c-9.6,0-16.7,1.4-21.3,4.2
	c-4.6,2.8-6.7,8.3-6.3,16.5l6,138.9c0.2,5.8,0.9,10.2,2.1,13.2c1.2,3,3.6,5,7.3,6C616.7,223.3,622.2,223.8,629.4,223.8z"/>
<g class="st2">
	
		<pattern  id="SVGID_00000080925540157896888250000008120025600904607365_" xlink:href="#New_Pattern_Swatch_1" patternTransform="matrix(1 0 0 -1 -18.65 -15947.7002)"  class="st2">
	</pattern>
	<path style="fill:url(#SVGID_00000080925540157896888250000008120025600904607365_);" d="M698.3,203.1V64.2c0-5.8-0.6-10.1-1.8-13
		c-1.2-2.9-3.7-4.9-7.4-6c-3.7-1.1-9.1-1.7-16.4-1.7c-0.4,0-0.6-0.6-0.6-1.8s0.2-1.8,0.6-1.8c4.8,0,10.2,0.2,16.2,0.5
		s12.3,0.5,18.9,0.5c7.2,0,13.7-0.2,19.6-0.5c5.9-0.3,11.1-0.5,15.8-0.5c0.6,0,0.9,0.6,0.9,1.8s-0.3,1.8-0.9,1.8
		c-7.2,0-12.6,0.6-16.2,1.8c-3.6,1.2-6.1,3.3-7.4,6.3c-1.3,3-2,7.4-2,13.2v138.3c0,5.8,0.6,10.2,1.8,13.2c1.2,3,3.6,5,7.4,6
		c3.7,1,9.1,1.5,16.3,1.5c0.6,0,0.9,0.6,0.9,1.8s-0.3,1.8-0.9,1.8c-4.8,0-10.1-0.1-15.9-0.3c-5.8-0.2-12.3-0.3-19.5-0.3
		c-6.6,0-13,0.1-19,0.3c-6.1,0.2-11.6,0.3-16.4,0.3c-0.4,0-0.6-0.6-0.6-1.8s0.2-1.8,0.6-1.8c7.2,0,12.7-0.5,16.5-1.5
		c3.8-1,6.3-3,7.5-6S698.3,208.9,698.3,203.1z M704.6,141.3L782,64.2c7.4-7.6,10.5-12.9,9.5-16c-1.1-3.1-6.9-4.7-17.2-4.7
		c-0.4,0-0.6-0.6-0.6-1.8s0.2-1.8,0.6-1.8c5,0,10,0.2,15,0.5c5,0.3,11.6,0.5,19.8,0.5c7.8,0,14-0.2,18.6-0.5c4.6-0.3,9-0.5,13.2-0.5
		c0.6,0,0.9,0.6,0.9,1.8s-0.3,1.8-0.9,1.8c-7.2,0-15.5,1.7-24.9,5c-9.4,3.3-18.4,9.2-27,17.5l-76.8,75.3H704.6z M773.6,183.9
		l-47.7-60l15-12l43.8,55.8c9,11.8,16.7,21.3,23,28.5s11.5,12.8,15.8,16.7c4.2,3.9,8,6.6,11.2,8.1s6.5,2.4,9.5,2.5
		c3,0.2,6.4,0.3,10.2,0.3c0.6,0,0.9,0.6,0.9,1.8s-0.3,1.8-0.9,1.8c-9,0-16.2,0-21.6,0s-9.4,0-12,0c-4.2,0-7.4,0-9.6,0
		c-2.2,0-4-0.5-5.4-1.7c-1.4-1.1-3.2-3.1-5.4-6c-2.2-2.9-5.4-7.2-9.4-13C786.7,200.9,781,193.3,773.6,183.9z"/>
</g>
<pattern  id="SVGID_00000110451692106596861730000000489182259465249179_" xlink:href="#New_Pattern_Swatch_1" patternTransform="matrix(1 0 0 -1 -18.65 -15947.7002)">
</pattern>
<path style="fill:url(#SVGID_00000110451692106596861730000000489182259465249179_);" d="M1077.1,223.8c0.8,0,1.2,0.6,1.2,1.8
	s-0.4,1.8-1.2,1.8c-5.8,0-11.7-0.2-17.7-0.6c-6-0.4-11.8-0.6-17.4-0.6c-6.2,0-11.6,0.2-16.2,0.6c-4.6,0.4-9.7,0.6-15.3,0.6
	c-0.8,0-1.2-0.6-1.2-1.8s0.4-1.8,1.2-1.8c10.6,0,17.2-1.5,19.8-4.7c2.6-3.1,1.9-8.9-2.1-17.5L961.6,60.9l7.5-9.3l-58.2,137.7
	c-5,12.2-5.3,21-0.9,26.4c4.4,5.4,13.1,8.1,26.1,8.1c1,0,1.5,0.6,1.5,1.8s-0.5,1.8-1.5,1.8c-6,0-11.5-0.2-16.5-0.6
	c-5-0.4-11.3-0.6-18.9-0.6c-7.2,0-13,0.2-17.2,0.6c-4.3,0.4-9.6,0.6-15.8,0.6c-0.8,0-1.2-0.6-1.2-1.8s0.4-1.8,1.2-1.8
	c5.4,0,10.1-1.1,14.1-3.2c4-2.1,7.7-5.8,11.2-11.1c3.5-5.3,7.4-12.9,11.6-23l63.3-149.4c0.4-0.6,1.1-0.9,2.1-0.9
	c1,0,1.6,0.3,1.8,0.9l70.8,149.1c4.6,9.8,8.7,17.5,12.3,22.9c3.6,5.5,7.1,9.3,10.6,11.4C1069,222.8,1072.9,223.8,1077.1,223.8z
	 M931.3,128.1l4.5-6.3h61.8l2.1,6.3H931.3z"/>
<pattern  id="SVGID_00000039132021092251364860000008160872777280033438_" xlink:href="#New_Pattern_Swatch_1" patternTransform="matrix(1 0 0 -1 -18.65 -15947.7002)">
</pattern>
<path style="fill:url(#SVGID_00000039132021092251364860000008160872777280033438_);" d="M1262.2,231c0,0.4-0.5,0.6-1.5,0.8
	c-1,0.1-1.7,0-2.1-0.1l-138-167.1c-6.8-8.2-12.9-13.7-18.1-16.6c-5.3-2.9-10.4-4.4-15.2-4.4c-0.6,0-0.9-0.6-0.9-1.8s0.3-1.8,0.9-1.8
	c3.6,0,7.2,0.1,11,0.3c3.7,0.2,7,0.3,10,0.3c3.6,0,7-0.1,10.2-0.3c3.2-0.2,5.6-0.3,7.2-0.3c2.6,0,4.4,1.2,5.4,3.5
	c1,2.3,3.9,6.4,8.7,12.1l120,147.3L1262.2,231z M1111,194.7V46.8l6.9,0.6v147.3c0,10.4,1.8,17.9,5.4,22.4s9.6,6.8,18,6.8
	c0.6,0,0.9,0.6,0.9,1.8s-0.3,1.8-0.9,1.8c-4,0-8.1-0.1-12.3-0.3c-4.2-0.2-8.9-0.3-14.1-0.3c-5,0-9.8,0.1-14.4,0.3
	c-4.6,0.2-9,0.3-13.2,0.3c-0.4,0-0.6-0.6-0.6-1.8s0.2-1.8,0.6-1.8c8.8,0,14.9-2.2,18.5-6.8C1109.2,212.6,1111,205.1,1111,194.7z
	 M1262.2,72.9V231l-6.9-9.3V72.9c0-10.4-1.8-17.9-5.2-22.5c-3.5-4.6-9.4-6.9-17.5-6.9c-0.4,0-0.6-0.6-0.6-1.8s0.2-1.8,0.6-1.8
	c4,0,8.1,0.2,12.5,0.5c4.3,0.3,8.9,0.5,14,0.5c4.8,0,9.5-0.2,14.2-0.5c4.7-0.3,9-0.5,13-0.5c0.6,0,0.9,0.6,0.9,1.8s-0.3,1.8-0.9,1.8
	c-8.6,0-14.8,2.3-18.5,6.9C1264,55,1262.2,62.5,1262.2,72.9z"/>
<pattern  id="SVGID_00000127046115167279090790000010282154219199373465_" xlink:href="#New_Pattern_Swatch_1" patternTransform="matrix(1 0 0 -1 -18.65 -15947.7002)">
</pattern>
<path style="fill:url(#SVGID_00000127046115167279090790000010282154219199373465_);" d="M1388.6,231c-22.4,0-41.6-4.2-57.6-12.8
	c-16-8.5-28.2-19.9-36.6-34.3c-8.4-14.4-12.6-30.4-12.6-48c0-14.8,2.8-28.2,8.5-40.3c5.7-12.1,13.7-22.5,24-31.4
	c10.3-8.8,22.4-15.6,36.3-20.4c13.9-4.8,29-7.2,45.5-7.2c9.4,0,18.6,0.9,27.6,2.7c9,1.8,16.4,4.5,22.2,8.1c1.8,1.2,2.8,2.2,3,3
	c0.2,0.8,0.4,2.1,0.6,3.9l3.6,33.6c0,0.4-0.6,0.8-1.7,1c-1.1,0.3-1.8,0.1-1.9-0.8c-4.4-14.6-12.3-25.7-23.7-33.5
	c-11.4-7.7-25.6-11.5-42.6-11.5c-25.4,0-45,7.4-58.6,22c-13.7,14.7-20.5,34.7-20.5,59.9c0,19.8,4,37.3,12,52.4
	c8,15.1,18.9,27,32.7,35.5c13.8,8.6,29.5,12.9,47.1,12.9c9.6,0,17.3-0.9,23.1-2.7c5.8-1.8,10-5.3,12.8-10.5c2.7-5.2,4-12.9,4-23.1
	c0-9.6-0.7-16.7-1.9-21.2c-1.3-4.5-4.3-7.4-9-8.8c-4.7-1.4-12.4-2.1-23-2.1c-1.2,0-1.8-0.8-1.8-2.4c0-1.6,0.5-2.4,1.5-2.4
	c12.6,0.8,24.1,1.3,34.5,1.4c10.4,0.1,21.3-0.2,32.7-0.8c1,0,1.5,0.7,1.5,2.1c0,1.4-0.5,2.1-1.5,2.1c-4.6-0.2-7.9,0.5-10,2
	c-2.1,1.5-3.5,4.8-4,9.8c-0.6,5-0.9,12.8-0.9,23.4c0,6.6,0.2,11.5,0.6,14.7c0.4,3.2,0.8,5.5,1,7s0.5,3.1,0.5,4.6
	c0,1.2-0.2,2-0.6,2.4c-0.4,0.4-1.3,0.8-2.7,1.2c-10.2,2.4-20.9,4.4-32,6C1409.4,230.2,1398.8,231,1388.6,231z"/>
</svg>
